  0
SECTION
  2
HEADER
  9
$ANGBASE
  50
0.0
  9
$ANGDIR
  70
1
  9
$MEASUREMENT
  70
1
  0
ENDSEC
  0
SECTION
  2
TABLES
  0
TABLE
  2
LTYPE
  70
4
  0
LTYPE
  5
40F
  2
CONTINUOUS
  70
0
  3
Solid line
  72
65
  73
0
  40
0.0
  0
LTYPE
  5
410
  2
DASHDOT
 70
0
  3
Dash Dot ____ _ ____ _
 72
65
 73
4
 40
2.0
 49
1.25
 49
-0.25
 49
0.25
 49
-0.25
  0
LTYPE
  5
411
  2
DASHED
 70
0
  3
Dashed __ __ __ __ __
 72
65
 73
2
 40
0.75
 49
0.5
 49
-0.25
  0
LTYPE
  5
43B
  2
DOTTED
 70
0
  3
Dotted .  .  .  .
 72
65
 73
2
 40
0.2
 49
0.0
 49
-0.2
  0
ENDTAB
  0
TABLE
  2
STYLE
  70
4
  0
STYLE
  2
KICAD
  70
0
  40
0
  41
1
  42
1
  50
0
  71
0
  3
isocp.shx
  0
STYLE
  2
KICADB
  70
0
  40
0
  41
1
  42
1
  50
0
  71
0
  3
isocp.shx
  0
STYLE
  2
KICADI
  70
0
  40
0
  41
1
  42
1
  50
15
  71
0
  3
isocp.shx
  0
STYLE
  2
KICADBI
  70
0
  40
0
  41
1
  42
1
  50
15
  71
0
  3
isocp.shx
  0
ENDTAB
  0
TABLE
  2
LAYER
  70
1
  0
LAYER
  2
BLACK
  70
0
  62
7
  6
CONTINUOUS
  0
ENDTAB
  0
ENDSEC
  0
SECTION
  2
ENTITIES
0
LINE
8
BLACK
6
CONTINUOUS
10
308
20
-40.75
11
359.99
21
-40.75
0
LINE
8
BLACK
6
CONTINUOUS
10
308
20
-62.75
11
308
21
-40.75
0
LINE
8
BLACK
6
CONTINUOUS
10
359.99
20
-62.75
11
308
21
-62.75
0
ARC
8
BLACK
10
115.832
20
-125.175
40
0.5
50
-0
51
90
0
ARC
8
BLACK
10
81.4012
20
-125.175
40
0.5
50
90
51
180
0
ARC
8
BLACK
10
115.832
20
-138.175
40
0.5
50
-90
51
-0
0
LINE
8
BLACK
6
CONTINUOUS
10
80.9012
20
-125.175
11
80.9012
21
-138.175
0
LINE
8
BLACK
6
CONTINUOUS
10
102.832
20
-124.675
11
115.832
21
-124.675
0
LINE
8
BLACK
6
CONTINUOUS
10
116.332
20
-125.175
11
116.332
21
-138.175
0
LINE
8
BLACK
6
CONTINUOUS
10
81.4012
20
-124.675
11
94.4012
21
-124.675
0
ARC
8
BLACK
10
81.4012
20
-138.175
40
0.5
50
180
51
270
0
LINE
8
BLACK
6
CONTINUOUS
10
115.832
20
-138.675
11
113.379
21
-138.675
0
ARC
8
BLACK
10
113.379
20
-139.175
40
0.5
50
90
51
180
0
ARC
8
BLACK
10
106.379
20
-140.175
40
0.5
50
180
51
270
0
LINE
8
BLACK
6
CONTINUOUS
10
82.0032
20
-139.175
11
82.0032
21
-140.175
0
LINE
8
BLACK
6
CONTINUOUS
10
105.379
20
-138.675
11
89.0025
21
-138.675
0
LINE
8
BLACK
6
CONTINUOUS
10
112.879
20
-140.175
11
112.879
21
-139.175
0
LINE
8
BLACK
6
CONTINUOUS
10
89.0032
20
-140.175
11
89.0025
21
-138.675
0
ARC
8
BLACK
10
88.5032
20
-140.175
40
0.5
50
-90
51
-0
0
LINE
8
BLACK
6
CONTINUOUS
10
106.379
20
-140.675
11
112.379
21
-140.675
0
ARC
8
BLACK
10
81.5032
20
-139.175
40
0.5
50
-0
51
90
0
ARC
8
BLACK
10
112.379
20
-140.175
40
0.5
50
-90
51
-0
0
LINE
8
BLACK
6
CONTINUOUS
10
105.879
20
-139.175
11
105.879
21
-140.175
0
ARC
8
BLACK
10
82.5032
20
-140.175
40
0.5
50
180
51
270
0
LINE
8
BLACK
6
CONTINUOUS
10
90.9412
20
-124.675
11
103.941
21
-124.675
0
LINE
8
BLACK
6
CONTINUOUS
10
81.4012
20
-138.675
11
81.5032
21
-138.675
0
LINE
8
BLACK
6
CONTINUOUS
10
82.5032
20
-140.675
11
88.5032
21
-140.675
0
ARC
8
BLACK
10
105.379
20
-139.175
40
0.5
50
-0
51
90
0
ARC
8
BLACK
10
356.339
20
-96.6
40
0.5
50
-0
51
90
0
ARC
8
BLACK
10
321.907
20
-119.125
40
0.5
50
180
51
270
0
LINE
8
BLACK
6
CONTINUOUS
10
321.907
20
-105.625
11
334.907
21
-105.625
0
ARC
8
BLACK
10
321.907
20
-106.125
40
0.5
50
90
51
180
0
LINE
8
BLACK
6
CONTINUOUS
10
321.907
20
-119.625
11
324.39
21
-119.626
0
LINE
8
BLACK
6
CONTINUOUS
10
321.407
20
-106.125
11
321.407
21
-119.125
0
ARC
8
BLACK
10
324.39
20
-120.126
40
0.5
50
-0
51
90
0
ARC
8
BLACK
10
354.942
20
-95.6
40
0.5
50
180
51
270
0
LINE
8
BLACK
6
CONTINUOUS
10
354.442
20
-87.045
11
354.442
21
-87.165
0
LINE
8
BLACK
6
CONTINUOUS
10
354.442
20
-95.6
11
354.442
21
-95.162
0
ARC
8
BLACK
10
342.34
20
-105.125
40
0.5
50
-90
51
-0
0
LINE
8
BLACK
6
CONTINUOUS
10
324.891
20
-121.125
11
324.89
21
-120.126
0
LINE
8
BLACK
6
CONTINUOUS
10
340.44
20
-100.035
11
340.442
21
-87.045
0
LINE
8
BLACK
6
CONTINUOUS
10
355.339
20
-94.662
11
354.942
21
-94.662
0
ARC
8
BLACK
10
342.34
20
-101.035
40
0.5
50
-0
51
90
0
LINE
8
BLACK
6
CONTINUOUS
10
342.34
20
-100.535
11
340.94
21
-100.535
0
ARC
8
BLACK
10
332.391
20
-120.126
40
0.5
50
90
51
180
0
LINE
8
BLACK
6
CONTINUOUS
10
348.767
20
-120.126
11
348.767
21
-121.125
0
ARC
8
BLACK
10
356.339
20
-110.596
40
0.5
50
90
51
180
0
ARC
8
BLACK
10
354.942
20
-95.162
40
0.5
50
90
51
180
0
ARC
8
BLACK
10
354.942
20
-87.165
40
0.5
50
180
51
270
0
LINE
8
BLACK
6
CONTINUOUS
10
331.891
20
-121.125
11
331.891
21
-120.126
0
LINE
8
BLACK
6
CONTINUOUS
10
342.84
20
-105.125
11
342.84
21
-101.035
0
ARC
8
BLACK
10
340.94
20
-100.035
40
0.5
50
180
51
270
0
LINE
8
BLACK
6
CONTINUOUS
10
340.933
20
-86.545
11
353.942
21
-86.545
0
ARC
8
BLACK
10
353.942
20
-87.045
40
0.5
50
-0
51
90
0
LINE
8
BLACK
6
CONTINUOUS
10
356.839
20
-96.6
11
356.839
21
-109.596
0
ARC
8
BLACK
10
355.339
20
-94.162
40
0.5
50
-90
51
-0
0
ARC
8
BLACK
10
355.339
20
-88.162
40
0.5
50
-0
51
90
0
LINE
8
BLACK
6
CONTINUOUS
10
356.339
20
-96.1
11
354.942
21
-96.1
0
LINE
8
BLACK
6
CONTINUOUS
10
332.391
20
-119.626
11
348.267
21
-119.626
0
LINE
8
BLACK
6
CONTINUOUS
10
355.339
20
-87.662
11
354.942
21
-87.665
0
ARC
8
BLACK
10
356.339
20
-109.596
40
0.5
50
-90
51
-0
0
LINE
8
BLACK
6
CONTINUOUS
10
355.839
20
-88.162
11
355.839
21
-94.162
0
ARC
8
BLACK
10
340.942
20
-87.045
40
0.5
50
90
51
180
0
LINE
8
BLACK
6
CONTINUOUS
10
355.839
20
-110.596
11
355.839
21
-121.124
0
ARC
8
BLACK
10
331.391
20
-121.125
40
0.5
50
-90
51
-0
0
LINE
8
BLACK
6
CONTINUOUS
10
333.829
20
-105.625
11
342.34
21
-105.625
0
LINE
8
BLACK
6
CONTINUOUS
10
349.269
20
-121.625
11
355.339
21
-121.624
0
ARC
8
BLACK
10
348.267
20
-120.126
40
0.5
50
-0
51
90
0
ARC
8
BLACK
10
325.391
20
-121.125
40
0.5
50
180
51
270
0
ARC
8
BLACK
10
349.267
20
-121.125
40
0.5
50
180
51
270
0
ARC
8
BLACK
10
355.339
20
-121.124
40
0.5
50
-90
51
-0
0
LINE
8
BLACK
6
CONTINUOUS
10
325.391
20
-121.625
11
331.391
21
-121.625
0
LINE
8
BLACK
6
CONTINUOUS
10
269.525
20
-67.525
11
282.525
21
-67.525
0
LINE
8
BLACK
6
CONTINUOUS
10
269.025
20
-68.025
11
269.025
21
-81.025
0
LINE
8
BLACK
6
CONTINUOUS
10
250.475
20
-67.525
11
263.475
21
-67.525
0
LINE
8
BLACK
6
CONTINUOUS
10
244.925
20
-68.025
11
244.925
21
-81.025
0
ARC
8
BLACK
10
263.475
20
-68.025
40
0.5
50
-0
51
90
0
ARC
8
BLACK
10
231.425
20
-81.025
40
0.5
50
180
51
270
0
ARC
8
BLACK
10
250.475
20
-68.025
40
0.5
50
90
51
180
0
LINE
8
BLACK
6
CONTINUOUS
10
263.975
20
-68.025
11
263.975
21
-81.025
0
ARC
8
BLACK
10
244.425
20
-81.025
40
0.5
50
-90
51
-0
0
ARC
8
BLACK
10
250.475
20
-81.025
40
0.5
50
180
51
270
0
LINE
8
BLACK
6
CONTINUOUS
10
249.975
20
-68.025
11
249.975
21
-81.025
0
LINE
8
BLACK
6
CONTINUOUS
10
288.575
20
-67.525
11
301.575
21
-67.525
0
LINE
8
BLACK
6
CONTINUOUS
10
250.475
20
-81.525
11
263.475
21
-81.525
0
ARC
8
BLACK
10
282.525
20
-81.025
40
0.5
50
-90
51
-0
0
ARC
8
BLACK
10
269.525
20
-81.025
40
0.5
50
180
51
270
0
ARC
8
BLACK
10
263.475
20
-81.025
40
0.5
50
-90
51
-0
0
ARC
8
BLACK
10
244.425
20
-68.025
40
0.5
50
-0
51
90
0
LINE
8
BLACK
6
CONTINUOUS
10
269.525
20
-81.525
11
282.525
21
-81.525
0
ARC
8
BLACK
10
231.425
20
-68.025
40
0.5
50
90
51
180
0
LINE
8
BLACK
6
CONTINUOUS
10
230.925
20
-68.025
11
230.925
21
-81.025
0
ARC
8
BLACK
10
282.525
20
-68.025
40
0.5
50
-0
51
90
0
ARC
8
BLACK
10
269.525
20
-68.025
40
0.5
50
90
51
180
0
LINE
8
BLACK
6
CONTINUOUS
10
283.025
20
-68.025
11
283.025
21
-81.025
0
LINE
8
BLACK
6
CONTINUOUS
10
192.825
20
-68.025
11
192.825
21
-81.025
0
ARC
8
BLACK
10
206.325
20
-81.025
40
0.5
50
-90
51
-0
0
ARC
8
BLACK
10
193.325
20
-81.025
40
0.5
50
180
51
270
0
ARC
8
BLACK
10
206.325
20
-68.025
40
0.5
50
-0
51
90
0
ARC
8
BLACK
10
187.275
20
-68.025
40
0.5
50
-0
51
90
0
ARC
8
BLACK
10
193.325
20
-68.025
40
0.5
50
90
51
180
0
LINE
8
BLACK
6
CONTINUOUS
10
206.825
20
-68.025
11
206.825
21
-81.025
0
ARC
8
BLACK
10
174.275
20
-68.025
40
0.5
50
90
51
180
0
LINE
8
BLACK
6
CONTINUOUS
10
193.325
20
-81.525
11
206.325
21
-81.525
0
LINE
8
BLACK
6
CONTINUOUS
10
193.325
20
-67.525
11
206.325
21
-67.525
0
ARC
8
BLACK
10
187.275
20
-81.025
40
0.5
50
-90
51
-0
0
LINE
8
BLACK
6
CONTINUOUS
10
187.775
20
-68.025
11
187.775
21
-81.025
0
LINE
8
BLACK
6
CONTINUOUS
10
231.425
20
-81.525
11
244.425
21
-81.525
0
LINE
8
BLACK
6
CONTINUOUS
10
231.425
20
-67.525
11
244.425
21
-67.525
0
ARC
8
BLACK
10
212.375
20
-81.025
40
0.5
50
180
51
270
0
LINE
8
BLACK
6
CONTINUOUS
10
212.375
20
-81.525
11
225.375
21
-81.525
0
ARC
8
BLACK
10
225.375
20
-81.025
40
0.5
50
-90
51
-0
0
ARC
8
BLACK
10
225.375
20
-68.025
40
0.5
50
-0
51
90
0
ARC
8
BLACK
10
212.375
20
-68.025
40
0.5
50
90
51
180
0
LINE
8
BLACK
6
CONTINUOUS
10
211.875
20
-68.025
11
211.875
21
-81.025
0
LINE
8
BLACK
6
CONTINUOUS
10
225.875
20
-68.025
11
225.875
21
-81.025
0
ARC
8
BLACK
10
174.275
20
-81.025
40
0.5
50
180
51
270
0
LINE
8
BLACK
6
CONTINUOUS
10
212.375
20
-67.525
11
225.375
21
-67.525
0
ARC
8
BLACK
10
117.125
20
-81.025
40
0.5
50
180
51
270
0
LINE
8
BLACK
6
CONTINUOUS
10
173.775
20
-68.025
11
173.775
21
-81.025
0
ARC
8
BLACK
10
155.225
20
-81.025
40
0.5
50
180
51
270
0
ARC
8
BLACK
10
155.225
20
-68.025
40
0.5
50
90
51
180
0
LINE
8
BLACK
6
CONTINUOUS
10
174.275
20
-81.525
11
187.275
21
-81.525
0
LINE
8
BLACK
6
CONTINUOUS
10
174.275
20
-67.525
11
187.275
21
-67.525
0
ARC
8
BLACK
10
136.175
20
-68.025
40
0.5
50
90
51
180
0
ARC
8
BLACK
10
117.125
20
-68.025
40
0.5
50
90
51
180
0
ARC
8
BLACK
10
130.125
20
-68.025
40
0.5
50
-0
51
90
0
ARC
8
BLACK
10
168.225
20
-81.025
40
0.5
50
-90
51
-0
0
LINE
8
BLACK
6
CONTINUOUS
10
154.725
20
-68.025
11
154.725
21
-81.025
0
ARC
8
BLACK
10
149.175
20
-81.025
40
0.5
50
-90
51
-0
0
LINE
8
BLACK
6
CONTINUOUS
10
149.675
20
-68.025
11
149.675
21
-81.025
0
LINE
8
BLACK
6
CONTINUOUS
10
155.225
20
-81.525
11
168.225
21
-81.525
0
ARC
8
BLACK
10
136.175
20
-81.025
40
0.5
50
180
51
270
0
ARC
8
BLACK
10
168.225
20
-68.025
40
0.5
50
-0
51
90
0
LINE
8
BLACK
6
CONTINUOUS
10
155.225
20
-67.525
11
168.225
21
-67.525
0
ARC
8
BLACK
10
130.125
20
-81.025
40
0.5
50
-90
51
-0
0
LINE
8
BLACK
6
CONTINUOUS
10
136.175
20
-81.525
11
149.175
21
-81.525
0
LINE
8
BLACK
6
CONTINUOUS
10
168.725
20
-68.025
11
168.725
21
-81.025
0
ARC
8
BLACK
10
149.175
20
-68.025
40
0.5
50
-0
51
90
0
LINE
8
BLACK
6
CONTINUOUS
10
135.675
20
-68.025
11
135.675
21
-81.025
0
LINE
8
BLACK
6
CONTINUOUS
10
136.175
20
-67.525
11
149.175
21
-67.525
0
ARC
8
BLACK
10
188.562
20
-106.125
40
0.5
50
90
51
180
0
ARC
8
BLACK
10
201.562
20
-119.125
40
0.5
50
-90
51
-0
0
ARC
8
BLACK
10
188.562
20
-119.125
40
0.5
50
180
51
270
0
ARC
8
BLACK
10
201.562
20
-106.125
40
0.5
50
-0
51
90
0
LINE
8
BLACK
6
CONTINUOUS
10
188.062
20
-106.125
11
188.062
21
-119.125
0
LINE
8
BLACK
6
CONTINUOUS
10
188.562
20
-119.625
11
201.562
21
-119.625
0
LINE
8
BLACK
6
CONTINUOUS
10
226.662
20
-105.625
11
239.662
21
-105.625
0
ARC
8
BLACK
10
220.612
20
-119.125
40
0.5
50
-90
51
-0
0
LINE
8
BLACK
6
CONTINUOUS
10
207.612
20
-105.625
11
220.612
21
-105.625
0
ARC
8
BLACK
10
220.612
20
-106.125
40
0.5
50
-0
51
90
0
LINE
8
BLACK
6
CONTINUOUS
10
226.162
20
-106.125
11
226.162
21
-119.125
0
LINE
8
BLACK
6
CONTINUOUS
10
188.562
20
-105.625
11
201.562
21
-105.625
0
ARC
8
BLACK
10
239.662
20
-106.125
40
0.5
50
-0
51
90
0
ARC
8
BLACK
10
207.612
20
-106.125
40
0.5
50
90
51
180
0
LINE
8
BLACK
6
CONTINUOUS
10
202.062
20
-106.125
11
202.062
21
-119.125
0
LINE
8
BLACK
6
CONTINUOUS
10
226.662
20
-119.625
11
239.662
21
-119.625
0
ARC
8
BLACK
10
207.612
20
-119.125
40
0.5
50
180
51
270
0
ARC
8
BLACK
10
226.662
20
-119.125
40
0.5
50
180
51
270
0
ARC
8
BLACK
10
226.662
20
-106.125
40
0.5
50
90
51
180
0
LINE
8
BLACK
6
CONTINUOUS
10
240.162
20
-106.125
11
240.162
21
-119.125
0
LINE
8
BLACK
6
CONTINUOUS
10
207.112
20
-106.125
11
207.112
21
-119.125
0
LINE
8
BLACK
6
CONTINUOUS
10
221.112
20
-106.125
11
221.112
21
-119.125
0
LINE
8
BLACK
6
CONTINUOUS
10
207.612
20
-119.625
11
220.612
21
-119.625
0
ARC
8
BLACK
10
83.7875
20
-87.075
40
0.5
50
90
51
180
0
LINE
8
BLACK
6
CONTINUOUS
10
97.2875
20
-87.075
11
97.2875
21
-100.075
0
LINE
8
BLACK
6
CONTINUOUS
10
327.262
20
-69.025
11
327.262
21
-83.025
0
ARC
8
BLACK
10
351.638
20
-83.025
40
0.5
50
180
51
270
0
ARC
8
BLACK
10
327.762
20
-69.025
40
0.5
50
90
51
180
0
ARC
8
BLACK
10
351.638
20
-69.025
40
0.5
50
90
51
180
0
ARC
8
BLACK
10
357.638
20
-83.025
40
0.5
50
-90
51
-0
0
LINE
8
BLACK
6
CONTINUOUS
10
358.138
20
-69.025
11
358.138
21
-83.025
0
LINE
8
BLACK
6
CONTINUOUS
10
83.2875
20
-87.075
11
83.2875
21
-100.075
0
ARC
8
BLACK
10
333.762
20
-69.025
40
0.5
50
-0
51
90
0
LINE
8
BLACK
6
CONTINUOUS
10
334.262
20
-69.025
11
334.262
21
-83.025
0
ARC
8
BLACK
10
327.762
20
-83.025
40
0.5
50
180
51
270
0
LINE
8
BLACK
6
CONTINUOUS
10
351.138
20
-69.025
11
351.138
21
-83.025
0
LINE
8
BLACK
6
CONTINUOUS
10
83.7875
20
-86.575
11
96.7875
21
-86.575
0
LINE
8
BLACK
6
CONTINUOUS
10
351.638
20
-68.525
11
357.638
21
-68.525
0
LINE
8
BLACK
6
CONTINUOUS
10
351.638
20
-83.525
11
357.638
21
-83.525
0
LINE
8
BLACK
6
CONTINUOUS
10
327.762
20
-68.525
11
333.762
21
-68.525
0
ARC
8
BLACK
10
333.762
20
-83.025
40
0.5
50
-90
51
-0
0
LINE
8
BLACK
6
CONTINUOUS
10
83.7875
20
-100.575
11
96.7875
21
-100.575
0
LINE
8
BLACK
6
CONTINUOUS
10
327.762
20
-83.525
11
333.762
21
-83.525
0
ARC
8
BLACK
10
357.638
20
-69.025
40
0.5
50
-0
51
90
0
ARC
8
BLACK
10
83.7875
20
-100.075
40
0.5
50
180
51
270
0
ARC
8
BLACK
10
96.7875
20
-87.075
40
0.5
50
-0
51
90
0
ARC
8
BLACK
10
311.1
20
-100.075
40
0.5
50
-90
51
-0
0
LINE
8
BLACK
6
CONTINUOUS
10
279.05
20
-100.575
11
292.05
21
-100.575
0
ARC
8
BLACK
10
273
20
-100.075
40
0.5
50
-90
51
-0
0
ARC
8
BLACK
10
317.15
20
-87.075
40
0.5
50
90
51
180
0
LINE
8
BLACK
6
CONTINUOUS
10
311.6
20
-87.075
11
311.6
21
-100.075
0
LINE
8
BLACK
6
CONTINUOUS
10
292.55
20
-87.075
11
292.55
21
-100.075
0
ARC
8
BLACK
10
298.1
20
-100.075
40
0.5
50
180
51
270
0
ARC
8
BLACK
10
330.15
20
-87.075
40
0.5
50
-0
51
90
0
ARC
8
BLACK
10
317.15
20
-100.075
40
0.5
50
180
51
270
0
ARC
8
BLACK
10
311.1
20
-87.075
40
0.5
50
-0
51
90
0
LINE
8
BLACK
6
CONTINUOUS
10
298.1
20
-86.575
11
311.1
21
-86.575
0
ARC
8
BLACK
10
260
20
-100.075
40
0.5
50
180
51
270
0
LINE
8
BLACK
6
CONTINUOUS
10
316.65
20
-87.075
11
316.65
21
-100.075
0
ARC
8
BLACK
10
273
20
-87.075
40
0.5
50
-0
51
90
0
LINE
8
BLACK
6
CONTINUOUS
10
278.55
20
-87.075
11
278.55
21
-100.075
0
ARC
8
BLACK
10
292.05
20
-100.075
40
0.5
50
-90
51
-0
0
LINE
8
BLACK
6
CONTINUOUS
10
298.1
20
-100.575
11
311.1
21
-100.575
0
ARC
8
BLACK
10
279.05
20
-87.075
40
0.5
50
90
51
180
0
LINE
8
BLACK
6
CONTINUOUS
10
279.05
20
-86.575
11
292.05
21
-86.575
0
LINE
8
BLACK
6
CONTINUOUS
10
317.15
20
-86.575
11
330.15
21
-86.575
0
ARC
8
BLACK
10
260
20
-87.075
40
0.5
50
90
51
180
0
ARC
8
BLACK
10
298.1
20
-87.075
40
0.5
50
90
51
180
0
ARC
8
BLACK
10
279.05
20
-100.075
40
0.5
50
180
51
270
0
ARC
8
BLACK
10
292.05
20
-87.075
40
0.5
50
-0
51
90
0
LINE
8
BLACK
6
CONTINUOUS
10
330.65
20
-87.075
11
330.65
21
-100.075
0
ARC
8
BLACK
10
330.15
20
-100.075
40
0.5
50
-90
51
-0
0
LINE
8
BLACK
6
CONTINUOUS
10
317.15
20
-100.575
11
330.15
21
-100.575
0
LINE
8
BLACK
6
CONTINUOUS
10
297.6
20
-87.075
11
297.6
21
-100.075
0
ARC
8
BLACK
10
249.188
20
-138.175
40
0.5
50
-90
51
-0
0
ARC
8
BLACK
10
230.137
20
-138.175
40
0.5
50
-90
51
-0
0
ARC
8
BLACK
10
211.087
20
-138.175
40
0.5
50
-90
51
-0
0
LINE
8
BLACK
6
CONTINUOUS
10
198.087
20
-138.675
11
211.087
21
-138.675
0
LINE
8
BLACK
6
CONTINUOUS
10
249.688
20
-125.175
11
249.688
21
-138.175
0
ARC
8
BLACK
10
249.188
20
-125.175
40
0.5
50
-0
51
90
0
ARC
8
BLACK
10
211.087
20
-125.175
40
0.5
50
-0
51
90
0
ARC
8
BLACK
10
230.137
20
-125.175
40
0.5
50
-0
51
90
0
LINE
8
BLACK
6
CONTINUOUS
10
236.188
20
-124.675
11
249.188
21
-124.675
0
ARC
8
BLACK
10
217.137
20
-125.175
40
0.5
50
90
51
180
0
ARC
8
BLACK
10
198.087
20
-138.175
40
0.5
50
180
51
270
0
ARC
8
BLACK
10
236.188
20
-138.175
40
0.5
50
180
51
270
0
ARC
8
BLACK
10
236.188
20
-125.175
40
0.5
50
90
51
180
0
LINE
8
BLACK
6
CONTINUOUS
10
198.087
20
-124.675
11
211.087
21
-124.675
0
LINE
8
BLACK
6
CONTINUOUS
10
236.188
20
-138.675
11
249.188
21
-138.675
0
LINE
8
BLACK
6
CONTINUOUS
10
230.637
20
-125.175
11
230.637
21
-138.175
0
LINE
8
BLACK
6
CONTINUOUS
10
217.137
20
-138.675
11
230.137
21
-138.675
0
ARC
8
BLACK
10
192.037
20
-138.175
40
0.5
50
-90
51
-0
0
LINE
8
BLACK
6
CONTINUOUS
10
216.637
20
-125.175
11
216.637
21
-138.175
0
LINE
8
BLACK
6
CONTINUOUS
10
217.137
20
-124.675
11
230.137
21
-124.675
0
ARC
8
BLACK
10
198.087
20
-125.175
40
0.5
50
90
51
180
0
LINE
8
BLACK
6
CONTINUOUS
10
211.587
20
-125.175
11
211.587
21
-138.175
0
ARC
8
BLACK
10
179.037
20
-138.175
40
0.5
50
180
51
270
0
LINE
8
BLACK
6
CONTINUOUS
10
235.688
20
-125.175
11
235.688
21
-138.175
0
ARC
8
BLACK
10
217.137
20
-138.175
40
0.5
50
180
51
270
0
LINE
8
BLACK
6
CONTINUOUS
10
197.587
20
-125.175
11
197.587
21
-138.175
0
LINE
8
BLACK
6
CONTINUOUS
10
255.237
20
-138.675
11
268.238
21
-138.675
0
LINE
8
BLACK
6
CONTINUOUS
10
255.237
20
-124.675
11
268.238
21
-124.675
0
ARC
8
BLACK
10
302.863
20
-106.125
40
0.5
50
90
51
180
0
LINE
8
BLACK
6
CONTINUOUS
10
159.987
20
-124.675
11
172.987
21
-124.675
0
ARC
8
BLACK
10
153.938
20
-138.175
40
0.5
50
-90
51
-0
0
ARC
8
BLACK
10
134.887
20
-138.175
40
0.5
50
-90
51
-0
0
ARC
8
BLACK
10
134.887
20
-125.175
40
0.5
50
-0
51
90
0
LINE
8
BLACK
6
CONTINUOUS
10
302.863
20
-119.625
11
315.863
21
-119.625
0
ARC
8
BLACK
10
140.938
20
-138.175
40
0.5
50
180
51
270
0
ARC
8
BLACK
10
302.863
20
-119.125
40
0.5
50
180
51
270
0
ARC
8
BLACK
10
153.938
20
-125.175
40
0.5
50
-0
51
90
0
ARC
8
BLACK
10
140.938
20
-125.175
40
0.5
50
90
51
180
0
LINE
8
BLACK
6
CONTINUOUS
10
154.438
20
-125.175
11
154.438
21
-138.175
0
LINE
8
BLACK
6
CONTINUOUS
10
135.387
20
-125.175
11
135.387
21
-138.175
0
LINE
8
BLACK
6
CONTINUOUS
10
121.387
20
-125.175
11
121.387
21
-138.175
0
LINE
8
BLACK
6
CONTINUOUS
10
121.887
20
-138.675
11
134.887
21
-138.675
0
LINE
8
BLACK
6
CONTINUOUS
10
140.938
20
-124.675
11
153.938
21
-124.675
0
LINE
8
BLACK
6
CONTINUOUS
10
140.438
20
-125.175
11
140.438
21
-138.175
0
ARC
8
BLACK
10
121.887
20
-138.175
40
0.5
50
180
51
270
0
LINE
8
BLACK
6
CONTINUOUS
10
140.938
20
-138.675
11
153.938
21
-138.675
0
ARC
8
BLACK
10
121.887
20
-125.175
40
0.5
50
90
51
180
0
LINE
8
BLACK
6
CONTINUOUS
10
121.887
20
-124.675
11
134.887
21
-124.675
0
ARC
8
BLACK
10
315.863
20
-106.125
40
0.5
50
-0
51
90
0
LINE
8
BLACK
6
CONTINUOUS
10
302.863
20
-105.625
11
315.863
21
-105.625
0
ARC
8
BLACK
10
296.812
20
-119.125
40
0.5
50
-90
51
-0
0
LINE
8
BLACK
6
CONTINUOUS
10
316.363
20
-106.125
11
316.363
21
-119.125
0
ARC
8
BLACK
10
283.812
20
-119.125
40
0.5
50
180
51
270
0
ARC
8
BLACK
10
192.037
20
-125.175
40
0.5
50
-0
51
90
0
ARC
8
BLACK
10
179.037
20
-125.175
40
0.5
50
90
51
180
0
LINE
8
BLACK
6
CONTINUOUS
10
192.537
20
-125.175
11
192.537
21
-138.175
0
LINE
8
BLACK
6
CONTINUOUS
10
178.537
20
-125.175
11
178.537
21
-138.175
0
LINE
8
BLACK
6
CONTINUOUS
10
179.037
20
-138.675
11
192.037
21
-138.675
0
LINE
8
BLACK
6
CONTINUOUS
10
179.037
20
-124.675
11
192.037
21
-124.675
0
LINE
8
BLACK
6
CONTINUOUS
10
302.363
20
-106.125
11
302.363
21
-119.125
0
ARC
8
BLACK
10
315.863
20
-119.125
40
0.5
50
-90
51
-0
0
ARC
8
BLACK
10
172.987
20
-138.175
40
0.5
50
-90
51
-0
0
ARC
8
BLACK
10
159.987
20
-138.175
40
0.5
50
180
51
270
0
ARC
8
BLACK
10
172.987
20
-125.175
40
0.5
50
-0
51
90
0
ARC
8
BLACK
10
159.987
20
-125.175
40
0.5
50
90
51
180
0
LINE
8
BLACK
6
CONTINUOUS
10
173.487
20
-125.175
11
173.487
21
-138.175
0
LINE
8
BLACK
6
CONTINUOUS
10
159.487
20
-125.175
11
159.487
21
-138.175
0
LINE
8
BLACK
6
CONTINUOUS
10
159.987
20
-138.675
11
172.987
21
-138.675
0
ARC
8
BLACK
10
112.362
20
-106.125
40
0.5
50
90
51
180
0
ARC
8
BLACK
10
163.463
20
-119.125
40
0.5
50
-90
51
-0
0
ARC
8
BLACK
10
144.412
20
-106.125
40
0.5
50
-0
51
90
0
ARC
8
BLACK
10
131.412
20
-106.125
40
0.5
50
90
51
180
0
LINE
8
BLACK
6
CONTINUOUS
10
163.963
20
-106.125
11
163.963
21
-119.125
0
LINE
8
BLACK
6
CONTINUOUS
10
112.362
20
-119.625
11
125.362
21
-119.625
0
ARC
8
BLACK
10
99.1687
20
-119.125
40
0.5
50
-90
51
-0
0
ARC
8
BLACK
10
99.1687
20
-106.125
40
0.5
50
-0
51
90
0
ARC
8
BLACK
10
150.463
20
-106.125
40
0.5
50
90
51
180
0
LINE
8
BLACK
6
CONTINUOUS
10
149.963
20
-106.125
11
149.963
21
-119.125
0
LINE
8
BLACK
6
CONTINUOUS
10
130.912
20
-106.125
11
130.912
21
-119.125
0
ARC
8
BLACK
10
86.1688
20
-106.125
40
0.5
50
90
51
180
0
LINE
8
BLACK
6
CONTINUOUS
10
150.463
20
-105.625
11
163.463
21
-105.625
0
ARC
8
BLACK
10
131.412
20
-119.125
40
0.5
50
180
51
270
0
LINE
8
BLACK
6
CONTINUOUS
10
131.412
20
-119.625
11
144.412
21
-119.625
0
ARC
8
BLACK
10
86.1688
20
-119.125
40
0.5
50
180
51
270
0
LINE
8
BLACK
6
CONTINUOUS
10
85.6688
20
-106.125
11
85.6688
21
-119.125
0
LINE
8
BLACK
6
CONTINUOUS
10
112.362
20
-105.625
11
125.362
21
-105.625
0
LINE
8
BLACK
6
CONTINUOUS
10
86.1688
20
-119.625
11
99.1687
21
-119.625
0
LINE
8
BLACK
6
CONTINUOUS
10
86.1688
20
-105.625
11
99.1687
21
-105.625
0
ARC
8
BLACK
10
112.362
20
-119.125
40
0.5
50
180
51
270
0
ARC
8
BLACK
10
163.463
20
-106.125
40
0.5
50
-0
51
90
0
LINE
8
BLACK
6
CONTINUOUS
10
144.912
20
-106.125
11
144.912
21
-119.125
0
ARC
8
BLACK
10
182.512
20
-119.125
40
0.5
50
-90
51
-0
0
LINE
8
BLACK
6
CONTINUOUS
10
169.012
20
-106.125
11
169.012
21
-119.125
0
ARC
8
BLACK
10
169.512
20
-119.125
40
0.5
50
180
51
270
0
ARC
8
BLACK
10
182.512
20
-106.125
40
0.5
50
-0
51
90
0
ARC
8
BLACK
10
144.412
20
-119.125
40
0.5
50
-90
51
-0
0
LINE
8
BLACK
6
CONTINUOUS
10
111.862
20
-106.125
11
111.862
21
-119.125
0
ARC
8
BLACK
10
150.463
20
-119.125
40
0.5
50
180
51
270
0
LINE
8
BLACK
6
CONTINUOUS
10
169.512
20
-105.625
11
182.512
21
-105.625
0
LINE
8
BLACK
6
CONTINUOUS
10
150.463
20
-119.625
11
163.463
21
-119.625
0
ARC
8
BLACK
10
125.362
20
-119.125
40
0.5
50
-90
51
-0
0
ARC
8
BLACK
10
169.512
20
-106.125
40
0.5
50
90
51
180
0
LINE
8
BLACK
6
CONTINUOUS
10
131.412
20
-105.625
11
144.412
21
-105.625
0
LINE
8
BLACK
6
CONTINUOUS
10
183.012
20
-106.125
11
183.012
21
-119.125
0
LINE
8
BLACK
6
CONTINUOUS
10
169.512
20
-119.625
11
182.512
21
-119.625
0
LINE
8
BLACK
6
CONTINUOUS
10
125.862
20
-106.125
11
125.862
21
-119.125
0
ARC
8
BLACK
10
125.362
20
-106.125
40
0.5
50
-0
51
90
0
LINE
8
BLACK
6
CONTINUOUS
10
99.6687
20
-106.125
11
99.6687
21
-119.125
0
ARC
8
BLACK
10
349.2
20
-68.025
40
0.5
50
-0
51
90
0
LINE
8
BLACK
6
CONTINUOUS
10
336.2
20
-81.525
11
349.2
21
-81.525
0
LINE
8
BLACK
6
CONTINUOUS
10
321.125
20
-68.025
11
321.125
21
-81.025
0
ARC
8
BLACK
10
336.2
20
-68.025
40
0.5
50
90
51
180
0
LINE
8
BLACK
6
CONTINUOUS
10
307.625
20
-67.525
11
320.625
21
-67.525
0
ARC
8
BLACK
10
301.575
20
-68.025
40
0.5
50
-0
51
90
0
ARC
8
BLACK
10
301.575
20
-81.025
40
0.5
50
-90
51
-0
0
LINE
8
BLACK
6
CONTINUOUS
10
302.075
20
-68.025
11
302.075
21
-81.025
0
ARC
8
BLACK
10
320.625
20
-68.025
40
0.5
50
-0
51
90
0
ARC
8
BLACK
10
288.575
20
-81.025
40
0.5
50
180
51
270
0
LINE
8
BLACK
6
CONTINUOUS
10
307.625
20
-81.525
11
320.625
21
-81.525
0
LINE
8
BLACK
6
CONTINUOUS
10
336.2
20
-67.525
11
349.2
21
-67.525
0
ARC
8
BLACK
10
307.625
20
-68.025
40
0.5
50
90
51
180
0
ARC
8
BLACK
10
320.625
20
-81.025
40
0.5
50
-90
51
-0
0
ARC
8
BLACK
10
307.625
20
-81.025
40
0.5
50
180
51
270
0
LINE
8
BLACK
6
CONTINUOUS
10
307.125
20
-68.025
11
307.125
21
-81.025
0
LINE
8
BLACK
6
CONTINUOUS
10
288.575
20
-81.525
11
301.575
21
-81.525
0
LINE
8
BLACK
6
CONTINUOUS
10
288.075
20
-68.025
11
288.075
21
-81.025
0
ARC
8
BLACK
10
349.2
20
-81.025
40
0.5
50
-90
51
-0
0
ARC
8
BLACK
10
336.2
20
-81.025
40
0.5
50
180
51
270
0
LINE
8
BLACK
6
CONTINUOUS
10
335.7
20
-68.025
11
335.7
21
-81.025
0
LINE
8
BLACK
6
CONTINUOUS
10
349.7
20
-68.025
11
349.7
21
-81.025
0
ARC
8
BLACK
10
288.575
20
-68.025
40
0.5
50
90
51
180
0
ARC
8
BLACK
10
332.531
20
-144.225
40
0.5
50
-0
51
90
0
ARC
8
BLACK
10
319.531
20
-144.225
40
0.5
50
90
51
180
0
LINE
8
BLACK
6
CONTINUOUS
10
333.031
20
-144.225
11
333.031
21
-157.225
0
LINE
8
BLACK
6
CONTINUOUS
10
319.531
20
-143.725
11
332.531
21
-143.725
0
ARC
8
BLACK
10
295.719
20
-144.225
40
0.5
50
90
51
180
0
LINE
8
BLACK
6
CONTINUOUS
10
295.719
20
-157.725
11
308.719
21
-157.725
0
ARC
8
BLACK
10
284.906
20
-144.225
40
0.5
50
-0
51
90
0
ARC
8
BLACK
10
153.969
20
-156.585
40
0.5
50
180
51
270
0
LINE
8
BLACK
6
CONTINUOUS
10
285.406
20
-144.225
11
285.406
21
-157.225
0
LINE
8
BLACK
6
CONTINUOUS
10
271.906
20
-157.725
11
284.906
21
-157.725
0
ARC
8
BLACK
10
295.719
20
-157.225
40
0.5
50
180
51
270
0
ARC
8
BLACK
10
271.906
20
-144.225
40
0.5
50
90
51
180
0
ARC
8
BLACK
10
159.969
20
-156.585
40
0.5
50
-90
51
-0
0
LINE
8
BLACK
6
CONTINUOUS
10
319.031
20
-144.225
11
319.031
21
-157.225
0
LINE
8
BLACK
6
CONTINUOUS
10
319.531
20
-157.725
11
332.531
21
-157.725
0
ARC
8
BLACK
10
308.719
20
-157.225
40
0.5
50
-90
51
-0
0
LINE
8
BLACK
6
CONTINUOUS
10
309.219
20
-144.225
11
309.219
21
-157.225
0
LINE
8
BLACK
6
CONTINUOUS
10
271.906
20
-143.725
11
284.906
21
-143.725
0
ARC
8
BLACK
10
284.906
20
-157.225
40
0.5
50
-90
51
-0
0
LINE
8
BLACK
6
CONTINUOUS
10
271.406
20
-144.225
11
271.406
21
-157.225
0
LINE
8
BLACK
6
CONTINUOUS
10
343.344
20
-157.725
11
356.344
21
-157.725
0
LINE
8
BLACK
6
CONTINUOUS
10
295.719
20
-143.725
11
308.719
21
-143.725
0
ARC
8
BLACK
10
332.531
20
-157.225
40
0.5
50
-90
51
-0
0
ARC
8
BLACK
10
271.906
20
-157.225
40
0.5
50
180
51
270
0
LINE
8
BLACK
6
CONTINUOUS
10
343.344
20
-143.725
11
356.344
21
-143.725
0
ARC
8
BLACK
10
308.719
20
-144.225
40
0.5
50
-0
51
90
0
LINE
8
BLACK
6
CONTINUOUS
10
295.219
20
-144.225
11
295.219
21
-157.225
0
ARC
8
BLACK
10
319.531
20
-157.225
40
0.5
50
180
51
270
0
LINE
8
BLACK
6
CONTINUOUS
10
356.844
20
-144.225
11
356.844
21
-157.225
0
ARC
8
BLACK
10
356.344
20
-157.225
40
0.5
50
-90
51
-0
0
ARC
8
BLACK
10
356.344
20
-144.225
40
0.5
50
-0
51
90
0
ARC
8
BLACK
10
343.344
20
-144.225
40
0.5
50
90
51
180
0
ARC
8
BLACK
10
343.344
20
-157.225
40
0.5
50
180
51
270
0
LINE
8
BLACK
6
CONTINUOUS
10
342.844
20
-144.225
11
342.844
21
-157.225
0
ARC
8
BLACK
10
126.65
20
-100.075
40
0.5
50
180
51
270
0
LINE
8
BLACK
6
CONTINUOUS
10
126.15
20
-87.075
11
126.15
21
-100.075
0
ARC
8
BLACK
10
126.65
20
-87.075
40
0.5
50
90
51
180
0
LINE
8
BLACK
6
CONTINUOUS
10
107.1
20
-87.075
11
107.1
21
-100.075
0
LINE
8
BLACK
6
CONTINUOUS
10
126.65
20
-100.575
11
139.65
21
-100.575
0
LINE
8
BLACK
6
CONTINUOUS
10
126.65
20
-86.575
11
139.65
21
-86.575
0
ARC
8
BLACK
10
120.6
20
-87.075
40
0.5
50
-0
51
90
0
ARC
8
BLACK
10
120.6
20
-100.075
40
0.5
50
-90
51
-0
0
ARC
8
BLACK
10
107.6
20
-100.075
40
0.5
50
180
51
270
0
ARC
8
BLACK
10
96.7875
20
-100.075
40
0.5
50
-90
51
-0
0
LINE
8
BLACK
6
CONTINUOUS
10
121.1
20
-87.075
11
121.1
21
-100.075
0
LINE
8
BLACK
6
CONTINUOUS
10
107.6
20
-100.575
11
120.6
21
-100.575
0
LINE
8
BLACK
6
CONTINUOUS
10
107.6
20
-86.575
11
120.6
21
-86.575
0
LINE
8
BLACK
6
CONTINUOUS
10
159.2
20
-87.075
11
159.2
21
-100.075
0
LINE
8
BLACK
6
CONTINUOUS
10
140.15
20
-87.075
11
140.15
21
-100.075
0
ARC
8
BLACK
10
139.65
20
-87.075
40
0.5
50
-0
51
90
0
LINE
8
BLACK
6
CONTINUOUS
10
145.7
20
-100.575
11
158.7
21
-100.575
0
ARC
8
BLACK
10
158.7
20
-87.075
40
0.5
50
-0
51
90
0
ARC
8
BLACK
10
145.7
20
-87.075
40
0.5
50
90
51
180
0
LINE
8
BLACK
6
CONTINUOUS
10
145.2
20
-87.075
11
145.2
21
-100.075
0
LINE
8
BLACK
6
CONTINUOUS
10
145.7
20
-86.575
11
158.7
21
-86.575
0
ARC
8
BLACK
10
107.6
20
-87.075
40
0.5
50
90
51
180
0
ARC
8
BLACK
10
139.65
20
-100.075
40
0.5
50
-90
51
-0
0
ARC
8
BLACK
10
258.712
20
-119.125
40
0.5
50
-90
51
-0
0
ARC
8
BLACK
10
296.812
20
-106.125
40
0.5
50
-0
51
90
0
LINE
8
BLACK
6
CONTINUOUS
10
283.812
20
-119.625
11
296.812
21
-119.625
0
LINE
8
BLACK
6
CONTINUOUS
10
259.212
20
-106.125
11
259.212
21
-119.125
0
LINE
8
BLACK
6
CONTINUOUS
10
245.212
20
-106.125
11
245.212
21
-119.125
0
ARC
8
BLACK
10
239.662
20
-119.125
40
0.5
50
-90
51
-0
0
LINE
8
BLACK
6
CONTINUOUS
10
283.812
20
-105.625
11
296.812
21
-105.625
0
ARC
8
BLACK
10
283.812
20
-106.125
40
0.5
50
90
51
180
0
LINE
8
BLACK
6
CONTINUOUS
10
297.312
20
-106.125
11
297.312
21
-119.125
0
LINE
8
BLACK
6
CONTINUOUS
10
283.312
20
-106.125
11
283.312
21
-119.125
0
ARC
8
BLACK
10
245.712
20
-106.125
40
0.5
50
90
51
180
0
ARC
8
BLACK
10
277.762
20
-119.125
40
0.5
50
-90
51
-0
0
ARC
8
BLACK
10
264.762
20
-119.125
40
0.5
50
180
51
270
0
ARC
8
BLACK
10
264.762
20
-106.125
40
0.5
50
90
51
180
0
ARC
8
BLACK
10
245.712
20
-119.125
40
0.5
50
180
51
270
0
LINE
8
BLACK
6
CONTINUOUS
10
245.712
20
-105.625
11
258.712
21
-105.625
0
LINE
8
BLACK
6
CONTINUOUS
10
278.262
20
-106.125
11
278.262
21
-119.125
0
ARC
8
BLACK
10
277.762
20
-106.125
40
0.5
50
-0
51
90
0
LINE
8
BLACK
6
CONTINUOUS
10
264.262
20
-106.125
11
264.262
21
-119.125
0
LINE
8
BLACK
6
CONTINUOUS
10
264.762
20
-105.625
11
277.762
21
-105.625
0
ARC
8
BLACK
10
258.712
20
-106.125
40
0.5
50
-0
51
90
0
LINE
8
BLACK
6
CONTINUOUS
10
245.712
20
-119.625
11
258.712
21
-119.625
0
LINE
8
BLACK
6
CONTINUOUS
10
264.762
20
-119.625
11
277.762
21
-119.625
0
LINE
8
BLACK
6
CONTINUOUS
10
111.575
20
-68.025
11
111.575
21
-81.025
0
LINE
8
BLACK
6
CONTINUOUS
10
97.575
20
-68.025
11
97.575
21
-81.025
0
ARC
8
BLACK
10
92.025
20
-81.025
40
0.5
50
-90
51
-0
0
LINE
8
BLACK
6
CONTINUOUS
10
98.075
20
-81.525
11
111.075
21
-81.525
0
ARC
8
BLACK
10
79.025
20
-68.025
40
0.5
50
90
51
180
0
LINE
8
BLACK
6
CONTINUOUS
10
98.075
20
-67.525
11
111.075
21
-67.525
0
ARC
8
BLACK
10
79.025
20
-81.025
40
0.5
50
180
51
270
0
ARC
8
BLACK
10
92.025
20
-68.025
40
0.5
50
-0
51
90
0
ARC
8
BLACK
10
213.469
20
-144.225
40
0.5
50
-0
51
90
0
ARC
8
BLACK
10
200.469
20
-157.225
40
0.5
50
180
51
270
0
ARC
8
BLACK
10
213.469
20
-157.225
40
0.5
50
-90
51
-0
0
LINE
8
BLACK
6
CONTINUOUS
10
142.531
20
-144.225
11
142.531
21
-157.225
0
ARC
8
BLACK
10
142.031
20
-157.225
40
0.5
50
-90
51
-0
0
LINE
8
BLACK
6
CONTINUOUS
10
200.469
20
-157.725
11
213.469
21
-157.725
0
LINE
8
BLACK
6
CONTINUOUS
10
260.469
20
-142.585
11
260.469
21
-156.585
0
ARC
8
BLACK
10
159.969
20
-142.585
40
0.5
50
-0
51
90
0
ARC
8
BLACK
10
129.031
20
-144.225
40
0.5
50
90
51
180
0
LINE
8
BLACK
6
CONTINUOUS
10
160.469
20
-142.585
11
160.469
21
-156.585
0
ARC
8
BLACK
10
259.969
20
-142.585
40
0.5
50
-0
51
90
0
LINE
8
BLACK
6
CONTINUOUS
10
153.969
20
-142.085
11
159.969
21
-142.085
0
LINE
8
BLACK
6
CONTINUOUS
10
200.469
20
-143.725
11
213.469
21
-143.725
0
LINE
8
BLACK
6
CONTINUOUS
10
199.969
20
-144.225
11
199.969
21
-157.225
0
LINE
8
BLACK
6
CONTINUOUS
10
213.969
20
-144.225
11
213.969
21
-157.225
0
ARC
8
BLACK
10
153.969
20
-142.585
40
0.5
50
90
51
180
0
LINE
8
BLACK
6
CONTINUOUS
10
153.469
20
-142.585
11
153.469
21
-156.585
0
LINE
8
BLACK
6
CONTINUOUS
10
253.969
20
-157.085
11
259.969
21
-157.085
0
LINE
8
BLACK
6
CONTINUOUS
10
253.969
20
-142.085
11
259.969
21
-142.085
0
LINE
8
BLACK
6
CONTINUOUS
10
153.969
20
-157.085
11
159.969
21
-157.085
0
ARC
8
BLACK
10
142.031
20
-144.225
40
0.5
50
-0
51
90
0
ARC
8
BLACK
10
200.469
20
-144.225
40
0.5
50
90
51
180
0
ARC
8
BLACK
10
253.969
20
-142.585
40
0.5
50
90
51
180
0
ARC
8
BLACK
10
129.031
20
-157.225
40
0.5
50
180
51
270
0
ARC
8
BLACK
10
259.969
20
-156.585
40
0.5
50
-90
51
-0
0
LINE
8
BLACK
6
CONTINUOUS
10
128.531
20
-144.225
11
128.531
21
-157.225
0
ARC
8
BLACK
10
253.969
20
-156.585
40
0.5
50
180
51
270
0
LINE
8
BLACK
6
CONTINUOUS
10
253.469
20
-142.585
11
253.469
21
-156.585
0
LINE
8
BLACK
6
CONTINUOUS
10
104.719
20
-144.225
11
104.719
21
-157.225
0
ARC
8
BLACK
10
350.494
20
-126.175
40
0.5
50
-0
51
90
0
LINE
8
BLACK
6
CONTINUOUS
10
105.219
20
-157.725
11
118.219
21
-157.725
0
ARC
8
BLACK
10
94.4062
20
-144.225
40
0.5
50
-0
51
90
0
LINE
8
BLACK
6
CONTINUOUS
10
306.837
20
-125.175
11
306.837
21
-138.175
0
ARC
8
BLACK
10
81.4062
20
-144.225
40
0.5
50
90
51
180
0
ARC
8
BLACK
10
320.618
20
-126.175
40
0.5
50
90
51
180
0
LINE
8
BLACK
6
CONTINUOUS
10
320.618
20
-125.675
11
326.618
21
-125.675
0
LINE
8
BLACK
6
CONTINUOUS
10
287.787
20
-125.175
11
287.787
21
-138.175
0
ARC
8
BLACK
10
255.237
20
-125.175
40
0.5
50
90
51
180
0
ARC
8
BLACK
10
350.494
20
-140.175
40
0.5
50
-90
51
-0
0
LINE
8
BLACK
6
CONTINUOUS
10
292.837
20
-125.175
11
292.837
21
-138.175
0
ARC
8
BLACK
10
344.494
20
-140.175
40
0.5
50
180
51
270
0
LINE
8
BLACK
6
CONTINUOUS
10
350.994
20
-126.175
11
350.994
21
-140.175
0
LINE
8
BLACK
6
CONTINUOUS
10
344.494
20
-125.675
11
350.494
21
-125.675
0
ARC
8
BLACK
10
342.056
20
-125.175
40
0.5
50
-0
51
90
0
LINE
8
BLACK
6
CONTINUOUS
10
329.056
20
-138.675
11
342.056
21
-138.675
0
ARC
8
BLACK
10
274.287
20
-138.175
40
0.5
50
180
51
270
0
LINE
8
BLACK
6
CONTINUOUS
10
81.4062
20
-157.725
11
94.4062
21
-157.725
0
ARC
8
BLACK
10
306.337
20
-138.175
40
0.5
50
-90
51
-0
0
ARC
8
BLACK
10
306.337
20
-125.175
40
0.5
50
-0
51
90
0
ARC
8
BLACK
10
255.237
20
-138.175
40
0.5
50
180
51
270
0
LINE
8
BLACK
6
CONTINUOUS
10
81.4062
20
-143.725
11
94.4062
21
-143.725
0
LINE
8
BLACK
6
CONTINUOUS
10
320.618
20
-140.675
11
326.618
21
-140.675
0
ARC
8
BLACK
10
320.618
20
-140.175
40
0.5
50
180
51
270
0
LINE
8
BLACK
6
CONTINUOUS
10
329.056
20
-124.675
11
342.056
21
-124.675
0
ARC
8
BLACK
10
287.287
20
-138.175
40
0.5
50
-90
51
-0
0
LINE
8
BLACK
6
CONTINUOUS
10
274.287
20
-124.675
11
287.287
21
-124.675
0
LINE
8
BLACK
6
CONTINUOUS
10
343.994
20
-126.175
11
343.994
21
-140.175
0
ARC
8
BLACK
10
268.238
20
-125.175
40
0.5
50
-0
51
90
0
LINE
8
BLACK
6
CONTINUOUS
10
293.337
20
-138.675
11
306.337
21
-138.675
0
LINE
8
BLACK
6
CONTINUOUS
10
293.337
20
-124.675
11
306.337
21
-124.675
0
ARC
8
BLACK
10
274.287
20
-125.175
40
0.5
50
90
51
180
0
LINE
8
BLACK
6
CONTINUOUS
10
274.287
20
-138.675
11
287.287
21
-138.675
0
LINE
8
BLACK
6
CONTINUOUS
10
268.738
20
-125.175
11
268.738
21
-138.175
0
LINE
8
BLACK
6
CONTINUOUS
10
273.787
20
-125.175
11
273.787
21
-138.175
0
LINE
8
BLACK
6
CONTINUOUS
10
94.9062
20
-144.225
11
94.9062
21
-157.225
0
ARC
8
BLACK
10
344.494
20
-126.175
40
0.5
50
90
51
180
0
ARC
8
BLACK
10
342.056
20
-138.175
40
0.5
50
-90
51
-0
0
ARC
8
BLACK
10
293.337
20
-125.175
40
0.5
50
90
51
180
0
LINE
8
BLACK
6
CONTINUOUS
10
129.031
20
-157.725
11
142.031
21
-157.725
0
LINE
8
BLACK
6
CONTINUOUS
10
342.556
20
-125.175
11
342.556
21
-138.175
0
ARC
8
BLACK
10
105.219
20
-157.225
40
0.5
50
180
51
270
0
ARC
8
BLACK
10
293.337
20
-138.175
40
0.5
50
180
51
270
0
LINE
8
BLACK
6
CONTINUOUS
10
129.031
20
-143.725
11
142.031
21
-143.725
0
ARC
8
BLACK
10
105.219
20
-144.225
40
0.5
50
90
51
180
0
LINE
8
BLACK
6
CONTINUOUS
10
105.219
20
-143.725
11
118.219
21
-143.725
0
ARC
8
BLACK
10
94.4062
20
-157.225
40
0.5
50
-90
51
-0
0
ARC
8
BLACK
10
326.618
20
-126.175
40
0.5
50
-0
51
90
0
ARC
8
BLACK
10
329.056
20
-125.175
40
0.5
50
90
51
180
0
LINE
8
BLACK
6
CONTINUOUS
10
80.9062
20
-144.225
11
80.9062
21
-157.225
0
ARC
8
BLACK
10
118.219
20
-157.225
40
0.5
50
-90
51
-0
0
ARC
8
BLACK
10
326.618
20
-140.175
40
0.5
50
-90
51
-0
0
LINE
8
BLACK
6
CONTINUOUS
10
328.556
20
-125.175
11
328.556
21
-138.175
0
ARC
8
BLACK
10
268.238
20
-138.175
40
0.5
50
-90
51
-0
0
ARC
8
BLACK
10
81.4062
20
-157.225
40
0.5
50
180
51
270
0
LINE
8
BLACK
6
CONTINUOUS
10
327.118
20
-126.175
11
327.118
21
-140.175
0
LINE
8
BLACK
6
CONTINUOUS
10
344.494
20
-140.675
11
350.494
21
-140.675
0
ARC
8
BLACK
10
287.287
20
-125.175
40
0.5
50
-0
51
90
0
ARC
8
BLACK
10
118.219
20
-144.225
40
0.5
50
-0
51
90
0
ARC
8
BLACK
10
329.056
20
-138.175
40
0.5
50
180
51
270
0
LINE
8
BLACK
6
CONTINUOUS
10
118.719
20
-144.225
11
118.719
21
-157.225
0
LINE
8
BLACK
6
CONTINUOUS
10
254.737
20
-125.175
11
254.737
21
-138.175
0
LINE
8
BLACK
6
CONTINUOUS
10
320.118
20
-126.175
11
320.118
21
-140.175
0
LINE
8
BLACK
6
CONTINUOUS
10
92.525
20
-68.025
11
92.525
21
-81.025
0
LINE
8
BLACK
6
CONTINUOUS
10
79.025
20
-81.525
11
92.025
21
-81.525
0
LINE
8
BLACK
6
CONTINUOUS
10
78.525
20
-68.025
11
78.525
21
-81.025
0
LINE
8
BLACK
6
CONTINUOUS
10
79.025
20
-67.525
11
92.025
21
-67.525
0
ARC
8
BLACK
10
215.85
20
-87.075
40
0.5
50
-0
51
90
0
ARC
8
BLACK
10
234.9
20
-100.075
40
0.5
50
-90
51
-0
0
LINE
8
BLACK
6
CONTINUOUS
10
183.3
20
-87.075
11
183.3
21
-100.075
0
LINE
8
BLACK
6
CONTINUOUS
10
202.35
20
-87.075
11
202.35
21
-100.075
0
ARC
8
BLACK
10
164.75
20
-87.075
40
0.5
50
90
51
180
0
LINE
8
BLACK
6
CONTINUOUS
10
260
20
-86.575
11
273
21
-86.575
0
LINE
8
BLACK
6
CONTINUOUS
10
202.85
20
-86.575
11
215.85
21
-86.575
0
ARC
8
BLACK
10
177.75
20
-100.075
40
0.5
50
-90
51
-0
0
LINE
8
BLACK
6
CONTINUOUS
10
240.45
20
-87.075
11
240.45
21
-100.075
0
LINE
8
BLACK
6
CONTINUOUS
10
164.75
20
-86.575
11
177.75
21
-86.575
0
ARC
8
BLACK
10
183.8
20
-87.075
40
0.5
50
90
51
180
0
LINE
8
BLACK
6
CONTINUOUS
10
202.85
20
-100.575
11
215.85
21
-100.575
0
ARC
8
BLACK
10
253.95
20
-100.075
40
0.5
50
-90
51
-0
0
ARC
8
BLACK
10
240.95
20
-100.075
40
0.5
50
180
51
270
0
LINE
8
BLACK
6
CONTINUOUS
10
254.45
20
-87.075
11
254.45
21
-100.075
0
ARC
8
BLACK
10
253.95
20
-87.075
40
0.5
50
-0
51
90
0
LINE
8
BLACK
6
CONTINUOUS
10
240.95
20
-100.575
11
253.95
21
-100.575
0
LINE
8
BLACK
6
CONTINUOUS
10
164.25
20
-87.075
11
164.25
21
-100.075
0
LINE
8
BLACK
6
CONTINUOUS
10
235.4
20
-87.075
11
235.4
21
-100.075
0
LINE
8
BLACK
6
CONTINUOUS
10
221.9
20
-100.575
11
234.9
21
-100.575
0
ARC
8
BLACK
10
158.7
20
-100.075
40
0.5
50
-90
51
-0
0
ARC
8
BLACK
10
215.85
20
-100.075
40
0.5
50
-90
51
-0
0
LINE
8
BLACK
6
CONTINUOUS
10
216.35
20
-87.075
11
216.35
21
-100.075
0
LINE
8
BLACK
6
CONTINUOUS
10
197.3
20
-87.075
11
197.3
21
-100.075
0
LINE
8
BLACK
6
CONTINUOUS
10
178.25
20
-87.075
11
178.25
21
-100.075
0
LINE
8
BLACK
6
CONTINUOUS
10
240.95
20
-86.575
11
253.95
21
-86.575
0
LINE
8
BLACK
6
CONTINUOUS
10
183.8
20
-100.575
11
196.8
21
-100.575
0
ARC
8
BLACK
10
202.85
20
-100.075
40
0.5
50
180
51
270
0
ARC
8
BLACK
10
221.9
20
-87.075
40
0.5
50
90
51
180
0
ARC
8
BLACK
10
221.9
20
-100.075
40
0.5
50
180
51
270
0
ARC
8
BLACK
10
234.9
20
-87.075
40
0.5
50
-0
51
90
0
LINE
8
BLACK
6
CONTINUOUS
10
221.4
20
-87.075
11
221.4
21
-100.075
0
ARC
8
BLACK
10
183.8
20
-100.075
40
0.5
50
180
51
270
0
LINE
8
BLACK
6
CONTINUOUS
10
164.75
20
-100.575
11
177.75
21
-100.575
0
ARC
8
BLACK
10
164.75
20
-100.075
40
0.5
50
180
51
270
0
ARC
8
BLACK
10
177.75
20
-87.075
40
0.5
50
-0
51
90
0
ARC
8
BLACK
10
202.85
20
-87.075
40
0.5
50
90
51
180
0
ARC
8
BLACK
10
196.8
20
-87.075
40
0.5
50
-0
51
90
0
LINE
8
BLACK
6
CONTINUOUS
10
183.8
20
-86.575
11
196.8
21
-86.575
0
ARC
8
BLACK
10
145.7
20
-100.075
40
0.5
50
180
51
270
0
LINE
8
BLACK
6
CONTINUOUS
10
273.5
20
-87.075
11
273.5
21
-100.075
0
LINE
8
BLACK
6
CONTINUOUS
10
259.5
20
-87.075
11
259.5
21
-100.075
0
LINE
8
BLACK
6
CONTINUOUS
10
260
20
-100.575
11
273
21
-100.575
0
ARC
8
BLACK
10
240.95
20
-87.075
40
0.5
50
90
51
180
0
LINE
8
BLACK
6
CONTINUOUS
10
221.9
20
-86.575
11
234.9
21
-86.575
0
ARC
8
BLACK
10
196.8
20
-100.075
40
0.5
50
-90
51
-0
0
LINE
8
BLACK
6
CONTINUOUS
10
117.125
20
-67.525
11
130.125
21
-67.525
0
LINE
8
BLACK
6
CONTINUOUS
10
130.625
20
-68.025
11
130.625
21
-81.025
0
ARC
8
BLACK
10
111.075
20
-81.025
40
0.5
50
-90
51
-0
0
LINE
8
BLACK
6
CONTINUOUS
10
117.125
20
-81.525
11
130.125
21
-81.525
0
ARC
8
BLACK
10
98.075
20
-81.025
40
0.5
50
180
51
270
0
LINE
8
BLACK
6
CONTINUOUS
10
116.625
20
-68.025
11
116.625
21
-81.025
0
ARC
8
BLACK
10
111.075
20
-68.025
40
0.5
50
-0
51
90
0
ARC
8
BLACK
10
98.075
20
-68.025
40
0.5
50
90
51
180
0
LINE
8
BLACK
6
CONTINUOUS
10
360
20
-45.5
11
360
21
-38
0
LINE
8
BLACK
6
CONTINUOUS
10
360
20
-45.5
11
360
21
-52.5
0
ARC
8
BLACK
10
355
20
-154.5
40
5
50
-90
51
-0
0
ARC
8
BLACK
10
82
20
-154.5
40
5
50
180
51
270
0
ARC
8
BLACK
10
82
20
-38
40
5
50
90
51
180
0
LINE
8
BLACK
6
CONTINUOUS
10
355
20
-33
11
82
21
-33
0
LINE
8
BLACK
6
CONTINUOUS
10
77
20
-38
11
77
21
-154.5
0
LINE
8
BLACK
6
CONTINUOUS
10
82
20
-159.5
11
355
21
-159.5
0
LINE
8
BLACK
6
CONTINUOUS
10
360
20
-52.5
11
360
21
-154.5
0
ARC
8
BLACK
10
355
20
-38
40
5
50
-0
51
90
0
CIRCLE
8
BLACK
10
353.05
20
-36.5
40
1.04561
0
CIRCLE
8
BLACK
10
314.1
20
-84.1
40
1.04561
0
CIRCLE
8
BLACK
10
218.5
20
-84
40
1.04561
0
CIRCLE
8
BLACK
10
338
20
-155.5
40
1.04561
0
CIRCLE
8
BLACK
10
101.8
20
-84.1
40
1.04561
0
CIRCLE
8
BLACK
10
87
20
-38.1
40
1.04561
0
CIRCLE
8
BLACK
10
99.75
20
-155.5
40
1.04561
0
CIRCLE
8
BLACK
10
218.5
20
-154
40
1.04561
  0
ENDSEC
  0
EOF
