G04 #@! TF.GenerationSoftware,KiCad,Pcbnew,(5.1.9)-1*
G04 #@! TF.CreationDate,2021-05-27T06:35:10+01:00*
G04 #@! TF.ProjectId,Env-KB60F,456e762d-4b42-4363-9046-2e6b69636164,rev?*
G04 #@! TF.SameCoordinates,Original*
G04 #@! TF.FileFunction,Paste,Top*
G04 #@! TF.FilePolarity,Positive*
%FSLAX46Y46*%
G04 Gerber Fmt 4.6, Leading zero omitted, Abs format (unit mm)*
G04 Created by KiCad (PCBNEW (5.1.9)-1) date 2021-05-27 06:35:10*
%MOMM*%
%LPD*%
G01*
G04 APERTURE LIST*
%ADD10R,0.600000X1.450000*%
%ADD11R,0.300000X1.450000*%
%ADD12R,1.050000X1.400000*%
G04 APERTURE END LIST*
G36*
G01*
X297064000Y-36899500D02*
X297064000Y-37100500D01*
G75*
G02*
X296984500Y-37180000I-79500J0D01*
G01*
X296825500Y-37180000D01*
G75*
G02*
X296746000Y-37100500I0J79500D01*
G01*
X296746000Y-36899500D01*
G75*
G02*
X296825500Y-36820000I79500J0D01*
G01*
X296984500Y-36820000D01*
G75*
G02*
X297064000Y-36899500I0J-79500D01*
G01*
G37*
G36*
G01*
X297754000Y-36899500D02*
X297754000Y-37100500D01*
G75*
G02*
X297674500Y-37180000I-79500J0D01*
G01*
X297515500Y-37180000D01*
G75*
G02*
X297436000Y-37100500I0J79500D01*
G01*
X297436000Y-36899500D01*
G75*
G02*
X297515500Y-36820000I79500J0D01*
G01*
X297674500Y-36820000D01*
G75*
G02*
X297754000Y-36899500I0J-79500D01*
G01*
G37*
G36*
G01*
X297436000Y-38100500D02*
X297436000Y-37899500D01*
G75*
G02*
X297515500Y-37820000I79500J0D01*
G01*
X297674500Y-37820000D01*
G75*
G02*
X297754000Y-37899500I0J-79500D01*
G01*
X297754000Y-38100500D01*
G75*
G02*
X297674500Y-38180000I-79500J0D01*
G01*
X297515500Y-38180000D01*
G75*
G02*
X297436000Y-38100500I0J79500D01*
G01*
G37*
G36*
G01*
X296746000Y-38100500D02*
X296746000Y-37899500D01*
G75*
G02*
X296825500Y-37820000I79500J0D01*
G01*
X296984500Y-37820000D01*
G75*
G02*
X297064000Y-37899500I0J-79500D01*
G01*
X297064000Y-38100500D01*
G75*
G02*
X296984500Y-38180000I-79500J0D01*
G01*
X296825500Y-38180000D01*
G75*
G02*
X296746000Y-38100500I0J79500D01*
G01*
G37*
D10*
X299770001Y-40650001D03*
X306220001Y-40650001D03*
X300545001Y-40650001D03*
X305445001Y-40650001D03*
D11*
X304745001Y-40650001D03*
X301245001Y-40650001D03*
X304245001Y-40650001D03*
X301745001Y-40650001D03*
X303745001Y-40650001D03*
X302245001Y-40650001D03*
X302745001Y-40650001D03*
X303245001Y-40650001D03*
D12*
X359100000Y-72700000D03*
X359100000Y-76300000D03*
X357650000Y-72700000D03*
X357650000Y-76300000D03*
M02*
