%FSLAX45Y45*%
G04 Gerber Fmt 4.5, Leading zero omitted, Abs format (unit mm)*
G04 Created by KiCad (PCBNEW (5.1.9)-1) date 2021-05-27 06:29:15*
%MOMM*%
%LPD*%
G01*
G04 APERTURE LIST*
%TA.AperFunction,Profile*%
%ADD10C,0.100000*%
%TD*%
%ADD11C,0.200000*%
%ADD12C,0.300000*%
G04 APERTURE END LIST*
D10*
X36000000Y-4550000D02*
X36000000Y-3800000D01*
X36000000Y-4550000D02*
X36000000Y-5250000D01*
X36000000Y-15450000D02*
G75*
G02*
X35500000Y-15950000I-500000J0D01*
G01*
X8200000Y-15950000D02*
G75*
G02*
X7700000Y-15450000I0J500000D01*
G01*
X7700000Y-3800000D02*
G75*
G02*
X8200000Y-3300000I500000J0D01*
G01*
X35500000Y-3300000D02*
X8200000Y-3300000D01*
X7700000Y-3800000D02*
X7700000Y-15450000D01*
X8200000Y-15950000D02*
X35500000Y-15950000D01*
X36000000Y-5250000D02*
X36000000Y-15450000D01*
X35500000Y-3300000D02*
G75*
G02*
X36000000Y-3800000I0J-500000D01*
G01*
D11*
X30055000Y-4240000D02*
X30095000Y-4280000D01*
X30095000Y-4240000D02*
X30055000Y-4280000D01*
X30192500Y-4267500D02*
X30232500Y-4307500D01*
X30232500Y-4267500D02*
X30192500Y-4307500D01*
X30256750Y-3850000D02*
X30296750Y-3890000D01*
X30296750Y-3850000D02*
X30256750Y-3890000D01*
X30355000Y-4280000D02*
X30395000Y-4320000D01*
X30395000Y-4280000D02*
X30355000Y-4320000D01*
X30610000Y-5155000D02*
X30650000Y-5195000D01*
X30650000Y-5155000D02*
X30610000Y-5195000D01*
X30610000Y-6180000D02*
X30650000Y-6220000D01*
X30650000Y-6180000D02*
X30610000Y-6220000D01*
X30710000Y-4305000D02*
X30750000Y-4345000D01*
X30750000Y-4305000D02*
X30710000Y-4345000D01*
X31230000Y-5155000D02*
X31270000Y-5195000D01*
X31270000Y-5155000D02*
X31230000Y-5195000D01*
X29897500Y-3555500D02*
G75*
G03*
X29897500Y-3555500I-30000J0D01*
G01*
X29887500Y-3585500D02*
X29887500Y-3525500D01*
X29847500Y-3585500D02*
X29847500Y-3525500D01*
X29887500Y-3525500D02*
G75*
G03*
X29847500Y-3525500I-20000J0D01*
G01*
X29847500Y-3585500D02*
G75*
G03*
X29887500Y-3585500I20000J0D01*
G01*
X29897500Y-3973500D02*
G75*
G03*
X29897500Y-3973500I-30000J0D01*
G01*
X29887500Y-4028500D02*
X29887500Y-3918500D01*
X29847500Y-4028500D02*
X29847500Y-3918500D01*
X29887500Y-3918500D02*
G75*
G03*
X29847500Y-3918500I-20000J0D01*
G01*
X29847500Y-4028500D02*
G75*
G03*
X29887500Y-4028500I20000J0D01*
G01*
X30761500Y-3555500D02*
G75*
G03*
X30761500Y-3555500I-30000J0D01*
G01*
X30751500Y-3585500D02*
X30751500Y-3525500D01*
X30711500Y-3585500D02*
X30711500Y-3525500D01*
X30751500Y-3525500D02*
G75*
G03*
X30711500Y-3525500I-20000J0D01*
G01*
X30711500Y-3585500D02*
G75*
G03*
X30751500Y-3585500I20000J0D01*
G01*
X30761500Y-3973500D02*
G75*
G03*
X30761500Y-3973500I-30000J0D01*
G01*
X30751500Y-4028500D02*
X30751500Y-3918500D01*
X30711500Y-4028500D02*
X30711500Y-3918500D01*
X30751500Y-3918500D02*
G75*
G03*
X30711500Y-3918500I-20000J0D01*
G01*
X30711500Y-4028500D02*
G75*
G03*
X30751500Y-4028500I20000J0D01*
G01*
X9538000Y-3610000D02*
X9538000Y-3690000D01*
X9498000Y-3650000D02*
X9578000Y-3650000D01*
X9538000Y-4110000D02*
X9538000Y-4190000D01*
X9498000Y-4150000D02*
X9578000Y-4150000D01*
X9538000Y-4610000D02*
X9538000Y-4690000D01*
X9498000Y-4650000D02*
X9578000Y-4650000D01*
X9538000Y-5110000D02*
X9538000Y-5190000D01*
X9498000Y-5150000D02*
X9578000Y-5150000D01*
X9538000Y-5610000D02*
X9538000Y-5690000D01*
X9498000Y-5650000D02*
X9578000Y-5650000D01*
X10300000Y-3610000D02*
X10300000Y-3690000D01*
X10260000Y-3650000D02*
X10340000Y-3650000D01*
X10300000Y-4110000D02*
X10300000Y-4190000D01*
X10260000Y-4150000D02*
X10340000Y-4150000D01*
X10300000Y-4610000D02*
X10300000Y-4690000D01*
X10260000Y-4650000D02*
X10340000Y-4650000D01*
X10300000Y-5110000D02*
X10300000Y-5190000D01*
X10260000Y-5150000D02*
X10340000Y-5150000D01*
X10300000Y-5610000D02*
X10300000Y-5690000D01*
X10260000Y-5650000D02*
X10340000Y-5650000D01*
X10938000Y-3610000D02*
X10938000Y-3690000D01*
X10898000Y-3650000D02*
X10978000Y-3650000D01*
X10938000Y-4110000D02*
X10938000Y-4190000D01*
X10898000Y-4150000D02*
X10978000Y-4150000D01*
X10938000Y-5610000D02*
X10938000Y-5690000D01*
X10898000Y-5650000D02*
X10978000Y-5650000D01*
X11700000Y-3610000D02*
X11700000Y-3690000D01*
X11660000Y-3650000D02*
X11740000Y-3650000D01*
X11700000Y-4110000D02*
X11700000Y-4190000D01*
X11660000Y-4150000D02*
X11740000Y-4150000D01*
X11700000Y-5610000D02*
X11700000Y-5690000D01*
X11660000Y-5650000D02*
X11740000Y-5650000D01*
X12338000Y-4110000D02*
X12338000Y-4190000D01*
X12298000Y-4150000D02*
X12378000Y-4150000D01*
X12338000Y-4610000D02*
X12338000Y-4690000D01*
X12298000Y-4650000D02*
X12378000Y-4650000D01*
X12338000Y-5110000D02*
X12338000Y-5190000D01*
X12298000Y-5150000D02*
X12378000Y-5150000D01*
X12338000Y-5610000D02*
X12338000Y-5690000D01*
X12298000Y-5650000D02*
X12378000Y-5650000D01*
X13100000Y-4110000D02*
X13100000Y-4190000D01*
X13060000Y-4150000D02*
X13140000Y-4150000D01*
X13100000Y-4610000D02*
X13100000Y-4690000D01*
X13060000Y-4650000D02*
X13140000Y-4650000D01*
X13100000Y-5110000D02*
X13100000Y-5190000D01*
X13060000Y-5150000D02*
X13140000Y-5150000D01*
X13100000Y-5610000D02*
X13100000Y-5690000D01*
X13060000Y-5650000D02*
X13140000Y-5650000D01*
X13738000Y-3610000D02*
X13738000Y-3690000D01*
X13698000Y-3650000D02*
X13778000Y-3650000D01*
X13738000Y-4110000D02*
X13738000Y-4190000D01*
X13698000Y-4150000D02*
X13778000Y-4150000D01*
X13738000Y-4610000D02*
X13738000Y-4690000D01*
X13698000Y-4650000D02*
X13778000Y-4650000D01*
X13738000Y-5110000D02*
X13738000Y-5190000D01*
X13698000Y-5150000D02*
X13778000Y-5150000D01*
X13738000Y-5610000D02*
X13738000Y-5690000D01*
X13698000Y-5650000D02*
X13778000Y-5650000D01*
X14500000Y-3610000D02*
X14500000Y-3690000D01*
X14460000Y-3650000D02*
X14540000Y-3650000D01*
X14500000Y-4110000D02*
X14500000Y-4190000D01*
X14460000Y-4150000D02*
X14540000Y-4150000D01*
X14500000Y-4610000D02*
X14500000Y-4690000D01*
X14460000Y-4650000D02*
X14540000Y-4650000D01*
X14500000Y-5110000D02*
X14500000Y-5190000D01*
X14460000Y-5150000D02*
X14540000Y-5150000D01*
X14500000Y-5610000D02*
X14500000Y-5690000D01*
X14460000Y-5650000D02*
X14540000Y-5650000D01*
X15138000Y-4110000D02*
X15138000Y-4190000D01*
X15098000Y-4150000D02*
X15178000Y-4150000D01*
X15138000Y-4610000D02*
X15138000Y-4690000D01*
X15098000Y-4650000D02*
X15178000Y-4650000D01*
X15138000Y-5110000D02*
X15138000Y-5190000D01*
X15098000Y-5150000D02*
X15178000Y-5150000D01*
X15138000Y-5610000D02*
X15138000Y-5690000D01*
X15098000Y-5650000D02*
X15178000Y-5650000D01*
X15900000Y-4110000D02*
X15900000Y-4190000D01*
X15860000Y-4150000D02*
X15940000Y-4150000D01*
X15900000Y-4610000D02*
X15900000Y-4690000D01*
X15860000Y-4650000D02*
X15940000Y-4650000D01*
X15900000Y-5110000D02*
X15900000Y-5190000D01*
X15860000Y-5150000D02*
X15940000Y-5150000D01*
X15900000Y-5610000D02*
X15900000Y-5690000D01*
X15860000Y-5650000D02*
X15940000Y-5650000D01*
X16538000Y-4110000D02*
X16538000Y-4190000D01*
X16498000Y-4150000D02*
X16578000Y-4150000D01*
X16538000Y-4610000D02*
X16538000Y-4690000D01*
X16498000Y-4650000D02*
X16578000Y-4650000D01*
X16538000Y-5110000D02*
X16538000Y-5190000D01*
X16498000Y-5150000D02*
X16578000Y-5150000D01*
X16538000Y-5610000D02*
X16538000Y-5690000D01*
X16498000Y-5650000D02*
X16578000Y-5650000D01*
X17300000Y-4110000D02*
X17300000Y-4190000D01*
X17260000Y-4150000D02*
X17340000Y-4150000D01*
X17300000Y-4610000D02*
X17300000Y-4690000D01*
X17260000Y-4650000D02*
X17340000Y-4650000D01*
X17300000Y-5110000D02*
X17300000Y-5190000D01*
X17260000Y-5150000D02*
X17340000Y-5150000D01*
X17300000Y-5610000D02*
X17300000Y-5690000D01*
X17260000Y-5650000D02*
X17340000Y-5650000D01*
X17938000Y-3610000D02*
X17938000Y-3690000D01*
X17898000Y-3650000D02*
X17978000Y-3650000D01*
X17938000Y-4110000D02*
X17938000Y-4190000D01*
X17898000Y-4150000D02*
X17978000Y-4150000D01*
X17938000Y-4610000D02*
X17938000Y-4690000D01*
X17898000Y-4650000D02*
X17978000Y-4650000D01*
X17938000Y-5110000D02*
X17938000Y-5190000D01*
X17898000Y-5150000D02*
X17978000Y-5150000D01*
X17938000Y-5610000D02*
X17938000Y-5690000D01*
X17898000Y-5650000D02*
X17978000Y-5650000D01*
X18700000Y-3610000D02*
X18700000Y-3690000D01*
X18660000Y-3650000D02*
X18740000Y-3650000D01*
X18700000Y-4110000D02*
X18700000Y-4190000D01*
X18660000Y-4150000D02*
X18740000Y-4150000D01*
X18700000Y-4610000D02*
X18700000Y-4690000D01*
X18660000Y-4650000D02*
X18740000Y-4650000D01*
X18700000Y-5110000D02*
X18700000Y-5190000D01*
X18660000Y-5150000D02*
X18740000Y-5150000D01*
X18700000Y-5610000D02*
X18700000Y-5690000D01*
X18660000Y-5650000D02*
X18740000Y-5650000D01*
X19338000Y-4110000D02*
X19338000Y-4190000D01*
X19298000Y-4150000D02*
X19378000Y-4150000D01*
X19338000Y-4610000D02*
X19338000Y-4690000D01*
X19298000Y-4650000D02*
X19378000Y-4650000D01*
X19338000Y-5110000D02*
X19338000Y-5190000D01*
X19298000Y-5150000D02*
X19378000Y-5150000D01*
X19338000Y-5610000D02*
X19338000Y-5690000D01*
X19298000Y-5650000D02*
X19378000Y-5650000D01*
X20100000Y-4110000D02*
X20100000Y-4190000D01*
X20060000Y-4150000D02*
X20140000Y-4150000D01*
X20100000Y-4610000D02*
X20100000Y-4690000D01*
X20060000Y-4650000D02*
X20140000Y-4650000D01*
X20100000Y-5110000D02*
X20100000Y-5190000D01*
X20060000Y-5150000D02*
X20140000Y-5150000D01*
X20100000Y-5610000D02*
X20100000Y-5690000D01*
X20060000Y-5650000D02*
X20140000Y-5650000D01*
X20738000Y-4110000D02*
X20738000Y-4190000D01*
X20698000Y-4150000D02*
X20778000Y-4150000D01*
X20738000Y-4610000D02*
X20738000Y-4690000D01*
X20698000Y-4650000D02*
X20778000Y-4650000D01*
X20738000Y-5110000D02*
X20738000Y-5190000D01*
X20698000Y-5150000D02*
X20778000Y-5150000D01*
X20738000Y-5610000D02*
X20738000Y-5690000D01*
X20698000Y-5650000D02*
X20778000Y-5650000D01*
X21500000Y-4110000D02*
X21500000Y-4190000D01*
X21460000Y-4150000D02*
X21540000Y-4150000D01*
X21500000Y-4610000D02*
X21500000Y-4690000D01*
X21460000Y-4650000D02*
X21540000Y-4650000D01*
X21500000Y-5110000D02*
X21500000Y-5190000D01*
X21460000Y-5150000D02*
X21540000Y-5150000D01*
X21500000Y-5610000D02*
X21500000Y-5690000D01*
X21460000Y-5650000D02*
X21540000Y-5650000D01*
X22138000Y-4110000D02*
X22138000Y-4190000D01*
X22098000Y-4150000D02*
X22178000Y-4150000D01*
X22138000Y-4610000D02*
X22138000Y-4690000D01*
X22098000Y-4650000D02*
X22178000Y-4650000D01*
X22138000Y-5110000D02*
X22138000Y-5190000D01*
X22098000Y-5150000D02*
X22178000Y-5150000D01*
X22138000Y-5610000D02*
X22138000Y-5690000D01*
X22098000Y-5650000D02*
X22178000Y-5650000D01*
X22900000Y-4110000D02*
X22900000Y-4190000D01*
X22860000Y-4150000D02*
X22940000Y-4150000D01*
X22900000Y-4610000D02*
X22900000Y-4690000D01*
X22860000Y-4650000D02*
X22940000Y-4650000D01*
X22900000Y-5110000D02*
X22900000Y-5190000D01*
X22860000Y-5150000D02*
X22940000Y-5150000D01*
X22900000Y-5610000D02*
X22900000Y-5690000D01*
X22860000Y-5650000D02*
X22940000Y-5650000D01*
X23538000Y-3610000D02*
X23538000Y-3690000D01*
X23498000Y-3650000D02*
X23578000Y-3650000D01*
X23538000Y-4110000D02*
X23538000Y-4190000D01*
X23498000Y-4150000D02*
X23578000Y-4150000D01*
X23538000Y-4610000D02*
X23538000Y-4690000D01*
X23498000Y-4650000D02*
X23578000Y-4650000D01*
X23538000Y-5110000D02*
X23538000Y-5190000D01*
X23498000Y-5150000D02*
X23578000Y-5150000D01*
X23538000Y-5610000D02*
X23538000Y-5690000D01*
X23498000Y-5650000D02*
X23578000Y-5650000D01*
X24300000Y-3610000D02*
X24300000Y-3690000D01*
X24260000Y-3650000D02*
X24340000Y-3650000D01*
X24300000Y-4110000D02*
X24300000Y-4190000D01*
X24260000Y-4150000D02*
X24340000Y-4150000D01*
X24300000Y-4610000D02*
X24300000Y-4690000D01*
X24260000Y-4650000D02*
X24340000Y-4650000D01*
X24300000Y-5110000D02*
X24300000Y-5190000D01*
X24260000Y-5150000D02*
X24340000Y-5150000D01*
X24300000Y-5610000D02*
X24300000Y-5690000D01*
X24260000Y-5650000D02*
X24340000Y-5650000D01*
X24938000Y-3610000D02*
X24938000Y-3690000D01*
X24898000Y-3650000D02*
X24978000Y-3650000D01*
X24938000Y-4110000D02*
X24938000Y-4190000D01*
X24898000Y-4150000D02*
X24978000Y-4150000D01*
X24938000Y-4610000D02*
X24938000Y-4690000D01*
X24898000Y-4650000D02*
X24978000Y-4650000D01*
X24938000Y-5110000D02*
X24938000Y-5190000D01*
X24898000Y-5150000D02*
X24978000Y-5150000D01*
X24938000Y-5610000D02*
X24938000Y-5690000D01*
X24898000Y-5650000D02*
X24978000Y-5650000D01*
X25700000Y-3610000D02*
X25700000Y-3690000D01*
X25660000Y-3650000D02*
X25740000Y-3650000D01*
X25700000Y-4110000D02*
X25700000Y-4190000D01*
X25660000Y-4150000D02*
X25740000Y-4150000D01*
X25700000Y-4610000D02*
X25700000Y-4690000D01*
X25660000Y-4650000D02*
X25740000Y-4650000D01*
X25700000Y-5110000D02*
X25700000Y-5190000D01*
X25660000Y-5150000D02*
X25740000Y-5150000D01*
X25700000Y-5610000D02*
X25700000Y-5690000D01*
X25660000Y-5650000D02*
X25740000Y-5650000D01*
X26338000Y-4610000D02*
X26338000Y-4690000D01*
X26298000Y-4650000D02*
X26378000Y-4650000D01*
X26338000Y-5110000D02*
X26338000Y-5190000D01*
X26298000Y-5150000D02*
X26378000Y-5150000D01*
X26338000Y-5610000D02*
X26338000Y-5690000D01*
X26298000Y-5650000D02*
X26378000Y-5650000D01*
X27100000Y-4610000D02*
X27100000Y-4690000D01*
X27060000Y-4650000D02*
X27140000Y-4650000D01*
X27100000Y-5110000D02*
X27100000Y-5190000D01*
X27060000Y-5150000D02*
X27140000Y-5150000D01*
X27100000Y-5610000D02*
X27100000Y-5690000D01*
X27060000Y-5650000D02*
X27140000Y-5650000D01*
X27738000Y-3610000D02*
X27738000Y-3690000D01*
X27698000Y-3650000D02*
X27778000Y-3650000D01*
X27738000Y-4110000D02*
X27738000Y-4190000D01*
X27698000Y-4150000D02*
X27778000Y-4150000D01*
X27738000Y-4610000D02*
X27738000Y-4690000D01*
X27698000Y-4650000D02*
X27778000Y-4650000D01*
X27738000Y-5110000D02*
X27738000Y-5190000D01*
X27698000Y-5150000D02*
X27778000Y-5150000D01*
X28500000Y-3610000D02*
X28500000Y-3690000D01*
X28460000Y-3650000D02*
X28540000Y-3650000D01*
X28500000Y-4110000D02*
X28500000Y-4190000D01*
X28460000Y-4150000D02*
X28540000Y-4150000D01*
X28500000Y-4610000D02*
X28500000Y-4690000D01*
X28460000Y-4650000D02*
X28540000Y-4650000D01*
X28500000Y-5110000D02*
X28500000Y-5190000D01*
X28460000Y-5150000D02*
X28540000Y-5150000D01*
X29138000Y-4290000D02*
X29138000Y-4370000D01*
X29098000Y-4330000D02*
X29178000Y-4330000D01*
X29138000Y-4610000D02*
X29138000Y-4690000D01*
X29098000Y-4650000D02*
X29178000Y-4650000D01*
X29138000Y-5610000D02*
X29138000Y-5690000D01*
X29098000Y-5650000D02*
X29178000Y-5650000D01*
X29138880Y-5116200D02*
X29138880Y-5196200D01*
X29098880Y-5156200D02*
X29178880Y-5156200D01*
X29900000Y-4290000D02*
X29900000Y-4370000D01*
X29860000Y-4330000D02*
X29940000Y-4330000D01*
X29900000Y-4610000D02*
X29900000Y-4690000D01*
X29860000Y-4650000D02*
X29940000Y-4650000D01*
X29900000Y-5610000D02*
X29900000Y-5690000D01*
X29860000Y-5650000D02*
X29940000Y-5650000D01*
X29900880Y-5116200D02*
X29900880Y-5196200D01*
X29860880Y-5156200D02*
X29940880Y-5156200D01*
X35835356Y-5135356D02*
X35835356Y-5064644D01*
X35764644Y-5064644D01*
X35764644Y-5135356D01*
X35835356Y-5135356D01*
X35835356Y-5285356D02*
X35835356Y-5214644D01*
X35764644Y-5214644D01*
X35764644Y-5285356D01*
X35835356Y-5285356D01*
X30987000Y-4337000D02*
X31038000Y-4286000D01*
X30987000Y-4235000D01*
X30936000Y-4286000D01*
X30987000Y-4337000D01*
X30987000Y-6115000D02*
X31038000Y-6064000D01*
X30987000Y-6013000D01*
X30936000Y-6064000D01*
X30987000Y-6115000D01*
X31010000Y-4972000D02*
X31061000Y-4921000D01*
X31010000Y-4870000D01*
X30959000Y-4921000D01*
X31010000Y-4972000D01*
X31010000Y-5226000D02*
X31061000Y-5175000D01*
X31010000Y-5124000D01*
X30959000Y-5175000D01*
X31010000Y-5226000D01*
X31010000Y-5480000D02*
X31061000Y-5429000D01*
X31010000Y-5378000D01*
X30959000Y-5429000D01*
X31010000Y-5480000D01*
X31241000Y-4337000D02*
X31292000Y-4286000D01*
X31241000Y-4235000D01*
X31190000Y-4286000D01*
X31241000Y-4337000D01*
X31241000Y-6115000D02*
X31292000Y-6064000D01*
X31241000Y-6013000D01*
X31190000Y-6064000D01*
X31241000Y-6115000D01*
X31495000Y-4337000D02*
X31546000Y-4286000D01*
X31495000Y-4235000D01*
X31444000Y-4286000D01*
X31495000Y-4337000D01*
X31495000Y-6115000D02*
X31546000Y-6064000D01*
X31495000Y-6013000D01*
X31444000Y-6064000D01*
X31495000Y-6115000D01*
X31749000Y-4337000D02*
X31800000Y-4286000D01*
X31749000Y-4235000D01*
X31698000Y-4286000D01*
X31749000Y-4337000D01*
X31749000Y-6115000D02*
X31800000Y-6064000D01*
X31749000Y-6013000D01*
X31698000Y-6064000D01*
X31749000Y-6115000D01*
X32003000Y-4337000D02*
X32054000Y-4286000D01*
X32003000Y-4235000D01*
X31952000Y-4286000D01*
X32003000Y-4337000D01*
X32003000Y-6115000D02*
X32054000Y-6064000D01*
X32003000Y-6013000D01*
X31952000Y-6064000D01*
X32003000Y-6115000D01*
X32257000Y-4337000D02*
X32308000Y-4286000D01*
X32257000Y-4235000D01*
X32206000Y-4286000D01*
X32257000Y-4337000D01*
X32257000Y-6115000D02*
X32308000Y-6064000D01*
X32257000Y-6013000D01*
X32206000Y-6064000D01*
X32257000Y-6115000D01*
X32511000Y-4337000D02*
X32562000Y-4286000D01*
X32511000Y-4235000D01*
X32460000Y-4286000D01*
X32511000Y-4337000D01*
X32511000Y-6115000D02*
X32562000Y-6064000D01*
X32511000Y-6013000D01*
X32460000Y-6064000D01*
X32511000Y-6115000D01*
X32765000Y-4337000D02*
X32816000Y-4286000D01*
X32765000Y-4235000D01*
X32714000Y-4286000D01*
X32765000Y-4337000D01*
X32765000Y-6115000D02*
X32816000Y-6064000D01*
X32765000Y-6013000D01*
X32714000Y-6064000D01*
X32765000Y-6115000D01*
X33019000Y-4337000D02*
X33070000Y-4286000D01*
X33019000Y-4235000D01*
X32968000Y-4286000D01*
X33019000Y-4337000D01*
X33019000Y-6115000D02*
X33070000Y-6064000D01*
X33019000Y-6013000D01*
X32968000Y-6064000D01*
X33019000Y-6115000D01*
X33273000Y-4337000D02*
X33324000Y-4286000D01*
X33273000Y-4235000D01*
X33222000Y-4286000D01*
X33273000Y-4337000D01*
X33273000Y-6115000D02*
X33324000Y-6064000D01*
X33273000Y-6013000D01*
X33222000Y-6064000D01*
X33273000Y-6115000D01*
X33527000Y-4337000D02*
X33578000Y-4286000D01*
X33527000Y-4235000D01*
X33476000Y-4286000D01*
X33527000Y-4337000D01*
X33527000Y-6115000D02*
X33578000Y-6064000D01*
X33527000Y-6013000D01*
X33476000Y-6064000D01*
X33527000Y-6115000D01*
X33781000Y-4337000D02*
X33832000Y-4286000D01*
X33781000Y-4235000D01*
X33730000Y-4286000D01*
X33781000Y-4337000D01*
X33781000Y-6115000D02*
X33832000Y-6064000D01*
X33781000Y-6013000D01*
X33730000Y-6064000D01*
X33781000Y-6115000D01*
X34035000Y-4337000D02*
X34086000Y-4286000D01*
X34035000Y-4235000D01*
X33984000Y-4286000D01*
X34035000Y-4337000D01*
X34035000Y-6115000D02*
X34086000Y-6064000D01*
X34035000Y-6013000D01*
X33984000Y-6064000D01*
X34035000Y-6115000D01*
X34289000Y-4337000D02*
X34340000Y-4286000D01*
X34289000Y-4235000D01*
X34238000Y-4286000D01*
X34289000Y-4337000D01*
X34289000Y-6115000D02*
X34340000Y-6064000D01*
X34289000Y-6013000D01*
X34238000Y-6064000D01*
X34289000Y-6115000D01*
X34543000Y-4337000D02*
X34594000Y-4286000D01*
X34543000Y-4235000D01*
X34492000Y-4286000D01*
X34543000Y-4337000D01*
X34543000Y-6115000D02*
X34594000Y-6064000D01*
X34543000Y-6013000D01*
X34492000Y-6064000D01*
X34543000Y-6115000D01*
X34797000Y-4337000D02*
X34848000Y-4286000D01*
X34797000Y-4235000D01*
X34746000Y-4286000D01*
X34797000Y-4337000D01*
X34797000Y-6115000D02*
X34848000Y-6064000D01*
X34797000Y-6013000D01*
X34746000Y-6064000D01*
X34797000Y-6115000D01*
X35051000Y-4337000D02*
X35102000Y-4286000D01*
X35051000Y-4235000D01*
X35000000Y-4286000D01*
X35051000Y-4337000D01*
X35051000Y-6115000D02*
X35102000Y-6064000D01*
X35051000Y-6013000D01*
X35000000Y-6064000D01*
X35051000Y-6115000D01*
X35305000Y-4337000D02*
X35356000Y-4286000D01*
X35305000Y-4235000D01*
X35254000Y-4286000D01*
X35305000Y-4337000D01*
X35305000Y-6115000D02*
X35356000Y-6064000D01*
X35305000Y-6013000D01*
X35254000Y-6064000D01*
X35305000Y-6115000D01*
X35559000Y-4337000D02*
X35610000Y-4286000D01*
X35559000Y-4235000D01*
X35508000Y-4286000D01*
X35559000Y-4337000D01*
X35559000Y-6115000D02*
X35610000Y-6064000D01*
X35559000Y-6013000D01*
X35508000Y-6064000D01*
X35559000Y-6115000D01*
X35813000Y-4337000D02*
X35864000Y-4286000D01*
X35813000Y-4235000D01*
X35762000Y-4286000D01*
X35813000Y-4337000D01*
X35813000Y-6115000D02*
X35864000Y-6064000D01*
X35813000Y-6013000D01*
X35762000Y-6064000D01*
X35813000Y-6115000D01*
X8098000Y-7125000D02*
X8245000Y-7272000D01*
X8245000Y-7125000D02*
X8098000Y-7272000D01*
X8245000Y-7198500D02*
G75*
G03*
X8245000Y-7198500I-73500J0D01*
G01*
X8336125Y-12840000D02*
X8483125Y-12987000D01*
X8483125Y-12840000D02*
X8336125Y-12987000D01*
X8483125Y-12913500D02*
G75*
G03*
X8483125Y-12913500I-73500J0D01*
G01*
X8336125Y-14745000D02*
X8483125Y-14892000D01*
X8483125Y-14745000D02*
X8336125Y-14892000D01*
X8483125Y-14818500D02*
G75*
G03*
X8483125Y-14818500I-73500J0D01*
G01*
X8574250Y-9030000D02*
X8721250Y-9177000D01*
X8721250Y-9030000D02*
X8574250Y-9177000D01*
X8721250Y-9103500D02*
G75*
G03*
X8721250Y-9103500I-73500J0D01*
G01*
X8733000Y-6871000D02*
X8880000Y-7018000D01*
X8880000Y-6871000D02*
X8733000Y-7018000D01*
X8880000Y-6944500D02*
G75*
G03*
X8880000Y-6944500I-73500J0D01*
G01*
X8812375Y-10935000D02*
X8959375Y-11082000D01*
X8959375Y-10935000D02*
X8812375Y-11082000D01*
X8959375Y-11008500D02*
G75*
G03*
X8959375Y-11008500I-73500J0D01*
G01*
X8971125Y-12586000D02*
X9118125Y-12733000D01*
X9118125Y-12586000D02*
X8971125Y-12733000D01*
X9118125Y-12659500D02*
G75*
G03*
X9118125Y-12659500I-73500J0D01*
G01*
X8971125Y-14491000D02*
X9118125Y-14638000D01*
X9118125Y-14491000D02*
X8971125Y-14638000D01*
X9118125Y-14564500D02*
G75*
G03*
X9118125Y-14564500I-73500J0D01*
G01*
X9209250Y-8776000D02*
X9356250Y-8923000D01*
X9356250Y-8776000D02*
X9209250Y-8923000D01*
X9356250Y-8849500D02*
G75*
G03*
X9356250Y-8849500I-73500J0D01*
G01*
X9285500Y-12842500D02*
X9432500Y-12989500D01*
X9432500Y-12842500D02*
X9285500Y-12989500D01*
X9432500Y-12916000D02*
G75*
G03*
X9432500Y-12916000I-73500J0D01*
G01*
X9447375Y-10681000D02*
X9594375Y-10828000D01*
X9594375Y-10681000D02*
X9447375Y-10828000D01*
X9594375Y-10754500D02*
G75*
G03*
X9594375Y-10754500I-73500J0D01*
G01*
X9920500Y-12588500D02*
X10067500Y-12735500D01*
X10067500Y-12588500D02*
X9920500Y-12735500D01*
X10067500Y-12662000D02*
G75*
G03*
X10067500Y-12662000I-73500J0D01*
G01*
X10003000Y-7125000D02*
X10150000Y-7272000D01*
X10150000Y-7125000D02*
X10003000Y-7272000D01*
X10150000Y-7198500D02*
G75*
G03*
X10150000Y-7198500I-73500J0D01*
G01*
X10479250Y-12840000D02*
X10626250Y-12987000D01*
X10626250Y-12840000D02*
X10479250Y-12987000D01*
X10626250Y-12913500D02*
G75*
G03*
X10626250Y-12913500I-73500J0D01*
G01*
X10638000Y-6871000D02*
X10785000Y-7018000D01*
X10785000Y-6871000D02*
X10638000Y-7018000D01*
X10785000Y-6944500D02*
G75*
G03*
X10785000Y-6944500I-73500J0D01*
G01*
X10717375Y-14745000D02*
X10864375Y-14892000D01*
X10864375Y-14745000D02*
X10717375Y-14892000D01*
X10864375Y-14818500D02*
G75*
G03*
X10864375Y-14818500I-73500J0D01*
G01*
X10955500Y-9030000D02*
X11102500Y-9177000D01*
X11102500Y-9030000D02*
X10955500Y-9177000D01*
X11102500Y-9103500D02*
G75*
G03*
X11102500Y-9103500I-73500J0D01*
G01*
X11114250Y-12586000D02*
X11261250Y-12733000D01*
X11261250Y-12586000D02*
X11114250Y-12733000D01*
X11261250Y-12659500D02*
G75*
G03*
X11261250Y-12659500I-73500J0D01*
G01*
X11352375Y-14491000D02*
X11499375Y-14638000D01*
X11499375Y-14491000D02*
X11352375Y-14638000D01*
X11499375Y-14564500D02*
G75*
G03*
X11499375Y-14564500I-73500J0D01*
G01*
X11431750Y-10935000D02*
X11578750Y-11082000D01*
X11578750Y-10935000D02*
X11431750Y-11082000D01*
X11578750Y-11008500D02*
G75*
G03*
X11578750Y-11008500I-73500J0D01*
G01*
X11590500Y-8776000D02*
X11737500Y-8923000D01*
X11737500Y-8776000D02*
X11590500Y-8923000D01*
X11737500Y-8849500D02*
G75*
G03*
X11737500Y-8849500I-73500J0D01*
G01*
X11908000Y-7125000D02*
X12055000Y-7272000D01*
X12055000Y-7125000D02*
X11908000Y-7272000D01*
X12055000Y-7198500D02*
G75*
G03*
X12055000Y-7198500I-73500J0D01*
G01*
X12066750Y-10681000D02*
X12213750Y-10828000D01*
X12213750Y-10681000D02*
X12066750Y-10828000D01*
X12213750Y-10754500D02*
G75*
G03*
X12213750Y-10754500I-73500J0D01*
G01*
X12384250Y-12840000D02*
X12531250Y-12987000D01*
X12531250Y-12840000D02*
X12384250Y-12987000D01*
X12531250Y-12913500D02*
G75*
G03*
X12531250Y-12913500I-73500J0D01*
G01*
X12543000Y-6871000D02*
X12690000Y-7018000D01*
X12690000Y-6871000D02*
X12543000Y-7018000D01*
X12690000Y-6944500D02*
G75*
G03*
X12690000Y-6944500I-73500J0D01*
G01*
X12860500Y-9030000D02*
X13007500Y-9177000D01*
X13007500Y-9030000D02*
X12860500Y-9177000D01*
X13007500Y-9103500D02*
G75*
G03*
X13007500Y-9103500I-73500J0D01*
G01*
X13019250Y-12586000D02*
X13166250Y-12733000D01*
X13166250Y-12586000D02*
X13019250Y-12733000D01*
X13166250Y-12659500D02*
G75*
G03*
X13166250Y-12659500I-73500J0D01*
G01*
X13098625Y-14745000D02*
X13245625Y-14892000D01*
X13245625Y-14745000D02*
X13098625Y-14892000D01*
X13245625Y-14818500D02*
G75*
G03*
X13245625Y-14818500I-73500J0D01*
G01*
X13336750Y-10935000D02*
X13483750Y-11082000D01*
X13483750Y-10935000D02*
X13336750Y-11082000D01*
X13483750Y-11008500D02*
G75*
G03*
X13483750Y-11008500I-73500J0D01*
G01*
X13495500Y-8776000D02*
X13642500Y-8923000D01*
X13642500Y-8776000D02*
X13495500Y-8923000D01*
X13642500Y-8849500D02*
G75*
G03*
X13642500Y-8849500I-73500J0D01*
G01*
X13733625Y-14491000D02*
X13880625Y-14638000D01*
X13880625Y-14491000D02*
X13733625Y-14638000D01*
X13880625Y-14564500D02*
G75*
G03*
X13880625Y-14564500I-73500J0D01*
G01*
X13813000Y-7125000D02*
X13960000Y-7272000D01*
X13960000Y-7125000D02*
X13813000Y-7272000D01*
X13960000Y-7198500D02*
G75*
G03*
X13960000Y-7198500I-73500J0D01*
G01*
X13971750Y-10681000D02*
X14118750Y-10828000D01*
X14118750Y-10681000D02*
X13971750Y-10828000D01*
X14118750Y-10754500D02*
G75*
G03*
X14118750Y-10754500I-73500J0D01*
G01*
X14289250Y-12840000D02*
X14436250Y-12987000D01*
X14436250Y-12840000D02*
X14289250Y-12987000D01*
X14436250Y-12913500D02*
G75*
G03*
X14436250Y-12913500I-73500J0D01*
G01*
X14448000Y-6871000D02*
X14595000Y-7018000D01*
X14595000Y-6871000D02*
X14448000Y-7018000D01*
X14595000Y-6944500D02*
G75*
G03*
X14595000Y-6944500I-73500J0D01*
G01*
X14765500Y-9030000D02*
X14912500Y-9177000D01*
X14912500Y-9030000D02*
X14765500Y-9177000D01*
X14912500Y-9103500D02*
G75*
G03*
X14912500Y-9103500I-73500J0D01*
G01*
X14924250Y-12586000D02*
X15071250Y-12733000D01*
X15071250Y-12586000D02*
X14924250Y-12733000D01*
X15071250Y-12659500D02*
G75*
G03*
X15071250Y-12659500I-73500J0D01*
G01*
X15241750Y-10935000D02*
X15388750Y-11082000D01*
X15388750Y-10935000D02*
X15241750Y-11082000D01*
X15388750Y-11008500D02*
G75*
G03*
X15388750Y-11008500I-73500J0D01*
G01*
X15400500Y-8776000D02*
X15547500Y-8923000D01*
X15547500Y-8776000D02*
X15400500Y-8923000D01*
X15547500Y-8849500D02*
G75*
G03*
X15547500Y-8849500I-73500J0D01*
G01*
X15718000Y-7125000D02*
X15865000Y-7272000D01*
X15865000Y-7125000D02*
X15718000Y-7272000D01*
X15865000Y-7198500D02*
G75*
G03*
X15865000Y-7198500I-73500J0D01*
G01*
X15876750Y-10681000D02*
X16023750Y-10828000D01*
X16023750Y-10681000D02*
X15876750Y-10828000D01*
X16023750Y-10754500D02*
G75*
G03*
X16023750Y-10754500I-73500J0D01*
G01*
X16194250Y-12840000D02*
X16341250Y-12987000D01*
X16341250Y-12840000D02*
X16194250Y-12987000D01*
X16341250Y-12913500D02*
G75*
G03*
X16341250Y-12913500I-73500J0D01*
G01*
X16353000Y-6871000D02*
X16500000Y-7018000D01*
X16500000Y-6871000D02*
X16353000Y-7018000D01*
X16500000Y-6944500D02*
G75*
G03*
X16500000Y-6944500I-73500J0D01*
G01*
X16670500Y-9030000D02*
X16817500Y-9177000D01*
X16817500Y-9030000D02*
X16670500Y-9177000D01*
X16817500Y-9103500D02*
G75*
G03*
X16817500Y-9103500I-73500J0D01*
G01*
X16829250Y-12586000D02*
X16976250Y-12733000D01*
X16976250Y-12586000D02*
X16829250Y-12733000D01*
X16976250Y-12659500D02*
G75*
G03*
X16976250Y-12659500I-73500J0D01*
G01*
X17146750Y-10935000D02*
X17293750Y-11082000D01*
X17293750Y-10935000D02*
X17146750Y-11082000D01*
X17293750Y-11008500D02*
G75*
G03*
X17293750Y-11008500I-73500J0D01*
G01*
X17305500Y-8776000D02*
X17452500Y-8923000D01*
X17452500Y-8776000D02*
X17305500Y-8923000D01*
X17452500Y-8849500D02*
G75*
G03*
X17452500Y-8849500I-73500J0D01*
G01*
X17623000Y-7125000D02*
X17770000Y-7272000D01*
X17770000Y-7125000D02*
X17623000Y-7272000D01*
X17770000Y-7198500D02*
G75*
G03*
X17770000Y-7198500I-73500J0D01*
G01*
X17781750Y-10681000D02*
X17928750Y-10828000D01*
X17928750Y-10681000D02*
X17781750Y-10828000D01*
X17928750Y-10754500D02*
G75*
G03*
X17928750Y-10754500I-73500J0D01*
G01*
X18099250Y-12840000D02*
X18246250Y-12987000D01*
X18246250Y-12840000D02*
X18099250Y-12987000D01*
X18246250Y-12913500D02*
G75*
G03*
X18246250Y-12913500I-73500J0D01*
G01*
X18258000Y-6871000D02*
X18405000Y-7018000D01*
X18405000Y-6871000D02*
X18258000Y-7018000D01*
X18405000Y-6944500D02*
G75*
G03*
X18405000Y-6944500I-73500J0D01*
G01*
X18575500Y-9030000D02*
X18722500Y-9177000D01*
X18722500Y-9030000D02*
X18575500Y-9177000D01*
X18722500Y-9103500D02*
G75*
G03*
X18722500Y-9103500I-73500J0D01*
G01*
X18734250Y-12586000D02*
X18881250Y-12733000D01*
X18881250Y-12586000D02*
X18734250Y-12733000D01*
X18881250Y-12659500D02*
G75*
G03*
X18881250Y-12659500I-73500J0D01*
G01*
X19051750Y-10935000D02*
X19198750Y-11082000D01*
X19198750Y-10935000D02*
X19051750Y-11082000D01*
X19198750Y-11008500D02*
G75*
G03*
X19198750Y-11008500I-73500J0D01*
G01*
X19210500Y-8776000D02*
X19357500Y-8923000D01*
X19357500Y-8776000D02*
X19210500Y-8923000D01*
X19357500Y-8849500D02*
G75*
G03*
X19357500Y-8849500I-73500J0D01*
G01*
X19528000Y-7125000D02*
X19675000Y-7272000D01*
X19675000Y-7125000D02*
X19528000Y-7272000D01*
X19675000Y-7198500D02*
G75*
G03*
X19675000Y-7198500I-73500J0D01*
G01*
X19686750Y-10681000D02*
X19833750Y-10828000D01*
X19833750Y-10681000D02*
X19686750Y-10828000D01*
X19833750Y-10754500D02*
G75*
G03*
X19833750Y-10754500I-73500J0D01*
G01*
X20004250Y-12840000D02*
X20151250Y-12987000D01*
X20151250Y-12840000D02*
X20004250Y-12987000D01*
X20151250Y-12913500D02*
G75*
G03*
X20151250Y-12913500I-73500J0D01*
G01*
X20163000Y-6871000D02*
X20310000Y-7018000D01*
X20310000Y-6871000D02*
X20163000Y-7018000D01*
X20310000Y-6944500D02*
G75*
G03*
X20310000Y-6944500I-73500J0D01*
G01*
X20242375Y-14745000D02*
X20389375Y-14892000D01*
X20389375Y-14745000D02*
X20242375Y-14892000D01*
X20389375Y-14818500D02*
G75*
G03*
X20389375Y-14818500I-73500J0D01*
G01*
X20480500Y-9030000D02*
X20627500Y-9177000D01*
X20627500Y-9030000D02*
X20480500Y-9177000D01*
X20627500Y-9103500D02*
G75*
G03*
X20627500Y-9103500I-73500J0D01*
G01*
X20639250Y-12586000D02*
X20786250Y-12733000D01*
X20786250Y-12586000D02*
X20639250Y-12733000D01*
X20786250Y-12659500D02*
G75*
G03*
X20786250Y-12659500I-73500J0D01*
G01*
X20877375Y-14491000D02*
X21024375Y-14638000D01*
X21024375Y-14491000D02*
X20877375Y-14638000D01*
X21024375Y-14564500D02*
G75*
G03*
X21024375Y-14564500I-73500J0D01*
G01*
X20956750Y-10935000D02*
X21103750Y-11082000D01*
X21103750Y-10935000D02*
X20956750Y-11082000D01*
X21103750Y-11008500D02*
G75*
G03*
X21103750Y-11008500I-73500J0D01*
G01*
X21115500Y-8776000D02*
X21262500Y-8923000D01*
X21262500Y-8776000D02*
X21115500Y-8923000D01*
X21262500Y-8849500D02*
G75*
G03*
X21262500Y-8849500I-73500J0D01*
G01*
X21433000Y-7125000D02*
X21580000Y-7272000D01*
X21580000Y-7125000D02*
X21433000Y-7272000D01*
X21580000Y-7198500D02*
G75*
G03*
X21580000Y-7198500I-73500J0D01*
G01*
X21591750Y-10681000D02*
X21738750Y-10828000D01*
X21738750Y-10681000D02*
X21591750Y-10828000D01*
X21738750Y-10754500D02*
G75*
G03*
X21738750Y-10754500I-73500J0D01*
G01*
X21909250Y-12840000D02*
X22056250Y-12987000D01*
X22056250Y-12840000D02*
X21909250Y-12987000D01*
X22056250Y-12913500D02*
G75*
G03*
X22056250Y-12913500I-73500J0D01*
G01*
X22068000Y-6871000D02*
X22215000Y-7018000D01*
X22215000Y-6871000D02*
X22068000Y-7018000D01*
X22215000Y-6944500D02*
G75*
G03*
X22215000Y-6944500I-73500J0D01*
G01*
X22385500Y-9030000D02*
X22532500Y-9177000D01*
X22532500Y-9030000D02*
X22385500Y-9177000D01*
X22532500Y-9103500D02*
G75*
G03*
X22532500Y-9103500I-73500J0D01*
G01*
X22544250Y-12586000D02*
X22691250Y-12733000D01*
X22691250Y-12586000D02*
X22544250Y-12733000D01*
X22691250Y-12659500D02*
G75*
G03*
X22691250Y-12659500I-73500J0D01*
G01*
X22861750Y-10935000D02*
X23008750Y-11082000D01*
X23008750Y-10935000D02*
X22861750Y-11082000D01*
X23008750Y-11008500D02*
G75*
G03*
X23008750Y-11008500I-73500J0D01*
G01*
X23020500Y-8776000D02*
X23167500Y-8923000D01*
X23167500Y-8776000D02*
X23020500Y-8923000D01*
X23167500Y-8849500D02*
G75*
G03*
X23167500Y-8849500I-73500J0D01*
G01*
X23338000Y-7125000D02*
X23485000Y-7272000D01*
X23485000Y-7125000D02*
X23338000Y-7272000D01*
X23485000Y-7198500D02*
G75*
G03*
X23485000Y-7198500I-73500J0D01*
G01*
X23496750Y-10681000D02*
X23643750Y-10828000D01*
X23643750Y-10681000D02*
X23496750Y-10828000D01*
X23643750Y-10754500D02*
G75*
G03*
X23643750Y-10754500I-73500J0D01*
G01*
X23814250Y-12840000D02*
X23961250Y-12987000D01*
X23961250Y-12840000D02*
X23814250Y-12987000D01*
X23961250Y-12913500D02*
G75*
G03*
X23961250Y-12913500I-73500J0D01*
G01*
X23973000Y-6871000D02*
X24120000Y-7018000D01*
X24120000Y-6871000D02*
X23973000Y-7018000D01*
X24120000Y-6944500D02*
G75*
G03*
X24120000Y-6944500I-73500J0D01*
G01*
X24290500Y-9030000D02*
X24437500Y-9177000D01*
X24437500Y-9030000D02*
X24290500Y-9177000D01*
X24437500Y-9103500D02*
G75*
G03*
X24437500Y-9103500I-73500J0D01*
G01*
X24449250Y-12586000D02*
X24596250Y-12733000D01*
X24596250Y-12586000D02*
X24449250Y-12733000D01*
X24596250Y-12659500D02*
G75*
G03*
X24596250Y-12659500I-73500J0D01*
G01*
X24766750Y-10935000D02*
X24913750Y-11082000D01*
X24913750Y-10935000D02*
X24766750Y-11082000D01*
X24913750Y-11008500D02*
G75*
G03*
X24913750Y-11008500I-73500J0D01*
G01*
X24925500Y-8776000D02*
X25072500Y-8923000D01*
X25072500Y-8776000D02*
X24925500Y-8923000D01*
X25072500Y-8849500D02*
G75*
G03*
X25072500Y-8849500I-73500J0D01*
G01*
X25243000Y-7125000D02*
X25390000Y-7272000D01*
X25390000Y-7125000D02*
X25243000Y-7272000D01*
X25390000Y-7198500D02*
G75*
G03*
X25390000Y-7198500I-73500J0D01*
G01*
X25401750Y-10681000D02*
X25548750Y-10828000D01*
X25548750Y-10681000D02*
X25401750Y-10828000D01*
X25548750Y-10754500D02*
G75*
G03*
X25548750Y-10754500I-73500J0D01*
G01*
X25719250Y-12840000D02*
X25866250Y-12987000D01*
X25866250Y-12840000D02*
X25719250Y-12987000D01*
X25866250Y-12913500D02*
G75*
G03*
X25866250Y-12913500I-73500J0D01*
G01*
X25878000Y-6871000D02*
X26025000Y-7018000D01*
X26025000Y-6871000D02*
X25878000Y-7018000D01*
X26025000Y-6944500D02*
G75*
G03*
X26025000Y-6944500I-73500J0D01*
G01*
X26195500Y-9030000D02*
X26342500Y-9177000D01*
X26342500Y-9030000D02*
X26195500Y-9177000D01*
X26342500Y-9103500D02*
G75*
G03*
X26342500Y-9103500I-73500J0D01*
G01*
X26354250Y-12586000D02*
X26501250Y-12733000D01*
X26501250Y-12586000D02*
X26354250Y-12733000D01*
X26501250Y-12659500D02*
G75*
G03*
X26501250Y-12659500I-73500J0D01*
G01*
X26671750Y-10935000D02*
X26818750Y-11082000D01*
X26818750Y-10935000D02*
X26671750Y-11082000D01*
X26818750Y-11008500D02*
G75*
G03*
X26818750Y-11008500I-73500J0D01*
G01*
X26830500Y-8776000D02*
X26977500Y-8923000D01*
X26977500Y-8776000D02*
X26830500Y-8923000D01*
X26977500Y-8849500D02*
G75*
G03*
X26977500Y-8849500I-73500J0D01*
G01*
X27148000Y-7125000D02*
X27295000Y-7272000D01*
X27295000Y-7125000D02*
X27148000Y-7272000D01*
X27295000Y-7198500D02*
G75*
G03*
X27295000Y-7198500I-73500J0D01*
G01*
X27306750Y-10681000D02*
X27453750Y-10828000D01*
X27453750Y-10681000D02*
X27306750Y-10828000D01*
X27453750Y-10754500D02*
G75*
G03*
X27453750Y-10754500I-73500J0D01*
G01*
X27386125Y-14745000D02*
X27533125Y-14892000D01*
X27533125Y-14745000D02*
X27386125Y-14892000D01*
X27533125Y-14818500D02*
G75*
G03*
X27533125Y-14818500I-73500J0D01*
G01*
X27624250Y-12840000D02*
X27771250Y-12987000D01*
X27771250Y-12840000D02*
X27624250Y-12987000D01*
X27771250Y-12913500D02*
G75*
G03*
X27771250Y-12913500I-73500J0D01*
G01*
X27783000Y-6871000D02*
X27930000Y-7018000D01*
X27930000Y-6871000D02*
X27783000Y-7018000D01*
X27930000Y-6944500D02*
G75*
G03*
X27930000Y-6944500I-73500J0D01*
G01*
X28021125Y-14491000D02*
X28168125Y-14638000D01*
X28168125Y-14491000D02*
X28021125Y-14638000D01*
X28168125Y-14564500D02*
G75*
G03*
X28168125Y-14564500I-73500J0D01*
G01*
X28100500Y-9030000D02*
X28247500Y-9177000D01*
X28247500Y-9030000D02*
X28100500Y-9177000D01*
X28247500Y-9103500D02*
G75*
G03*
X28247500Y-9103500I-73500J0D01*
G01*
X28259250Y-12586000D02*
X28406250Y-12733000D01*
X28406250Y-12586000D02*
X28259250Y-12733000D01*
X28406250Y-12659500D02*
G75*
G03*
X28406250Y-12659500I-73500J0D01*
G01*
X28576750Y-10935000D02*
X28723750Y-11082000D01*
X28723750Y-10935000D02*
X28576750Y-11082000D01*
X28723750Y-11008500D02*
G75*
G03*
X28723750Y-11008500I-73500J0D01*
G01*
X28735500Y-8776000D02*
X28882500Y-8923000D01*
X28882500Y-8776000D02*
X28735500Y-8923000D01*
X28882500Y-8849500D02*
G75*
G03*
X28882500Y-8849500I-73500J0D01*
G01*
X29053000Y-7125000D02*
X29200000Y-7272000D01*
X29200000Y-7125000D02*
X29053000Y-7272000D01*
X29200000Y-7198500D02*
G75*
G03*
X29200000Y-7198500I-73500J0D01*
G01*
X29211750Y-10681000D02*
X29358750Y-10828000D01*
X29358750Y-10681000D02*
X29211750Y-10828000D01*
X29358750Y-10754500D02*
G75*
G03*
X29358750Y-10754500I-73500J0D01*
G01*
X29529250Y-12840000D02*
X29676250Y-12987000D01*
X29676250Y-12840000D02*
X29529250Y-12987000D01*
X29676250Y-12913500D02*
G75*
G03*
X29676250Y-12913500I-73500J0D01*
G01*
X29688000Y-6871000D02*
X29835000Y-7018000D01*
X29835000Y-6871000D02*
X29688000Y-7018000D01*
X29835000Y-6944500D02*
G75*
G03*
X29835000Y-6944500I-73500J0D01*
G01*
X29767375Y-14745000D02*
X29914375Y-14892000D01*
X29914375Y-14745000D02*
X29767375Y-14892000D01*
X29914375Y-14818500D02*
G75*
G03*
X29914375Y-14818500I-73500J0D01*
G01*
X30005500Y-9030000D02*
X30152500Y-9177000D01*
X30152500Y-9030000D02*
X30005500Y-9177000D01*
X30152500Y-9103500D02*
G75*
G03*
X30152500Y-9103500I-73500J0D01*
G01*
X30164250Y-12586000D02*
X30311250Y-12733000D01*
X30311250Y-12586000D02*
X30164250Y-12733000D01*
X30311250Y-12659500D02*
G75*
G03*
X30311250Y-12659500I-73500J0D01*
G01*
X30402375Y-14491000D02*
X30549375Y-14638000D01*
X30549375Y-14491000D02*
X30402375Y-14638000D01*
X30549375Y-14564500D02*
G75*
G03*
X30549375Y-14564500I-73500J0D01*
G01*
X30481750Y-10935000D02*
X30628750Y-11082000D01*
X30628750Y-10935000D02*
X30481750Y-11082000D01*
X30628750Y-11008500D02*
G75*
G03*
X30628750Y-11008500I-73500J0D01*
G01*
X30640500Y-8776000D02*
X30787500Y-8923000D01*
X30787500Y-8776000D02*
X30640500Y-8923000D01*
X30787500Y-8849500D02*
G75*
G03*
X30787500Y-8849500I-73500J0D01*
G01*
X30958000Y-7125000D02*
X31105000Y-7272000D01*
X31105000Y-7125000D02*
X30958000Y-7272000D01*
X31105000Y-7198500D02*
G75*
G03*
X31105000Y-7198500I-73500J0D01*
G01*
X31116750Y-10681000D02*
X31263750Y-10828000D01*
X31263750Y-10681000D02*
X31116750Y-10828000D01*
X31263750Y-10754500D02*
G75*
G03*
X31263750Y-10754500I-73500J0D01*
G01*
X31593000Y-6871000D02*
X31740000Y-7018000D01*
X31740000Y-6871000D02*
X31593000Y-7018000D01*
X31740000Y-6944500D02*
G75*
G03*
X31740000Y-6944500I-73500J0D01*
G01*
X31910500Y-9030000D02*
X32057500Y-9177000D01*
X32057500Y-9030000D02*
X31910500Y-9177000D01*
X32057500Y-9103500D02*
G75*
G03*
X32057500Y-9103500I-73500J0D01*
G01*
X32148625Y-14745000D02*
X32295625Y-14892000D01*
X32295625Y-14745000D02*
X32148625Y-14892000D01*
X32295625Y-14818500D02*
G75*
G03*
X32295625Y-14818500I-73500J0D01*
G01*
X32386750Y-10935000D02*
X32533750Y-11082000D01*
X32533750Y-10935000D02*
X32386750Y-11082000D01*
X32533750Y-11008500D02*
G75*
G03*
X32533750Y-11008500I-73500J0D01*
G01*
X32545500Y-8776000D02*
X32692500Y-8923000D01*
X32692500Y-8776000D02*
X32545500Y-8923000D01*
X32692500Y-8849500D02*
G75*
G03*
X32692500Y-8849500I-73500J0D01*
G01*
X32783625Y-14491000D02*
X32930625Y-14638000D01*
X32930625Y-14491000D02*
X32783625Y-14638000D01*
X32930625Y-14564500D02*
G75*
G03*
X32930625Y-14564500I-73500J0D01*
G01*
X33021750Y-10681000D02*
X33168750Y-10828000D01*
X33168750Y-10681000D02*
X33021750Y-10828000D01*
X33168750Y-10754500D02*
G75*
G03*
X33168750Y-10754500I-73500J0D01*
G01*
X33101125Y-12840000D02*
X33248125Y-12987000D01*
X33248125Y-12840000D02*
X33101125Y-12987000D01*
X33248125Y-12913500D02*
G75*
G03*
X33248125Y-12913500I-73500J0D01*
G01*
X33575500Y-10932500D02*
X33722500Y-11079500D01*
X33722500Y-10932500D02*
X33575500Y-11079500D01*
X33722500Y-11006000D02*
G75*
G03*
X33722500Y-11006000I-73500J0D01*
G01*
X33736125Y-12586000D02*
X33883125Y-12733000D01*
X33883125Y-12586000D02*
X33736125Y-12733000D01*
X33883125Y-12659500D02*
G75*
G03*
X33883125Y-12659500I-73500J0D01*
G01*
X33815500Y-7125000D02*
X33962500Y-7272000D01*
X33962500Y-7125000D02*
X33815500Y-7272000D01*
X33962500Y-7198500D02*
G75*
G03*
X33962500Y-7198500I-73500J0D01*
G01*
X34210500Y-10678500D02*
X34357500Y-10825500D01*
X34357500Y-10678500D02*
X34210500Y-10825500D01*
X34357500Y-10752000D02*
G75*
G03*
X34357500Y-10752000I-73500J0D01*
G01*
X34290500Y-9027500D02*
X34437500Y-9174500D01*
X34437500Y-9027500D02*
X34290500Y-9174500D01*
X34437500Y-9101000D02*
G75*
G03*
X34437500Y-9101000I-73500J0D01*
G01*
X34450500Y-6871000D02*
X34597500Y-7018000D01*
X34597500Y-6871000D02*
X34450500Y-7018000D01*
X34597500Y-6944500D02*
G75*
G03*
X34597500Y-6944500I-73500J0D01*
G01*
X34529875Y-14745000D02*
X34676875Y-14892000D01*
X34676875Y-14745000D02*
X34529875Y-14892000D01*
X34676875Y-14818500D02*
G75*
G03*
X34676875Y-14818500I-73500J0D01*
G01*
X34925500Y-8773500D02*
X35072500Y-8920500D01*
X35072500Y-8773500D02*
X34925500Y-8920500D01*
X35072500Y-8847000D02*
G75*
G03*
X35072500Y-8847000I-73500J0D01*
G01*
X35164875Y-9853000D02*
X35311875Y-10000000D01*
X35311875Y-9853000D02*
X35164875Y-10000000D01*
X35311875Y-9926500D02*
G75*
G03*
X35311875Y-9926500I-73500J0D01*
G01*
X35164875Y-14491000D02*
X35311875Y-14638000D01*
X35311875Y-14491000D02*
X35164875Y-14638000D01*
X35311875Y-14564500D02*
G75*
G03*
X35311875Y-14564500I-73500J0D01*
G01*
X35418875Y-10488000D02*
X35565875Y-10635000D01*
X35565875Y-10488000D02*
X35418875Y-10635000D01*
X35565875Y-10561500D02*
G75*
G03*
X35565875Y-10561500I-73500J0D01*
G01*
D12*
X7981428Y-16420714D02*
X7981428Y-16120714D01*
X8052857Y-16120714D01*
X8095714Y-16135000D01*
X8124286Y-16163571D01*
X8138571Y-16192143D01*
X8152857Y-16249286D01*
X8152857Y-16292143D01*
X8138571Y-16349286D01*
X8124286Y-16377857D01*
X8095714Y-16406429D01*
X8052857Y-16420714D01*
X7981428Y-16420714D01*
X8281428Y-16420714D02*
X8281428Y-16220714D01*
X8281428Y-16277857D02*
X8295714Y-16249286D01*
X8310000Y-16235000D01*
X8338571Y-16220714D01*
X8367143Y-16220714D01*
X8467143Y-16420714D02*
X8467143Y-16220714D01*
X8467143Y-16120714D02*
X8452857Y-16135000D01*
X8467143Y-16149286D01*
X8481428Y-16135000D01*
X8467143Y-16120714D01*
X8467143Y-16149286D01*
X8652857Y-16420714D02*
X8624286Y-16406429D01*
X8610000Y-16377857D01*
X8610000Y-16120714D01*
X8810000Y-16420714D02*
X8781428Y-16406429D01*
X8767143Y-16377857D01*
X8767143Y-16120714D01*
X9152857Y-16420714D02*
X9152857Y-16120714D01*
X9252857Y-16335000D01*
X9352857Y-16120714D01*
X9352857Y-16420714D01*
X9624286Y-16420714D02*
X9624286Y-16263571D01*
X9610000Y-16235000D01*
X9581428Y-16220714D01*
X9524286Y-16220714D01*
X9495714Y-16235000D01*
X9624286Y-16406429D02*
X9595714Y-16420714D01*
X9524286Y-16420714D01*
X9495714Y-16406429D01*
X9481428Y-16377857D01*
X9481428Y-16349286D01*
X9495714Y-16320714D01*
X9524286Y-16306429D01*
X9595714Y-16306429D01*
X9624286Y-16292143D01*
X9767143Y-16220714D02*
X9767143Y-16520714D01*
X9767143Y-16235000D02*
X9795714Y-16220714D01*
X9852857Y-16220714D01*
X9881428Y-16235000D01*
X9895714Y-16249286D01*
X9910000Y-16277857D01*
X9910000Y-16363571D01*
X9895714Y-16392143D01*
X9881428Y-16406429D01*
X9852857Y-16420714D01*
X9795714Y-16420714D01*
X9767143Y-16406429D01*
X10038571Y-16392143D02*
X10052857Y-16406429D01*
X10038571Y-16420714D01*
X10024286Y-16406429D01*
X10038571Y-16392143D01*
X10038571Y-16420714D01*
X10038571Y-16235000D02*
X10052857Y-16249286D01*
X10038571Y-16263571D01*
X10024286Y-16249286D01*
X10038571Y-16235000D01*
X10038571Y-16263571D01*
X7655000Y-16895000D02*
X7695000Y-16935000D01*
X7695000Y-16895000D02*
X7655000Y-16935000D01*
X8038571Y-16750714D02*
X8067143Y-16750714D01*
X8095714Y-16765000D01*
X8110000Y-16779286D01*
X8124286Y-16807857D01*
X8138571Y-16865000D01*
X8138571Y-16936429D01*
X8124286Y-16993572D01*
X8110000Y-17022143D01*
X8095714Y-17036429D01*
X8067143Y-17050714D01*
X8038571Y-17050714D01*
X8010000Y-17036429D01*
X7995714Y-17022143D01*
X7981428Y-16993572D01*
X7967143Y-16936429D01*
X7967143Y-16865000D01*
X7981428Y-16807857D01*
X7995714Y-16779286D01*
X8010000Y-16765000D01*
X8038571Y-16750714D01*
X8267143Y-17022143D02*
X8281428Y-17036429D01*
X8267143Y-17050714D01*
X8252857Y-17036429D01*
X8267143Y-17022143D01*
X8267143Y-17050714D01*
X8538571Y-16850714D02*
X8538571Y-17050714D01*
X8467143Y-16736429D02*
X8395714Y-16950714D01*
X8581428Y-16950714D01*
X8752857Y-16750714D02*
X8781428Y-16750714D01*
X8810000Y-16765000D01*
X8824286Y-16779286D01*
X8838571Y-16807857D01*
X8852857Y-16865000D01*
X8852857Y-16936429D01*
X8838571Y-16993572D01*
X8824286Y-17022143D01*
X8810000Y-17036429D01*
X8781428Y-17050714D01*
X8752857Y-17050714D01*
X8724286Y-17036429D01*
X8710000Y-17022143D01*
X8695714Y-16993572D01*
X8681428Y-16936429D01*
X8681428Y-16865000D01*
X8695714Y-16807857D01*
X8710000Y-16779286D01*
X8724286Y-16765000D01*
X8752857Y-16750714D01*
X8981428Y-17050714D02*
X8981428Y-16850714D01*
X8981428Y-16879286D02*
X8995714Y-16865000D01*
X9024286Y-16850714D01*
X9067143Y-16850714D01*
X9095714Y-16865000D01*
X9110000Y-16893572D01*
X9110000Y-17050714D01*
X9110000Y-16893572D02*
X9124286Y-16865000D01*
X9152857Y-16850714D01*
X9195714Y-16850714D01*
X9224286Y-16865000D01*
X9238571Y-16893572D01*
X9238571Y-17050714D01*
X9381428Y-17050714D02*
X9381428Y-16850714D01*
X9381428Y-16879286D02*
X9395714Y-16865000D01*
X9424286Y-16850714D01*
X9467143Y-16850714D01*
X9495714Y-16865000D01*
X9510000Y-16893572D01*
X9510000Y-17050714D01*
X9510000Y-16893572D02*
X9524286Y-16865000D01*
X9552857Y-16850714D01*
X9595714Y-16850714D01*
X9624286Y-16865000D01*
X9638571Y-16893572D01*
X9638571Y-17050714D01*
X10224286Y-16736429D02*
X9967143Y-17122143D01*
X10610000Y-16750714D02*
X10638571Y-16750714D01*
X10667143Y-16765000D01*
X10681428Y-16779286D01*
X10695714Y-16807857D01*
X10710000Y-16865000D01*
X10710000Y-16936429D01*
X10695714Y-16993572D01*
X10681428Y-17022143D01*
X10667143Y-17036429D01*
X10638571Y-17050714D01*
X10610000Y-17050714D01*
X10581428Y-17036429D01*
X10567143Y-17022143D01*
X10552857Y-16993572D01*
X10538571Y-16936429D01*
X10538571Y-16865000D01*
X10552857Y-16807857D01*
X10567143Y-16779286D01*
X10581428Y-16765000D01*
X10610000Y-16750714D01*
X10838571Y-17022143D02*
X10852857Y-17036429D01*
X10838571Y-17050714D01*
X10824286Y-17036429D01*
X10838571Y-17022143D01*
X10838571Y-17050714D01*
X11038571Y-16750714D02*
X11067143Y-16750714D01*
X11095714Y-16765000D01*
X11110000Y-16779286D01*
X11124286Y-16807857D01*
X11138571Y-16865000D01*
X11138571Y-16936429D01*
X11124286Y-16993572D01*
X11110000Y-17022143D01*
X11095714Y-17036429D01*
X11067143Y-17050714D01*
X11038571Y-17050714D01*
X11010000Y-17036429D01*
X10995714Y-17022143D01*
X10981428Y-16993572D01*
X10967143Y-16936429D01*
X10967143Y-16865000D01*
X10981428Y-16807857D01*
X10995714Y-16779286D01*
X11010000Y-16765000D01*
X11038571Y-16750714D01*
X11424286Y-17050714D02*
X11252857Y-17050714D01*
X11338571Y-17050714D02*
X11338571Y-16750714D01*
X11310000Y-16793572D01*
X11281428Y-16822143D01*
X11252857Y-16836429D01*
X11681428Y-16750714D02*
X11624286Y-16750714D01*
X11595714Y-16765000D01*
X11581428Y-16779286D01*
X11552857Y-16822143D01*
X11538571Y-16879286D01*
X11538571Y-16993572D01*
X11552857Y-17022143D01*
X11567143Y-17036429D01*
X11595714Y-17050714D01*
X11652857Y-17050714D01*
X11681428Y-17036429D01*
X11695714Y-17022143D01*
X11710000Y-16993572D01*
X11710000Y-16922143D01*
X11695714Y-16893572D01*
X11681428Y-16879286D01*
X11652857Y-16865000D01*
X11595714Y-16865000D01*
X11567143Y-16879286D01*
X11552857Y-16893572D01*
X11538571Y-16922143D01*
X11824286Y-16750714D02*
X11824286Y-16807857D01*
X11938571Y-16750714D02*
X11938571Y-16807857D01*
X12381428Y-17165000D02*
X12367143Y-17150714D01*
X12338571Y-17107857D01*
X12324286Y-17079286D01*
X12310000Y-17036429D01*
X12295714Y-16965000D01*
X12295714Y-16907857D01*
X12310000Y-16836429D01*
X12324286Y-16793572D01*
X12338571Y-16765000D01*
X12367143Y-16722143D01*
X12381428Y-16707857D01*
X12538571Y-16879286D02*
X12510000Y-16865000D01*
X12495714Y-16850714D01*
X12481428Y-16822143D01*
X12481428Y-16807857D01*
X12495714Y-16779286D01*
X12510000Y-16765000D01*
X12538571Y-16750714D01*
X12595714Y-16750714D01*
X12624286Y-16765000D01*
X12638571Y-16779286D01*
X12652857Y-16807857D01*
X12652857Y-16822143D01*
X12638571Y-16850714D01*
X12624286Y-16865000D01*
X12595714Y-16879286D01*
X12538571Y-16879286D01*
X12510000Y-16893572D01*
X12495714Y-16907857D01*
X12481428Y-16936429D01*
X12481428Y-16993572D01*
X12495714Y-17022143D01*
X12510000Y-17036429D01*
X12538571Y-17050714D01*
X12595714Y-17050714D01*
X12624286Y-17036429D01*
X12638571Y-17022143D01*
X12652857Y-16993572D01*
X12652857Y-16936429D01*
X12638571Y-16907857D01*
X12624286Y-16893572D01*
X12595714Y-16879286D01*
X13010000Y-17050714D02*
X13010000Y-16750714D01*
X13138571Y-17050714D02*
X13138571Y-16893572D01*
X13124286Y-16865000D01*
X13095714Y-16850714D01*
X13052857Y-16850714D01*
X13024286Y-16865000D01*
X13010000Y-16879286D01*
X13324286Y-17050714D02*
X13295714Y-17036429D01*
X13281428Y-17022143D01*
X13267143Y-16993572D01*
X13267143Y-16907857D01*
X13281428Y-16879286D01*
X13295714Y-16865000D01*
X13324286Y-16850714D01*
X13367143Y-16850714D01*
X13395714Y-16865000D01*
X13410000Y-16879286D01*
X13424286Y-16907857D01*
X13424286Y-16993572D01*
X13410000Y-17022143D01*
X13395714Y-17036429D01*
X13367143Y-17050714D01*
X13324286Y-17050714D01*
X13595714Y-17050714D02*
X13567143Y-17036429D01*
X13552857Y-17007857D01*
X13552857Y-16750714D01*
X13824286Y-17036429D02*
X13795714Y-17050714D01*
X13738571Y-17050714D01*
X13710000Y-17036429D01*
X13695714Y-17007857D01*
X13695714Y-16893572D01*
X13710000Y-16865000D01*
X13738571Y-16850714D01*
X13795714Y-16850714D01*
X13824286Y-16865000D01*
X13838571Y-16893572D01*
X13838571Y-16922143D01*
X13695714Y-16950714D01*
X13952857Y-17036429D02*
X13981428Y-17050714D01*
X14038571Y-17050714D01*
X14067143Y-17036429D01*
X14081428Y-17007857D01*
X14081428Y-16993572D01*
X14067143Y-16965000D01*
X14038571Y-16950714D01*
X13995714Y-16950714D01*
X13967143Y-16936429D01*
X13952857Y-16907857D01*
X13952857Y-16893572D01*
X13967143Y-16865000D01*
X13995714Y-16850714D01*
X14038571Y-16850714D01*
X14067143Y-16865000D01*
X14181428Y-17165000D02*
X14195714Y-17150714D01*
X14224286Y-17107857D01*
X14238571Y-17079286D01*
X14252857Y-17036429D01*
X14267143Y-16965000D01*
X14267143Y-16907857D01*
X14252857Y-16836429D01*
X14238571Y-16793572D01*
X14224286Y-16765000D01*
X14195714Y-16722143D01*
X14181428Y-16707857D01*
X7695000Y-17311000D02*
G75*
G03*
X7695000Y-17311000I-30000J0D01*
G01*
X8038571Y-17146714D02*
X8067143Y-17146714D01*
X8095714Y-17161000D01*
X8110000Y-17175286D01*
X8124286Y-17203857D01*
X8138571Y-17261000D01*
X8138571Y-17332429D01*
X8124286Y-17389572D01*
X8110000Y-17418143D01*
X8095714Y-17432429D01*
X8067143Y-17446714D01*
X8038571Y-17446714D01*
X8010000Y-17432429D01*
X7995714Y-17418143D01*
X7981428Y-17389572D01*
X7967143Y-17332429D01*
X7967143Y-17261000D01*
X7981428Y-17203857D01*
X7995714Y-17175286D01*
X8010000Y-17161000D01*
X8038571Y-17146714D01*
X8267143Y-17418143D02*
X8281428Y-17432429D01*
X8267143Y-17446714D01*
X8252857Y-17432429D01*
X8267143Y-17418143D01*
X8267143Y-17446714D01*
X8538571Y-17146714D02*
X8481428Y-17146714D01*
X8452857Y-17161000D01*
X8438571Y-17175286D01*
X8410000Y-17218143D01*
X8395714Y-17275286D01*
X8395714Y-17389572D01*
X8410000Y-17418143D01*
X8424286Y-17432429D01*
X8452857Y-17446714D01*
X8510000Y-17446714D01*
X8538571Y-17432429D01*
X8552857Y-17418143D01*
X8567143Y-17389572D01*
X8567143Y-17318143D01*
X8552857Y-17289572D01*
X8538571Y-17275286D01*
X8510000Y-17261000D01*
X8452857Y-17261000D01*
X8424286Y-17275286D01*
X8410000Y-17289572D01*
X8395714Y-17318143D01*
X8752857Y-17146714D02*
X8781428Y-17146714D01*
X8810000Y-17161000D01*
X8824286Y-17175286D01*
X8838571Y-17203857D01*
X8852857Y-17261000D01*
X8852857Y-17332429D01*
X8838571Y-17389572D01*
X8824286Y-17418143D01*
X8810000Y-17432429D01*
X8781428Y-17446714D01*
X8752857Y-17446714D01*
X8724286Y-17432429D01*
X8710000Y-17418143D01*
X8695714Y-17389572D01*
X8681428Y-17332429D01*
X8681428Y-17261000D01*
X8695714Y-17203857D01*
X8710000Y-17175286D01*
X8724286Y-17161000D01*
X8752857Y-17146714D01*
X8981428Y-17446714D02*
X8981428Y-17246714D01*
X8981428Y-17275286D02*
X8995714Y-17261000D01*
X9024286Y-17246714D01*
X9067143Y-17246714D01*
X9095714Y-17261000D01*
X9110000Y-17289572D01*
X9110000Y-17446714D01*
X9110000Y-17289572D02*
X9124286Y-17261000D01*
X9152857Y-17246714D01*
X9195714Y-17246714D01*
X9224286Y-17261000D01*
X9238571Y-17289572D01*
X9238571Y-17446714D01*
X9381428Y-17446714D02*
X9381428Y-17246714D01*
X9381428Y-17275286D02*
X9395714Y-17261000D01*
X9424286Y-17246714D01*
X9467143Y-17246714D01*
X9495714Y-17261000D01*
X9510000Y-17289572D01*
X9510000Y-17446714D01*
X9510000Y-17289572D02*
X9524286Y-17261000D01*
X9552857Y-17246714D01*
X9595714Y-17246714D01*
X9624286Y-17261000D01*
X9638571Y-17289572D01*
X9638571Y-17446714D01*
X10224286Y-17132429D02*
X9967143Y-17518143D01*
X10610000Y-17146714D02*
X10638571Y-17146714D01*
X10667143Y-17161000D01*
X10681428Y-17175286D01*
X10695714Y-17203857D01*
X10710000Y-17261000D01*
X10710000Y-17332429D01*
X10695714Y-17389572D01*
X10681428Y-17418143D01*
X10667143Y-17432429D01*
X10638571Y-17446714D01*
X10610000Y-17446714D01*
X10581428Y-17432429D01*
X10567143Y-17418143D01*
X10552857Y-17389572D01*
X10538571Y-17332429D01*
X10538571Y-17261000D01*
X10552857Y-17203857D01*
X10567143Y-17175286D01*
X10581428Y-17161000D01*
X10610000Y-17146714D01*
X10838571Y-17418143D02*
X10852857Y-17432429D01*
X10838571Y-17446714D01*
X10824286Y-17432429D01*
X10838571Y-17418143D01*
X10838571Y-17446714D01*
X11038571Y-17146714D02*
X11067143Y-17146714D01*
X11095714Y-17161000D01*
X11110000Y-17175286D01*
X11124286Y-17203857D01*
X11138571Y-17261000D01*
X11138571Y-17332429D01*
X11124286Y-17389572D01*
X11110000Y-17418143D01*
X11095714Y-17432429D01*
X11067143Y-17446714D01*
X11038571Y-17446714D01*
X11010000Y-17432429D01*
X10995714Y-17418143D01*
X10981428Y-17389572D01*
X10967143Y-17332429D01*
X10967143Y-17261000D01*
X10981428Y-17203857D01*
X10995714Y-17175286D01*
X11010000Y-17161000D01*
X11038571Y-17146714D01*
X11252857Y-17175286D02*
X11267143Y-17161000D01*
X11295714Y-17146714D01*
X11367143Y-17146714D01*
X11395714Y-17161000D01*
X11410000Y-17175286D01*
X11424286Y-17203857D01*
X11424286Y-17232429D01*
X11410000Y-17275286D01*
X11238571Y-17446714D01*
X11424286Y-17446714D01*
X11681428Y-17246714D02*
X11681428Y-17446714D01*
X11610000Y-17132429D02*
X11538571Y-17346714D01*
X11724286Y-17346714D01*
X11824286Y-17146714D02*
X11824286Y-17203857D01*
X11938571Y-17146714D02*
X11938571Y-17203857D01*
X12381428Y-17561000D02*
X12367143Y-17546714D01*
X12338571Y-17503857D01*
X12324286Y-17475286D01*
X12310000Y-17432429D01*
X12295714Y-17361000D01*
X12295714Y-17303857D01*
X12310000Y-17232429D01*
X12324286Y-17189572D01*
X12338571Y-17161000D01*
X12367143Y-17118143D01*
X12381428Y-17103857D01*
X12552857Y-17146714D02*
X12581428Y-17146714D01*
X12610000Y-17161000D01*
X12624286Y-17175286D01*
X12638571Y-17203857D01*
X12652857Y-17261000D01*
X12652857Y-17332429D01*
X12638571Y-17389572D01*
X12624286Y-17418143D01*
X12610000Y-17432429D01*
X12581428Y-17446714D01*
X12552857Y-17446714D01*
X12524286Y-17432429D01*
X12510000Y-17418143D01*
X12495714Y-17389572D01*
X12481428Y-17332429D01*
X12481428Y-17261000D01*
X12495714Y-17203857D01*
X12510000Y-17175286D01*
X12524286Y-17161000D01*
X12552857Y-17146714D01*
X13010000Y-17446714D02*
X13010000Y-17146714D01*
X13138571Y-17446714D02*
X13138571Y-17289572D01*
X13124286Y-17261000D01*
X13095714Y-17246714D01*
X13052857Y-17246714D01*
X13024286Y-17261000D01*
X13010000Y-17275286D01*
X13324286Y-17446714D02*
X13295714Y-17432429D01*
X13281428Y-17418143D01*
X13267143Y-17389572D01*
X13267143Y-17303857D01*
X13281428Y-17275286D01*
X13295714Y-17261000D01*
X13324286Y-17246714D01*
X13367143Y-17246714D01*
X13395714Y-17261000D01*
X13410000Y-17275286D01*
X13424286Y-17303857D01*
X13424286Y-17389572D01*
X13410000Y-17418143D01*
X13395714Y-17432429D01*
X13367143Y-17446714D01*
X13324286Y-17446714D01*
X13595714Y-17446714D02*
X13567143Y-17432429D01*
X13552857Y-17403857D01*
X13552857Y-17146714D01*
X13824286Y-17432429D02*
X13795714Y-17446714D01*
X13738571Y-17446714D01*
X13710000Y-17432429D01*
X13695714Y-17403857D01*
X13695714Y-17289572D01*
X13710000Y-17261000D01*
X13738571Y-17246714D01*
X13795714Y-17246714D01*
X13824286Y-17261000D01*
X13838571Y-17289572D01*
X13838571Y-17318143D01*
X13695714Y-17346714D01*
X13952857Y-17432429D02*
X13981428Y-17446714D01*
X14038571Y-17446714D01*
X14067143Y-17432429D01*
X14081428Y-17403857D01*
X14081428Y-17389572D01*
X14067143Y-17361000D01*
X14038571Y-17346714D01*
X13995714Y-17346714D01*
X13967143Y-17332429D01*
X13952857Y-17303857D01*
X13952857Y-17289572D01*
X13967143Y-17261000D01*
X13995714Y-17246714D01*
X14038571Y-17246714D01*
X14067143Y-17261000D01*
X14438571Y-17332429D02*
X14667143Y-17332429D01*
X14552857Y-17446714D02*
X14552857Y-17218143D01*
X15167143Y-17246714D02*
X15167143Y-17446714D01*
X15095714Y-17132429D02*
X15024286Y-17346714D01*
X15210000Y-17346714D01*
X15538571Y-17432429D02*
X15567143Y-17446714D01*
X15624286Y-17446714D01*
X15652857Y-17432429D01*
X15667143Y-17403857D01*
X15667143Y-17389572D01*
X15652857Y-17361000D01*
X15624286Y-17346714D01*
X15581428Y-17346714D01*
X15552857Y-17332429D01*
X15538571Y-17303857D01*
X15538571Y-17289572D01*
X15552857Y-17261000D01*
X15581428Y-17246714D01*
X15624286Y-17246714D01*
X15652857Y-17261000D01*
X15838571Y-17446714D02*
X15810000Y-17432429D01*
X15795714Y-17403857D01*
X15795714Y-17146714D01*
X15995714Y-17446714D02*
X15967143Y-17432429D01*
X15952857Y-17418143D01*
X15938571Y-17389572D01*
X15938571Y-17303857D01*
X15952857Y-17275286D01*
X15967143Y-17261000D01*
X15995714Y-17246714D01*
X16038571Y-17246714D01*
X16067143Y-17261000D01*
X16081428Y-17275286D01*
X16095714Y-17303857D01*
X16095714Y-17389572D01*
X16081428Y-17418143D01*
X16067143Y-17432429D01*
X16038571Y-17446714D01*
X15995714Y-17446714D01*
X16181428Y-17246714D02*
X16295714Y-17246714D01*
X16224286Y-17146714D02*
X16224286Y-17403857D01*
X16238571Y-17432429D01*
X16267143Y-17446714D01*
X16295714Y-17446714D01*
X16381428Y-17432429D02*
X16410000Y-17446714D01*
X16467143Y-17446714D01*
X16495714Y-17432429D01*
X16510000Y-17403857D01*
X16510000Y-17389572D01*
X16495714Y-17361000D01*
X16467143Y-17346714D01*
X16424286Y-17346714D01*
X16395714Y-17332429D01*
X16381428Y-17303857D01*
X16381428Y-17289572D01*
X16395714Y-17261000D01*
X16424286Y-17246714D01*
X16467143Y-17246714D01*
X16495714Y-17261000D01*
X16610000Y-17561000D02*
X16624286Y-17546714D01*
X16652857Y-17503857D01*
X16667143Y-17475286D01*
X16681428Y-17432429D01*
X16695714Y-17361000D01*
X16695714Y-17303857D01*
X16681428Y-17232429D01*
X16667143Y-17189572D01*
X16652857Y-17161000D01*
X16624286Y-17118143D01*
X16610000Y-17103857D01*
X7655000Y-17667000D02*
X7655000Y-17747000D01*
X7615000Y-17707000D02*
X7695000Y-17707000D01*
X8038571Y-17542714D02*
X8067143Y-17542714D01*
X8095714Y-17557000D01*
X8110000Y-17571286D01*
X8124286Y-17599857D01*
X8138571Y-17657000D01*
X8138571Y-17728429D01*
X8124286Y-17785572D01*
X8110000Y-17814143D01*
X8095714Y-17828429D01*
X8067143Y-17842714D01*
X8038571Y-17842714D01*
X8010000Y-17828429D01*
X7995714Y-17814143D01*
X7981428Y-17785572D01*
X7967143Y-17728429D01*
X7967143Y-17657000D01*
X7981428Y-17599857D01*
X7995714Y-17571286D01*
X8010000Y-17557000D01*
X8038571Y-17542714D01*
X8267143Y-17814143D02*
X8281428Y-17828429D01*
X8267143Y-17842714D01*
X8252857Y-17828429D01*
X8267143Y-17814143D01*
X8267143Y-17842714D01*
X8452857Y-17671286D02*
X8424286Y-17657000D01*
X8410000Y-17642714D01*
X8395714Y-17614143D01*
X8395714Y-17599857D01*
X8410000Y-17571286D01*
X8424286Y-17557000D01*
X8452857Y-17542714D01*
X8510000Y-17542714D01*
X8538571Y-17557000D01*
X8552857Y-17571286D01*
X8567143Y-17599857D01*
X8567143Y-17614143D01*
X8552857Y-17642714D01*
X8538571Y-17657000D01*
X8510000Y-17671286D01*
X8452857Y-17671286D01*
X8424286Y-17685572D01*
X8410000Y-17699857D01*
X8395714Y-17728429D01*
X8395714Y-17785572D01*
X8410000Y-17814143D01*
X8424286Y-17828429D01*
X8452857Y-17842714D01*
X8510000Y-17842714D01*
X8538571Y-17828429D01*
X8552857Y-17814143D01*
X8567143Y-17785572D01*
X8567143Y-17728429D01*
X8552857Y-17699857D01*
X8538571Y-17685572D01*
X8510000Y-17671286D01*
X8752857Y-17542714D02*
X8781428Y-17542714D01*
X8810000Y-17557000D01*
X8824286Y-17571286D01*
X8838571Y-17599857D01*
X8852857Y-17657000D01*
X8852857Y-17728429D01*
X8838571Y-17785572D01*
X8824286Y-17814143D01*
X8810000Y-17828429D01*
X8781428Y-17842714D01*
X8752857Y-17842714D01*
X8724286Y-17828429D01*
X8710000Y-17814143D01*
X8695714Y-17785572D01*
X8681428Y-17728429D01*
X8681428Y-17657000D01*
X8695714Y-17599857D01*
X8710000Y-17571286D01*
X8724286Y-17557000D01*
X8752857Y-17542714D01*
X8981428Y-17842714D02*
X8981428Y-17642714D01*
X8981428Y-17671286D02*
X8995714Y-17657000D01*
X9024286Y-17642714D01*
X9067143Y-17642714D01*
X9095714Y-17657000D01*
X9110000Y-17685572D01*
X9110000Y-17842714D01*
X9110000Y-17685572D02*
X9124286Y-17657000D01*
X9152857Y-17642714D01*
X9195714Y-17642714D01*
X9224286Y-17657000D01*
X9238571Y-17685572D01*
X9238571Y-17842714D01*
X9381428Y-17842714D02*
X9381428Y-17642714D01*
X9381428Y-17671286D02*
X9395714Y-17657000D01*
X9424286Y-17642714D01*
X9467143Y-17642714D01*
X9495714Y-17657000D01*
X9510000Y-17685572D01*
X9510000Y-17842714D01*
X9510000Y-17685572D02*
X9524286Y-17657000D01*
X9552857Y-17642714D01*
X9595714Y-17642714D01*
X9624286Y-17657000D01*
X9638571Y-17685572D01*
X9638571Y-17842714D01*
X10224286Y-17528429D02*
X9967143Y-17914143D01*
X10610000Y-17542714D02*
X10638571Y-17542714D01*
X10667143Y-17557000D01*
X10681428Y-17571286D01*
X10695714Y-17599857D01*
X10710000Y-17657000D01*
X10710000Y-17728429D01*
X10695714Y-17785572D01*
X10681428Y-17814143D01*
X10667143Y-17828429D01*
X10638571Y-17842714D01*
X10610000Y-17842714D01*
X10581428Y-17828429D01*
X10567143Y-17814143D01*
X10552857Y-17785572D01*
X10538571Y-17728429D01*
X10538571Y-17657000D01*
X10552857Y-17599857D01*
X10567143Y-17571286D01*
X10581428Y-17557000D01*
X10610000Y-17542714D01*
X10838571Y-17814143D02*
X10852857Y-17828429D01*
X10838571Y-17842714D01*
X10824286Y-17828429D01*
X10838571Y-17814143D01*
X10838571Y-17842714D01*
X11038571Y-17542714D02*
X11067143Y-17542714D01*
X11095714Y-17557000D01*
X11110000Y-17571286D01*
X11124286Y-17599857D01*
X11138571Y-17657000D01*
X11138571Y-17728429D01*
X11124286Y-17785572D01*
X11110000Y-17814143D01*
X11095714Y-17828429D01*
X11067143Y-17842714D01*
X11038571Y-17842714D01*
X11010000Y-17828429D01*
X10995714Y-17814143D01*
X10981428Y-17785572D01*
X10967143Y-17728429D01*
X10967143Y-17657000D01*
X10981428Y-17599857D01*
X10995714Y-17571286D01*
X11010000Y-17557000D01*
X11038571Y-17542714D01*
X11238571Y-17542714D02*
X11424286Y-17542714D01*
X11324286Y-17657000D01*
X11367143Y-17657000D01*
X11395714Y-17671286D01*
X11410000Y-17685572D01*
X11424286Y-17714143D01*
X11424286Y-17785572D01*
X11410000Y-17814143D01*
X11395714Y-17828429D01*
X11367143Y-17842714D01*
X11281428Y-17842714D01*
X11252857Y-17828429D01*
X11238571Y-17814143D01*
X11710000Y-17842714D02*
X11538571Y-17842714D01*
X11624286Y-17842714D02*
X11624286Y-17542714D01*
X11595714Y-17585572D01*
X11567143Y-17614143D01*
X11538571Y-17628429D01*
X11824286Y-17542714D02*
X11824286Y-17599857D01*
X11938571Y-17542714D02*
X11938571Y-17599857D01*
X12381428Y-17957000D02*
X12367143Y-17942714D01*
X12338571Y-17899857D01*
X12324286Y-17871286D01*
X12310000Y-17828429D01*
X12295714Y-17757000D01*
X12295714Y-17699857D01*
X12310000Y-17628429D01*
X12324286Y-17585572D01*
X12338571Y-17557000D01*
X12367143Y-17514143D01*
X12381428Y-17499857D01*
X12652857Y-17842714D02*
X12481428Y-17842714D01*
X12567143Y-17842714D02*
X12567143Y-17542714D01*
X12538571Y-17585572D01*
X12510000Y-17614143D01*
X12481428Y-17628429D01*
X12767143Y-17571286D02*
X12781428Y-17557000D01*
X12810000Y-17542714D01*
X12881428Y-17542714D01*
X12910000Y-17557000D01*
X12924286Y-17571286D01*
X12938571Y-17599857D01*
X12938571Y-17628429D01*
X12924286Y-17671286D01*
X12752857Y-17842714D01*
X12938571Y-17842714D01*
X13195714Y-17542714D02*
X13138571Y-17542714D01*
X13110000Y-17557000D01*
X13095714Y-17571286D01*
X13067143Y-17614143D01*
X13052857Y-17671286D01*
X13052857Y-17785572D01*
X13067143Y-17814143D01*
X13081428Y-17828429D01*
X13110000Y-17842714D01*
X13167143Y-17842714D01*
X13195714Y-17828429D01*
X13210000Y-17814143D01*
X13224286Y-17785572D01*
X13224286Y-17714143D01*
X13210000Y-17685572D01*
X13195714Y-17671286D01*
X13167143Y-17657000D01*
X13110000Y-17657000D01*
X13081428Y-17671286D01*
X13067143Y-17685572D01*
X13052857Y-17714143D01*
X13581428Y-17842714D02*
X13581428Y-17542714D01*
X13710000Y-17842714D02*
X13710000Y-17685572D01*
X13695714Y-17657000D01*
X13667143Y-17642714D01*
X13624286Y-17642714D01*
X13595714Y-17657000D01*
X13581428Y-17671286D01*
X13895714Y-17842714D02*
X13867143Y-17828429D01*
X13852857Y-17814143D01*
X13838571Y-17785572D01*
X13838571Y-17699857D01*
X13852857Y-17671286D01*
X13867143Y-17657000D01*
X13895714Y-17642714D01*
X13938571Y-17642714D01*
X13967143Y-17657000D01*
X13981428Y-17671286D01*
X13995714Y-17699857D01*
X13995714Y-17785572D01*
X13981428Y-17814143D01*
X13967143Y-17828429D01*
X13938571Y-17842714D01*
X13895714Y-17842714D01*
X14167143Y-17842714D02*
X14138571Y-17828429D01*
X14124286Y-17799857D01*
X14124286Y-17542714D01*
X14395714Y-17828429D02*
X14367143Y-17842714D01*
X14310000Y-17842714D01*
X14281428Y-17828429D01*
X14267143Y-17799857D01*
X14267143Y-17685572D01*
X14281428Y-17657000D01*
X14310000Y-17642714D01*
X14367143Y-17642714D01*
X14395714Y-17657000D01*
X14410000Y-17685572D01*
X14410000Y-17714143D01*
X14267143Y-17742714D01*
X14524286Y-17828429D02*
X14552857Y-17842714D01*
X14610000Y-17842714D01*
X14638571Y-17828429D01*
X14652857Y-17799857D01*
X14652857Y-17785572D01*
X14638571Y-17757000D01*
X14610000Y-17742714D01*
X14567143Y-17742714D01*
X14538571Y-17728429D01*
X14524286Y-17699857D01*
X14524286Y-17685572D01*
X14538571Y-17657000D01*
X14567143Y-17642714D01*
X14610000Y-17642714D01*
X14638571Y-17657000D01*
X14752857Y-17957000D02*
X14767143Y-17942714D01*
X14795714Y-17899857D01*
X14810000Y-17871286D01*
X14824286Y-17828429D01*
X14838571Y-17757000D01*
X14838571Y-17699857D01*
X14824286Y-17628429D01*
X14810000Y-17585572D01*
X14795714Y-17557000D01*
X14767143Y-17514143D01*
X14752857Y-17499857D01*
X7680356Y-18138356D02*
X7680356Y-18067644D01*
X7609644Y-18067644D01*
X7609644Y-18138356D01*
X7680356Y-18138356D01*
X8138571Y-18238714D02*
X7967143Y-18238714D01*
X8052857Y-18238714D02*
X8052857Y-17938714D01*
X8024286Y-17981572D01*
X7995714Y-18010143D01*
X7967143Y-18024429D01*
X8267143Y-18210143D02*
X8281428Y-18224429D01*
X8267143Y-18238714D01*
X8252857Y-18224429D01*
X8267143Y-18210143D01*
X8267143Y-18238714D01*
X8467143Y-17938714D02*
X8495714Y-17938714D01*
X8524286Y-17953000D01*
X8538571Y-17967286D01*
X8552857Y-17995857D01*
X8567143Y-18053000D01*
X8567143Y-18124429D01*
X8552857Y-18181572D01*
X8538571Y-18210143D01*
X8524286Y-18224429D01*
X8495714Y-18238714D01*
X8467143Y-18238714D01*
X8438571Y-18224429D01*
X8424286Y-18210143D01*
X8410000Y-18181572D01*
X8395714Y-18124429D01*
X8395714Y-18053000D01*
X8410000Y-17995857D01*
X8424286Y-17967286D01*
X8438571Y-17953000D01*
X8467143Y-17938714D01*
X8752857Y-17938714D02*
X8781428Y-17938714D01*
X8810000Y-17953000D01*
X8824286Y-17967286D01*
X8838571Y-17995857D01*
X8852857Y-18053000D01*
X8852857Y-18124429D01*
X8838571Y-18181572D01*
X8824286Y-18210143D01*
X8810000Y-18224429D01*
X8781428Y-18238714D01*
X8752857Y-18238714D01*
X8724286Y-18224429D01*
X8710000Y-18210143D01*
X8695714Y-18181572D01*
X8681428Y-18124429D01*
X8681428Y-18053000D01*
X8695714Y-17995857D01*
X8710000Y-17967286D01*
X8724286Y-17953000D01*
X8752857Y-17938714D01*
X8981428Y-18238714D02*
X8981428Y-18038714D01*
X8981428Y-18067286D02*
X8995714Y-18053000D01*
X9024286Y-18038714D01*
X9067143Y-18038714D01*
X9095714Y-18053000D01*
X9110000Y-18081572D01*
X9110000Y-18238714D01*
X9110000Y-18081572D02*
X9124286Y-18053000D01*
X9152857Y-18038714D01*
X9195714Y-18038714D01*
X9224286Y-18053000D01*
X9238571Y-18081572D01*
X9238571Y-18238714D01*
X9381428Y-18238714D02*
X9381428Y-18038714D01*
X9381428Y-18067286D02*
X9395714Y-18053000D01*
X9424286Y-18038714D01*
X9467143Y-18038714D01*
X9495714Y-18053000D01*
X9510000Y-18081572D01*
X9510000Y-18238714D01*
X9510000Y-18081572D02*
X9524286Y-18053000D01*
X9552857Y-18038714D01*
X9595714Y-18038714D01*
X9624286Y-18053000D01*
X9638571Y-18081572D01*
X9638571Y-18238714D01*
X10224286Y-17924429D02*
X9967143Y-18310143D01*
X10610000Y-17938714D02*
X10638571Y-17938714D01*
X10667143Y-17953000D01*
X10681428Y-17967286D01*
X10695714Y-17995857D01*
X10710000Y-18053000D01*
X10710000Y-18124429D01*
X10695714Y-18181572D01*
X10681428Y-18210143D01*
X10667143Y-18224429D01*
X10638571Y-18238714D01*
X10610000Y-18238714D01*
X10581428Y-18224429D01*
X10567143Y-18210143D01*
X10552857Y-18181572D01*
X10538571Y-18124429D01*
X10538571Y-18053000D01*
X10552857Y-17995857D01*
X10567143Y-17967286D01*
X10581428Y-17953000D01*
X10610000Y-17938714D01*
X10838571Y-18210143D02*
X10852857Y-18224429D01*
X10838571Y-18238714D01*
X10824286Y-18224429D01*
X10838571Y-18210143D01*
X10838571Y-18238714D01*
X11038571Y-17938714D02*
X11067143Y-17938714D01*
X11095714Y-17953000D01*
X11110000Y-17967286D01*
X11124286Y-17995857D01*
X11138571Y-18053000D01*
X11138571Y-18124429D01*
X11124286Y-18181572D01*
X11110000Y-18210143D01*
X11095714Y-18224429D01*
X11067143Y-18238714D01*
X11038571Y-18238714D01*
X11010000Y-18224429D01*
X10995714Y-18210143D01*
X10981428Y-18181572D01*
X10967143Y-18124429D01*
X10967143Y-18053000D01*
X10981428Y-17995857D01*
X10995714Y-17967286D01*
X11010000Y-17953000D01*
X11038571Y-17938714D01*
X11238571Y-17938714D02*
X11424286Y-17938714D01*
X11324286Y-18053000D01*
X11367143Y-18053000D01*
X11395714Y-18067286D01*
X11410000Y-18081572D01*
X11424286Y-18110143D01*
X11424286Y-18181572D01*
X11410000Y-18210143D01*
X11395714Y-18224429D01*
X11367143Y-18238714D01*
X11281428Y-18238714D01*
X11252857Y-18224429D01*
X11238571Y-18210143D01*
X11567143Y-18238714D02*
X11624286Y-18238714D01*
X11652857Y-18224429D01*
X11667143Y-18210143D01*
X11695714Y-18167286D01*
X11710000Y-18110143D01*
X11710000Y-17995857D01*
X11695714Y-17967286D01*
X11681428Y-17953000D01*
X11652857Y-17938714D01*
X11595714Y-17938714D01*
X11567143Y-17953000D01*
X11552857Y-17967286D01*
X11538571Y-17995857D01*
X11538571Y-18067286D01*
X11552857Y-18095857D01*
X11567143Y-18110143D01*
X11595714Y-18124429D01*
X11652857Y-18124429D01*
X11681428Y-18110143D01*
X11695714Y-18095857D01*
X11710000Y-18067286D01*
X11824286Y-17938714D02*
X11824286Y-17995857D01*
X11938571Y-17938714D02*
X11938571Y-17995857D01*
X12381428Y-18353000D02*
X12367143Y-18338714D01*
X12338571Y-18295857D01*
X12324286Y-18267286D01*
X12310000Y-18224429D01*
X12295714Y-18153000D01*
X12295714Y-18095857D01*
X12310000Y-18024429D01*
X12324286Y-17981572D01*
X12338571Y-17953000D01*
X12367143Y-17910143D01*
X12381428Y-17895857D01*
X12481428Y-17967286D02*
X12495714Y-17953000D01*
X12524286Y-17938714D01*
X12595714Y-17938714D01*
X12624286Y-17953000D01*
X12638571Y-17967286D01*
X12652857Y-17995857D01*
X12652857Y-18024429D01*
X12638571Y-18067286D01*
X12467143Y-18238714D01*
X12652857Y-18238714D01*
X13010000Y-18238714D02*
X13010000Y-17938714D01*
X13138571Y-18238714D02*
X13138571Y-18081572D01*
X13124286Y-18053000D01*
X13095714Y-18038714D01*
X13052857Y-18038714D01*
X13024286Y-18053000D01*
X13010000Y-18067286D01*
X13324286Y-18238714D02*
X13295714Y-18224429D01*
X13281428Y-18210143D01*
X13267143Y-18181572D01*
X13267143Y-18095857D01*
X13281428Y-18067286D01*
X13295714Y-18053000D01*
X13324286Y-18038714D01*
X13367143Y-18038714D01*
X13395714Y-18053000D01*
X13410000Y-18067286D01*
X13424286Y-18095857D01*
X13424286Y-18181572D01*
X13410000Y-18210143D01*
X13395714Y-18224429D01*
X13367143Y-18238714D01*
X13324286Y-18238714D01*
X13595714Y-18238714D02*
X13567143Y-18224429D01*
X13552857Y-18195857D01*
X13552857Y-17938714D01*
X13824286Y-18224429D02*
X13795714Y-18238714D01*
X13738571Y-18238714D01*
X13710000Y-18224429D01*
X13695714Y-18195857D01*
X13695714Y-18081572D01*
X13710000Y-18053000D01*
X13738571Y-18038714D01*
X13795714Y-18038714D01*
X13824286Y-18053000D01*
X13838571Y-18081572D01*
X13838571Y-18110143D01*
X13695714Y-18138714D01*
X13952857Y-18224429D02*
X13981428Y-18238714D01*
X14038571Y-18238714D01*
X14067143Y-18224429D01*
X14081428Y-18195857D01*
X14081428Y-18181572D01*
X14067143Y-18153000D01*
X14038571Y-18138714D01*
X13995714Y-18138714D01*
X13967143Y-18124429D01*
X13952857Y-18095857D01*
X13952857Y-18081572D01*
X13967143Y-18053000D01*
X13995714Y-18038714D01*
X14038571Y-18038714D01*
X14067143Y-18053000D01*
X14181428Y-18353000D02*
X14195714Y-18338714D01*
X14224286Y-18295857D01*
X14238571Y-18267286D01*
X14252857Y-18224429D01*
X14267143Y-18153000D01*
X14267143Y-18095857D01*
X14252857Y-18024429D01*
X14238571Y-17981572D01*
X14224286Y-17953000D01*
X14195714Y-17910143D01*
X14181428Y-17895857D01*
X7644000Y-18550000D02*
X7695000Y-18499000D01*
X7644000Y-18448000D01*
X7593000Y-18499000D01*
X7644000Y-18550000D01*
X8138571Y-18634714D02*
X7967143Y-18634714D01*
X8052857Y-18634714D02*
X8052857Y-18334714D01*
X8024286Y-18377572D01*
X7995714Y-18406143D01*
X7967143Y-18420429D01*
X8267143Y-18606143D02*
X8281428Y-18620429D01*
X8267143Y-18634714D01*
X8252857Y-18620429D01*
X8267143Y-18606143D01*
X8267143Y-18634714D01*
X8467143Y-18334714D02*
X8495714Y-18334714D01*
X8524286Y-18349000D01*
X8538571Y-18363286D01*
X8552857Y-18391857D01*
X8567143Y-18449000D01*
X8567143Y-18520429D01*
X8552857Y-18577572D01*
X8538571Y-18606143D01*
X8524286Y-18620429D01*
X8495714Y-18634714D01*
X8467143Y-18634714D01*
X8438571Y-18620429D01*
X8424286Y-18606143D01*
X8410000Y-18577572D01*
X8395714Y-18520429D01*
X8395714Y-18449000D01*
X8410000Y-18391857D01*
X8424286Y-18363286D01*
X8438571Y-18349000D01*
X8467143Y-18334714D01*
X8681428Y-18363286D02*
X8695714Y-18349000D01*
X8724286Y-18334714D01*
X8795714Y-18334714D01*
X8824286Y-18349000D01*
X8838571Y-18363286D01*
X8852857Y-18391857D01*
X8852857Y-18420429D01*
X8838571Y-18463286D01*
X8667143Y-18634714D01*
X8852857Y-18634714D01*
X8981428Y-18634714D02*
X8981428Y-18434714D01*
X8981428Y-18463286D02*
X8995714Y-18449000D01*
X9024286Y-18434714D01*
X9067143Y-18434714D01*
X9095714Y-18449000D01*
X9110000Y-18477572D01*
X9110000Y-18634714D01*
X9110000Y-18477572D02*
X9124286Y-18449000D01*
X9152857Y-18434714D01*
X9195714Y-18434714D01*
X9224286Y-18449000D01*
X9238571Y-18477572D01*
X9238571Y-18634714D01*
X9381428Y-18634714D02*
X9381428Y-18434714D01*
X9381428Y-18463286D02*
X9395714Y-18449000D01*
X9424286Y-18434714D01*
X9467143Y-18434714D01*
X9495714Y-18449000D01*
X9510000Y-18477572D01*
X9510000Y-18634714D01*
X9510000Y-18477572D02*
X9524286Y-18449000D01*
X9552857Y-18434714D01*
X9595714Y-18434714D01*
X9624286Y-18449000D01*
X9638571Y-18477572D01*
X9638571Y-18634714D01*
X10224286Y-18320429D02*
X9967143Y-18706143D01*
X10610000Y-18334714D02*
X10638571Y-18334714D01*
X10667143Y-18349000D01*
X10681428Y-18363286D01*
X10695714Y-18391857D01*
X10710000Y-18449000D01*
X10710000Y-18520429D01*
X10695714Y-18577572D01*
X10681428Y-18606143D01*
X10667143Y-18620429D01*
X10638571Y-18634714D01*
X10610000Y-18634714D01*
X10581428Y-18620429D01*
X10567143Y-18606143D01*
X10552857Y-18577572D01*
X10538571Y-18520429D01*
X10538571Y-18449000D01*
X10552857Y-18391857D01*
X10567143Y-18363286D01*
X10581428Y-18349000D01*
X10610000Y-18334714D01*
X10838571Y-18606143D02*
X10852857Y-18620429D01*
X10838571Y-18634714D01*
X10824286Y-18620429D01*
X10838571Y-18606143D01*
X10838571Y-18634714D01*
X11038571Y-18334714D02*
X11067143Y-18334714D01*
X11095714Y-18349000D01*
X11110000Y-18363286D01*
X11124286Y-18391857D01*
X11138571Y-18449000D01*
X11138571Y-18520429D01*
X11124286Y-18577572D01*
X11110000Y-18606143D01*
X11095714Y-18620429D01*
X11067143Y-18634714D01*
X11038571Y-18634714D01*
X11010000Y-18620429D01*
X10995714Y-18606143D01*
X10981428Y-18577572D01*
X10967143Y-18520429D01*
X10967143Y-18449000D01*
X10981428Y-18391857D01*
X10995714Y-18363286D01*
X11010000Y-18349000D01*
X11038571Y-18334714D01*
X11395714Y-18434714D02*
X11395714Y-18634714D01*
X11324286Y-18320429D02*
X11252857Y-18534714D01*
X11438571Y-18534714D01*
X11610000Y-18334714D02*
X11638571Y-18334714D01*
X11667143Y-18349000D01*
X11681428Y-18363286D01*
X11695714Y-18391857D01*
X11710000Y-18449000D01*
X11710000Y-18520429D01*
X11695714Y-18577572D01*
X11681428Y-18606143D01*
X11667143Y-18620429D01*
X11638571Y-18634714D01*
X11610000Y-18634714D01*
X11581428Y-18620429D01*
X11567143Y-18606143D01*
X11552857Y-18577572D01*
X11538571Y-18520429D01*
X11538571Y-18449000D01*
X11552857Y-18391857D01*
X11567143Y-18363286D01*
X11581428Y-18349000D01*
X11610000Y-18334714D01*
X11824286Y-18334714D02*
X11824286Y-18391857D01*
X11938571Y-18334714D02*
X11938571Y-18391857D01*
X12381428Y-18749000D02*
X12367143Y-18734714D01*
X12338571Y-18691857D01*
X12324286Y-18663286D01*
X12310000Y-18620429D01*
X12295714Y-18549000D01*
X12295714Y-18491857D01*
X12310000Y-18420429D01*
X12324286Y-18377572D01*
X12338571Y-18349000D01*
X12367143Y-18306143D01*
X12381428Y-18291857D01*
X12624286Y-18434714D02*
X12624286Y-18634714D01*
X12552857Y-18320429D02*
X12481428Y-18534714D01*
X12667143Y-18534714D01*
X12752857Y-18334714D02*
X12938571Y-18334714D01*
X12838571Y-18449000D01*
X12881428Y-18449000D01*
X12910000Y-18463286D01*
X12924286Y-18477572D01*
X12938571Y-18506143D01*
X12938571Y-18577572D01*
X12924286Y-18606143D01*
X12910000Y-18620429D01*
X12881428Y-18634714D01*
X12795714Y-18634714D01*
X12767143Y-18620429D01*
X12752857Y-18606143D01*
X13295714Y-18634714D02*
X13295714Y-18334714D01*
X13424286Y-18634714D02*
X13424286Y-18477572D01*
X13410000Y-18449000D01*
X13381428Y-18434714D01*
X13338571Y-18434714D01*
X13310000Y-18449000D01*
X13295714Y-18463286D01*
X13610000Y-18634714D02*
X13581428Y-18620429D01*
X13567143Y-18606143D01*
X13552857Y-18577572D01*
X13552857Y-18491857D01*
X13567143Y-18463286D01*
X13581428Y-18449000D01*
X13610000Y-18434714D01*
X13652857Y-18434714D01*
X13681428Y-18449000D01*
X13695714Y-18463286D01*
X13710000Y-18491857D01*
X13710000Y-18577572D01*
X13695714Y-18606143D01*
X13681428Y-18620429D01*
X13652857Y-18634714D01*
X13610000Y-18634714D01*
X13881428Y-18634714D02*
X13852857Y-18620429D01*
X13838571Y-18591857D01*
X13838571Y-18334714D01*
X14110000Y-18620429D02*
X14081428Y-18634714D01*
X14024286Y-18634714D01*
X13995714Y-18620429D01*
X13981428Y-18591857D01*
X13981428Y-18477572D01*
X13995714Y-18449000D01*
X14024286Y-18434714D01*
X14081428Y-18434714D01*
X14110000Y-18449000D01*
X14124286Y-18477572D01*
X14124286Y-18506143D01*
X13981428Y-18534714D01*
X14238571Y-18620429D02*
X14267143Y-18634714D01*
X14324286Y-18634714D01*
X14352857Y-18620429D01*
X14367143Y-18591857D01*
X14367143Y-18577572D01*
X14352857Y-18549000D01*
X14324286Y-18534714D01*
X14281428Y-18534714D01*
X14252857Y-18520429D01*
X14238571Y-18491857D01*
X14238571Y-18477572D01*
X14252857Y-18449000D01*
X14281428Y-18434714D01*
X14324286Y-18434714D01*
X14352857Y-18449000D01*
X14467143Y-18749000D02*
X14481428Y-18734714D01*
X14510000Y-18691857D01*
X14524286Y-18663286D01*
X14538571Y-18620429D01*
X14552857Y-18549000D01*
X14552857Y-18491857D01*
X14538571Y-18420429D01*
X14524286Y-18377572D01*
X14510000Y-18349000D01*
X14481428Y-18306143D01*
X14467143Y-18291857D01*
X7548000Y-18821500D02*
X7695000Y-18968500D01*
X7695000Y-18821500D02*
X7548000Y-18968500D01*
X7695000Y-18895000D02*
G75*
G03*
X7695000Y-18895000I-73500J0D01*
G01*
X8138571Y-19030714D02*
X7967143Y-19030714D01*
X8052857Y-19030714D02*
X8052857Y-18730714D01*
X8024286Y-18773572D01*
X7995714Y-18802143D01*
X7967143Y-18816429D01*
X8267143Y-19002143D02*
X8281428Y-19016429D01*
X8267143Y-19030714D01*
X8252857Y-19016429D01*
X8267143Y-19002143D01*
X8267143Y-19030714D01*
X8538571Y-18830714D02*
X8538571Y-19030714D01*
X8467143Y-18716429D02*
X8395714Y-18930714D01*
X8581428Y-18930714D01*
X8667143Y-18730714D02*
X8867143Y-18730714D01*
X8738571Y-19030714D01*
X8981428Y-19030714D02*
X8981428Y-18830714D01*
X8981428Y-18859286D02*
X8995714Y-18845000D01*
X9024286Y-18830714D01*
X9067143Y-18830714D01*
X9095714Y-18845000D01*
X9110000Y-18873572D01*
X9110000Y-19030714D01*
X9110000Y-18873572D02*
X9124286Y-18845000D01*
X9152857Y-18830714D01*
X9195714Y-18830714D01*
X9224286Y-18845000D01*
X9238571Y-18873572D01*
X9238571Y-19030714D01*
X9381428Y-19030714D02*
X9381428Y-18830714D01*
X9381428Y-18859286D02*
X9395714Y-18845000D01*
X9424286Y-18830714D01*
X9467143Y-18830714D01*
X9495714Y-18845000D01*
X9510000Y-18873572D01*
X9510000Y-19030714D01*
X9510000Y-18873572D02*
X9524286Y-18845000D01*
X9552857Y-18830714D01*
X9595714Y-18830714D01*
X9624286Y-18845000D01*
X9638571Y-18873572D01*
X9638571Y-19030714D01*
X10224286Y-18716429D02*
X9967143Y-19102143D01*
X10610000Y-18730714D02*
X10638571Y-18730714D01*
X10667143Y-18745000D01*
X10681428Y-18759286D01*
X10695714Y-18787857D01*
X10710000Y-18845000D01*
X10710000Y-18916429D01*
X10695714Y-18973572D01*
X10681428Y-19002143D01*
X10667143Y-19016429D01*
X10638571Y-19030714D01*
X10610000Y-19030714D01*
X10581428Y-19016429D01*
X10567143Y-19002143D01*
X10552857Y-18973572D01*
X10538571Y-18916429D01*
X10538571Y-18845000D01*
X10552857Y-18787857D01*
X10567143Y-18759286D01*
X10581428Y-18745000D01*
X10610000Y-18730714D01*
X10838571Y-19002143D02*
X10852857Y-19016429D01*
X10838571Y-19030714D01*
X10824286Y-19016429D01*
X10838571Y-19002143D01*
X10838571Y-19030714D01*
X11038571Y-18730714D02*
X11067143Y-18730714D01*
X11095714Y-18745000D01*
X11110000Y-18759286D01*
X11124286Y-18787857D01*
X11138571Y-18845000D01*
X11138571Y-18916429D01*
X11124286Y-18973572D01*
X11110000Y-19002143D01*
X11095714Y-19016429D01*
X11067143Y-19030714D01*
X11038571Y-19030714D01*
X11010000Y-19016429D01*
X10995714Y-19002143D01*
X10981428Y-18973572D01*
X10967143Y-18916429D01*
X10967143Y-18845000D01*
X10981428Y-18787857D01*
X10995714Y-18759286D01*
X11010000Y-18745000D01*
X11038571Y-18730714D01*
X11410000Y-18730714D02*
X11267143Y-18730714D01*
X11252857Y-18873572D01*
X11267143Y-18859286D01*
X11295714Y-18845000D01*
X11367143Y-18845000D01*
X11395714Y-18859286D01*
X11410000Y-18873572D01*
X11424286Y-18902143D01*
X11424286Y-18973572D01*
X11410000Y-19002143D01*
X11395714Y-19016429D01*
X11367143Y-19030714D01*
X11295714Y-19030714D01*
X11267143Y-19016429D01*
X11252857Y-19002143D01*
X11595714Y-18859286D02*
X11567143Y-18845000D01*
X11552857Y-18830714D01*
X11538571Y-18802143D01*
X11538571Y-18787857D01*
X11552857Y-18759286D01*
X11567143Y-18745000D01*
X11595714Y-18730714D01*
X11652857Y-18730714D01*
X11681428Y-18745000D01*
X11695714Y-18759286D01*
X11710000Y-18787857D01*
X11710000Y-18802143D01*
X11695714Y-18830714D01*
X11681428Y-18845000D01*
X11652857Y-18859286D01*
X11595714Y-18859286D01*
X11567143Y-18873572D01*
X11552857Y-18887857D01*
X11538571Y-18916429D01*
X11538571Y-18973572D01*
X11552857Y-19002143D01*
X11567143Y-19016429D01*
X11595714Y-19030714D01*
X11652857Y-19030714D01*
X11681428Y-19016429D01*
X11695714Y-19002143D01*
X11710000Y-18973572D01*
X11710000Y-18916429D01*
X11695714Y-18887857D01*
X11681428Y-18873572D01*
X11652857Y-18859286D01*
X11824286Y-18730714D02*
X11824286Y-18787857D01*
X11938571Y-18730714D02*
X11938571Y-18787857D01*
X12381428Y-19145000D02*
X12367143Y-19130714D01*
X12338571Y-19087857D01*
X12324286Y-19059286D01*
X12310000Y-19016429D01*
X12295714Y-18945000D01*
X12295714Y-18887857D01*
X12310000Y-18816429D01*
X12324286Y-18773572D01*
X12338571Y-18745000D01*
X12367143Y-18702143D01*
X12381428Y-18687857D01*
X12652857Y-19030714D02*
X12481428Y-19030714D01*
X12567143Y-19030714D02*
X12567143Y-18730714D01*
X12538571Y-18773572D01*
X12510000Y-18802143D01*
X12481428Y-18816429D01*
X12752857Y-18730714D02*
X12938571Y-18730714D01*
X12838571Y-18845000D01*
X12881428Y-18845000D01*
X12910000Y-18859286D01*
X12924286Y-18873572D01*
X12938571Y-18902143D01*
X12938571Y-18973572D01*
X12924286Y-19002143D01*
X12910000Y-19016429D01*
X12881428Y-19030714D01*
X12795714Y-19030714D01*
X12767143Y-19016429D01*
X12752857Y-19002143D01*
X13124286Y-18730714D02*
X13152857Y-18730714D01*
X13181428Y-18745000D01*
X13195714Y-18759286D01*
X13210000Y-18787857D01*
X13224286Y-18845000D01*
X13224286Y-18916429D01*
X13210000Y-18973572D01*
X13195714Y-19002143D01*
X13181428Y-19016429D01*
X13152857Y-19030714D01*
X13124286Y-19030714D01*
X13095714Y-19016429D01*
X13081428Y-19002143D01*
X13067143Y-18973572D01*
X13052857Y-18916429D01*
X13052857Y-18845000D01*
X13067143Y-18787857D01*
X13081428Y-18759286D01*
X13095714Y-18745000D01*
X13124286Y-18730714D01*
X13581428Y-19030714D02*
X13581428Y-18730714D01*
X13710000Y-19030714D02*
X13710000Y-18873572D01*
X13695714Y-18845000D01*
X13667143Y-18830714D01*
X13624286Y-18830714D01*
X13595714Y-18845000D01*
X13581428Y-18859286D01*
X13895714Y-19030714D02*
X13867143Y-19016429D01*
X13852857Y-19002143D01*
X13838571Y-18973572D01*
X13838571Y-18887857D01*
X13852857Y-18859286D01*
X13867143Y-18845000D01*
X13895714Y-18830714D01*
X13938571Y-18830714D01*
X13967143Y-18845000D01*
X13981428Y-18859286D01*
X13995714Y-18887857D01*
X13995714Y-18973572D01*
X13981428Y-19002143D01*
X13967143Y-19016429D01*
X13938571Y-19030714D01*
X13895714Y-19030714D01*
X14167143Y-19030714D02*
X14138571Y-19016429D01*
X14124286Y-18987857D01*
X14124286Y-18730714D01*
X14395714Y-19016429D02*
X14367143Y-19030714D01*
X14310000Y-19030714D01*
X14281428Y-19016429D01*
X14267143Y-18987857D01*
X14267143Y-18873572D01*
X14281428Y-18845000D01*
X14310000Y-18830714D01*
X14367143Y-18830714D01*
X14395714Y-18845000D01*
X14410000Y-18873572D01*
X14410000Y-18902143D01*
X14267143Y-18930714D01*
X14524286Y-19016429D02*
X14552857Y-19030714D01*
X14610000Y-19030714D01*
X14638571Y-19016429D01*
X14652857Y-18987857D01*
X14652857Y-18973572D01*
X14638571Y-18945000D01*
X14610000Y-18930714D01*
X14567143Y-18930714D01*
X14538571Y-18916429D01*
X14524286Y-18887857D01*
X14524286Y-18873572D01*
X14538571Y-18845000D01*
X14567143Y-18830714D01*
X14610000Y-18830714D01*
X14638571Y-18845000D01*
X14752857Y-19145000D02*
X14767143Y-19130714D01*
X14795714Y-19087857D01*
X14810000Y-19059286D01*
X14824286Y-19016429D01*
X14838571Y-18945000D01*
X14838571Y-18887857D01*
X14824286Y-18816429D01*
X14810000Y-18773572D01*
X14795714Y-18745000D01*
X14767143Y-18702143D01*
X14752857Y-18687857D01*
M02*
