%FSLAX45Y45*%
G04 Gerber Fmt 4.5, Leading zero omitted, Abs format (unit mm)*
G04 Created by KiCad (PCBNEW (5.1.9)-1) date 2021-05-27 06:27:14*
%MOMM*%
%LPD*%
G01*
G04 APERTURE LIST*
%TA.AperFunction,Profile*%
%ADD10C,0.100000*%
%TD*%
%ADD11C,0.200000*%
%ADD12C,0.300000*%
G04 APERTURE END LIST*
D10*
X36000000Y-4550000D02*
X36000000Y-3800000D01*
X36000000Y-4550000D02*
X36000000Y-5250000D01*
X36000000Y-15450000D02*
G75*
G02*
X35500000Y-15950000I-500000J0D01*
G01*
X8200000Y-15950000D02*
G75*
G02*
X7700000Y-15450000I0J500000D01*
G01*
X7700000Y-3800000D02*
G75*
G02*
X8200000Y-3300000I500000J0D01*
G01*
X35500000Y-3300000D02*
X8200000Y-3300000D01*
X7700000Y-3800000D02*
X7700000Y-15450000D01*
X8200000Y-15950000D02*
X35500000Y-15950000D01*
X36000000Y-5250000D02*
X36000000Y-15450000D01*
X35500000Y-3300000D02*
G75*
G02*
X36000000Y-3800000I0J-500000D01*
G01*
D11*
D12*
X7981428Y-16420714D02*
X7981428Y-16120714D01*
X8052857Y-16120714D01*
X8095714Y-16135000D01*
X8124286Y-16163571D01*
X8138571Y-16192143D01*
X8152857Y-16249286D01*
X8152857Y-16292143D01*
X8138571Y-16349286D01*
X8124286Y-16377857D01*
X8095714Y-16406429D01*
X8052857Y-16420714D01*
X7981428Y-16420714D01*
X8281428Y-16420714D02*
X8281428Y-16220714D01*
X8281428Y-16277857D02*
X8295714Y-16249286D01*
X8310000Y-16235000D01*
X8338571Y-16220714D01*
X8367143Y-16220714D01*
X8467143Y-16420714D02*
X8467143Y-16220714D01*
X8467143Y-16120714D02*
X8452857Y-16135000D01*
X8467143Y-16149286D01*
X8481428Y-16135000D01*
X8467143Y-16120714D01*
X8467143Y-16149286D01*
X8652857Y-16420714D02*
X8624286Y-16406429D01*
X8610000Y-16377857D01*
X8610000Y-16120714D01*
X8810000Y-16420714D02*
X8781428Y-16406429D01*
X8767143Y-16377857D01*
X8767143Y-16120714D01*
X9152857Y-16420714D02*
X9152857Y-16120714D01*
X9252857Y-16335000D01*
X9352857Y-16120714D01*
X9352857Y-16420714D01*
X9624286Y-16420714D02*
X9624286Y-16263571D01*
X9610000Y-16235000D01*
X9581428Y-16220714D01*
X9524286Y-16220714D01*
X9495714Y-16235000D01*
X9624286Y-16406429D02*
X9595714Y-16420714D01*
X9524286Y-16420714D01*
X9495714Y-16406429D01*
X9481428Y-16377857D01*
X9481428Y-16349286D01*
X9495714Y-16320714D01*
X9524286Y-16306429D01*
X9595714Y-16306429D01*
X9624286Y-16292143D01*
X9767143Y-16220714D02*
X9767143Y-16520714D01*
X9767143Y-16235000D02*
X9795714Y-16220714D01*
X9852857Y-16220714D01*
X9881428Y-16235000D01*
X9895714Y-16249286D01*
X9910000Y-16277857D01*
X9910000Y-16363571D01*
X9895714Y-16392143D01*
X9881428Y-16406429D01*
X9852857Y-16420714D01*
X9795714Y-16420714D01*
X9767143Y-16406429D01*
X10038571Y-16392143D02*
X10052857Y-16406429D01*
X10038571Y-16420714D01*
X10024286Y-16406429D01*
X10038571Y-16392143D01*
X10038571Y-16420714D01*
X10038571Y-16235000D02*
X10052857Y-16249286D01*
X10038571Y-16263571D01*
X10024286Y-16249286D01*
X10038571Y-16235000D01*
X10038571Y-16263571D01*
M02*
