%FSLAX45Y45*%
G04 Gerber Fmt 4.5, Leading zero omitted, Abs format (unit mm)*
G04 Created by KiCad (PCBNEW (5.1.9)-1) date 2021-05-31 01:11:20*
%MOMM*%
%LPD*%
G01*
G04 APERTURE LIST*
%TA.AperFunction,Profile*%
%ADD10C,0.100000*%
%TD*%
%ADD11C,0.200000*%
%ADD12C,0.300000*%
G04 APERTURE END LIST*
D10*
X36000000Y-4550000D02*
X36000000Y-3800000D01*
X36000000Y-4550000D02*
X36000000Y-5250000D01*
X36000000Y-15450000D02*
G75*
G02*
X35500000Y-15950000I-500000J0D01*
G01*
X8200000Y-15950000D02*
G75*
G02*
X7700000Y-15450000I0J500000D01*
G01*
X7700000Y-3800000D02*
G75*
G02*
X8200000Y-3300000I500000J0D01*
G01*
X35500000Y-3300000D02*
X8200000Y-3300000D01*
X7700000Y-3800000D02*
X7700000Y-15450000D01*
X8200000Y-15950000D02*
X35500000Y-15950000D01*
X36000000Y-5250000D02*
X36000000Y-15450000D01*
X35500000Y-3300000D02*
G75*
G02*
X36000000Y-3800000I0J-500000D01*
G01*
D11*
X8590000Y-3700000D02*
X8810000Y-3920000D01*
X8810000Y-3700000D02*
X8590000Y-3920000D01*
X9865000Y-15440000D02*
X10085000Y-15660000D01*
X10085000Y-15440000D02*
X9865000Y-15660000D01*
X10070000Y-8300000D02*
X10290000Y-8520000D01*
X10290000Y-8300000D02*
X10070000Y-8520000D01*
X21740000Y-8290000D02*
X21960000Y-8510000D01*
X21960000Y-8290000D02*
X21740000Y-8510000D01*
X21740000Y-15290000D02*
X21960000Y-15510000D01*
X21960000Y-15290000D02*
X21740000Y-15510000D01*
X31300000Y-8300000D02*
X31520000Y-8520000D01*
X31520000Y-8300000D02*
X31300000Y-8520000D01*
X33690000Y-15440000D02*
X33910000Y-15660000D01*
X33910000Y-15440000D02*
X33690000Y-15660000D01*
X35195000Y-3540000D02*
X35415000Y-3760000D01*
X35415000Y-3540000D02*
X35195000Y-3760000D01*
D12*
X7981428Y-16420714D02*
X7981428Y-16120714D01*
X8052857Y-16120714D01*
X8095714Y-16135000D01*
X8124286Y-16163571D01*
X8138571Y-16192143D01*
X8152857Y-16249286D01*
X8152857Y-16292143D01*
X8138571Y-16349286D01*
X8124286Y-16377857D01*
X8095714Y-16406429D01*
X8052857Y-16420714D01*
X7981428Y-16420714D01*
X8281428Y-16420714D02*
X8281428Y-16220714D01*
X8281428Y-16277857D02*
X8295714Y-16249286D01*
X8310000Y-16235000D01*
X8338571Y-16220714D01*
X8367143Y-16220714D01*
X8467143Y-16420714D02*
X8467143Y-16220714D01*
X8467143Y-16120714D02*
X8452857Y-16135000D01*
X8467143Y-16149286D01*
X8481428Y-16135000D01*
X8467143Y-16120714D01*
X8467143Y-16149286D01*
X8652857Y-16420714D02*
X8624286Y-16406429D01*
X8610000Y-16377857D01*
X8610000Y-16120714D01*
X8810000Y-16420714D02*
X8781428Y-16406429D01*
X8767143Y-16377857D01*
X8767143Y-16120714D01*
X9152857Y-16420714D02*
X9152857Y-16120714D01*
X9252857Y-16335000D01*
X9352857Y-16120714D01*
X9352857Y-16420714D01*
X9624286Y-16420714D02*
X9624286Y-16263571D01*
X9610000Y-16235000D01*
X9581428Y-16220714D01*
X9524286Y-16220714D01*
X9495714Y-16235000D01*
X9624286Y-16406429D02*
X9595714Y-16420714D01*
X9524286Y-16420714D01*
X9495714Y-16406429D01*
X9481428Y-16377857D01*
X9481428Y-16349286D01*
X9495714Y-16320714D01*
X9524286Y-16306429D01*
X9595714Y-16306429D01*
X9624286Y-16292143D01*
X9767143Y-16220714D02*
X9767143Y-16520714D01*
X9767143Y-16235000D02*
X9795714Y-16220714D01*
X9852857Y-16220714D01*
X9881428Y-16235000D01*
X9895714Y-16249286D01*
X9910000Y-16277857D01*
X9910000Y-16363571D01*
X9895714Y-16392143D01*
X9881428Y-16406429D01*
X9852857Y-16420714D01*
X9795714Y-16420714D01*
X9767143Y-16406429D01*
X10038571Y-16392143D02*
X10052857Y-16406429D01*
X10038571Y-16420714D01*
X10024286Y-16406429D01*
X10038571Y-16392143D01*
X10038571Y-16420714D01*
X10038571Y-16235000D02*
X10052857Y-16249286D01*
X10038571Y-16263571D01*
X10024286Y-16249286D01*
X10038571Y-16235000D01*
X10038571Y-16263571D01*
X7475000Y-16805000D02*
X7695000Y-17025000D01*
X7695000Y-16805000D02*
X7475000Y-17025000D01*
X7967143Y-16779286D02*
X7981428Y-16765000D01*
X8010000Y-16750714D01*
X8081428Y-16750714D01*
X8110000Y-16765000D01*
X8124286Y-16779286D01*
X8138571Y-16807857D01*
X8138571Y-16836429D01*
X8124286Y-16879286D01*
X7952857Y-17050714D01*
X8138571Y-17050714D01*
X8267143Y-17022143D02*
X8281428Y-17036429D01*
X8267143Y-17050714D01*
X8252857Y-17036429D01*
X8267143Y-17022143D01*
X8267143Y-17050714D01*
X8395714Y-16779286D02*
X8410000Y-16765000D01*
X8438571Y-16750714D01*
X8510000Y-16750714D01*
X8538571Y-16765000D01*
X8552857Y-16779286D01*
X8567143Y-16807857D01*
X8567143Y-16836429D01*
X8552857Y-16879286D01*
X8381428Y-17050714D01*
X8567143Y-17050714D01*
X8752857Y-16750714D02*
X8781428Y-16750714D01*
X8810000Y-16765000D01*
X8824286Y-16779286D01*
X8838571Y-16807857D01*
X8852857Y-16865000D01*
X8852857Y-16936429D01*
X8838571Y-16993572D01*
X8824286Y-17022143D01*
X8810000Y-17036429D01*
X8781428Y-17050714D01*
X8752857Y-17050714D01*
X8724286Y-17036429D01*
X8710000Y-17022143D01*
X8695714Y-16993572D01*
X8681428Y-16936429D01*
X8681428Y-16865000D01*
X8695714Y-16807857D01*
X8710000Y-16779286D01*
X8724286Y-16765000D01*
X8752857Y-16750714D01*
X8981428Y-17050714D02*
X8981428Y-16850714D01*
X8981428Y-16879286D02*
X8995714Y-16865000D01*
X9024286Y-16850714D01*
X9067143Y-16850714D01*
X9095714Y-16865000D01*
X9110000Y-16893572D01*
X9110000Y-17050714D01*
X9110000Y-16893572D02*
X9124286Y-16865000D01*
X9152857Y-16850714D01*
X9195714Y-16850714D01*
X9224286Y-16865000D01*
X9238571Y-16893572D01*
X9238571Y-17050714D01*
X9381428Y-17050714D02*
X9381428Y-16850714D01*
X9381428Y-16879286D02*
X9395714Y-16865000D01*
X9424286Y-16850714D01*
X9467143Y-16850714D01*
X9495714Y-16865000D01*
X9510000Y-16893572D01*
X9510000Y-17050714D01*
X9510000Y-16893572D02*
X9524286Y-16865000D01*
X9552857Y-16850714D01*
X9595714Y-16850714D01*
X9624286Y-16865000D01*
X9638571Y-16893572D01*
X9638571Y-17050714D01*
X10224286Y-16736429D02*
X9967143Y-17122143D01*
X10610000Y-16750714D02*
X10638571Y-16750714D01*
X10667143Y-16765000D01*
X10681428Y-16779286D01*
X10695714Y-16807857D01*
X10710000Y-16865000D01*
X10710000Y-16936429D01*
X10695714Y-16993572D01*
X10681428Y-17022143D01*
X10667143Y-17036429D01*
X10638571Y-17050714D01*
X10610000Y-17050714D01*
X10581428Y-17036429D01*
X10567143Y-17022143D01*
X10552857Y-16993572D01*
X10538571Y-16936429D01*
X10538571Y-16865000D01*
X10552857Y-16807857D01*
X10567143Y-16779286D01*
X10581428Y-16765000D01*
X10610000Y-16750714D01*
X10838571Y-17022143D02*
X10852857Y-17036429D01*
X10838571Y-17050714D01*
X10824286Y-17036429D01*
X10838571Y-17022143D01*
X10838571Y-17050714D01*
X11038571Y-16750714D02*
X11067143Y-16750714D01*
X11095714Y-16765000D01*
X11110000Y-16779286D01*
X11124286Y-16807857D01*
X11138571Y-16865000D01*
X11138571Y-16936429D01*
X11124286Y-16993572D01*
X11110000Y-17022143D01*
X11095714Y-17036429D01*
X11067143Y-17050714D01*
X11038571Y-17050714D01*
X11010000Y-17036429D01*
X10995714Y-17022143D01*
X10981428Y-16993572D01*
X10967143Y-16936429D01*
X10967143Y-16865000D01*
X10981428Y-16807857D01*
X10995714Y-16779286D01*
X11010000Y-16765000D01*
X11038571Y-16750714D01*
X11310000Y-16879286D02*
X11281428Y-16865000D01*
X11267143Y-16850714D01*
X11252857Y-16822143D01*
X11252857Y-16807857D01*
X11267143Y-16779286D01*
X11281428Y-16765000D01*
X11310000Y-16750714D01*
X11367143Y-16750714D01*
X11395714Y-16765000D01*
X11410000Y-16779286D01*
X11424286Y-16807857D01*
X11424286Y-16822143D01*
X11410000Y-16850714D01*
X11395714Y-16865000D01*
X11367143Y-16879286D01*
X11310000Y-16879286D01*
X11281428Y-16893572D01*
X11267143Y-16907857D01*
X11252857Y-16936429D01*
X11252857Y-16993572D01*
X11267143Y-17022143D01*
X11281428Y-17036429D01*
X11310000Y-17050714D01*
X11367143Y-17050714D01*
X11395714Y-17036429D01*
X11410000Y-17022143D01*
X11424286Y-16993572D01*
X11424286Y-16936429D01*
X11410000Y-16907857D01*
X11395714Y-16893572D01*
X11367143Y-16879286D01*
X11524286Y-16750714D02*
X11724286Y-16750714D01*
X11595714Y-17050714D01*
X11824286Y-16750714D02*
X11824286Y-16807857D01*
X11938571Y-16750714D02*
X11938571Y-16807857D01*
X12381428Y-17165000D02*
X12367143Y-17150714D01*
X12338571Y-17107857D01*
X12324286Y-17079286D01*
X12310000Y-17036429D01*
X12295714Y-16965000D01*
X12295714Y-16907857D01*
X12310000Y-16836429D01*
X12324286Y-16793572D01*
X12338571Y-16765000D01*
X12367143Y-16722143D01*
X12381428Y-16707857D01*
X12538571Y-16879286D02*
X12510000Y-16865000D01*
X12495714Y-16850714D01*
X12481428Y-16822143D01*
X12481428Y-16807857D01*
X12495714Y-16779286D01*
X12510000Y-16765000D01*
X12538571Y-16750714D01*
X12595714Y-16750714D01*
X12624286Y-16765000D01*
X12638571Y-16779286D01*
X12652857Y-16807857D01*
X12652857Y-16822143D01*
X12638571Y-16850714D01*
X12624286Y-16865000D01*
X12595714Y-16879286D01*
X12538571Y-16879286D01*
X12510000Y-16893572D01*
X12495714Y-16907857D01*
X12481428Y-16936429D01*
X12481428Y-16993572D01*
X12495714Y-17022143D01*
X12510000Y-17036429D01*
X12538571Y-17050714D01*
X12595714Y-17050714D01*
X12624286Y-17036429D01*
X12638571Y-17022143D01*
X12652857Y-16993572D01*
X12652857Y-16936429D01*
X12638571Y-16907857D01*
X12624286Y-16893572D01*
X12595714Y-16879286D01*
X13010000Y-17050714D02*
X13010000Y-16750714D01*
X13138571Y-17050714D02*
X13138571Y-16893572D01*
X13124286Y-16865000D01*
X13095714Y-16850714D01*
X13052857Y-16850714D01*
X13024286Y-16865000D01*
X13010000Y-16879286D01*
X13324286Y-17050714D02*
X13295714Y-17036429D01*
X13281428Y-17022143D01*
X13267143Y-16993572D01*
X13267143Y-16907857D01*
X13281428Y-16879286D01*
X13295714Y-16865000D01*
X13324286Y-16850714D01*
X13367143Y-16850714D01*
X13395714Y-16865000D01*
X13410000Y-16879286D01*
X13424286Y-16907857D01*
X13424286Y-16993572D01*
X13410000Y-17022143D01*
X13395714Y-17036429D01*
X13367143Y-17050714D01*
X13324286Y-17050714D01*
X13595714Y-17050714D02*
X13567143Y-17036429D01*
X13552857Y-17007857D01*
X13552857Y-16750714D01*
X13824286Y-17036429D02*
X13795714Y-17050714D01*
X13738571Y-17050714D01*
X13710000Y-17036429D01*
X13695714Y-17007857D01*
X13695714Y-16893572D01*
X13710000Y-16865000D01*
X13738571Y-16850714D01*
X13795714Y-16850714D01*
X13824286Y-16865000D01*
X13838571Y-16893572D01*
X13838571Y-16922143D01*
X13695714Y-16950714D01*
X13952857Y-17036429D02*
X13981428Y-17050714D01*
X14038571Y-17050714D01*
X14067143Y-17036429D01*
X14081428Y-17007857D01*
X14081428Y-16993572D01*
X14067143Y-16965000D01*
X14038571Y-16950714D01*
X13995714Y-16950714D01*
X13967143Y-16936429D01*
X13952857Y-16907857D01*
X13952857Y-16893572D01*
X13967143Y-16865000D01*
X13995714Y-16850714D01*
X14038571Y-16850714D01*
X14067143Y-16865000D01*
X14181428Y-17165000D02*
X14195714Y-17150714D01*
X14224286Y-17107857D01*
X14238571Y-17079286D01*
X14252857Y-17036429D01*
X14267143Y-16965000D01*
X14267143Y-16907857D01*
X14252857Y-16836429D01*
X14238571Y-16793572D01*
X14224286Y-16765000D01*
X14195714Y-16722143D01*
X14181428Y-16707857D01*
X14724286Y-17165000D02*
X14710000Y-17150714D01*
X14681428Y-17107857D01*
X14667143Y-17079286D01*
X14652857Y-17036429D01*
X14638571Y-16965000D01*
X14638571Y-16907857D01*
X14652857Y-16836429D01*
X14667143Y-16793572D01*
X14681428Y-16765000D01*
X14710000Y-16722143D01*
X14724286Y-16707857D01*
X14838571Y-16850714D02*
X14838571Y-17050714D01*
X14838571Y-16879286D02*
X14852857Y-16865000D01*
X14881428Y-16850714D01*
X14924286Y-16850714D01*
X14952857Y-16865000D01*
X14967143Y-16893572D01*
X14967143Y-17050714D01*
X15152857Y-17050714D02*
X15124286Y-17036429D01*
X15110000Y-17022143D01*
X15095714Y-16993572D01*
X15095714Y-16907857D01*
X15110000Y-16879286D01*
X15124286Y-16865000D01*
X15152857Y-16850714D01*
X15195714Y-16850714D01*
X15224286Y-16865000D01*
X15238571Y-16879286D01*
X15252857Y-16907857D01*
X15252857Y-16993572D01*
X15238571Y-17022143D01*
X15224286Y-17036429D01*
X15195714Y-17050714D01*
X15152857Y-17050714D01*
X15338571Y-16850714D02*
X15452857Y-16850714D01*
X15381428Y-16750714D02*
X15381428Y-17007857D01*
X15395714Y-17036429D01*
X15424286Y-17050714D01*
X15452857Y-17050714D01*
X15781428Y-16850714D02*
X15781428Y-17150714D01*
X15781428Y-16865000D02*
X15810000Y-16850714D01*
X15867143Y-16850714D01*
X15895714Y-16865000D01*
X15910000Y-16879286D01*
X15924286Y-16907857D01*
X15924286Y-16993572D01*
X15910000Y-17022143D01*
X15895714Y-17036429D01*
X15867143Y-17050714D01*
X15810000Y-17050714D01*
X15781428Y-17036429D01*
X16095714Y-17050714D02*
X16067143Y-17036429D01*
X16052857Y-17007857D01*
X16052857Y-16750714D01*
X16338571Y-17050714D02*
X16338571Y-16893572D01*
X16324286Y-16865000D01*
X16295714Y-16850714D01*
X16238571Y-16850714D01*
X16210000Y-16865000D01*
X16338571Y-17036429D02*
X16310000Y-17050714D01*
X16238571Y-17050714D01*
X16210000Y-17036429D01*
X16195714Y-17007857D01*
X16195714Y-16979286D01*
X16210000Y-16950714D01*
X16238571Y-16936429D01*
X16310000Y-16936429D01*
X16338571Y-16922143D01*
X16438571Y-16850714D02*
X16552857Y-16850714D01*
X16481428Y-16750714D02*
X16481428Y-17007857D01*
X16495714Y-17036429D01*
X16524286Y-17050714D01*
X16552857Y-17050714D01*
X16767143Y-17036429D02*
X16738571Y-17050714D01*
X16681428Y-17050714D01*
X16652857Y-17036429D01*
X16638571Y-17007857D01*
X16638571Y-16893572D01*
X16652857Y-16865000D01*
X16681428Y-16850714D01*
X16738571Y-16850714D01*
X16767143Y-16865000D01*
X16781428Y-16893572D01*
X16781428Y-16922143D01*
X16638571Y-16950714D01*
X17038571Y-17050714D02*
X17038571Y-16750714D01*
X17038571Y-17036429D02*
X17010000Y-17050714D01*
X16952857Y-17050714D01*
X16924286Y-17036429D01*
X16910000Y-17022143D01*
X16895714Y-16993572D01*
X16895714Y-16907857D01*
X16910000Y-16879286D01*
X16924286Y-16865000D01*
X16952857Y-16850714D01*
X17010000Y-16850714D01*
X17038571Y-16865000D01*
X17152857Y-17165000D02*
X17167143Y-17150714D01*
X17195714Y-17107857D01*
X17210000Y-17079286D01*
X17224286Y-17036429D01*
X17238571Y-16965000D01*
X17238571Y-16907857D01*
X17224286Y-16836429D01*
X17210000Y-16793572D01*
X17195714Y-16765000D01*
X17167143Y-16722143D01*
X17152857Y-16707857D01*
M02*
