G04 #@! TF.GenerationSoftware,KiCad,Pcbnew,(5.1.9)-1*
G04 #@! TF.CreationDate,2021-05-27T06:27:20+01:00*
G04 #@! TF.ProjectId,Env-KB60F,456e762d-4b42-4363-9046-2e6b69636164,rev?*
G04 #@! TF.SameCoordinates,Original*
G04 #@! TF.FileFunction,Legend,Bot*
G04 #@! TF.FilePolarity,Positive*
%FSLAX46Y46*%
G04 Gerber Fmt 4.6, Leading zero omitted, Abs format (unit mm)*
G04 Created by KiCad (PCBNEW (5.1.9)-1) date 2021-05-27 06:27:20*
%MOMM*%
%LPD*%
G01*
G04 APERTURE LIST*
%ADD10C,0.150000*%
%ADD11C,0.010000*%
%ADD12C,2.302000*%
G04 APERTURE END LIST*
D10*
X92983333Y-56375000D02*
X92400000Y-56375000D01*
X92150000Y-57291666D02*
X92983333Y-57291666D01*
X92983333Y-55541666D01*
X92150000Y-55541666D01*
X91400000Y-56125000D02*
X91400000Y-57291666D01*
X91400000Y-56291666D02*
X91316666Y-56208333D01*
X91150000Y-56125000D01*
X90900000Y-56125000D01*
X90733333Y-56208333D01*
X90650000Y-56375000D01*
X90650000Y-57291666D01*
X89983333Y-56125000D02*
X89566666Y-57291666D01*
X89150000Y-56125000D01*
X88483333Y-56625000D02*
X87150000Y-56625000D01*
X86316666Y-57291666D02*
X86316666Y-55541666D01*
X85316666Y-57291666D02*
X86066666Y-56291666D01*
X85316666Y-55541666D02*
X86316666Y-56541666D01*
X83983333Y-56375000D02*
X83733333Y-56458333D01*
X83650000Y-56541666D01*
X83566666Y-56708333D01*
X83566666Y-56958333D01*
X83650000Y-57125000D01*
X83733333Y-57208333D01*
X83900000Y-57291666D01*
X84566666Y-57291666D01*
X84566666Y-55541666D01*
X83983333Y-55541666D01*
X83816666Y-55625000D01*
X83733333Y-55708333D01*
X83650000Y-55875000D01*
X83650000Y-56041666D01*
X83733333Y-56208333D01*
X83816666Y-56291666D01*
X83983333Y-56375000D01*
X84566666Y-56375000D01*
X82066666Y-55541666D02*
X82400000Y-55541666D01*
X82566666Y-55625000D01*
X82650000Y-55708333D01*
X82816666Y-55958333D01*
X82900000Y-56291666D01*
X82900000Y-56958333D01*
X82816666Y-57125000D01*
X82733333Y-57208333D01*
X82566666Y-57291666D01*
X82233333Y-57291666D01*
X82066666Y-57208333D01*
X81983333Y-57125000D01*
X81900000Y-56958333D01*
X81900000Y-56541666D01*
X81983333Y-56375000D01*
X82066666Y-56291666D01*
X82233333Y-56208333D01*
X82566666Y-56208333D01*
X82733333Y-56291666D01*
X82816666Y-56375000D01*
X82900000Y-56541666D01*
X80816666Y-55541666D02*
X80650000Y-55541666D01*
X80483333Y-55625000D01*
X80400000Y-55708333D01*
X80316666Y-55875000D01*
X80233333Y-56208333D01*
X80233333Y-56625000D01*
X80316666Y-56958333D01*
X80400000Y-57125000D01*
X80483333Y-57208333D01*
X80650000Y-57291666D01*
X80816666Y-57291666D01*
X80983333Y-57208333D01*
X81066666Y-57125000D01*
X81150000Y-56958333D01*
X81233333Y-56625000D01*
X81233333Y-56208333D01*
X81150000Y-55875000D01*
X81066666Y-55708333D01*
X80983333Y-55625000D01*
X80816666Y-55541666D01*
X78900000Y-56375000D02*
X79483333Y-56375000D01*
X79483333Y-57291666D02*
X79483333Y-55541666D01*
X78650000Y-55541666D01*
D11*
G36*
X89429093Y-45377505D02*
G01*
X89388471Y-45396706D01*
X89335744Y-45445050D01*
X89322165Y-45518238D01*
X89349785Y-45623487D01*
X89420654Y-45768014D01*
X89536823Y-45959036D01*
X89557195Y-45990478D01*
X89787581Y-46346165D01*
X89987605Y-46659629D01*
X90155531Y-46928003D01*
X90289620Y-47148422D01*
X90388132Y-47318022D01*
X90449331Y-47433937D01*
X90471476Y-47493301D01*
X90471324Y-47497143D01*
X90432236Y-47540074D01*
X90348689Y-47577543D01*
X90324968Y-47583945D01*
X90237948Y-47616003D01*
X90191521Y-47655473D01*
X90189143Y-47665185D01*
X90222004Y-47706138D01*
X90307127Y-47744801D01*
X90424321Y-47774736D01*
X90553394Y-47789508D01*
X90580966Y-47790084D01*
X90621389Y-47792604D01*
X90658813Y-47804982D01*
X90699412Y-47834664D01*
X90749361Y-47889097D01*
X90814834Y-47975728D01*
X90902005Y-48102005D01*
X91017049Y-48275373D01*
X91143395Y-48468436D01*
X91414356Y-48882468D01*
X91648013Y-49237304D01*
X91845832Y-49535099D01*
X92009281Y-49778002D01*
X92139826Y-49968167D01*
X92238933Y-50107746D01*
X92308071Y-50198890D01*
X92348705Y-50243751D01*
X92357195Y-50249184D01*
X92406549Y-50233573D01*
X92425058Y-50205049D01*
X92420878Y-50129636D01*
X92372821Y-49999716D01*
X92282171Y-49817591D01*
X92150212Y-49585562D01*
X91978229Y-49305928D01*
X91767506Y-48980993D01*
X91614123Y-48752118D01*
X91458113Y-48515557D01*
X91324547Y-48300449D01*
X91217243Y-48113887D01*
X91140019Y-47962966D01*
X91096695Y-47854781D01*
X91091089Y-47796425D01*
X91096372Y-47790232D01*
X91154203Y-47775712D01*
X91270131Y-47762142D01*
X91429685Y-47750093D01*
X91618393Y-47740134D01*
X91821783Y-47732836D01*
X92025382Y-47728767D01*
X92214719Y-47728499D01*
X92375320Y-47732600D01*
X92447513Y-47737035D01*
X92578134Y-47750286D01*
X92688690Y-47770900D01*
X92789599Y-47805328D01*
X92891282Y-47860022D01*
X93004155Y-47941433D01*
X93138637Y-48056015D01*
X93305148Y-48210218D01*
X93476582Y-48374310D01*
X93666056Y-48553131D01*
X93811562Y-48681586D01*
X93917609Y-48763319D01*
X93988707Y-48801968D01*
X94011536Y-48806286D01*
X94098218Y-48784697D01*
X94190337Y-48731971D01*
X94262495Y-48666172D01*
X94289428Y-48608653D01*
X94264745Y-48566535D01*
X94197377Y-48485793D01*
X94097348Y-48377684D01*
X93974684Y-48253467D01*
X93962919Y-48241925D01*
X93636411Y-47922418D01*
X93772112Y-47846299D01*
X93858820Y-47786912D01*
X93912123Y-47730110D01*
X93918443Y-47714979D01*
X93894870Y-47658543D01*
X93809753Y-47605113D01*
X93674106Y-47559179D01*
X93498939Y-47525232D01*
X93433865Y-47517376D01*
X93283063Y-47498146D01*
X93157651Y-47470529D01*
X93039533Y-47426949D01*
X92969737Y-47390611D01*
X92257428Y-47390611D01*
X92222590Y-47413653D01*
X92123863Y-47435458D01*
X91969930Y-47455162D01*
X91769471Y-47471904D01*
X91531170Y-47484821D01*
X91263707Y-47493051D01*
X91217263Y-47493901D01*
X90848383Y-47500000D01*
X90741129Y-47363929D01*
X90687001Y-47284966D01*
X90607962Y-47156298D01*
X90512631Y-46992581D01*
X90409626Y-46808470D01*
X90351694Y-46701715D01*
X90253300Y-46519432D01*
X90163600Y-46355435D01*
X90089571Y-46222316D01*
X90038190Y-46132665D01*
X90020470Y-46103998D01*
X89977471Y-46022088D01*
X89989870Y-45984204D01*
X90055782Y-45989819D01*
X90173319Y-46038407D01*
X90340595Y-46129440D01*
X90531031Y-46246536D01*
X90654107Y-46323181D01*
X90809480Y-46417087D01*
X90966348Y-46509670D01*
X90987428Y-46521904D01*
X91122083Y-46602880D01*
X91282312Y-46704001D01*
X91457791Y-46818205D01*
X91638196Y-46938429D01*
X91813202Y-47057613D01*
X91972485Y-47168692D01*
X92105720Y-47264606D01*
X92202583Y-47338292D01*
X92252749Y-47382688D01*
X92257428Y-47390611D01*
X92969737Y-47390611D01*
X92910609Y-47359828D01*
X92752781Y-47261588D01*
X92632953Y-47182051D01*
X92314304Y-46973413D01*
X91967224Y-46755862D01*
X91605067Y-46537108D01*
X91241189Y-46324861D01*
X90888942Y-46126833D01*
X90561681Y-45950733D01*
X90272759Y-45804271D01*
X90129619Y-45736673D01*
X89977587Y-45659790D01*
X89832965Y-45573789D01*
X89723337Y-45495298D01*
X89709939Y-45483694D01*
X89600613Y-45397031D01*
X89513772Y-45363467D01*
X89429093Y-45377505D01*
G37*
X89429093Y-45377505D02*
X89388471Y-45396706D01*
X89335744Y-45445050D01*
X89322165Y-45518238D01*
X89349785Y-45623487D01*
X89420654Y-45768014D01*
X89536823Y-45959036D01*
X89557195Y-45990478D01*
X89787581Y-46346165D01*
X89987605Y-46659629D01*
X90155531Y-46928003D01*
X90289620Y-47148422D01*
X90388132Y-47318022D01*
X90449331Y-47433937D01*
X90471476Y-47493301D01*
X90471324Y-47497143D01*
X90432236Y-47540074D01*
X90348689Y-47577543D01*
X90324968Y-47583945D01*
X90237948Y-47616003D01*
X90191521Y-47655473D01*
X90189143Y-47665185D01*
X90222004Y-47706138D01*
X90307127Y-47744801D01*
X90424321Y-47774736D01*
X90553394Y-47789508D01*
X90580966Y-47790084D01*
X90621389Y-47792604D01*
X90658813Y-47804982D01*
X90699412Y-47834664D01*
X90749361Y-47889097D01*
X90814834Y-47975728D01*
X90902005Y-48102005D01*
X91017049Y-48275373D01*
X91143395Y-48468436D01*
X91414356Y-48882468D01*
X91648013Y-49237304D01*
X91845832Y-49535099D01*
X92009281Y-49778002D01*
X92139826Y-49968167D01*
X92238933Y-50107746D01*
X92308071Y-50198890D01*
X92348705Y-50243751D01*
X92357195Y-50249184D01*
X92406549Y-50233573D01*
X92425058Y-50205049D01*
X92420878Y-50129636D01*
X92372821Y-49999716D01*
X92282171Y-49817591D01*
X92150212Y-49585562D01*
X91978229Y-49305928D01*
X91767506Y-48980993D01*
X91614123Y-48752118D01*
X91458113Y-48515557D01*
X91324547Y-48300449D01*
X91217243Y-48113887D01*
X91140019Y-47962966D01*
X91096695Y-47854781D01*
X91091089Y-47796425D01*
X91096372Y-47790232D01*
X91154203Y-47775712D01*
X91270131Y-47762142D01*
X91429685Y-47750093D01*
X91618393Y-47740134D01*
X91821783Y-47732836D01*
X92025382Y-47728767D01*
X92214719Y-47728499D01*
X92375320Y-47732600D01*
X92447513Y-47737035D01*
X92578134Y-47750286D01*
X92688690Y-47770900D01*
X92789599Y-47805328D01*
X92891282Y-47860022D01*
X93004155Y-47941433D01*
X93138637Y-48056015D01*
X93305148Y-48210218D01*
X93476582Y-48374310D01*
X93666056Y-48553131D01*
X93811562Y-48681586D01*
X93917609Y-48763319D01*
X93988707Y-48801968D01*
X94011536Y-48806286D01*
X94098218Y-48784697D01*
X94190337Y-48731971D01*
X94262495Y-48666172D01*
X94289428Y-48608653D01*
X94264745Y-48566535D01*
X94197377Y-48485793D01*
X94097348Y-48377684D01*
X93974684Y-48253467D01*
X93962919Y-48241925D01*
X93636411Y-47922418D01*
X93772112Y-47846299D01*
X93858820Y-47786912D01*
X93912123Y-47730110D01*
X93918443Y-47714979D01*
X93894870Y-47658543D01*
X93809753Y-47605113D01*
X93674106Y-47559179D01*
X93498939Y-47525232D01*
X93433865Y-47517376D01*
X93283063Y-47498146D01*
X93157651Y-47470529D01*
X93039533Y-47426949D01*
X92969737Y-47390611D01*
X92257428Y-47390611D01*
X92222590Y-47413653D01*
X92123863Y-47435458D01*
X91969930Y-47455162D01*
X91769471Y-47471904D01*
X91531170Y-47484821D01*
X91263707Y-47493051D01*
X91217263Y-47493901D01*
X90848383Y-47500000D01*
X90741129Y-47363929D01*
X90687001Y-47284966D01*
X90607962Y-47156298D01*
X90512631Y-46992581D01*
X90409626Y-46808470D01*
X90351694Y-46701715D01*
X90253300Y-46519432D01*
X90163600Y-46355435D01*
X90089571Y-46222316D01*
X90038190Y-46132665D01*
X90020470Y-46103998D01*
X89977471Y-46022088D01*
X89989870Y-45984204D01*
X90055782Y-45989819D01*
X90173319Y-46038407D01*
X90340595Y-46129440D01*
X90531031Y-46246536D01*
X90654107Y-46323181D01*
X90809480Y-46417087D01*
X90966348Y-46509670D01*
X90987428Y-46521904D01*
X91122083Y-46602880D01*
X91282312Y-46704001D01*
X91457791Y-46818205D01*
X91638196Y-46938429D01*
X91813202Y-47057613D01*
X91972485Y-47168692D01*
X92105720Y-47264606D01*
X92202583Y-47338292D01*
X92252749Y-47382688D01*
X92257428Y-47390611D01*
X92969737Y-47390611D01*
X92910609Y-47359828D01*
X92752781Y-47261588D01*
X92632953Y-47182051D01*
X92314304Y-46973413D01*
X91967224Y-46755862D01*
X91605067Y-46537108D01*
X91241189Y-46324861D01*
X90888942Y-46126833D01*
X90561681Y-45950733D01*
X90272759Y-45804271D01*
X90129619Y-45736673D01*
X89977587Y-45659790D01*
X89832965Y-45573789D01*
X89723337Y-45495298D01*
X89709939Y-45483694D01*
X89600613Y-45397031D01*
X89513772Y-45363467D01*
X89429093Y-45377505D01*
G36*
X87495497Y-46196153D02*
G01*
X87413398Y-46218995D01*
X87369529Y-46229856D01*
X87368168Y-46230000D01*
X87359996Y-46259814D01*
X87358857Y-46287087D01*
X87382470Y-46335250D01*
X87446533Y-46422455D01*
X87540882Y-46535736D01*
X87640071Y-46645820D01*
X87765673Y-46781638D01*
X87922979Y-46953373D01*
X88095369Y-47142794D01*
X88266226Y-47331672D01*
X88338571Y-47412064D01*
X88519386Y-47612650D01*
X88724642Y-47839176D01*
X88932099Y-48067164D01*
X89119517Y-48272136D01*
X89164071Y-48320652D01*
X89299819Y-48469488D01*
X89416456Y-48599642D01*
X89505849Y-48701855D01*
X89559865Y-48766865D01*
X89572285Y-48785464D01*
X89544544Y-48805904D01*
X89538010Y-48806286D01*
X89484254Y-48790150D01*
X89379617Y-48745916D01*
X89237142Y-48679843D01*
X89069872Y-48598192D01*
X88890847Y-48507224D01*
X88713111Y-48413198D01*
X88668795Y-48389063D01*
X88404216Y-48264401D01*
X88172480Y-48200147D01*
X87967559Y-48195429D01*
X87783423Y-48249372D01*
X87765472Y-48258188D01*
X87674813Y-48313723D01*
X87626749Y-48373441D01*
X87622865Y-48447550D01*
X87664744Y-48546256D01*
X87753974Y-48679768D01*
X87850517Y-48805830D01*
X87945976Y-48933220D01*
X88016697Y-49039877D01*
X88054795Y-49113101D01*
X88057127Y-49138531D01*
X88000631Y-49151532D01*
X87881450Y-49138902D01*
X87697870Y-49100362D01*
X87487305Y-49046319D01*
X87361556Y-49014943D01*
X87257258Y-48993675D01*
X87207367Y-48987715D01*
X87140920Y-48958636D01*
X87104857Y-48915143D01*
X87035902Y-48829904D01*
X86945478Y-48769691D01*
X86859676Y-48750160D01*
X86837827Y-48754917D01*
X86790804Y-48808927D01*
X86778285Y-48885185D01*
X86771698Y-48958564D01*
X86740673Y-48976201D01*
X86696642Y-48964621D01*
X86568050Y-48941254D01*
X86447698Y-48953857D01*
X86354805Y-48996606D01*
X86308584Y-49063674D01*
X86306571Y-49082872D01*
X86296335Y-49120269D01*
X86258362Y-49127632D01*
X86181753Y-49102848D01*
X86055611Y-49043802D01*
X86024322Y-49028120D01*
X85803473Y-48926275D01*
X85633018Y-48869828D01*
X85507829Y-48857443D01*
X85441065Y-48875994D01*
X85400298Y-48899279D01*
X85373555Y-48923712D01*
X85364882Y-48955700D01*
X85378328Y-49001651D01*
X85417940Y-49067973D01*
X85487766Y-49161074D01*
X85591854Y-49287360D01*
X85734252Y-49453242D01*
X85919007Y-49665125D01*
X85992938Y-49749635D01*
X86109248Y-49885587D01*
X86203745Y-50001864D01*
X86268246Y-50087937D01*
X86294564Y-50133278D01*
X86294147Y-50137091D01*
X86280363Y-50144116D01*
X86253389Y-50142258D01*
X86203761Y-50128155D01*
X86122014Y-50098444D01*
X85998681Y-50049762D01*
X85824297Y-49978747D01*
X85671571Y-49915920D01*
X85478141Y-49837479D01*
X85342016Y-49786425D01*
X85254115Y-49760829D01*
X85205359Y-49758761D01*
X85186665Y-49778292D01*
X85188125Y-49813215D01*
X85224016Y-49853234D01*
X85313584Y-49916302D01*
X85444247Y-49995858D01*
X85603427Y-50085341D01*
X85778542Y-50178188D01*
X85957012Y-50267839D01*
X86126259Y-50347733D01*
X86273702Y-50411308D01*
X86386760Y-50452002D01*
X86433571Y-50462801D01*
X86557111Y-50463880D01*
X86624071Y-50434950D01*
X86655842Y-50367822D01*
X86669421Y-50270718D01*
X86669428Y-50268624D01*
X86662097Y-50209810D01*
X86634757Y-50146509D01*
X86579390Y-50067262D01*
X86487976Y-49960611D01*
X86352499Y-49815100D01*
X86350731Y-49813238D01*
X86160429Y-49608672D01*
X86011752Y-49440029D01*
X85907522Y-49310801D01*
X85850561Y-49224481D01*
X85843061Y-49185130D01*
X85884220Y-49190866D01*
X85974142Y-49228852D01*
X86100348Y-49292396D01*
X86250363Y-49374806D01*
X86411710Y-49469388D01*
X86571914Y-49569450D01*
X86627523Y-49605937D01*
X86791073Y-49707177D01*
X86911042Y-49761136D01*
X86997064Y-49769879D01*
X87058770Y-49735469D01*
X87083008Y-49703546D01*
X87100424Y-49646057D01*
X87079876Y-49570671D01*
X87040273Y-49494903D01*
X86994417Y-49398011D01*
X86996202Y-49353135D01*
X87043089Y-49359862D01*
X87132543Y-49417780D01*
X87262025Y-49526475D01*
X87268143Y-49532000D01*
X87380852Y-49631888D01*
X87454714Y-49688118D01*
X87503511Y-49707000D01*
X87541025Y-49694843D01*
X87569314Y-49669886D01*
X87610475Y-49583368D01*
X87584334Y-49477299D01*
X87496882Y-49361371D01*
X87432445Y-49290199D01*
X87415073Y-49253660D01*
X87449960Y-49250294D01*
X87542300Y-49278643D01*
X87649142Y-49318591D01*
X87849270Y-49377514D01*
X88034638Y-49398679D01*
X88194282Y-49384144D01*
X88317235Y-49335968D01*
X88392534Y-49256208D01*
X88411143Y-49175564D01*
X88395520Y-49082795D01*
X88365785Y-49025917D01*
X88342160Y-48992926D01*
X88375607Y-48997938D01*
X88393000Y-49004243D01*
X88627542Y-49088278D01*
X88807502Y-49141994D01*
X88943759Y-49166401D01*
X89047191Y-49162508D01*
X89128677Y-49131323D01*
X89194437Y-49078576D01*
X89260879Y-49020574D01*
X89310681Y-49011270D01*
X89365144Y-49038218D01*
X89455493Y-49078430D01*
X89570100Y-49110174D01*
X89583637Y-49112714D01*
X89673078Y-49122131D01*
X89737628Y-49103211D01*
X89806441Y-49043978D01*
X89841106Y-49006954D01*
X89913303Y-48932896D01*
X89972567Y-48896999D01*
X90047651Y-48889653D01*
X90159929Y-48900378D01*
X90279889Y-48910653D01*
X90354105Y-48902188D01*
X90408200Y-48869420D01*
X90437673Y-48840083D01*
X90448706Y-48825073D01*
X88841375Y-48825073D01*
X88839046Y-48845316D01*
X88776898Y-48832077D01*
X88653568Y-48785308D01*
X88467697Y-48704961D01*
X88400677Y-48674818D01*
X88243217Y-48600405D01*
X88104837Y-48529295D01*
X88002590Y-48470588D01*
X87958579Y-48438961D01*
X87914190Y-48392704D01*
X87922633Y-48374279D01*
X87993160Y-48370867D01*
X88007738Y-48370858D01*
X88137801Y-48394774D01*
X88304591Y-48461617D01*
X88492507Y-48564025D01*
X88672015Y-48684331D01*
X88785244Y-48771395D01*
X88841375Y-48825073D01*
X90448706Y-48825073D01*
X90493070Y-48764718D01*
X90515714Y-48702835D01*
X90498687Y-48647757D01*
X90166381Y-48647757D01*
X90120057Y-48660100D01*
X90019206Y-48631277D01*
X89866258Y-48561562D01*
X89865853Y-48561358D01*
X89715692Y-48464817D01*
X89589268Y-48345232D01*
X89500605Y-48218950D01*
X89463729Y-48102314D01*
X89463428Y-48092339D01*
X89467780Y-48035936D01*
X89494257Y-48026329D01*
X89562990Y-48057627D01*
X89569880Y-48061185D01*
X89651704Y-48115294D01*
X89762149Y-48203387D01*
X89884348Y-48310123D01*
X90001435Y-48420165D01*
X90096541Y-48518173D01*
X90152801Y-48588807D01*
X90155749Y-48593976D01*
X90166381Y-48647757D01*
X90498687Y-48647757D01*
X90491910Y-48625839D01*
X90428261Y-48514221D01*
X90336413Y-48384496D01*
X90228012Y-48253182D01*
X90120233Y-48141937D01*
X89906729Y-47968921D01*
X89709687Y-47865533D01*
X89527143Y-47831205D01*
X89357136Y-47865370D01*
X89287002Y-47901220D01*
X89238425Y-47930717D01*
X89198078Y-47947761D01*
X89157953Y-47946436D01*
X89110043Y-47920828D01*
X89046339Y-47865021D01*
X88958835Y-47773100D01*
X88839523Y-47639149D01*
X88680394Y-47457254D01*
X88670180Y-47445572D01*
X88511584Y-47264843D01*
X88337281Y-47067246D01*
X88168333Y-46876600D01*
X88025797Y-46716725D01*
X88024928Y-46715754D01*
X87903589Y-46576471D01*
X87795838Y-46445781D01*
X87713834Y-46338875D01*
X87671116Y-46273693D01*
X87625582Y-46200064D01*
X87576106Y-46179354D01*
X87495497Y-46196153D01*
G37*
X87495497Y-46196153D02*
X87413398Y-46218995D01*
X87369529Y-46229856D01*
X87368168Y-46230000D01*
X87359996Y-46259814D01*
X87358857Y-46287087D01*
X87382470Y-46335250D01*
X87446533Y-46422455D01*
X87540882Y-46535736D01*
X87640071Y-46645820D01*
X87765673Y-46781638D01*
X87922979Y-46953373D01*
X88095369Y-47142794D01*
X88266226Y-47331672D01*
X88338571Y-47412064D01*
X88519386Y-47612650D01*
X88724642Y-47839176D01*
X88932099Y-48067164D01*
X89119517Y-48272136D01*
X89164071Y-48320652D01*
X89299819Y-48469488D01*
X89416456Y-48599642D01*
X89505849Y-48701855D01*
X89559865Y-48766865D01*
X89572285Y-48785464D01*
X89544544Y-48805904D01*
X89538010Y-48806286D01*
X89484254Y-48790150D01*
X89379617Y-48745916D01*
X89237142Y-48679843D01*
X89069872Y-48598192D01*
X88890847Y-48507224D01*
X88713111Y-48413198D01*
X88668795Y-48389063D01*
X88404216Y-48264401D01*
X88172480Y-48200147D01*
X87967559Y-48195429D01*
X87783423Y-48249372D01*
X87765472Y-48258188D01*
X87674813Y-48313723D01*
X87626749Y-48373441D01*
X87622865Y-48447550D01*
X87664744Y-48546256D01*
X87753974Y-48679768D01*
X87850517Y-48805830D01*
X87945976Y-48933220D01*
X88016697Y-49039877D01*
X88054795Y-49113101D01*
X88057127Y-49138531D01*
X88000631Y-49151532D01*
X87881450Y-49138902D01*
X87697870Y-49100362D01*
X87487305Y-49046319D01*
X87361556Y-49014943D01*
X87257258Y-48993675D01*
X87207367Y-48987715D01*
X87140920Y-48958636D01*
X87104857Y-48915143D01*
X87035902Y-48829904D01*
X86945478Y-48769691D01*
X86859676Y-48750160D01*
X86837827Y-48754917D01*
X86790804Y-48808927D01*
X86778285Y-48885185D01*
X86771698Y-48958564D01*
X86740673Y-48976201D01*
X86696642Y-48964621D01*
X86568050Y-48941254D01*
X86447698Y-48953857D01*
X86354805Y-48996606D01*
X86308584Y-49063674D01*
X86306571Y-49082872D01*
X86296335Y-49120269D01*
X86258362Y-49127632D01*
X86181753Y-49102848D01*
X86055611Y-49043802D01*
X86024322Y-49028120D01*
X85803473Y-48926275D01*
X85633018Y-48869828D01*
X85507829Y-48857443D01*
X85441065Y-48875994D01*
X85400298Y-48899279D01*
X85373555Y-48923712D01*
X85364882Y-48955700D01*
X85378328Y-49001651D01*
X85417940Y-49067973D01*
X85487766Y-49161074D01*
X85591854Y-49287360D01*
X85734252Y-49453242D01*
X85919007Y-49665125D01*
X85992938Y-49749635D01*
X86109248Y-49885587D01*
X86203745Y-50001864D01*
X86268246Y-50087937D01*
X86294564Y-50133278D01*
X86294147Y-50137091D01*
X86280363Y-50144116D01*
X86253389Y-50142258D01*
X86203761Y-50128155D01*
X86122014Y-50098444D01*
X85998681Y-50049762D01*
X85824297Y-49978747D01*
X85671571Y-49915920D01*
X85478141Y-49837479D01*
X85342016Y-49786425D01*
X85254115Y-49760829D01*
X85205359Y-49758761D01*
X85186665Y-49778292D01*
X85188125Y-49813215D01*
X85224016Y-49853234D01*
X85313584Y-49916302D01*
X85444247Y-49995858D01*
X85603427Y-50085341D01*
X85778542Y-50178188D01*
X85957012Y-50267839D01*
X86126259Y-50347733D01*
X86273702Y-50411308D01*
X86386760Y-50452002D01*
X86433571Y-50462801D01*
X86557111Y-50463880D01*
X86624071Y-50434950D01*
X86655842Y-50367822D01*
X86669421Y-50270718D01*
X86669428Y-50268624D01*
X86662097Y-50209810D01*
X86634757Y-50146509D01*
X86579390Y-50067262D01*
X86487976Y-49960611D01*
X86352499Y-49815100D01*
X86350731Y-49813238D01*
X86160429Y-49608672D01*
X86011752Y-49440029D01*
X85907522Y-49310801D01*
X85850561Y-49224481D01*
X85843061Y-49185130D01*
X85884220Y-49190866D01*
X85974142Y-49228852D01*
X86100348Y-49292396D01*
X86250363Y-49374806D01*
X86411710Y-49469388D01*
X86571914Y-49569450D01*
X86627523Y-49605937D01*
X86791073Y-49707177D01*
X86911042Y-49761136D01*
X86997064Y-49769879D01*
X87058770Y-49735469D01*
X87083008Y-49703546D01*
X87100424Y-49646057D01*
X87079876Y-49570671D01*
X87040273Y-49494903D01*
X86994417Y-49398011D01*
X86996202Y-49353135D01*
X87043089Y-49359862D01*
X87132543Y-49417780D01*
X87262025Y-49526475D01*
X87268143Y-49532000D01*
X87380852Y-49631888D01*
X87454714Y-49688118D01*
X87503511Y-49707000D01*
X87541025Y-49694843D01*
X87569314Y-49669886D01*
X87610475Y-49583368D01*
X87584334Y-49477299D01*
X87496882Y-49361371D01*
X87432445Y-49290199D01*
X87415073Y-49253660D01*
X87449960Y-49250294D01*
X87542300Y-49278643D01*
X87649142Y-49318591D01*
X87849270Y-49377514D01*
X88034638Y-49398679D01*
X88194282Y-49384144D01*
X88317235Y-49335968D01*
X88392534Y-49256208D01*
X88411143Y-49175564D01*
X88395520Y-49082795D01*
X88365785Y-49025917D01*
X88342160Y-48992926D01*
X88375607Y-48997938D01*
X88393000Y-49004243D01*
X88627542Y-49088278D01*
X88807502Y-49141994D01*
X88943759Y-49166401D01*
X89047191Y-49162508D01*
X89128677Y-49131323D01*
X89194437Y-49078576D01*
X89260879Y-49020574D01*
X89310681Y-49011270D01*
X89365144Y-49038218D01*
X89455493Y-49078430D01*
X89570100Y-49110174D01*
X89583637Y-49112714D01*
X89673078Y-49122131D01*
X89737628Y-49103211D01*
X89806441Y-49043978D01*
X89841106Y-49006954D01*
X89913303Y-48932896D01*
X89972567Y-48896999D01*
X90047651Y-48889653D01*
X90159929Y-48900378D01*
X90279889Y-48910653D01*
X90354105Y-48902188D01*
X90408200Y-48869420D01*
X90437673Y-48840083D01*
X90448706Y-48825073D01*
X88841375Y-48825073D01*
X88839046Y-48845316D01*
X88776898Y-48832077D01*
X88653568Y-48785308D01*
X88467697Y-48704961D01*
X88400677Y-48674818D01*
X88243217Y-48600405D01*
X88104837Y-48529295D01*
X88002590Y-48470588D01*
X87958579Y-48438961D01*
X87914190Y-48392704D01*
X87922633Y-48374279D01*
X87993160Y-48370867D01*
X88007738Y-48370858D01*
X88137801Y-48394774D01*
X88304591Y-48461617D01*
X88492507Y-48564025D01*
X88672015Y-48684331D01*
X88785244Y-48771395D01*
X88841375Y-48825073D01*
X90448706Y-48825073D01*
X90493070Y-48764718D01*
X90515714Y-48702835D01*
X90498687Y-48647757D01*
X90166381Y-48647757D01*
X90120057Y-48660100D01*
X90019206Y-48631277D01*
X89866258Y-48561562D01*
X89865853Y-48561358D01*
X89715692Y-48464817D01*
X89589268Y-48345232D01*
X89500605Y-48218950D01*
X89463729Y-48102314D01*
X89463428Y-48092339D01*
X89467780Y-48035936D01*
X89494257Y-48026329D01*
X89562990Y-48057627D01*
X89569880Y-48061185D01*
X89651704Y-48115294D01*
X89762149Y-48203387D01*
X89884348Y-48310123D01*
X90001435Y-48420165D01*
X90096541Y-48518173D01*
X90152801Y-48588807D01*
X90155749Y-48593976D01*
X90166381Y-48647757D01*
X90498687Y-48647757D01*
X90491910Y-48625839D01*
X90428261Y-48514221D01*
X90336413Y-48384496D01*
X90228012Y-48253182D01*
X90120233Y-48141937D01*
X89906729Y-47968921D01*
X89709687Y-47865533D01*
X89527143Y-47831205D01*
X89357136Y-47865370D01*
X89287002Y-47901220D01*
X89238425Y-47930717D01*
X89198078Y-47947761D01*
X89157953Y-47946436D01*
X89110043Y-47920828D01*
X89046339Y-47865021D01*
X88958835Y-47773100D01*
X88839523Y-47639149D01*
X88680394Y-47457254D01*
X88670180Y-47445572D01*
X88511584Y-47264843D01*
X88337281Y-47067246D01*
X88168333Y-46876600D01*
X88025797Y-46716725D01*
X88024928Y-46715754D01*
X87903589Y-46576471D01*
X87795838Y-46445781D01*
X87713834Y-46338875D01*
X87671116Y-46273693D01*
X87625582Y-46200064D01*
X87576106Y-46179354D01*
X87495497Y-46196153D01*
G36*
X96268190Y-40886419D02*
G01*
X96239444Y-40891343D01*
X96195286Y-40901617D01*
X96132506Y-40918240D01*
X96047896Y-40942213D01*
X95938248Y-40974534D01*
X95800352Y-41016205D01*
X95631000Y-41068224D01*
X95426984Y-41131592D01*
X95185095Y-41207308D01*
X94902123Y-41296373D01*
X94574861Y-41399785D01*
X94200100Y-41518545D01*
X93774632Y-41653652D01*
X93295246Y-41806107D01*
X92758736Y-41976909D01*
X92161892Y-42167058D01*
X91501506Y-42377554D01*
X90969285Y-42547243D01*
X90518823Y-42690826D01*
X90055483Y-42838417D01*
X89589221Y-42986852D01*
X89129993Y-43132965D01*
X88687754Y-43273590D01*
X88272458Y-43405562D01*
X87894062Y-43525715D01*
X87562520Y-43630886D01*
X87287788Y-43717907D01*
X87231857Y-43735599D01*
X86940485Y-43828329D01*
X86669999Y-43915550D01*
X86428454Y-43994579D01*
X86223910Y-44062730D01*
X86064423Y-44117319D01*
X85958051Y-44155661D01*
X85912851Y-44175071D01*
X85912788Y-44175119D01*
X85895277Y-44206999D01*
X85921282Y-44253818D01*
X85998274Y-44327628D01*
X86017623Y-44344283D01*
X86171526Y-44475520D01*
X85685691Y-44629366D01*
X85506524Y-44686123D01*
X85350405Y-44735620D01*
X85231281Y-44773433D01*
X85163094Y-44795137D01*
X85154500Y-44797896D01*
X85110950Y-44836604D01*
X85129206Y-44898352D01*
X85205490Y-44975105D01*
X85254285Y-45010122D01*
X85339242Y-45071438D01*
X85391464Y-45118945D01*
X85399371Y-45132872D01*
X85366583Y-45152307D01*
X85276240Y-45188226D01*
X85140313Y-45236306D01*
X84970769Y-45292220D01*
X84873614Y-45322857D01*
X84662880Y-45390060D01*
X84513598Y-45442367D01*
X84417084Y-45483523D01*
X84364653Y-45517270D01*
X84347622Y-45547353D01*
X84347529Y-45549643D01*
X84371588Y-45603331D01*
X84399289Y-45613143D01*
X84444874Y-45602466D01*
X84551417Y-45572090D01*
X84710774Y-45524502D01*
X84914807Y-45462185D01*
X85155372Y-45387627D01*
X85424330Y-45303311D01*
X85696503Y-45217143D01*
X86663093Y-44909710D01*
X87099090Y-44771033D01*
X86550098Y-44771033D01*
X86526734Y-44793094D01*
X86507434Y-44801134D01*
X86407280Y-44837115D01*
X86271073Y-44882649D01*
X86116070Y-44932386D01*
X85959530Y-44980977D01*
X85818713Y-45023069D01*
X85710876Y-45053315D01*
X85653280Y-45066362D01*
X85651406Y-45066501D01*
X85587522Y-45047615D01*
X85499672Y-44997816D01*
X85477160Y-44981951D01*
X85359365Y-44895044D01*
X85844771Y-44732782D01*
X86330177Y-44570521D01*
X86454445Y-44672098D01*
X86528093Y-44735793D01*
X86550098Y-44771033D01*
X87099090Y-44771033D01*
X87562440Y-44623656D01*
X88396463Y-44358369D01*
X89167078Y-44113239D01*
X89876204Y-43887657D01*
X90525757Y-43681011D01*
X91117657Y-43492691D01*
X91653820Y-43322088D01*
X92136163Y-43168590D01*
X92566605Y-43031587D01*
X92947064Y-42910470D01*
X93279456Y-42804626D01*
X93565700Y-42713447D01*
X93807712Y-42636321D01*
X94007411Y-42572639D01*
X94166715Y-42521790D01*
X94287541Y-42483164D01*
X94371806Y-42456149D01*
X94421428Y-42440137D01*
X94431266Y-42436920D01*
X94591247Y-42384190D01*
X94566537Y-43608595D01*
X94553553Y-44247465D01*
X94539949Y-44908529D01*
X94525893Y-45583961D01*
X94511555Y-46265940D01*
X94497105Y-46946640D01*
X94482711Y-47618239D01*
X94468543Y-48272912D01*
X94454771Y-48902836D01*
X94441564Y-49500187D01*
X94429091Y-50057141D01*
X94417521Y-50565874D01*
X94407025Y-51018564D01*
X94397772Y-51407385D01*
X94396832Y-51446137D01*
X94389197Y-51781184D01*
X94383049Y-52094154D01*
X94378464Y-52377528D01*
X94375518Y-52623784D01*
X94374287Y-52825404D01*
X94374848Y-52974868D01*
X94377277Y-53064656D01*
X94380183Y-53088066D01*
X94432929Y-53122099D01*
X94450722Y-53124286D01*
X94470532Y-53107020D01*
X94486789Y-53049844D01*
X94500531Y-52944687D01*
X94512797Y-52783481D01*
X94524625Y-52558156D01*
X94525190Y-52545801D01*
X94551506Y-51967316D01*
X94861429Y-52201087D01*
X94993230Y-52297220D01*
X95107014Y-52374171D01*
X95188581Y-52422690D01*
X95220247Y-52434857D01*
X95256766Y-52399977D01*
X95273342Y-52295388D01*
X95273916Y-52280643D01*
X95277897Y-52180224D01*
X95284907Y-52029940D01*
X95293856Y-51852383D01*
X95301131Y-51715934D01*
X95323571Y-51305439D01*
X95666056Y-51562134D01*
X95801523Y-51659923D01*
X95916265Y-51735733D01*
X95998068Y-51781970D01*
X96034575Y-51791201D01*
X96038689Y-51778249D01*
X96042869Y-51746099D01*
X96047192Y-51691736D01*
X96051737Y-51612145D01*
X96056581Y-51504312D01*
X96061801Y-51365222D01*
X96067475Y-51191860D01*
X96073680Y-50981212D01*
X96080494Y-50730262D01*
X96087994Y-50435996D01*
X96096258Y-50095400D01*
X96105364Y-49705457D01*
X96115388Y-49263155D01*
X96126408Y-48765477D01*
X96138502Y-48209409D01*
X96151748Y-47591937D01*
X96166222Y-46910046D01*
X96182003Y-46160720D01*
X96193856Y-45595000D01*
X96203752Y-45131864D01*
X96214135Y-44664117D01*
X96224780Y-44200926D01*
X96235459Y-43751460D01*
X96245945Y-43324889D01*
X96256011Y-42930379D01*
X96265430Y-42577101D01*
X96273975Y-42274222D01*
X96281419Y-42030911D01*
X96284142Y-41949276D01*
X96292388Y-41682318D01*
X96297424Y-41466327D01*
X96135041Y-41466327D01*
X96132369Y-41705705D01*
X96126094Y-42011845D01*
X96124789Y-42066215D01*
X96120264Y-42255868D01*
X96114345Y-42510568D01*
X96107199Y-42822804D01*
X96098995Y-43185068D01*
X96089899Y-43589850D01*
X96080081Y-44029642D01*
X96069708Y-44496934D01*
X96058948Y-44984218D01*
X96047969Y-45483985D01*
X96036938Y-45988725D01*
X96030898Y-46266286D01*
X96019888Y-46772165D01*
X96008834Y-47278373D01*
X95997905Y-47777261D01*
X95987272Y-48261183D01*
X95977102Y-48722492D01*
X95967564Y-49153539D01*
X95958829Y-49546679D01*
X95951064Y-49894263D01*
X95944439Y-50188644D01*
X95939123Y-50422175D01*
X95936892Y-50518752D01*
X95912657Y-51559932D01*
X95618114Y-51338148D01*
X95494261Y-51244983D01*
X95411667Y-51183000D01*
X95168570Y-51183000D01*
X95146472Y-51527715D01*
X95136506Y-51699481D01*
X95128829Y-51862753D01*
X95124628Y-51990939D01*
X95124187Y-52026643D01*
X95119727Y-52120866D01*
X95108733Y-52175419D01*
X95103281Y-52180857D01*
X95067345Y-52160124D01*
X94988032Y-52104481D01*
X94879101Y-52023764D01*
X94812995Y-51973357D01*
X94543428Y-51765857D01*
X94546607Y-51438143D01*
X94550865Y-51265534D01*
X94559359Y-51097399D01*
X94570470Y-50963613D01*
X94573821Y-50936432D01*
X94597857Y-50762435D01*
X94883213Y-50972717D01*
X95168570Y-51183000D01*
X95411667Y-51183000D01*
X95394345Y-51170001D01*
X95330999Y-51122670D01*
X95315205Y-51111078D01*
X95314487Y-51074453D01*
X95315391Y-50969074D01*
X95317837Y-50798741D01*
X95321746Y-50567252D01*
X95327040Y-50278406D01*
X95333638Y-49936000D01*
X95341461Y-49543834D01*
X95350431Y-49105705D01*
X95360468Y-48625413D01*
X95371492Y-48106756D01*
X95383425Y-47553533D01*
X95396187Y-46969541D01*
X95409698Y-46358579D01*
X95423880Y-45724446D01*
X95438654Y-45070941D01*
X95453939Y-44401861D01*
X95467431Y-43817025D01*
X95476205Y-43419495D01*
X95483657Y-43043518D01*
X95489718Y-42695359D01*
X95494319Y-42381284D01*
X95497391Y-42107560D01*
X95498867Y-41880454D01*
X95498676Y-41706231D01*
X95498568Y-41699750D01*
X95376612Y-41699750D01*
X95359270Y-41960089D01*
X95355240Y-42046368D01*
X95350116Y-42197326D01*
X95344095Y-42405083D01*
X95337371Y-42661760D01*
X95330141Y-42959476D01*
X95322599Y-43290351D01*
X95314943Y-43646505D01*
X95307366Y-44020057D01*
X95304611Y-44161715D01*
X95296210Y-44590028D01*
X95286988Y-45044925D01*
X95277259Y-45511845D01*
X95267336Y-45976230D01*
X95257534Y-46423518D01*
X95248168Y-46839151D01*
X95239550Y-47208567D01*
X95233341Y-47463715D01*
X95224219Y-47833326D01*
X95214500Y-48234222D01*
X95204633Y-48647381D01*
X95195069Y-49053781D01*
X95186256Y-49434400D01*
X95178645Y-49770215D01*
X95175679Y-49904010D01*
X95151970Y-50983592D01*
X95001913Y-50871852D01*
X94880065Y-50781927D01*
X94754332Y-50690331D01*
X94716560Y-50663127D01*
X94641078Y-50604601D01*
X94600552Y-50550634D01*
X94584029Y-50475884D01*
X94580554Y-50355008D01*
X94580530Y-50348429D01*
X94581163Y-50257885D01*
X94583344Y-50101143D01*
X94586937Y-49884559D01*
X94591803Y-49614486D01*
X94597807Y-49297280D01*
X94604811Y-48939296D01*
X94612679Y-48546886D01*
X94621274Y-48126407D01*
X94630458Y-47684213D01*
X94640095Y-47226658D01*
X94650048Y-46760097D01*
X94660180Y-46290885D01*
X94670355Y-45825375D01*
X94680434Y-45369924D01*
X94690283Y-44930885D01*
X94699762Y-44514612D01*
X94708737Y-44127461D01*
X94717069Y-43775786D01*
X94724622Y-43465942D01*
X94731259Y-43204283D01*
X94736844Y-42997164D01*
X94741238Y-42850939D01*
X94743233Y-42795426D01*
X94750668Y-42547639D01*
X94750145Y-42368586D01*
X94741695Y-42259458D01*
X94728034Y-42222393D01*
X94687371Y-42228771D01*
X94584049Y-42255521D01*
X94424472Y-42300719D01*
X94215041Y-42362441D01*
X93962161Y-42438761D01*
X93672233Y-42527757D01*
X93351661Y-42627502D01*
X93006847Y-42736072D01*
X92793627Y-42803809D01*
X92396669Y-42930302D01*
X91987414Y-43060664D01*
X91577350Y-43191240D01*
X91177968Y-43318372D01*
X90800757Y-43438404D01*
X90457207Y-43547679D01*
X90158807Y-43642541D01*
X89917047Y-43719332D01*
X89898857Y-43725106D01*
X89580015Y-43826349D01*
X89215167Y-43942281D01*
X88827450Y-44065542D01*
X88440000Y-44188778D01*
X88075954Y-44304631D01*
X87843038Y-44378796D01*
X86785077Y-44715778D01*
X86672824Y-44635847D01*
X86600226Y-44577527D01*
X86562207Y-44534054D01*
X86560571Y-44528170D01*
X86592762Y-44505672D01*
X86678726Y-44469348D01*
X86802547Y-44425626D01*
X86859928Y-44407251D01*
X86974750Y-44371313D01*
X87134673Y-44320928D01*
X87341728Y-44255449D01*
X87597945Y-44174230D01*
X87905357Y-44076625D01*
X88265994Y-43961989D01*
X88681888Y-43829674D01*
X89155068Y-43679035D01*
X89687567Y-43509425D01*
X90281415Y-43320199D01*
X90938644Y-43110711D01*
X91661284Y-42880313D01*
X92311857Y-42672853D01*
X92753193Y-42532131D01*
X93176135Y-42397323D01*
X93575365Y-42270121D01*
X93945564Y-42152219D01*
X94281411Y-42045308D01*
X94577588Y-41951082D01*
X94828776Y-41871232D01*
X95029655Y-41807451D01*
X95174907Y-41761432D01*
X95259213Y-41734868D01*
X95277520Y-41729208D01*
X95376612Y-41699750D01*
X95498568Y-41699750D01*
X95496751Y-41591158D01*
X95493023Y-41541501D01*
X95492364Y-41540136D01*
X95447397Y-41537834D01*
X95352611Y-41556158D01*
X95226520Y-41591294D01*
X95194797Y-41601432D01*
X95094993Y-41633766D01*
X94936438Y-41684720D01*
X94729552Y-41750964D01*
X94484755Y-41829167D01*
X94212470Y-41915999D01*
X93923116Y-42008130D01*
X93727000Y-42070494D01*
X93417166Y-42168981D01*
X93054301Y-42284351D01*
X92654529Y-42411476D01*
X92233973Y-42545228D01*
X91808756Y-42680480D01*
X91395000Y-42812103D01*
X91008828Y-42934971D01*
X90969285Y-42947554D01*
X90566728Y-43075633D01*
X90117412Y-43218560D01*
X89640955Y-43370096D01*
X89156973Y-43524002D01*
X88685082Y-43674042D01*
X88244901Y-43813976D01*
X87888883Y-43927131D01*
X86368767Y-44410217D01*
X86264849Y-44333386D01*
X86203722Y-44277601D01*
X86185403Y-44237910D01*
X86188393Y-44233433D01*
X86228631Y-44217177D01*
X86329518Y-44182147D01*
X86482425Y-44131172D01*
X86678721Y-44067084D01*
X86909774Y-43992716D01*
X87166956Y-43910899D01*
X87286285Y-43873232D01*
X87593080Y-43776461D01*
X87914249Y-43674869D01*
X88233093Y-43573760D01*
X88532909Y-43478436D01*
X88796997Y-43394200D01*
X89008655Y-43326355D01*
X89009857Y-43325968D01*
X89213050Y-43260747D01*
X89470168Y-43178478D01*
X89765950Y-43084029D01*
X90085137Y-42982268D01*
X90412468Y-42878063D01*
X90732686Y-42776280D01*
X90824143Y-42747244D01*
X91152086Y-42643077D01*
X91503075Y-42531449D01*
X91859271Y-42418044D01*
X92202840Y-42308542D01*
X92515945Y-42208626D01*
X92780750Y-42123979D01*
X92819857Y-42111460D01*
X93412417Y-41921914D01*
X93950756Y-41750131D01*
X94433227Y-41596629D01*
X94858186Y-41461925D01*
X95223988Y-41346537D01*
X95528988Y-41250981D01*
X95771541Y-41175775D01*
X95950001Y-41121436D01*
X96062724Y-41088482D01*
X96108029Y-41077429D01*
X96120605Y-41099260D01*
X96129243Y-41168054D01*
X96134027Y-41288759D01*
X96135041Y-41466327D01*
X96297424Y-41466327D01*
X96298061Y-41439046D01*
X96301089Y-41228879D01*
X96301400Y-41061235D01*
X96298920Y-40945533D01*
X96293578Y-40891190D01*
X96292278Y-40888621D01*
X96284732Y-40885845D01*
X96268190Y-40886419D01*
G37*
X96268190Y-40886419D02*
X96239444Y-40891343D01*
X96195286Y-40901617D01*
X96132506Y-40918240D01*
X96047896Y-40942213D01*
X95938248Y-40974534D01*
X95800352Y-41016205D01*
X95631000Y-41068224D01*
X95426984Y-41131592D01*
X95185095Y-41207308D01*
X94902123Y-41296373D01*
X94574861Y-41399785D01*
X94200100Y-41518545D01*
X93774632Y-41653652D01*
X93295246Y-41806107D01*
X92758736Y-41976909D01*
X92161892Y-42167058D01*
X91501506Y-42377554D01*
X90969285Y-42547243D01*
X90518823Y-42690826D01*
X90055483Y-42838417D01*
X89589221Y-42986852D01*
X89129993Y-43132965D01*
X88687754Y-43273590D01*
X88272458Y-43405562D01*
X87894062Y-43525715D01*
X87562520Y-43630886D01*
X87287788Y-43717907D01*
X87231857Y-43735599D01*
X86940485Y-43828329D01*
X86669999Y-43915550D01*
X86428454Y-43994579D01*
X86223910Y-44062730D01*
X86064423Y-44117319D01*
X85958051Y-44155661D01*
X85912851Y-44175071D01*
X85912788Y-44175119D01*
X85895277Y-44206999D01*
X85921282Y-44253818D01*
X85998274Y-44327628D01*
X86017623Y-44344283D01*
X86171526Y-44475520D01*
X85685691Y-44629366D01*
X85506524Y-44686123D01*
X85350405Y-44735620D01*
X85231281Y-44773433D01*
X85163094Y-44795137D01*
X85154500Y-44797896D01*
X85110950Y-44836604D01*
X85129206Y-44898352D01*
X85205490Y-44975105D01*
X85254285Y-45010122D01*
X85339242Y-45071438D01*
X85391464Y-45118945D01*
X85399371Y-45132872D01*
X85366583Y-45152307D01*
X85276240Y-45188226D01*
X85140313Y-45236306D01*
X84970769Y-45292220D01*
X84873614Y-45322857D01*
X84662880Y-45390060D01*
X84513598Y-45442367D01*
X84417084Y-45483523D01*
X84364653Y-45517270D01*
X84347622Y-45547353D01*
X84347529Y-45549643D01*
X84371588Y-45603331D01*
X84399289Y-45613143D01*
X84444874Y-45602466D01*
X84551417Y-45572090D01*
X84710774Y-45524502D01*
X84914807Y-45462185D01*
X85155372Y-45387627D01*
X85424330Y-45303311D01*
X85696503Y-45217143D01*
X86663093Y-44909710D01*
X87099090Y-44771033D01*
X86550098Y-44771033D01*
X86526734Y-44793094D01*
X86507434Y-44801134D01*
X86407280Y-44837115D01*
X86271073Y-44882649D01*
X86116070Y-44932386D01*
X85959530Y-44980977D01*
X85818713Y-45023069D01*
X85710876Y-45053315D01*
X85653280Y-45066362D01*
X85651406Y-45066501D01*
X85587522Y-45047615D01*
X85499672Y-44997816D01*
X85477160Y-44981951D01*
X85359365Y-44895044D01*
X85844771Y-44732782D01*
X86330177Y-44570521D01*
X86454445Y-44672098D01*
X86528093Y-44735793D01*
X86550098Y-44771033D01*
X87099090Y-44771033D01*
X87562440Y-44623656D01*
X88396463Y-44358369D01*
X89167078Y-44113239D01*
X89876204Y-43887657D01*
X90525757Y-43681011D01*
X91117657Y-43492691D01*
X91653820Y-43322088D01*
X92136163Y-43168590D01*
X92566605Y-43031587D01*
X92947064Y-42910470D01*
X93279456Y-42804626D01*
X93565700Y-42713447D01*
X93807712Y-42636321D01*
X94007411Y-42572639D01*
X94166715Y-42521790D01*
X94287541Y-42483164D01*
X94371806Y-42456149D01*
X94421428Y-42440137D01*
X94431266Y-42436920D01*
X94591247Y-42384190D01*
X94566537Y-43608595D01*
X94553553Y-44247465D01*
X94539949Y-44908529D01*
X94525893Y-45583961D01*
X94511555Y-46265940D01*
X94497105Y-46946640D01*
X94482711Y-47618239D01*
X94468543Y-48272912D01*
X94454771Y-48902836D01*
X94441564Y-49500187D01*
X94429091Y-50057141D01*
X94417521Y-50565874D01*
X94407025Y-51018564D01*
X94397772Y-51407385D01*
X94396832Y-51446137D01*
X94389197Y-51781184D01*
X94383049Y-52094154D01*
X94378464Y-52377528D01*
X94375518Y-52623784D01*
X94374287Y-52825404D01*
X94374848Y-52974868D01*
X94377277Y-53064656D01*
X94380183Y-53088066D01*
X94432929Y-53122099D01*
X94450722Y-53124286D01*
X94470532Y-53107020D01*
X94486789Y-53049844D01*
X94500531Y-52944687D01*
X94512797Y-52783481D01*
X94524625Y-52558156D01*
X94525190Y-52545801D01*
X94551506Y-51967316D01*
X94861429Y-52201087D01*
X94993230Y-52297220D01*
X95107014Y-52374171D01*
X95188581Y-52422690D01*
X95220247Y-52434857D01*
X95256766Y-52399977D01*
X95273342Y-52295388D01*
X95273916Y-52280643D01*
X95277897Y-52180224D01*
X95284907Y-52029940D01*
X95293856Y-51852383D01*
X95301131Y-51715934D01*
X95323571Y-51305439D01*
X95666056Y-51562134D01*
X95801523Y-51659923D01*
X95916265Y-51735733D01*
X95998068Y-51781970D01*
X96034575Y-51791201D01*
X96038689Y-51778249D01*
X96042869Y-51746099D01*
X96047192Y-51691736D01*
X96051737Y-51612145D01*
X96056581Y-51504312D01*
X96061801Y-51365222D01*
X96067475Y-51191860D01*
X96073680Y-50981212D01*
X96080494Y-50730262D01*
X96087994Y-50435996D01*
X96096258Y-50095400D01*
X96105364Y-49705457D01*
X96115388Y-49263155D01*
X96126408Y-48765477D01*
X96138502Y-48209409D01*
X96151748Y-47591937D01*
X96166222Y-46910046D01*
X96182003Y-46160720D01*
X96193856Y-45595000D01*
X96203752Y-45131864D01*
X96214135Y-44664117D01*
X96224780Y-44200926D01*
X96235459Y-43751460D01*
X96245945Y-43324889D01*
X96256011Y-42930379D01*
X96265430Y-42577101D01*
X96273975Y-42274222D01*
X96281419Y-42030911D01*
X96284142Y-41949276D01*
X96292388Y-41682318D01*
X96297424Y-41466327D01*
X96135041Y-41466327D01*
X96132369Y-41705705D01*
X96126094Y-42011845D01*
X96124789Y-42066215D01*
X96120264Y-42255868D01*
X96114345Y-42510568D01*
X96107199Y-42822804D01*
X96098995Y-43185068D01*
X96089899Y-43589850D01*
X96080081Y-44029642D01*
X96069708Y-44496934D01*
X96058948Y-44984218D01*
X96047969Y-45483985D01*
X96036938Y-45988725D01*
X96030898Y-46266286D01*
X96019888Y-46772165D01*
X96008834Y-47278373D01*
X95997905Y-47777261D01*
X95987272Y-48261183D01*
X95977102Y-48722492D01*
X95967564Y-49153539D01*
X95958829Y-49546679D01*
X95951064Y-49894263D01*
X95944439Y-50188644D01*
X95939123Y-50422175D01*
X95936892Y-50518752D01*
X95912657Y-51559932D01*
X95618114Y-51338148D01*
X95494261Y-51244983D01*
X95411667Y-51183000D01*
X95168570Y-51183000D01*
X95146472Y-51527715D01*
X95136506Y-51699481D01*
X95128829Y-51862753D01*
X95124628Y-51990939D01*
X95124187Y-52026643D01*
X95119727Y-52120866D01*
X95108733Y-52175419D01*
X95103281Y-52180857D01*
X95067345Y-52160124D01*
X94988032Y-52104481D01*
X94879101Y-52023764D01*
X94812995Y-51973357D01*
X94543428Y-51765857D01*
X94546607Y-51438143D01*
X94550865Y-51265534D01*
X94559359Y-51097399D01*
X94570470Y-50963613D01*
X94573821Y-50936432D01*
X94597857Y-50762435D01*
X94883213Y-50972717D01*
X95168570Y-51183000D01*
X95411667Y-51183000D01*
X95394345Y-51170001D01*
X95330999Y-51122670D01*
X95315205Y-51111078D01*
X95314487Y-51074453D01*
X95315391Y-50969074D01*
X95317837Y-50798741D01*
X95321746Y-50567252D01*
X95327040Y-50278406D01*
X95333638Y-49936000D01*
X95341461Y-49543834D01*
X95350431Y-49105705D01*
X95360468Y-48625413D01*
X95371492Y-48106756D01*
X95383425Y-47553533D01*
X95396187Y-46969541D01*
X95409698Y-46358579D01*
X95423880Y-45724446D01*
X95438654Y-45070941D01*
X95453939Y-44401861D01*
X95467431Y-43817025D01*
X95476205Y-43419495D01*
X95483657Y-43043518D01*
X95489718Y-42695359D01*
X95494319Y-42381284D01*
X95497391Y-42107560D01*
X95498867Y-41880454D01*
X95498676Y-41706231D01*
X95498568Y-41699750D01*
X95376612Y-41699750D01*
X95359270Y-41960089D01*
X95355240Y-42046368D01*
X95350116Y-42197326D01*
X95344095Y-42405083D01*
X95337371Y-42661760D01*
X95330141Y-42959476D01*
X95322599Y-43290351D01*
X95314943Y-43646505D01*
X95307366Y-44020057D01*
X95304611Y-44161715D01*
X95296210Y-44590028D01*
X95286988Y-45044925D01*
X95277259Y-45511845D01*
X95267336Y-45976230D01*
X95257534Y-46423518D01*
X95248168Y-46839151D01*
X95239550Y-47208567D01*
X95233341Y-47463715D01*
X95224219Y-47833326D01*
X95214500Y-48234222D01*
X95204633Y-48647381D01*
X95195069Y-49053781D01*
X95186256Y-49434400D01*
X95178645Y-49770215D01*
X95175679Y-49904010D01*
X95151970Y-50983592D01*
X95001913Y-50871852D01*
X94880065Y-50781927D01*
X94754332Y-50690331D01*
X94716560Y-50663127D01*
X94641078Y-50604601D01*
X94600552Y-50550634D01*
X94584029Y-50475884D01*
X94580554Y-50355008D01*
X94580530Y-50348429D01*
X94581163Y-50257885D01*
X94583344Y-50101143D01*
X94586937Y-49884559D01*
X94591803Y-49614486D01*
X94597807Y-49297280D01*
X94604811Y-48939296D01*
X94612679Y-48546886D01*
X94621274Y-48126407D01*
X94630458Y-47684213D01*
X94640095Y-47226658D01*
X94650048Y-46760097D01*
X94660180Y-46290885D01*
X94670355Y-45825375D01*
X94680434Y-45369924D01*
X94690283Y-44930885D01*
X94699762Y-44514612D01*
X94708737Y-44127461D01*
X94717069Y-43775786D01*
X94724622Y-43465942D01*
X94731259Y-43204283D01*
X94736844Y-42997164D01*
X94741238Y-42850939D01*
X94743233Y-42795426D01*
X94750668Y-42547639D01*
X94750145Y-42368586D01*
X94741695Y-42259458D01*
X94728034Y-42222393D01*
X94687371Y-42228771D01*
X94584049Y-42255521D01*
X94424472Y-42300719D01*
X94215041Y-42362441D01*
X93962161Y-42438761D01*
X93672233Y-42527757D01*
X93351661Y-42627502D01*
X93006847Y-42736072D01*
X92793627Y-42803809D01*
X92396669Y-42930302D01*
X91987414Y-43060664D01*
X91577350Y-43191240D01*
X91177968Y-43318372D01*
X90800757Y-43438404D01*
X90457207Y-43547679D01*
X90158807Y-43642541D01*
X89917047Y-43719332D01*
X89898857Y-43725106D01*
X89580015Y-43826349D01*
X89215167Y-43942281D01*
X88827450Y-44065542D01*
X88440000Y-44188778D01*
X88075954Y-44304631D01*
X87843038Y-44378796D01*
X86785077Y-44715778D01*
X86672824Y-44635847D01*
X86600226Y-44577527D01*
X86562207Y-44534054D01*
X86560571Y-44528170D01*
X86592762Y-44505672D01*
X86678726Y-44469348D01*
X86802547Y-44425626D01*
X86859928Y-44407251D01*
X86974750Y-44371313D01*
X87134673Y-44320928D01*
X87341728Y-44255449D01*
X87597945Y-44174230D01*
X87905357Y-44076625D01*
X88265994Y-43961989D01*
X88681888Y-43829674D01*
X89155068Y-43679035D01*
X89687567Y-43509425D01*
X90281415Y-43320199D01*
X90938644Y-43110711D01*
X91661284Y-42880313D01*
X92311857Y-42672853D01*
X92753193Y-42532131D01*
X93176135Y-42397323D01*
X93575365Y-42270121D01*
X93945564Y-42152219D01*
X94281411Y-42045308D01*
X94577588Y-41951082D01*
X94828776Y-41871232D01*
X95029655Y-41807451D01*
X95174907Y-41761432D01*
X95259213Y-41734868D01*
X95277520Y-41729208D01*
X95376612Y-41699750D01*
X95498568Y-41699750D01*
X95496751Y-41591158D01*
X95493023Y-41541501D01*
X95492364Y-41540136D01*
X95447397Y-41537834D01*
X95352611Y-41556158D01*
X95226520Y-41591294D01*
X95194797Y-41601432D01*
X95094993Y-41633766D01*
X94936438Y-41684720D01*
X94729552Y-41750964D01*
X94484755Y-41829167D01*
X94212470Y-41915999D01*
X93923116Y-42008130D01*
X93727000Y-42070494D01*
X93417166Y-42168981D01*
X93054301Y-42284351D01*
X92654529Y-42411476D01*
X92233973Y-42545228D01*
X91808756Y-42680480D01*
X91395000Y-42812103D01*
X91008828Y-42934971D01*
X90969285Y-42947554D01*
X90566728Y-43075633D01*
X90117412Y-43218560D01*
X89640955Y-43370096D01*
X89156973Y-43524002D01*
X88685082Y-43674042D01*
X88244901Y-43813976D01*
X87888883Y-43927131D01*
X86368767Y-44410217D01*
X86264849Y-44333386D01*
X86203722Y-44277601D01*
X86185403Y-44237910D01*
X86188393Y-44233433D01*
X86228631Y-44217177D01*
X86329518Y-44182147D01*
X86482425Y-44131172D01*
X86678721Y-44067084D01*
X86909774Y-43992716D01*
X87166956Y-43910899D01*
X87286285Y-43873232D01*
X87593080Y-43776461D01*
X87914249Y-43674869D01*
X88233093Y-43573760D01*
X88532909Y-43478436D01*
X88796997Y-43394200D01*
X89008655Y-43326355D01*
X89009857Y-43325968D01*
X89213050Y-43260747D01*
X89470168Y-43178478D01*
X89765950Y-43084029D01*
X90085137Y-42982268D01*
X90412468Y-42878063D01*
X90732686Y-42776280D01*
X90824143Y-42747244D01*
X91152086Y-42643077D01*
X91503075Y-42531449D01*
X91859271Y-42418044D01*
X92202840Y-42308542D01*
X92515945Y-42208626D01*
X92780750Y-42123979D01*
X92819857Y-42111460D01*
X93412417Y-41921914D01*
X93950756Y-41750131D01*
X94433227Y-41596629D01*
X94858186Y-41461925D01*
X95223988Y-41346537D01*
X95528988Y-41250981D01*
X95771541Y-41175775D01*
X95950001Y-41121436D01*
X96062724Y-41088482D01*
X96108029Y-41077429D01*
X96120605Y-41099260D01*
X96129243Y-41168054D01*
X96134027Y-41288759D01*
X96135041Y-41466327D01*
X96297424Y-41466327D01*
X96298061Y-41439046D01*
X96301089Y-41228879D01*
X96301400Y-41061235D01*
X96298920Y-40945533D01*
X96293578Y-40891190D01*
X96292278Y-40888621D01*
X96284732Y-40885845D01*
X96268190Y-40886419D01*
G36*
X80224104Y-47878030D02*
G01*
X80154587Y-47916519D01*
X80109655Y-47952458D01*
X80036259Y-48028128D01*
X79995683Y-48096987D01*
X79992857Y-48112959D01*
X80011344Y-48212971D01*
X80069259Y-48334090D01*
X80170280Y-48481204D01*
X80318088Y-48659201D01*
X80516362Y-48872970D01*
X80720376Y-49079565D01*
X80932594Y-49293267D01*
X81129493Y-49497605D01*
X81305465Y-49686248D01*
X81454904Y-49852866D01*
X81572200Y-49991128D01*
X81651747Y-50094702D01*
X81687937Y-50157258D01*
X81687641Y-50171598D01*
X81647186Y-50168588D01*
X81558817Y-50142883D01*
X81441473Y-50100012D01*
X81438710Y-50098918D01*
X81256777Y-50028462D01*
X81033198Y-49944532D01*
X80780923Y-49851739D01*
X80512904Y-49754692D01*
X80242091Y-49657999D01*
X79981437Y-49566270D01*
X79743891Y-49484115D01*
X79542405Y-49416143D01*
X79389931Y-49366962D01*
X79339714Y-49351889D01*
X79177157Y-49305107D01*
X78988973Y-49250953D01*
X78836920Y-49207199D01*
X78688153Y-49168192D01*
X78592474Y-49153794D01*
X78535292Y-49162403D01*
X78519420Y-49172352D01*
X78471924Y-49238631D01*
X78493976Y-49294565D01*
X78582627Y-49333075D01*
X78586785Y-49333995D01*
X78678067Y-49359826D01*
X78809836Y-49404417D01*
X78955548Y-49458722D01*
X78973970Y-49465960D01*
X79152907Y-49529206D01*
X79354075Y-49589136D01*
X79518256Y-49629264D01*
X79745008Y-49686664D01*
X80013363Y-49771366D01*
X80301576Y-49875261D01*
X80587903Y-49990244D01*
X80850598Y-50108206D01*
X80988695Y-50177499D01*
X81313247Y-50349021D01*
X81303763Y-51074439D01*
X81296149Y-51410778D01*
X81280788Y-51692329D01*
X81254405Y-51936738D01*
X81213723Y-52161652D01*
X81155467Y-52384716D01*
X81076361Y-52623576D01*
X80973128Y-52895879D01*
X80959008Y-52931529D01*
X80887703Y-53113526D01*
X80826066Y-53275731D01*
X80779237Y-53404245D01*
X80752354Y-53485169D01*
X80748263Y-53501522D01*
X80753152Y-53568037D01*
X80794144Y-53578937D01*
X80862931Y-53536003D01*
X80934472Y-53461610D01*
X81028162Y-53327614D01*
X81133145Y-53141180D01*
X81240920Y-52919694D01*
X81342990Y-52680539D01*
X81425278Y-52457702D01*
X81535053Y-52097981D01*
X81607615Y-51767640D01*
X81647986Y-51437041D01*
X81661186Y-51076548D01*
X81661214Y-51065072D01*
X81662289Y-50869764D01*
X81665819Y-50735673D01*
X81673386Y-50651447D01*
X81686573Y-50605738D01*
X81706963Y-50587194D01*
X81728260Y-50584286D01*
X81780983Y-50602899D01*
X81882152Y-50654173D01*
X82019338Y-50731264D01*
X82180111Y-50827324D01*
X82263474Y-50879080D01*
X82411515Y-50973569D01*
X82538018Y-51058959D01*
X82653280Y-51144099D01*
X82767598Y-51237840D01*
X82891270Y-51349032D01*
X83034590Y-51486524D01*
X83207857Y-51659165D01*
X83411685Y-51865942D01*
X83642093Y-52098490D01*
X83825780Y-52278764D01*
X83964679Y-52408342D01*
X84060721Y-52488797D01*
X84115838Y-52521707D01*
X84131960Y-52508646D01*
X84111021Y-52451191D01*
X84097907Y-52425731D01*
X84060737Y-52367610D01*
X83989116Y-52264785D01*
X83892414Y-52130400D01*
X83780000Y-51977602D01*
X83745926Y-51931893D01*
X83601946Y-51732686D01*
X83507191Y-51585933D01*
X83461326Y-51491081D01*
X83457801Y-51456219D01*
X83467074Y-51393952D01*
X83447504Y-51332383D01*
X83390983Y-51260945D01*
X83289403Y-51169070D01*
X83155739Y-51062485D01*
X83055175Y-50977616D01*
X82914103Y-50848876D01*
X82741606Y-50685381D01*
X82546765Y-50496246D01*
X82338662Y-50290586D01*
X82126380Y-50077516D01*
X81918998Y-49866151D01*
X81725601Y-49665607D01*
X81555269Y-49484998D01*
X81417084Y-49333441D01*
X81320477Y-49220483D01*
X81219972Y-49097016D01*
X81098485Y-48949970D01*
X80982145Y-48810970D01*
X80981065Y-48809691D01*
X80878778Y-48681346D01*
X80786273Y-48552768D01*
X80721832Y-48449532D01*
X80716891Y-48440135D01*
X80673964Y-48350635D01*
X80664708Y-48304304D01*
X80687945Y-48280655D01*
X80707254Y-48272503D01*
X80769206Y-48273275D01*
X80882509Y-48296778D01*
X81030953Y-48339245D01*
X81116571Y-48367546D01*
X81437931Y-48494688D01*
X81795241Y-48664443D01*
X82173065Y-48868176D01*
X82555971Y-49097252D01*
X82928522Y-49343037D01*
X83167857Y-49515151D01*
X83341139Y-49643141D01*
X83467996Y-49731420D01*
X83559326Y-49784783D01*
X83626025Y-49808028D01*
X83678990Y-49805949D01*
X83729117Y-49783343D01*
X83748892Y-49770890D01*
X83817278Y-49721200D01*
X83857750Y-49674269D01*
X83865636Y-49624505D01*
X83836267Y-49566318D01*
X83764972Y-49494117D01*
X83647081Y-49402310D01*
X83477921Y-49285307D01*
X83252824Y-49137515D01*
X83180975Y-49091042D01*
X82781990Y-48845266D01*
X82376605Y-48617716D01*
X81974286Y-48412571D01*
X81584498Y-48234008D01*
X81216706Y-48086205D01*
X80880375Y-47973341D01*
X80584969Y-47899593D01*
X80427155Y-47875413D01*
X80304935Y-47866760D01*
X80224104Y-47878030D01*
G37*
X80224104Y-47878030D02*
X80154587Y-47916519D01*
X80109655Y-47952458D01*
X80036259Y-48028128D01*
X79995683Y-48096987D01*
X79992857Y-48112959D01*
X80011344Y-48212971D01*
X80069259Y-48334090D01*
X80170280Y-48481204D01*
X80318088Y-48659201D01*
X80516362Y-48872970D01*
X80720376Y-49079565D01*
X80932594Y-49293267D01*
X81129493Y-49497605D01*
X81305465Y-49686248D01*
X81454904Y-49852866D01*
X81572200Y-49991128D01*
X81651747Y-50094702D01*
X81687937Y-50157258D01*
X81687641Y-50171598D01*
X81647186Y-50168588D01*
X81558817Y-50142883D01*
X81441473Y-50100012D01*
X81438710Y-50098918D01*
X81256777Y-50028462D01*
X81033198Y-49944532D01*
X80780923Y-49851739D01*
X80512904Y-49754692D01*
X80242091Y-49657999D01*
X79981437Y-49566270D01*
X79743891Y-49484115D01*
X79542405Y-49416143D01*
X79389931Y-49366962D01*
X79339714Y-49351889D01*
X79177157Y-49305107D01*
X78988973Y-49250953D01*
X78836920Y-49207199D01*
X78688153Y-49168192D01*
X78592474Y-49153794D01*
X78535292Y-49162403D01*
X78519420Y-49172352D01*
X78471924Y-49238631D01*
X78493976Y-49294565D01*
X78582627Y-49333075D01*
X78586785Y-49333995D01*
X78678067Y-49359826D01*
X78809836Y-49404417D01*
X78955548Y-49458722D01*
X78973970Y-49465960D01*
X79152907Y-49529206D01*
X79354075Y-49589136D01*
X79518256Y-49629264D01*
X79745008Y-49686664D01*
X80013363Y-49771366D01*
X80301576Y-49875261D01*
X80587903Y-49990244D01*
X80850598Y-50108206D01*
X80988695Y-50177499D01*
X81313247Y-50349021D01*
X81303763Y-51074439D01*
X81296149Y-51410778D01*
X81280788Y-51692329D01*
X81254405Y-51936738D01*
X81213723Y-52161652D01*
X81155467Y-52384716D01*
X81076361Y-52623576D01*
X80973128Y-52895879D01*
X80959008Y-52931529D01*
X80887703Y-53113526D01*
X80826066Y-53275731D01*
X80779237Y-53404245D01*
X80752354Y-53485169D01*
X80748263Y-53501522D01*
X80753152Y-53568037D01*
X80794144Y-53578937D01*
X80862931Y-53536003D01*
X80934472Y-53461610D01*
X81028162Y-53327614D01*
X81133145Y-53141180D01*
X81240920Y-52919694D01*
X81342990Y-52680539D01*
X81425278Y-52457702D01*
X81535053Y-52097981D01*
X81607615Y-51767640D01*
X81647986Y-51437041D01*
X81661186Y-51076548D01*
X81661214Y-51065072D01*
X81662289Y-50869764D01*
X81665819Y-50735673D01*
X81673386Y-50651447D01*
X81686573Y-50605738D01*
X81706963Y-50587194D01*
X81728260Y-50584286D01*
X81780983Y-50602899D01*
X81882152Y-50654173D01*
X82019338Y-50731264D01*
X82180111Y-50827324D01*
X82263474Y-50879080D01*
X82411515Y-50973569D01*
X82538018Y-51058959D01*
X82653280Y-51144099D01*
X82767598Y-51237840D01*
X82891270Y-51349032D01*
X83034590Y-51486524D01*
X83207857Y-51659165D01*
X83411685Y-51865942D01*
X83642093Y-52098490D01*
X83825780Y-52278764D01*
X83964679Y-52408342D01*
X84060721Y-52488797D01*
X84115838Y-52521707D01*
X84131960Y-52508646D01*
X84111021Y-52451191D01*
X84097907Y-52425731D01*
X84060737Y-52367610D01*
X83989116Y-52264785D01*
X83892414Y-52130400D01*
X83780000Y-51977602D01*
X83745926Y-51931893D01*
X83601946Y-51732686D01*
X83507191Y-51585933D01*
X83461326Y-51491081D01*
X83457801Y-51456219D01*
X83467074Y-51393952D01*
X83447504Y-51332383D01*
X83390983Y-51260945D01*
X83289403Y-51169070D01*
X83155739Y-51062485D01*
X83055175Y-50977616D01*
X82914103Y-50848876D01*
X82741606Y-50685381D01*
X82546765Y-50496246D01*
X82338662Y-50290586D01*
X82126380Y-50077516D01*
X81918998Y-49866151D01*
X81725601Y-49665607D01*
X81555269Y-49484998D01*
X81417084Y-49333441D01*
X81320477Y-49220483D01*
X81219972Y-49097016D01*
X81098485Y-48949970D01*
X80982145Y-48810970D01*
X80981065Y-48809691D01*
X80878778Y-48681346D01*
X80786273Y-48552768D01*
X80721832Y-48449532D01*
X80716891Y-48440135D01*
X80673964Y-48350635D01*
X80664708Y-48304304D01*
X80687945Y-48280655D01*
X80707254Y-48272503D01*
X80769206Y-48273275D01*
X80882509Y-48296778D01*
X81030953Y-48339245D01*
X81116571Y-48367546D01*
X81437931Y-48494688D01*
X81795241Y-48664443D01*
X82173065Y-48868176D01*
X82555971Y-49097252D01*
X82928522Y-49343037D01*
X83167857Y-49515151D01*
X83341139Y-49643141D01*
X83467996Y-49731420D01*
X83559326Y-49784783D01*
X83626025Y-49808028D01*
X83678990Y-49805949D01*
X83729117Y-49783343D01*
X83748892Y-49770890D01*
X83817278Y-49721200D01*
X83857750Y-49674269D01*
X83865636Y-49624505D01*
X83836267Y-49566318D01*
X83764972Y-49494117D01*
X83647081Y-49402310D01*
X83477921Y-49285307D01*
X83252824Y-49137515D01*
X83180975Y-49091042D01*
X82781990Y-48845266D01*
X82376605Y-48617716D01*
X81974286Y-48412571D01*
X81584498Y-48234008D01*
X81216706Y-48086205D01*
X80880375Y-47973341D01*
X80584969Y-47899593D01*
X80427155Y-47875413D01*
X80304935Y-47866760D01*
X80224104Y-47878030D01*
%LPC*%
D12*
X353050000Y-36500000D03*
X314100000Y-84100000D03*
X218500000Y-84000000D03*
X338000000Y-155500000D03*
X101800000Y-84100000D03*
X87000000Y-38100000D03*
X99750000Y-155500000D03*
X218500000Y-154000000D03*
M02*
