M48
; DRILL file {KiCad (5.1.9)-1} date 05/31/21 01:10:31
; FORMAT={-:-/ absolute / metric / decimal}
; #@! TF.CreationDate,2021-05-31T01:10:31+01:00
; #@! TF.GenerationSoftware,Kicad,Pcbnew,(5.1.9)-1
; #@! TF.FileFunction,Plated,1,2,PTH
FMAT,2
METRIC
T1C0.400
T2C0.600
T3C0.800
T4C1.000
T5C1.020
T6C1.470
%
G90
G05
T1
X300.75Y-42.6
X302.125Y-42.875
X302.767Y-38.7
X303.75Y-43.0
X306.3Y-51.75
X306.3Y-62.0
X307.3Y-43.25
X312.5Y-51.75
T3
X95.38Y-36.5
X95.38Y-41.5
X95.38Y-46.5
X95.38Y-51.5
X95.38Y-56.5
X103.0Y-36.5
X103.0Y-41.5
X103.0Y-46.5
X103.0Y-51.5
X103.0Y-56.5
X109.38Y-36.5
X109.38Y-41.5
X109.38Y-56.5
X117.0Y-36.5
X117.0Y-41.5
X117.0Y-56.5
X123.38Y-41.5
X123.38Y-46.5
X123.38Y-51.5
X123.38Y-56.5
X131.0Y-41.5
X131.0Y-46.5
X131.0Y-51.5
X131.0Y-56.5
X137.38Y-36.5
X137.38Y-41.5
X137.38Y-46.5
X137.38Y-51.5
X137.38Y-56.5
X145.0Y-36.5
X145.0Y-41.5
X145.0Y-46.5
X145.0Y-51.5
X145.0Y-56.5
X151.38Y-41.5
X151.38Y-46.5
X151.38Y-51.5
X151.38Y-56.5
X159.0Y-41.5
X159.0Y-46.5
X159.0Y-51.5
X159.0Y-56.5
X165.38Y-41.5
X165.38Y-46.5
X165.38Y-51.5
X165.38Y-56.5
X173.0Y-41.5
X173.0Y-46.5
X173.0Y-51.5
X173.0Y-56.5
X179.38Y-36.5
X179.38Y-41.5
X179.38Y-46.5
X179.38Y-51.5
X179.38Y-56.5
X187.0Y-36.5
X187.0Y-41.5
X187.0Y-46.5
X187.0Y-51.5
X187.0Y-56.5
X193.38Y-41.5
X193.38Y-46.5
X193.38Y-51.5
X193.38Y-56.5
X201.0Y-41.5
X201.0Y-46.5
X201.0Y-51.5
X201.0Y-56.5
X207.38Y-41.5
X207.38Y-46.5
X207.38Y-51.5
X207.38Y-56.5
X215.0Y-41.5
X215.0Y-46.5
X215.0Y-51.5
X215.0Y-56.5
X221.38Y-41.5
X221.38Y-46.5
X221.38Y-51.5
X221.38Y-56.5
X229.0Y-41.5
X229.0Y-46.5
X229.0Y-51.5
X229.0Y-56.5
X235.38Y-36.5
X235.38Y-41.5
X235.38Y-46.5
X235.38Y-51.5
X235.38Y-56.5
X243.0Y-36.5
X243.0Y-41.5
X243.0Y-46.5
X243.0Y-51.5
X243.0Y-56.5
X249.38Y-36.5
X249.38Y-41.5
X249.38Y-46.5
X249.38Y-51.5
X249.38Y-56.5
X257.0Y-36.5
X257.0Y-41.5
X257.0Y-46.5
X257.0Y-51.5
X257.0Y-56.5
X263.38Y-46.5
X263.38Y-51.5
X263.38Y-56.5
X271.0Y-46.5
X271.0Y-51.5
X271.0Y-56.5
X277.38Y-36.5
X277.38Y-41.5
X277.38Y-46.5
X277.38Y-51.5
X285.0Y-36.5
X285.0Y-41.5
X285.0Y-46.5
X285.0Y-51.5
X291.38Y-43.3
X291.38Y-46.5
X291.38Y-56.5
X291.389Y-51.562
X299.0Y-43.3
X299.0Y-46.5
X299.0Y-56.5
X299.009Y-51.562
T4
X358.0Y-51.0
X358.0Y-52.6
T5
X309.87Y-42.86
X309.87Y-60.64
X310.1Y-49.21
X310.1Y-51.75
X310.1Y-54.29
X312.41Y-42.86
X312.41Y-60.64
X314.95Y-42.86
X314.95Y-60.64
X317.49Y-42.86
X317.49Y-60.64
X320.03Y-42.86
X320.03Y-60.64
X322.57Y-42.86
X322.57Y-60.64
X325.11Y-42.86
X325.11Y-60.64
X327.65Y-42.86
X327.65Y-60.64
X330.19Y-42.86
X330.19Y-60.64
X332.73Y-42.86
X332.73Y-60.64
X335.27Y-42.86
X335.27Y-60.64
X337.81Y-42.86
X337.81Y-60.64
X340.35Y-42.86
X340.35Y-60.64
X342.89Y-42.86
X342.89Y-60.64
X345.43Y-42.86
X345.43Y-60.64
X347.97Y-42.86
X347.97Y-60.64
X350.51Y-42.86
X350.51Y-60.64
X353.05Y-42.86
X353.05Y-60.64
X355.59Y-42.86
X355.59Y-60.64
X358.13Y-42.86
X358.13Y-60.64
T6
X81.715Y-71.985
X84.096Y-129.135
X84.096Y-148.185
X86.477Y-91.035
X88.065Y-69.445
X88.859Y-110.085
X90.446Y-126.595
X90.446Y-145.645
X92.828Y-88.495
X93.59Y-129.16
X95.209Y-107.545
X99.94Y-126.62
X100.765Y-71.985
X105.527Y-129.135
X107.115Y-69.445
X107.909Y-148.185
X110.29Y-91.035
X111.877Y-126.595
X114.259Y-145.645
X115.052Y-110.085
X116.64Y-88.495
X119.815Y-71.985
X121.402Y-107.545
X124.578Y-129.135
X126.165Y-69.445
X129.34Y-91.035
X130.927Y-126.595
X131.721Y-148.185
X134.102Y-110.085
X135.69Y-88.495
X138.071Y-145.645
X138.865Y-71.985
X140.452Y-107.545
X143.627Y-129.135
X145.215Y-69.445
X148.39Y-91.035
X149.977Y-126.595
X153.153Y-110.085
X154.74Y-88.495
X157.915Y-71.985
X159.502Y-107.545
X162.677Y-129.135
X164.265Y-69.445
X167.44Y-91.035
X169.028Y-126.595
X172.202Y-110.085
X173.79Y-88.495
X176.965Y-71.985
X178.552Y-107.545
X181.727Y-129.135
X183.315Y-69.445
X186.49Y-91.035
X188.077Y-126.595
X191.252Y-110.085
X192.84Y-88.495
X196.015Y-71.985
X197.602Y-107.545
X200.778Y-129.135
X202.365Y-69.445
X203.159Y-148.185
X205.54Y-91.035
X207.127Y-126.595
X209.509Y-145.645
X210.302Y-110.085
X211.89Y-88.495
X215.065Y-71.985
X216.653Y-107.545
X219.827Y-129.135
X221.415Y-69.445
X224.59Y-91.035
X226.177Y-126.595
X229.352Y-110.085
X230.94Y-88.495
X234.115Y-71.985
X235.702Y-107.545
X238.877Y-129.135
X240.465Y-69.445
X243.64Y-91.035
X245.227Y-126.595
X248.402Y-110.085
X249.99Y-88.495
X253.165Y-71.985
X254.752Y-107.545
X257.928Y-129.135
X259.515Y-69.445
X262.69Y-91.035
X264.277Y-126.595
X267.452Y-110.085
X269.04Y-88.495
X272.215Y-71.985
X273.803Y-107.545
X274.596Y-148.185
X276.977Y-129.135
X278.565Y-69.445
X280.946Y-145.645
X281.74Y-91.035
X283.327Y-126.595
X286.502Y-110.085
X288.09Y-88.495
X291.265Y-71.985
X292.852Y-107.545
X296.027Y-129.135
X297.615Y-69.445
X298.409Y-148.185
X300.79Y-91.035
X302.377Y-126.595
X304.759Y-145.645
X305.553Y-110.085
X307.14Y-88.495
X310.315Y-71.985
X311.902Y-107.545
X316.665Y-69.445
X319.84Y-91.035
X322.221Y-148.185
X324.602Y-110.085
X326.19Y-88.495
X328.571Y-145.645
X330.952Y-107.545
X331.746Y-129.135
X336.49Y-110.06
X338.096Y-126.595
X338.89Y-71.985
X342.84Y-107.52
X343.64Y-91.01
X345.24Y-69.445
X346.034Y-148.185
X349.99Y-88.47
X352.384Y-99.265
X352.384Y-145.645
X354.924Y-105.615
T2
X298.675Y-35.855G85X298.675Y-35.255
G05
X298.675Y-40.285G85X298.675Y-39.185
G05
X307.315Y-35.855G85X307.315Y-35.255
G05
X307.315Y-40.285G85X307.315Y-39.185
G05
T0
M30
