0
SECTION
2
HEADER
9
$INSUNITS
70
4
9
$ACADVER
1
AC1014
9
$HANDSEED
5
FFFF
0
ENDSEC
0
SECTION
2
TABLES
0
TABLE
2
VPORT
5
8
100
AcDbSymbolTable
0
ENDTAB
0
TABLE
2
LTYPE
5
5
100
AcDbSymbolTable
0
LTYPE
5
14
100
AcDbSymbolTableRecord
100
AcDbLinetypeTableRecord
2
BYBLOCK
70
0
0
LTYPE
5
15
100
AcDbSymbolTableRecord
100
AcDbLinetypeTableRecord
2
BYLAYER
70
0
0
ENDTAB
0
TABLE
2
LAYER
5
2
100
AcDbSymbolTable
70
2
0
LAYER
5
50
100
AcDbSymbolTableRecord
100
AcDbLayerTableRecord
2
0
70
0
6
CONTINUOUS
0
ENDTAB
0
TABLE
2
STYLE
5
3
100
AcDbSymbolTable
70
1
0
STYLE
5
11
100
AcDbSymbolTableRecord
100
AcDbTextStyleTableRecord
2
STANDARD
70
0
0
ENDTAB
0
TABLE
2
VIEW
5
6
100
AcDbSymbolTable
70
0
0
ENDTAB
0
TABLE
2
UCS
5
7
100
AcDbSymbolTable
70
0
0
ENDTAB
0
TABLE
2
APPID
5
9
100
AcDbSymbolTable
70
2
0
APPID
5
12
100
AcDbSymbolTableRecord
100
AcDbRegAppTableRecord
2
ACAD
70
0
0
ENDTAB
0
TABLE
2
DIMSTYLE
5
A
100
AcDbSymbolTable
70
1
0
ENDTAB
0
TABLE
2
BLOCK_RECORD
5
1
100
AcDbSymbolTable
70
1
0
BLOCK_RECORD
5
1F
100
AcDbSymbolTableRecord
100
AcDbBlockTableRecord
2
*MODEL_SPACE
0
BLOCK_RECORD
5
1B
100
AcDbSymbolTableRecord
100
AcDbBlockTableRecord
2
*PAPER_SPACE
0
ENDTAB
0
ENDSEC
0
SECTION
2
BLOCKS
0
BLOCK
5
20
100
AcDbEntity
100
AcDbBlockBegin
2
*MODEL_SPACE
0
ENDBLK
5
21
100
AcDbEntity
100
AcDbBlockEnd
0
BLOCK
5
1C
100
AcDbEntity
100
AcDbBlockBegin
2
*PAPER_SPACE
0
ENDBLK
5
1D
100
AcDbEntity
100
AcDbBlockEnd
0
ENDSEC
0
SECTION
2
ENTITIES
0
LWPOLYLINE
5
100
100
AcDbEntity
8
0
100
AcDbPolyline
90
6
70
1
43
0.0
10
-74.958999999999989
20
158.56100000001032
42
0.41421356237310908
10
-79.959000000000174
20
163.56100000001032
10
-356.95899999998596
20
163.56099999999995
42
0.41421356237305135
10
-361.95899999998574
20
158.5610000000006
10
-361.95899999999847
20
63.675000000037905
10
-74.958999999999989
20
63.674999999999322
0
LWPOLYLINE
5
101
100
AcDbEntity
8
0
100
AcDbPolyline
90
44
70
1
43
0.0
10
-331.88075000000003
20
119.625
10
-331.88074999999998
20
120.375
42
-0.41421356237309503
10
-331.38075000000003
20
120.875
10
-325.38074999999998
20
120.875
42
-0.41421356237309503
10
-324.88075000000003
20
120.37500000000003
10
-324.88075000000003
20
119.625
10
-321.91250000000002
20
119.62500000000006
42
-0.41421356237309503
10
-321.41250000000002
20
119.12500000000001
10
-321.41250000000002
20
106.125
42
-0.41421356237313667
10
-321.91250000000002
20
105.625
10
-342.84375000000006
20
105.625
10
-342.84375000000006
20
100.57500000000002
10
-340.96249999999998
20
100.57499999999999
42
-0.4142135623730222
10
-340.46249999999998
20
100.075
10
-340.46249999999998
20
87.074999999999989
42
-0.41421356237312623
10
-340.96249999999998
20
86.574999999999989
10
-353.96250000000003
20
86.575000000000003
42
-0.4142135623730222
10
-354.46249999999998
20
87.074999999999989
10
-354.46249999999998
20
87.661999999999992
10
-356.34375
20
87.661999999999949
42
-0.41421356237310542
10
-356.84375
20
88.162000000000006
10
-356.84375
20
94.162000000000006
42
-0.41421356237313667
10
-356.34375
20
94.662000000000006
10
-354.46249999999998
20
94.662000000000006
10
-354.46249999999998
20
96.099999999999994
10
-356.34375
20
96.099999999999966
42
-0.41421356237309503
10
-356.84375
20
96.599999999999994
10
-356.84374999999994
20
109.60000000000001
42
-0.41421356237318868
10
-356.34375
20
110.09999999999999
10
-355.75675000000001
20
110.10000000000002
10
-355.75675000000001
20
111.53800000000001
10
-356.34375
20
111.53799999999997
42
-0.41421356237309503
10
-356.84375
20
112.03800000000001
10
-356.84374999999994
20
118.03800000000001
42
-0.41421356237318868
10
-356.34375
20
118.538
10
-355.75675000000001
20
118.538
10
-355.75675000000001
20
120.37499999999997
42
-0.41421356237309503
10
-355.25675000000007
20
120.87499999999999
10
-349.25675000000007
20
120.875
42
-0.41421356237309503
10
-348.75675000000001
20
120.37499999999996
10
-348.75675000000001
20
118.538
10
-347.31875000000002
20
118.538
10
-347.31875000000002
20
119.12500000000001
42
-0.41421356237310542
10
-346.81875000000002
20
119.625
0
LWPOLYLINE
5
102
100
AcDbEntity
8
0
100
AcDbPolyline
90
8
70
1
43
0.0
10
-160.46875
20
143.97499999999999
10
-160.46875
20
158.22499999999999
42
-0.41421356237309503
10
-159.96875
20
158.72499999999999
10
-153.93075000000002
20
158.72499999999999
42
-0.4142135623730534
10
-153.43075000000002
20
158.22499999999999
10
-153.43075000000002
20
143.97500000000002
42
-0.41421356237309503
10
-153.93075000000002
20
143.47499999999999
10
-159.96875
20
143.47499999999999
42
-0.41421356237309503
0
CIRCLE
5
103
100
AcDbEntity
8
0
100
AcDbCircle
10
-101.8
20
84.800000000000011
30
0
40
1.1150000000000055
210
0
220
-0
230
1
0
CIRCLE
5
104
100
AcDbEntity
8
0
100
AcDbCircle
10
-218.5
20
84.700000000000003
30
0
40
1.1149999999999878
210
0
220
-0
230
1
0
CIRCLE
5
105
100
AcDbEntity
8
0
100
AcDbCircle
10
-338.00000000000006
20
155.5
30
0
40
1.1150000000000231
210
0
220
-0
230
1
0
CIRCLE
5
106
100
AcDbEntity
8
0
100
AcDbCircle
10
-99.750000000000014
20
155.5
30
0
40
1.1150000000000055
210
0
220
-0
230
1
0
CIRCLE
5
107
100
AcDbEntity
8
0
100
AcDbCircle
10
-233.15000000000001
20
122.84999999999999
30
0
40
1.1149999999999878
210
0
220
-0
230
1
0
CIRCLE
5
108
100
AcDbEntity
8
0
100
AcDbCircle
10
-314.10000000000002
20
84.800000000000011
30
0
40
1.1149999999999878
210
0
220
-0
230
1
0
LWPOLYLINE
5
109
100
AcDbEntity
8
0
100
AcDbPolyline
90
8
70
1
43
0.0
10
-317.15000000000003
20
86.574999999999989
42
0.41421356237310542
10
-316.65000000000009
20
87.074999999999989
10
-316.64999999999998
20
100.075
42
0.4142135623730846
10
-317.15000000000003
20
100.57500000000002
10
-330.14999999999998
20
100.57500000000002
42
0.41421356237312623
10
-330.65000000000003
20
100.075
10
-330.65000000000003
20
87.074999999999989
42
0.41421356237303258
10
-330.14999999999998
20
86.574999999999989
0
LWPOLYLINE
5
110
100
AcDbEntity
8
0
100
AcDbPolyline
90
8
70
1
43
0.0
10
-112.3625
20
105.625
42
0.41421356237307422
10
-111.8625
20
106.125
10
-111.86250000000001
20
119.12500000000001
42
0.41421356237312623
10
-112.3625
20
119.625
10
-125.36249999999998
20
119.625
42
0.41421356237313667
10
-125.8625
20
119.12500000000001
10
-125.8625
20
106.125
42
0.41421356237309503
10
-125.36249999999998
20
105.625
0
LWPOLYLINE
5
111
100
AcDbEntity
8
0
100
AcDbPolyline
90
8
70
1
43
0.0
10
-145.69999999999999
20
86.574999999999989
42
0.41421356237309503
10
-145.19999999999999
20
87.074999999999989
10
-145.19999999999999
20
100.075
42
0.41421356237309503
10
-145.69999999999999
20
100.57500000000002
10
-158.70000000000002
20
100.57500000000002
42
0.41421356237309503
10
-159.20000000000002
20
100.075
10
-159.20000000000002
20
87.074999999999989
42
0.41421356237309503
10
-158.70000000000002
20
86.574999999999989
0
LWPOLYLINE
5
112
100
AcDbEntity
8
0
100
AcDbPolyline
90
8
70
1
43
0.0
10
-288.57500000000005
20
67.525000000000006
42
0.4142135623730222
10
-288.07500000000005
20
68.025000000000006
10
-288.07499999999999
20
81.024999999999991
42
0.4142135623730846
10
-288.57500000000005
20
81.525000000000006
10
-301.57499999999999
20
81.525000000000006
42
0.41421356237310542
10
-302.07500000000005
20
81.024999999999991
10
-302.07500000000005
20
68.025000000000006
42
0.4142135623730534
10
-301.57499999999999
20
67.525000000000006
0
LWPOLYLINE
5
113
100
AcDbEntity
8
0
100
AcDbPolyline
90
8
70
1
43
0.0
10
-221.90000000000001
20
86.574999999999989
42
0.41421356237313667
10
-221.40000000000001
20
87.074999999999989
10
-221.40000000000001
20
100.075
42
0.41421356237313667
10
-221.90000000000001
20
100.57500000000002
10
-234.90000000000003
20
100.57500000000002
42
0.41421356237310542
10
-235.39999999999998
20
100.075
10
-235.39999999999998
20
87.074999999999989
42
0.41421356237309503
10
-234.90000000000003
20
86.574999999999989
0
LWPOLYLINE
5
114
100
AcDbEntity
8
0
100
AcDbPolyline
90
8
70
1
43
0.0
10
-269.52499999999998
20
67.525000000000006
42
0.4142135623730222
10
-269.02500000000003
20
68.025000000000006
10
-269.02500000000003
20
81.024999999999991
42
0.41421356237309503
10
-269.52499999999998
20
81.525000000000006
10
-282.52500000000003
20
81.525000000000006
42
0.41421356237310542
10
-283.02500000000003
20
81.024999999999991
10
-283.02500000000003
20
68.025000000000006
42
0.41421356237310025
10
-282.52500000000003
20
67.525000000000006
0
LWPOLYLINE
5
115
100
AcDbEntity
8
0
100
AcDbPolyline
90
8
70
1
43
0.0
10
-183.80000000000001
20
86.574999999999989
42
0.41421356237310542
10
-183.30000000000007
20
87.074999999999989
10
-183.29999999999998
20
100.075
42
0.4142135623730846
10
-183.80000000000001
20
100.57500000000002
10
-196.80000000000001
20
100.57500000000002
42
0.41421356237310542
10
-197.30000000000001
20
100.075
10
-197.30000000000001
20
87.074999999999989
42
0.41421356237310542
10
-196.80000000000001
20
86.574999999999989
0
LWPOLYLINE
5
116
100
AcDbEntity
8
0
100
AcDbPolyline
90
8
70
1
43
0.0
10
-159.98749999999998
20
124.67500000000001
42
0.41421356237309503
10
-159.48750000000001
20
125.175
10
-159.48749999999998
20
138.17499999999998
42
0.41421356237307422
10
-159.98749999999998
20
138.67500000000001
10
-172.98749999999998
20
138.67500000000001
42
0.41421356237310542
10
-173.48750000000001
20
138.17499999999998
10
-173.48750000000001
20
125.175
42
0.41421356237309503
10
-172.98749999999998
20
124.67500000000001
0
LWPOLYLINE
5
117
100
AcDbEntity
8
0
100
AcDbPolyline
90
8
70
1
43
0.0
10
-274.28750000000002
20
124.67500000000001
42
0.41421356237307422
10
-273.78750000000002
20
125.175
10
-273.78749999999997
20
138.17499999999998
42
0.4142135623730846
10
-274.28750000000002
20
138.67500000000001
10
-287.28749999999997
20
138.67500000000001
42
0.41421356237310542
10
-287.78750000000002
20
138.17499999999998
10
-287.78750000000002
20
125.175
42
0.41421356237309503
10
-287.28749999999997
20
124.67500000000001
0
LWPOLYLINE
5
118
100
AcDbEntity
8
0
100
AcDbPolyline
90
8
70
1
43
0.0
10
-129.03125
20
143.72499999999999
42
0.41421356237309503
10
-128.53125
20
144.22499999999999
10
-128.53125
20
157.22499999999999
42
0.41421356237313667
10
-129.03125
20
157.72500000000002
10
-142.03125
20
157.72500000000002
42
0.41421356237309503
10
-142.53125
20
157.22499999999999
10
-142.53125
20
144.22499999999999
42
0.41421356237309503
10
-142.03125
20
143.72499999999999
0
LWPOLYLINE
5
119
100
AcDbEntity
8
0
100
AcDbPolyline
90
8
70
1
43
0.0
10
-255.23750000000001
20
124.67500000000001
42
0.41421356237307422
10
-254.73750000000001
20
125.175
10
-254.73750000000001
20
138.17499999999998
42
0.41421356237309503
10
-255.23750000000001
20
138.67500000000001
10
-268.23750000000007
20
138.67500000000001
42
0.41421356237310542
10
-268.73750000000001
20
138.17499999999998
10
-268.73750000000001
20
125.175
42
0.41421356237309503
10
-268.23750000000007
20
124.67500000000001
0
LWPOLYLINE
5
120
100
AcDbEntity
8
0
100
AcDbPolyline
90
8
70
1
43
0.0
10
-79.025000000000006
20
67.525000000000006
42
0.41421356237310542
10
-78.525000000000006
20
68.025000000000006
10
-78.524999999999991
20
81.024999999999991
42
0.41421356237310025
10
-79.025000000000006
20
81.525000000000006
10
-92.025000000000006
20
81.525000000000006
42
0.41421356237309503
10
-92.524999999999991
20
81.024999999999991
10
-92.524999999999991
20
68.025000000000006
42
0.41421356237311063
10
-92.025000000000006
20
67.525000000000006
0
LWPOLYLINE
5
121
100
AcDbEntity
8
0
100
AcDbPolyline
90
8
70
1
43
0.0
10
-302.86250000000001
20
105.625
42
0.41421356237310542
10
-302.36250000000007
20
106.125
10
-302.36249999999995
20
119.12500000000001
42
0.4142135623730846
10
-302.86250000000001
20
119.625
10
-315.86250000000001
20
119.625
42
0.41421356237307422
10
-316.36250000000007
20
119.12500000000001
10
-316.36250000000007
20
106.125
42
0.4142135623730846
10
-315.86250000000001
20
105.625
0
LWPOLYLINE
5
122
100
AcDbEntity
8
0
100
AcDbPolyline
90
8
70
1
43
0.0
10
-121.88749999999999
20
124.67500000000001
42
0.41421356237312623
10
-121.38749999999999
20
125.175
10
-121.3875
20
138.17499999999998
42
0.41421356237313667
10
-121.88749999999999
20
138.67500000000001
10
-134.88749999999999
20
138.67500000000001
42
0.41421356237309503
10
-135.38749999999999
20
138.17499999999998
10
-135.38749999999999
20
125.175
42
0.41421356237307422
10
-134.88749999999999
20
124.67500000000001
0
LWPOLYLINE
5
123
100
AcDbEntity
8
0
100
AcDbPolyline
90
8
70
1
43
0.0
10
-140.9375
20
124.67500000000001
42
0.41421356237312623
10
-140.4375
20
125.175
10
-140.4375
20
138.17499999999998
42
0.41421356237309503
10
-140.9375
20
138.67500000000001
10
-153.9375
20
138.67500000000001
42
0.41421356237307422
10
-154.4375
20
138.17499999999998
10
-154.4375
20
125.175
42
0.4142135623730534
10
-153.9375
20
124.67500000000001
0
LWPOLYLINE
5
124
100
AcDbEntity
8
0
100
AcDbPolyline
90
8
70
1
43
0.0
10
-155.22499999999999
20
67.525000000000006
42
0.41421356237310542
10
-154.72499999999999
20
68.025000000000006
10
-154.72499999999999
20
81.024999999999991
42
0.41421356237307422
10
-155.22499999999999
20
81.525000000000006
10
-168.22499999999997
20
81.525000000000006
42
0.41421356237310542
10
-168.72500000000002
20
81.024999999999991
10
-168.72500000000002
20
68.025000000000006
42
0.4142135623730534
10
-168.22499999999997
20
67.525000000000006
0
LWPOLYLINE
5
125
100
AcDbEntity
8
0
100
AcDbPolyline
90
8
70
1
43
0.0
10
-136.17500000000001
20
67.525000000000006
42
0.41421356237310542
10
-135.67499999999998
20
68.025000000000006
10
-135.67499999999998
20
81.024999999999991
42
0.41421356237309503
10
-136.17500000000001
20
81.525000000000006
10
-149.17499999999998
20
81.525000000000006
42
0.41421356237307422
10
-149.67499999999998
20
81.024999999999991
10
-149.67499999999998
20
68.025000000000006
42
0.41421356237307944
10
-149.17499999999998
20
67.525000000000006
0
LWPOLYLINE
5
126
100
AcDbEntity
8
0
100
AcDbPolyline
90
8
70
1
43
0.0
10
-212.375
20
67.525000000000006
42
0.41421356237307422
10
-211.87499999999997
20
68.025000000000006
10
-211.875
20
81.024999999999991
42
0.41421356237313667
10
-212.375
20
81.525000000000006
10
-225.375
20
81.525000000000006
42
0.41421356237310542
10
-225.875
20
81.024999999999991
10
-225.875
20
68.025000000000006
42
0.41421356237310025
10
-225.375
20
67.525000000000006
0
LWPOLYLINE
5
127
100
AcDbEntity
8
0
100
AcDbPolyline
90
8
70
1
43
0.0
10
-126.64999999999999
20
86.574999999999989
42
0.41421356237309503
10
-126.14999999999998
20
87.074999999999989
10
-126.15000000000001
20
100.075
42
0.41421356237313667
10
-126.64999999999999
20
100.57500000000002
10
-139.65000000000001
20
100.57500000000002
42
0.41421356237309503
10
-140.15000000000001
20
100.075
10
-140.15000000000001
20
87.074999999999989
42
0.41421356237309503
10
-139.65000000000001
20
86.574999999999989
0
LWPOLYLINE
5
128
100
AcDbEntity
8
0
100
AcDbPolyline
90
8
70
1
43
0.0
10
-307.625
20
67.525000000000006
42
0.4142135623730222
10
-307.12500000000006
20
68.025000000000006
10
-307.125
20
81.024999999999991
42
0.4142135623730846
10
-307.625
20
81.525000000000006
10
-320.625
20
81.525000000000006
42
0.41421356237312623
10
-321.12500000000006
20
81.024999999999991
10
-321.12500000000006
20
68.025000000000006
42
0.4142135623730222
10
-320.625
20
67.525000000000006
0
LWPOLYLINE
5
129
100
AcDbEntity
8
0
100
AcDbPolyline
90
8
70
1
43
0.0
10
-131.41249999999999
20
105.625
42
0.41421356237309503
10
-130.91249999999999
20
106.125
10
-130.91249999999999
20
119.12500000000001
42
0.41421356237313667
10
-131.41249999999999
20
119.625
10
-144.41249999999999
20
119.625
42
0.41421356237313667
10
-144.91249999999999
20
119.12500000000001
10
-144.91249999999999
20
106.125
42
0.41421356237313667
10
-144.41249999999999
20
105.625
0
LWPOLYLINE
5
130
100
AcDbEntity
8
0
100
AcDbPolyline
90
8
70
1
43
0.0
10
-298.10000000000002
20
86.574999999999989
42
0.41421356237310542
10
-297.60000000000002
20
87.074999999999989
10
-297.59999999999997
20
100.075
42
0.4142135623730846
10
-298.10000000000002
20
100.57500000000002
10
-311.10000000000002
20
100.57500000000002
42
0.41421356237310542
10
-311.60000000000002
20
100.075
10
-311.60000000000002
20
87.074999999999989
42
0.4142135623730846
10
-311.10000000000002
20
86.574999999999989
0
LWPOLYLINE
5
131
100
AcDbEntity
8
0
100
AcDbPolyline
90
8
70
1
43
0.0
10
-150.46250000000001
20
105.625
42
0.41421356237309503
10
-149.96250000000001
20
106.125
10
-149.96250000000001
20
119.12500000000001
42
0.41421356237309503
10
-150.46250000000001
20
119.625
10
-163.46250000000001
20
119.625
42
0.4142135623730846
10
-163.96250000000003
20
119.12500000000001
10
-163.96250000000003
20
106.125
42
0.41421356237313667
10
-163.46250000000001
20
105.625
0
LWPOLYLINE
5
132
100
AcDbEntity
8
0
100
AcDbPolyline
90
8
70
1
43
0.0
10
-226.66249999999997
20
105.625
42
0.41421356237310542
10
-226.16250000000002
20
106.125
10
-226.16250000000002
20
119.12500000000001
42
0.41421356237309503
10
-226.66249999999997
20
119.625
10
-239.66250000000002
20
119.625
42
0.41421356237307422
10
-240.16249999999999
20
119.12500000000001
10
-240.16249999999999
20
106.125
42
0.41421356237309503
10
-239.66250000000002
20
105.625
0
LWPOLYLINE
5
133
100
AcDbEntity
8
0
100
AcDbPolyline
90
8
70
1
43
0.0
10
-169.51250000000002
20
105.625
42
0.41421356237310542
10
-169.01250000000005
20
106.125
10
-169.01249999999999
20
119.12500000000001
42
0.4142135623730846
10
-169.51250000000002
20
119.625
10
-182.51249999999999
20
119.625
42
0.41421356237307422
10
-183.01250000000005
20
119.12500000000001
10
-183.01250000000005
20
106.125
42
0.4142135623730846
10
-182.51249999999999
20
105.625
0
LWPOLYLINE
5
134
100
AcDbEntity
8
0
100
AcDbPolyline
90
8
70
1
43
0.0
10
-98.074999999999989
20
67.525000000000006
42
0.41421356237310542
10
-97.575000000000003
20
68.025000000000006
10
-97.575000000000003
20
81.024999999999991
42
0.41421356237312623
10
-98.074999999999989
20
81.525000000000006
10
-111.075
20
81.525000000000006
42
0.41421356237307422
10
-111.57499999999999
20
81.024999999999991
10
-111.57499999999999
20
68.025000000000006
42
0.41421356237309503
10
-111.075
20
67.525000000000006
0
LWPOLYLINE
5
135
100
AcDbEntity
8
0
100
AcDbPolyline
90
8
70
1
43
0.0
10
-86.168750000000003
20
105.625
42
0.41421356237309503
10
-85.668749999999989
20
106.125
10
-85.668749999999989
20
119.12500000000001
42
0.41421356237309503
10
-86.168750000000003
20
119.625
10
-99.168749999999989
20
119.625
42
0.41421356237312623
10
-99.668750000000003
20
119.12500000000001
10
-99.668750000000003
20
106.125
42
0.41421356237307422
10
-99.168749999999989
20
105.625
0
LWPOLYLINE
5
136
100
AcDbEntity
8
0
100
AcDbPolyline
90
8
70
1
43
0.0
10
-260
20
86.574999999999989
42
0.41421356237310542
10
-259.5
20
87.074999999999989
10
-259.5
20
100.075
42
0.41421356237309503
10
-260
20
100.57500000000002
10
-273.00000000000006
20
100.57500000000002
42
0.41421356237310542
10
-273.5
20
100.075
10
-273.5
20
87.074999999999989
42
0.41421356237309503
10
-273.00000000000006
20
86.574999999999989
0
LWPOLYLINE
5
137
100
AcDbEntity
8
0
100
AcDbPolyline
90
8
70
1
43
0.0
10
-164.75
20
86.574999999999989
42
0.41421356237310542
10
-164.25000000000006
20
87.074999999999989
10
-164.24999999999997
20
100.075
42
0.4142135623730846
10
-164.75
20
100.57500000000002
10
-177.75
20
100.57500000000002
42
0.41421356237310542
10
-178.25000000000003
20
100.075
10
-178.25000000000003
20
87.074999999999989
42
0.4142135623730846
10
-177.75
20
86.574999999999989
0
LWPOLYLINE
5
138
100
AcDbEntity
8
0
100
AcDbPolyline
90
8
70
1
43
0.0
10
-107.59999999999999
20
86.574999999999989
42
0.41421356237307422
10
-107.09999999999999
20
87.074999999999989
10
-107.10000000000001
20
100.075
42
0.41421356237312623
10
-107.59999999999999
20
100.57500000000002
10
-120.59999999999999
20
100.57500000000002
42
0.41421356237309503
10
-121.09999999999999
20
100.075
10
-121.09999999999999
20
87.074999999999989
42
0.41421356237309503
10
-120.59999999999999
20
86.574999999999989
0
LWPOLYLINE
5
139
100
AcDbEntity
8
0
100
AcDbPolyline
90
8
70
1
43
0.0
10
-250.47499999999999
20
67.525000000000006
42
0.4142135623730222
10
-249.97500000000002
20
68.025000000000006
10
-249.97500000000002
20
81.024999999999991
42
0.41421356237309503
10
-250.47499999999999
20
81.525000000000006
10
-263.47499999999997
20
81.525000000000006
42
0.41421356237310542
10
-263.97500000000002
20
81.024999999999991
10
-263.97500000000002
20
68.025000000000006
42
0.4142135623730534
10
-263.47499999999997
20
67.525000000000006
0
LWPOLYLINE
5
140
100
AcDbEntity
8
0
100
AcDbPolyline
90
8
70
1
43
0.0
10
-231.42500000000007
20
67.525000000000006
42
0.4142135623730222
10
-230.92500000000007
20
68.025000000000006
10
-230.92500000000001
20
81.024999999999991
42
0.4142135623730846
10
-231.42500000000007
20
81.525000000000006
10
-244.42500000000001
20
81.525000000000006
42
0.41421356237310542
10
-244.92500000000001
20
81.024999999999991
10
-244.92500000000001
20
68.025000000000006
42
0.41421356237310025
10
-244.42500000000001
20
67.525000000000006
0
LWPOLYLINE
5
141
100
AcDbEntity
8
0
100
AcDbPolyline
90
8
70
1
43
0.0
10
-174.27500000000003
20
67.525000000000006
42
0.4142135623730222
10
-173.77500000000003
20
68.025000000000006
10
-173.77499999999998
20
81.024999999999991
42
0.4142135623730846
10
-174.27500000000003
20
81.525000000000006
10
-187.27499999999998
20
81.525000000000006
42
0.41421356237310542
10
-187.77500000000003
20
81.024999999999991
10
-187.77500000000003
20
68.025000000000006
42
0.4142135623730534
10
-187.27499999999998
20
67.525000000000006
0
LWPOLYLINE
5
142
100
AcDbEntity
8
0
100
AcDbPolyline
90
8
70
1
43
0.0
10
-179.03750000000002
20
124.67500000000001
42
0.41421356237307422
10
-178.53750000000005
20
125.175
10
-178.53749999999997
20
138.17499999999998
42
0.4142135623730846
10
-179.03750000000002
20
138.67500000000001
10
-192.03749999999999
20
138.67500000000001
42
0.41421356237310542
10
-192.53749999999999
20
138.17499999999998
10
-192.53749999999999
20
125.175
42
0.4142135623730846
10
-192.03749999999999
20
124.67500000000001
0
LWPOLYLINE
5
143
100
AcDbEntity
8
0
100
AcDbPolyline
90
8
70
1
43
0.0
10
-105.21875
20
143.72499999999999
42
0.41421356237307422
10
-104.71874999999999
20
144.22499999999999
10
-104.71875
20
157.22499999999999
42
0.41421356237312623
10
-105.21875
20
157.72500000000002
10
-118.21874999999999
20
157.72500000000002
42
0.41421356237309503
10
-118.71875
20
157.22499999999999
10
-118.71875
20
144.22499999999999
42
0.41421356237309503
10
-118.21874999999999
20
143.72499999999999
0
LWPOLYLINE
5
144
100
AcDbEntity
8
0
100
AcDbPolyline
90
8
70
1
43
0.0
10
-283.8125
20
105.625
42
0.41421356237310542
10
-283.31250000000006
20
106.125
10
-283.3125
20
119.12500000000001
42
0.4142135623730846
10
-283.8125
20
119.625
10
-296.8125
20
119.625
42
0.41421356237307422
10
-297.3125
20
119.12500000000001
10
-297.3125
20
106.125
42
0.4142135623730846
10
-296.8125
20
105.625
0
LWPOLYLINE
5
145
100
AcDbEntity
8
0
100
AcDbPolyline
90
8
70
1
43
0.0
10
-81.40625
20
143.72499999999999
42
0.41421356237309503
10
-80.90625
20
144.22499999999999
10
-80.90625
20
157.22499999999999
42
0.41421356237309503
10
-81.40625
20
157.72500000000002
10
-94.40625
20
157.72500000000002
42
0.41421356237309503
10
-94.90625
20
157.22499999999999
10
-94.90625
20
144.22499999999999
42
0.41421356237313667
10
-94.40625
20
143.72499999999999
0
LWPOLYLINE
5
146
100
AcDbEntity
8
0
100
AcDbPolyline
90
8
70
1
43
0.0
10
-217.13749999999999
20
124.67500000000001
42
0.41421356237307422
10
-216.63749999999999
20
125.175
10
-216.63749999999999
20
138.17499999999998
42
0.41421356237309503
10
-217.13749999999999
20
138.67500000000001
10
-230.13750000000002
20
138.67500000000001
42
0.41421356237310542
10
-230.63749999999999
20
138.17499999999998
10
-230.63749999999999
20
125.175
42
0.41421356237309503
10
-230.13750000000002
20
124.67500000000001
0
LWPOLYLINE
5
147
100
AcDbEntity
8
0
100
AcDbPolyline
90
8
70
1
43
0.0
10
-198.08750000000003
20
124.67500000000001
42
0.41421356237307422
10
-197.58750000000006
20
125.175
10
-197.58749999999998
20
138.17499999999998
42
0.4142135623730846
10
-198.08750000000003
20
138.67500000000001
10
-211.08750000000001
20
138.67500000000001
42
0.41421356237310542
10
-211.58750000000001
20
138.17499999999998
10
-211.58750000000001
20
125.175
42
0.4142135623730846
10
-211.08750000000001
20
124.67500000000001
0
LWPOLYLINE
5
148
100
AcDbEntity
8
0
100
AcDbPolyline
90
8
70
1
43
0.0
10
-236.1875
20
124.67500000000001
42
0.41421356237307422
10
-235.6875
20
125.175
10
-235.6875
20
138.17499999999998
42
0.41421356237309503
10
-236.1875
20
138.67500000000001
10
-249.18750000000003
20
138.67500000000001
42
0.41421356237310542
10
-249.6875
20
138.17499999999998
10
-249.6875
20
125.175
42
0.41421356237309503
10
-249.18750000000003
20
124.67500000000001
0
LWPOLYLINE
5
149
100
AcDbEntity
8
0
100
AcDbPolyline
90
8
70
1
43
0.0
10
-245.71249999999998
20
105.625
42
0.41421356237310542
10
-245.21250000000003
20
106.125
10
-245.21250000000003
20
119.12500000000001
42
0.41421356237309503
10
-245.71249999999998
20
119.625
10
-258.71250000000003
20
119.625
42
0.41421356237307422
10
-259.21249999999998
20
119.12500000000001
10
-259.21249999999998
20
106.125
42
0.41421356237309503
10
-258.71250000000003
20
105.625
0
LWPOLYLINE
5
150
100
AcDbEntity
8
0
100
AcDbPolyline
90
8
70
1
43
0.0
10
-264.76249999999999
20
105.625
42
0.41421356237310542
10
-264.26250000000005
20
106.125
10
-264.26249999999993
20
119.12500000000001
42
0.4142135623730846
10
-264.76249999999999
20
119.625
10
-277.76249999999999
20
119.625
42
0.41421356237307422
10
-278.26250000000005
20
119.12500000000001
10
-278.26250000000005
20
106.125
42
0.4142135623730846
10
-277.76249999999999
20
105.625
0
LWPOLYLINE
5
151
100
AcDbEntity
8
0
100
AcDbPolyline
90
8
70
1
43
0.0
10
-293.33750000000003
20
124.67500000000001
42
0.41421356237307422
10
-292.83750000000003
20
125.175
10
-292.83749999999998
20
138.17499999999998
42
0.4142135623730846
10
-293.33750000000003
20
138.67500000000001
10
-306.33749999999998
20
138.67500000000001
42
0.41421356237310542
10
-306.83750000000003
20
138.17499999999998
10
-306.83750000000003
20
125.175
42
0.41421356237309503
10
-306.33749999999998
20
124.67500000000001
0
LWPOLYLINE
5
152
100
AcDbEntity
8
0
100
AcDbPolyline
90
8
70
1
43
0.0
10
-240.94999999999999
20
86.574999999999989
42
0.41421356237310542
10
-240.45000000000002
20
87.074999999999989
10
-240.45000000000002
20
100.075
42
0.41421356237309503
10
-240.94999999999999
20
100.57500000000002
10
-253.94999999999996
20
100.57500000000002
42
0.41421356237310542
10
-254.44999999999999
20
100.075
10
-254.44999999999999
20
87.074999999999989
42
0.4142135623730846
10
-253.94999999999996
20
86.574999999999989
0
LWPOLYLINE
5
153
100
AcDbEntity
8
0
100
AcDbPolyline
90
8
70
1
43
0.0
10
-193.32500000000005
20
67.525000000000006
42
0.4142135623730222
10
-192.82500000000005
20
68.025000000000006
10
-192.82499999999999
20
81.024999999999991
42
0.4142135623730846
10
-193.32500000000005
20
81.525000000000006
10
-206.32499999999999
20
81.525000000000006
42
0.41421356237310542
10
-206.82499999999999
20
81.024999999999991
10
-206.82499999999999
20
68.025000000000006
42
0.41421356237310025
10
-206.32499999999999
20
67.525000000000006
0
LWPOLYLINE
5
154
100
AcDbEntity
8
0
100
AcDbPolyline
90
8
70
1
43
0.0
10
-202.84999999999999
20
86.574999999999989
42
0.41421356237313667
10
-202.34999999999999
20
87.074999999999989
10
-202.34999999999999
20
100.075
42
0.41421356237313667
10
-202.84999999999999
20
100.57500000000002
10
-215.85000000000002
20
100.57500000000002
42
0.41421356237310542
10
-216.34999999999997
20
100.075
10
-216.34999999999997
20
87.074999999999989
42
0.41421356237309503
10
-215.85000000000002
20
86.574999999999989
0
LWPOLYLINE
5
155
100
AcDbEntity
8
0
100
AcDbPolyline
90
8
70
1
43
0.0
10
-83.787499999999994
20
86.574999999999989
42
0.41421356237309503
10
-83.287499999999994
20
87.074999999999989
10
-83.287499999999994
20
100.075
42
0.41421356237309503
10
-83.787499999999994
20
100.57500000000002
10
-96.787500000000009
20
100.57500000000002
42
0.41421356237309503
10
-97.287499999999994
20
100.075
10
-97.287499999999994
20
87.074999999999989
42
0.41421356237313667
10
-96.787500000000009
20
86.574999999999989
0
LWPOLYLINE
5
156
100
AcDbEntity
8
0
100
AcDbPolyline
90
8
70
1
43
0.0
10
-117.12499999999999
20
67.525000000000006
42
0.41421356237310542
10
-116.62499999999997
20
68.025000000000006
10
-116.625
20
81.024999999999991
42
0.41421356237313667
10
-117.12499999999999
20
81.525000000000006
10
-130.125
20
81.525000000000006
42
0.41421356237309503
10
-130.625
20
81.024999999999991
10
-130.625
20
68.025000000000006
42
0.41421356237310025
10
-130.125
20
67.525000000000006
0
LWPOLYLINE
5
157
100
AcDbEntity
8
0
100
AcDbPolyline
90
8
70
1
43
0.0
10
-279.05000000000001
20
86.574999999999989
42
0.41421356237310542
10
-278.55000000000007
20
87.074999999999989
10
-278.55000000000007
20
100.075
42
0.41421356237309503
10
-279.05000000000001
20
100.57500000000002
10
-292.05000000000007
20
100.57500000000002
42
0.41421356237310542
10
-292.55000000000001
20
100.075
10
-292.55000000000001
20
87.074999999999989
42
0.41421356237309503
10
-292.05000000000007
20
86.574999999999989
0
LWPOLYLINE
5
158
100
AcDbEntity
8
0
100
AcDbPolyline
90
8
70
1
43
0.0
10
-188.56250000000003
20
105.625
42
0.41421356237310542
10
-188.06250000000006
20
106.125
10
-188.0625
20
119.12500000000001
42
0.4142135623730846
10
-188.56250000000003
20
119.625
10
-201.5625
20
119.625
42
0.41421356237307422
10
-202.0625
20
119.12500000000001
10
-202.0625
20
106.125
42
0.41421356237310542
10
-201.5625
20
105.625
0
LWPOLYLINE
5
159
100
AcDbEntity
8
0
100
AcDbPolyline
90
8
70
1
43
0.0
10
-207.61250000000004
20
105.625
42
0.41421356237310542
10
-207.11250000000007
20
106.125
10
-207.11250000000001
20
119.12500000000001
42
0.4142135623730846
10
-207.61250000000004
20
119.625
10
-220.61250000000001
20
119.625
42
0.41421356237307422
10
-221.11250000000001
20
119.12500000000001
10
-221.11250000000001
20
106.125
42
0.41421356237310542
10
-220.61250000000001
20
105.625
0
LWPOLYLINE
5
160
100
AcDbEntity
8
0
100
AcDbPolyline
90
8
70
1
43
0.0
10
-238.56875000000002
20
143.72499999999999
10
-251.56874999999999
20
143.72499999999997
42
-0.4142135623730846
10
-252.06875000000002
20
144.22499999999999
10
-252.06874999999997
20
157.22499999999999
42
-0.41421356237310542
10
-251.56874999999999
20
157.72500000000002
10
-238.56875000000002
20
157.72500000000002
42
-0.4142135623730846
10
-238.06874999999997
20
157.22499999999999
10
-238.06875000000005
20
144.22499999999999
42
-0.41421356237310542
0
LWPOLYLINE
5
161
100
AcDbEntity
8
0
100
AcDbPolyline
90
8
70
1
43
0.0
10
-230.13074999999998
20
143.47499999999999
10
-236.13075000000003
20
143.47499999999999
42
-0.41421356237309503
10
-236.63074999999998
20
143.97499999999997
10
-236.63075000000006
20
158.22499999999999
42
-0.4142135623730846
10
-236.13075000000003
20
158.72499999999999
10
-230.13075000000001
20
158.72500000000005
42
-0.41421356237309503
10
-229.63074999999998
20
158.22499999999999
10
-229.63074999999998
20
143.97499999999999
42
-0.41421356237309503
0
LWPOLYLINE
5
162
100
AcDbEntity
8
0
100
AcDbPolyline
90
8
70
1
43
0.0
10
-200.46875
20
143.72499999999999
10
-213.46875
20
143.72499999999999
42
-0.41421356237313667
10
-213.96875
20
144.22499999999999
10
-213.96875
20
157.22499999999999
42
-0.41421356237313667
10
-213.46875
20
157.72500000000002
10
-200.46875
20
157.72500000000002
42
-0.41421356237310542
10
-199.96875
20
157.22499999999999
10
-199.96875000000003
20
144.22499999999999
42
-0.41421356237310542
0
LWPOLYLINE
5
163
100
AcDbEntity
8
0
100
AcDbPolyline
90
8
70
1
43
0.0
10
-177.80674999999999
20
143.47499999999999
10
-183.80674999999999
20
143.47499999999999
42
-0.41421356237309503
10
-184.30675000000002
20
143.97499999999999
10
-184.30675000000002
20
158.22499999999999
42
-0.41421356237309503
10
-183.80674999999999
20
158.72499999999999
10
-177.80675000000002
20
158.72500000000005
42
-0.41421356237309503
10
-177.30674999999997
20
158.22499999999999
10
-177.30674999999997
20
143.97499999999999
42
-0.41421356237309503
0
LWPOLYLINE
5
164
100
AcDbEntity
8
0
100
AcDbPolyline
90
8
70
1
43
0.0
10
-162.36875000000001
20
143.72499999999999
10
-175.36875000000003
20
143.72500000000002
42
-0.41421356237309503
10
-175.86874999999998
20
144.22499999999999
10
-175.86874999999998
20
157.22499999999999
42
-0.41421356237310542
10
-175.36875000000003
20
157.72500000000002
10
-162.36875000000001
20
157.72500000000002
42
-0.41421356237313667
10
-161.86875000000001
20
157.22499999999999
10
-161.86875000000001
20
144.22499999999999
42
-0.41421356237313667
0
LWPOLYLINE
5
165
100
AcDbEntity
8
0
100
AcDbPolyline
90
8
70
1
43
0.0
10
-260.50675000000007
20
143.97500000000002
10
-260.50675000000007
20
158.22499999999999
42
-0.4142135623730846
10
-260.00675000000001
20
158.72499999999999
10
-253.96875
20
158.72500000000005
42
-0.41421356237309503
10
-253.46874999999997
20
158.22499999999999
10
-253.46874999999997
20
143.97499999999999
42
-0.41421356237309503
10
-253.96874999999997
20
143.47499999999999
10
-260.00675000000001
20
143.47499999999999
42
-0.41421356237309503
0
LWPOLYLINE
5
166
100
AcDbEntity
8
0
100
AcDbPolyline
90
8
70
1
43
0.0
10
-285.40625
20
144.22499999999999
42
0.41421356237309503
10
-284.90625
20
143.72500000000002
10
-271.90625000000006
20
143.72499999999999
42
0.41421356237310542
10
-271.40625
20
144.22499999999999
10
-271.40625
20
157.22499999999999
42
0.4142135623730846
10
-271.90625000000006
20
157.72500000000002
10
-284.90625
20
157.72500000000002
42
0.41421356237310542
10
-285.40625
20
157.22499999999999
0
LWPOLYLINE
5
167
100
AcDbEntity
8
0
100
AcDbPolyline
90
8
70
1
43
0.0
10
-309.21875
20
144.22499999999999
42
0.41421356237309503
10
-308.71875
20
143.72500000000002
10
-295.71875
20
143.72499999999999
42
0.41421356237310542
10
-295.21875
20
144.22499999999999
10
-295.21875
20
157.22499999999999
42
0.41421356237309503
10
-295.71875
20
157.72500000000002
10
-308.71875
20
157.72500000000002
42
0.41421356237310542
10
-309.21875
20
157.22499999999999
0
LWPOLYLINE
5
168
100
AcDbEntity
8
0
100
AcDbPolyline
90
8
70
1
43
0.0
10
-333.03125
20
144.22499999999999
42
0.4142135623730222
10
-332.53125000000006
20
143.72499999999999
10
-319.53125
20
143.72499999999999
42
0.41421356237310542
10
-319.03125
20
144.22499999999999
10
-319.03125
20
157.22499999999999
42
0.41421356237309503
10
-319.53125
20
157.72500000000002
10
-332.53125000000006
20
157.72500000000002
42
0.41421356237313667
10
-333.03125
20
157.22499999999999
0
LWPOLYLINE
5
169
100
AcDbEntity
8
0
100
AcDbPolyline
90
8
70
1
43
0.0
10
-356.84375
20
144.22499999999999
42
0.41421356237309503
10
-356.34375
20
143.72499999999997
10
-343.34375
20
143.72499999999999
42
0.41421356237313667
10
-342.84375
20
144.22499999999999
10
-342.84375
20
157.22499999999999
42
0.41421356237309503
10
-343.34375
20
157.72500000000002
10
-356.34375
20
157.72500000000002
42
0.41421356237313667
10
-356.84375
20
157.22499999999999
0
LWPOLYLINE
5
170
100
AcDbEntity
8
0
100
AcDbPolyline
90
18
70
1
43
0.0
10
-327.26627063334797
20
82.340210390573887
42
0.30112110200013847
10
-326.54160396668135
20
81.506877057240601
42
-0.33715193994047754
10
-326.17500000000001
20
81.024999999999991
10
-326.17500000000007
20
68.025000000000006
42
-0.41421356237310542
10
-326.67500000000007
20
67.525000000000006
10
-358.72500000000002
20
67.524999999999949
42
-0.4142135623730222
10
-359.22500000000008
20
68.025000000000006
10
-359.22500000000002
20
81.024999999999991
42
-0.337151939940592
10
-358.85839603331868
20
81.506877057240587
42
0.30112110200015385
10
-358.13372936665201
20
82.340210390573887
42
-0.37640369443310479
10
-357.63800000000003
20
82.774999999999977
10
-351.63800000000003
20
82.775000000000006
42
-0.36597738186304002
10
-351.14499335140835
20
82.358333333333306
42
0.365977381863
10
-350.15898005422508
20
81.524999999999977
10
-335.24101994577495
20
81.525000000000006
42
0.36597738186303663
10
-334.25500664859163
20
82.358333333333334
42
-0.36597738186304318
10
-333.76200000000006
20
82.775000000000006
10
-327.76200000000006
20
82.775000000000034
42
-0.37640369443309468
0
LWPOLYLINE
5
171
100
AcDbEntity
8
0
100
AcDbPolyline
90
13
70
1
43
0.0
10
-328.09726994577483
20
138.67500000000001
42
0.36597738186299167
10
-327.11125664859162
20
139.50833333333327
42
-0.36597738186306977
10
-326.61824999999993
20
139.92500000000001
10
-320.61824999999999
20
139.92500000000004
42
-0.3764036944331095
10
-320.12252063334802
20
139.49021039057394
42
0.30112110200020781
10
-319.39785396668128
20
138.65687705724054
42
-0.33715193994047221
10
-319.03125
20
138.17499999999998
10
-319.03125
20
125.175
42
-0.41421356237307422
10
-319.53125
20
124.67500000000001
10
-342.05624999999998
20
124.6749999999999
42
-0.41421356237304302
10
-342.55625000000003
20
125.175
10
-342.55624999999998
20
138.17499999999998
42
-0.41421356237312623
10
-342.05624999999998
20
138.67500000000001
0
LWPOLYLINE
5
172
100
AcDbEntity
8
0
100
AcDbPolyline
90
11
70
1
43
0.0
10
-351.97326994577486
20
138.67500000000001
42
0.36597738186299655
10
-350.98725664859165
20
139.5083333333333
42
-0.36597738186306977
10
-350.49424999999997
20
139.92500000000001
10
-344.49425000000008
20
139.92500000000001
42
-0.41421356237309503
10
-343.99425000000002
20
139.42499999999998
10
-343.99425000000008
20
125.175
42
-0.41421356237310542
10
-344.49425000000008
20
124.67500000000001
10
-358.72500000000002
20
124.6749999999999
42
-0.41421356237304302
10
-359.22500000000008
20
125.175
10
-359.22500000000002
20
138.17499999999998
42
-0.41421356237312623
10
-358.72500000000002
20
138.67500000000001
0
LWPOLYLINE
5
173
100
AcDbEntity
8
0
100
AcDbPolyline
90
19
70
1
43
0.0
10
-105.87624335140838
20
139.50833333333335
42
0.36597738186305567
10
-104.8902300542251
20
138.67500000000001
10
-89.972269945774897
20
138.67500000000001
42
0.36597738186305984
10
-88.98625664859162
20
139.50833333333333
42
-0.36597738186304823
10
-88.493249999999989
20
139.92500000000001
10
-82.493249999999989
20
139.92500000000004
42
-0.37640369443309951
10
-81.997520633347989
20
139.49021039057394
42
0.30112110200015479
10
-81.272853966681339
20
138.65687705724059
42
-0.33715193994050346
10
-80.90625
20
138.17499999999998
10
-80.90625
20
125.175
42
-0.41421356237312623
10
-81.40625
20
124.67500000000001
10
-115.83750000000001
20
124.67500000000001
42
-0.41421356237309503
10
-116.33749999999999
20
125.175
10
-116.33750000000001
20
138.17499999999998
42
-0.41421356237307422
10
-115.83750000000001
20
138.67500000000001
10
-113.84826994577492
20
138.67500000000001
42
0.36597738186303158
10
-112.86225664859163
20
139.50833333333333
42
-0.36597738186304823
10
-112.36924999999999
20
139.92500000000001
10
-106.36924999999999
20
139.92500000000001
42
-0.36597738186304485
0
ENDSEC
0
SECTION
2
OBJECTS
0
DICTIONARY
5
C
100
AcDbDictionary
3
ACAD_GROUP
350
D
3
ACAD_MLINESTYLE
350
17
0
DICTIONARY
5
D
100
AcDbDictionary
0
DICTIONARY
5
1A
330
C
100
AcDbDictionary
0
DICTIONARY
5
17
100
AcDbDictionary
0
ENDSEC
0
EOF
