%FSLAX45Y45*%
G04 Gerber Fmt 4.5, Leading zero omitted, Abs format (unit mm)*
G04 Created by KiCad (PCBNEW (5.1.9)-1) date 2021-05-31 01:10:31*
%MOMM*%
%LPD*%
G01*
G04 APERTURE LIST*
%TA.AperFunction,Profile*%
%ADD10C,0.100000*%
%TD*%
%ADD11C,0.200000*%
%ADD12C,0.300000*%
G04 APERTURE END LIST*
D10*
X36000000Y-4550000D02*
X36000000Y-3800000D01*
X36000000Y-4550000D02*
X36000000Y-5250000D01*
X36000000Y-15450000D02*
G75*
G02*
X35500000Y-15950000I-500000J0D01*
G01*
X8200000Y-15950000D02*
G75*
G02*
X7700000Y-15450000I0J500000D01*
G01*
X7700000Y-3800000D02*
G75*
G02*
X8200000Y-3300000I500000J0D01*
G01*
X35500000Y-3300000D02*
X8200000Y-3300000D01*
X7700000Y-3800000D02*
X7700000Y-15450000D01*
X8200000Y-15950000D02*
X35500000Y-15950000D01*
X36000000Y-5250000D02*
X36000000Y-15450000D01*
X35500000Y-3300000D02*
G75*
G02*
X36000000Y-3800000I0J-500000D01*
G01*
D11*
X29978000Y-3888000D02*
X30043000Y-3953000D01*
X30043000Y-3888000D02*
X29978000Y-3953000D01*
X30556000Y-3888000D02*
X30621000Y-3953000D01*
X30621000Y-3888000D02*
X30556000Y-3953000D01*
X35572000Y-4932500D02*
G75*
G03*
X35572000Y-4932500I-75000J0D01*
G01*
X35572000Y-5417500D02*
G75*
G03*
X35572000Y-5417500I-75000J0D01*
G01*
X8044500Y-7365000D02*
X8044500Y-7540000D01*
X7957000Y-7452500D02*
X8132000Y-7452500D01*
X8282625Y-13080000D02*
X8282625Y-13255000D01*
X8195125Y-13167500D02*
X8370125Y-13167500D01*
X8282625Y-14985000D02*
X8282625Y-15160000D01*
X8195125Y-15072500D02*
X8370125Y-15072500D01*
X8520750Y-9270000D02*
X8520750Y-9445000D01*
X8433250Y-9357500D02*
X8608250Y-9357500D01*
X8758875Y-11175000D02*
X8758875Y-11350000D01*
X8671375Y-11262500D02*
X8846375Y-11262500D01*
X9060500Y-7365000D02*
X9060500Y-7540000D01*
X8973000Y-7452500D02*
X9148000Y-7452500D01*
X9232000Y-13082500D02*
X9232000Y-13257500D01*
X9144500Y-13170000D02*
X9319500Y-13170000D01*
X9298625Y-13080000D02*
X9298625Y-13255000D01*
X9211125Y-13167500D02*
X9386125Y-13167500D01*
X9298625Y-14985000D02*
X9298625Y-15160000D01*
X9211125Y-15072500D02*
X9386125Y-15072500D01*
X9536750Y-9270000D02*
X9536750Y-9445000D01*
X9449250Y-9357500D02*
X9624250Y-9357500D01*
X9774875Y-11175000D02*
X9774875Y-11350000D01*
X9687375Y-11262500D02*
X9862375Y-11262500D01*
X9949500Y-7365000D02*
X9949500Y-7540000D01*
X9862000Y-7452500D02*
X10037000Y-7452500D01*
X10248000Y-13082500D02*
X10248000Y-13257500D01*
X10160500Y-13170000D02*
X10335500Y-13170000D01*
X10425750Y-13080000D02*
X10425750Y-13255000D01*
X10338250Y-13167500D02*
X10513250Y-13167500D01*
X10663875Y-14985000D02*
X10663875Y-15160000D01*
X10576375Y-15072500D02*
X10751375Y-15072500D01*
X10902000Y-9270000D02*
X10902000Y-9445000D01*
X10814500Y-9357500D02*
X10989500Y-9357500D01*
X10965500Y-7365000D02*
X10965500Y-7540000D01*
X10878000Y-7452500D02*
X11053000Y-7452500D01*
X11378250Y-11175000D02*
X11378250Y-11350000D01*
X11290750Y-11262500D02*
X11465750Y-11262500D01*
X11441750Y-13080000D02*
X11441750Y-13255000D01*
X11354250Y-13167500D02*
X11529250Y-13167500D01*
X11679875Y-14985000D02*
X11679875Y-15160000D01*
X11592375Y-15072500D02*
X11767375Y-15072500D01*
X11854500Y-7365000D02*
X11854500Y-7540000D01*
X11767000Y-7452500D02*
X11942000Y-7452500D01*
X11918000Y-9270000D02*
X11918000Y-9445000D01*
X11830500Y-9357500D02*
X12005500Y-9357500D01*
X12330750Y-13080000D02*
X12330750Y-13255000D01*
X12243250Y-13167500D02*
X12418250Y-13167500D01*
X12394250Y-11175000D02*
X12394250Y-11350000D01*
X12306750Y-11262500D02*
X12481750Y-11262500D01*
X12807000Y-9270000D02*
X12807000Y-9445000D01*
X12719500Y-9357500D02*
X12894500Y-9357500D01*
X12870500Y-7365000D02*
X12870500Y-7540000D01*
X12783000Y-7452500D02*
X12958000Y-7452500D01*
X13045125Y-14985000D02*
X13045125Y-15160000D01*
X12957625Y-15072500D02*
X13132625Y-15072500D01*
X13283250Y-11175000D02*
X13283250Y-11350000D01*
X13195750Y-11262500D02*
X13370750Y-11262500D01*
X13346750Y-13080000D02*
X13346750Y-13255000D01*
X13259250Y-13167500D02*
X13434250Y-13167500D01*
X13759500Y-7365000D02*
X13759500Y-7540000D01*
X13672000Y-7452500D02*
X13847000Y-7452500D01*
X13823000Y-9270000D02*
X13823000Y-9445000D01*
X13735500Y-9357500D02*
X13910500Y-9357500D01*
X14061125Y-14985000D02*
X14061125Y-15160000D01*
X13973625Y-15072500D02*
X14148625Y-15072500D01*
X14235750Y-13080000D02*
X14235750Y-13255000D01*
X14148250Y-13167500D02*
X14323250Y-13167500D01*
X14299250Y-11175000D02*
X14299250Y-11350000D01*
X14211750Y-11262500D02*
X14386750Y-11262500D01*
X14712000Y-9270000D02*
X14712000Y-9445000D01*
X14624500Y-9357500D02*
X14799500Y-9357500D01*
X14775500Y-7365000D02*
X14775500Y-7540000D01*
X14688000Y-7452500D02*
X14863000Y-7452500D01*
X15188250Y-11175000D02*
X15188250Y-11350000D01*
X15100750Y-11262500D02*
X15275750Y-11262500D01*
X15251750Y-13080000D02*
X15251750Y-13255000D01*
X15164250Y-13167500D02*
X15339250Y-13167500D01*
X15664500Y-7365000D02*
X15664500Y-7540000D01*
X15577000Y-7452500D02*
X15752000Y-7452500D01*
X15728000Y-9270000D02*
X15728000Y-9445000D01*
X15640500Y-9357500D02*
X15815500Y-9357500D01*
X16140750Y-13080000D02*
X16140750Y-13255000D01*
X16053250Y-13167500D02*
X16228250Y-13167500D01*
X16204250Y-11175000D02*
X16204250Y-11350000D01*
X16116750Y-11262500D02*
X16291750Y-11262500D01*
X16617000Y-9270000D02*
X16617000Y-9445000D01*
X16529500Y-9357500D02*
X16704500Y-9357500D01*
X16680500Y-7365000D02*
X16680500Y-7540000D01*
X16593000Y-7452500D02*
X16768000Y-7452500D01*
X17093250Y-11175000D02*
X17093250Y-11350000D01*
X17005750Y-11262500D02*
X17180750Y-11262500D01*
X17156750Y-13080000D02*
X17156750Y-13255000D01*
X17069250Y-13167500D02*
X17244250Y-13167500D01*
X17569500Y-7365000D02*
X17569500Y-7540000D01*
X17482000Y-7452500D02*
X17657000Y-7452500D01*
X17633000Y-9270000D02*
X17633000Y-9445000D01*
X17545500Y-9357500D02*
X17720500Y-9357500D01*
X18045750Y-13080000D02*
X18045750Y-13255000D01*
X17958250Y-13167500D02*
X18133250Y-13167500D01*
X18109250Y-11175000D02*
X18109250Y-11350000D01*
X18021750Y-11262500D02*
X18196750Y-11262500D01*
X18522000Y-9270000D02*
X18522000Y-9445000D01*
X18434500Y-9357500D02*
X18609500Y-9357500D01*
X18585500Y-7365000D02*
X18585500Y-7540000D01*
X18498000Y-7452500D02*
X18673000Y-7452500D01*
X18998250Y-11175000D02*
X18998250Y-11350000D01*
X18910750Y-11262500D02*
X19085750Y-11262500D01*
X19061750Y-13080000D02*
X19061750Y-13255000D01*
X18974250Y-13167500D02*
X19149250Y-13167500D01*
X19474500Y-7365000D02*
X19474500Y-7540000D01*
X19387000Y-7452500D02*
X19562000Y-7452500D01*
X19538000Y-9270000D02*
X19538000Y-9445000D01*
X19450500Y-9357500D02*
X19625500Y-9357500D01*
X19950750Y-13080000D02*
X19950750Y-13255000D01*
X19863250Y-13167500D02*
X20038250Y-13167500D01*
X20014250Y-11175000D02*
X20014250Y-11350000D01*
X19926750Y-11262500D02*
X20101750Y-11262500D01*
X20188875Y-14985000D02*
X20188875Y-15160000D01*
X20101375Y-15072500D02*
X20276375Y-15072500D01*
X20427000Y-9270000D02*
X20427000Y-9445000D01*
X20339500Y-9357500D02*
X20514500Y-9357500D01*
X20490500Y-7365000D02*
X20490500Y-7540000D01*
X20403000Y-7452500D02*
X20578000Y-7452500D01*
X20903250Y-11175000D02*
X20903250Y-11350000D01*
X20815750Y-11262500D02*
X20990750Y-11262500D01*
X20966750Y-13080000D02*
X20966750Y-13255000D01*
X20879250Y-13167500D02*
X21054250Y-13167500D01*
X21204875Y-14985000D02*
X21204875Y-15160000D01*
X21117375Y-15072500D02*
X21292375Y-15072500D01*
X21379500Y-7365000D02*
X21379500Y-7540000D01*
X21292000Y-7452500D02*
X21467000Y-7452500D01*
X21443000Y-9270000D02*
X21443000Y-9445000D01*
X21355500Y-9357500D02*
X21530500Y-9357500D01*
X21855750Y-13080000D02*
X21855750Y-13255000D01*
X21768250Y-13167500D02*
X21943250Y-13167500D01*
X21919250Y-11175000D02*
X21919250Y-11350000D01*
X21831750Y-11262500D02*
X22006750Y-11262500D01*
X22332000Y-9270000D02*
X22332000Y-9445000D01*
X22244500Y-9357500D02*
X22419500Y-9357500D01*
X22395500Y-7365000D02*
X22395500Y-7540000D01*
X22308000Y-7452500D02*
X22483000Y-7452500D01*
X22808250Y-11175000D02*
X22808250Y-11350000D01*
X22720750Y-11262500D02*
X22895750Y-11262500D01*
X22871750Y-13080000D02*
X22871750Y-13255000D01*
X22784250Y-13167500D02*
X22959250Y-13167500D01*
X23284500Y-7365000D02*
X23284500Y-7540000D01*
X23197000Y-7452500D02*
X23372000Y-7452500D01*
X23348000Y-9270000D02*
X23348000Y-9445000D01*
X23260500Y-9357500D02*
X23435500Y-9357500D01*
X23760750Y-13080000D02*
X23760750Y-13255000D01*
X23673250Y-13167500D02*
X23848250Y-13167500D01*
X23824250Y-11175000D02*
X23824250Y-11350000D01*
X23736750Y-11262500D02*
X23911750Y-11262500D01*
X24237000Y-9270000D02*
X24237000Y-9445000D01*
X24149500Y-9357500D02*
X24324500Y-9357500D01*
X24300500Y-7365000D02*
X24300500Y-7540000D01*
X24213000Y-7452500D02*
X24388000Y-7452500D01*
X24713250Y-11175000D02*
X24713250Y-11350000D01*
X24625750Y-11262500D02*
X24800750Y-11262500D01*
X24776750Y-13080000D02*
X24776750Y-13255000D01*
X24689250Y-13167500D02*
X24864250Y-13167500D01*
X25189500Y-7365000D02*
X25189500Y-7540000D01*
X25102000Y-7452500D02*
X25277000Y-7452500D01*
X25253000Y-9270000D02*
X25253000Y-9445000D01*
X25165500Y-9357500D02*
X25340500Y-9357500D01*
X25665750Y-13080000D02*
X25665750Y-13255000D01*
X25578250Y-13167500D02*
X25753250Y-13167500D01*
X25729250Y-11175000D02*
X25729250Y-11350000D01*
X25641750Y-11262500D02*
X25816750Y-11262500D01*
X26142000Y-9270000D02*
X26142000Y-9445000D01*
X26054500Y-9357500D02*
X26229500Y-9357500D01*
X26205500Y-7365000D02*
X26205500Y-7540000D01*
X26118000Y-7452500D02*
X26293000Y-7452500D01*
X26618250Y-11175000D02*
X26618250Y-11350000D01*
X26530750Y-11262500D02*
X26705750Y-11262500D01*
X26681750Y-13080000D02*
X26681750Y-13255000D01*
X26594250Y-13167500D02*
X26769250Y-13167500D01*
X27094500Y-7365000D02*
X27094500Y-7540000D01*
X27007000Y-7452500D02*
X27182000Y-7452500D01*
X27158000Y-9270000D02*
X27158000Y-9445000D01*
X27070500Y-9357500D02*
X27245500Y-9357500D01*
X27332625Y-14985000D02*
X27332625Y-15160000D01*
X27245125Y-15072500D02*
X27420125Y-15072500D01*
X27570750Y-13080000D02*
X27570750Y-13255000D01*
X27483250Y-13167500D02*
X27658250Y-13167500D01*
X27634250Y-11175000D02*
X27634250Y-11350000D01*
X27546750Y-11262500D02*
X27721750Y-11262500D01*
X28047000Y-9270000D02*
X28047000Y-9445000D01*
X27959500Y-9357500D02*
X28134500Y-9357500D01*
X28110500Y-7365000D02*
X28110500Y-7540000D01*
X28023000Y-7452500D02*
X28198000Y-7452500D01*
X28348625Y-14985000D02*
X28348625Y-15160000D01*
X28261125Y-15072500D02*
X28436125Y-15072500D01*
X28523250Y-11175000D02*
X28523250Y-11350000D01*
X28435750Y-11262500D02*
X28610750Y-11262500D01*
X28586750Y-13080000D02*
X28586750Y-13255000D01*
X28499250Y-13167500D02*
X28674250Y-13167500D01*
X28999500Y-7365000D02*
X28999500Y-7540000D01*
X28912000Y-7452500D02*
X29087000Y-7452500D01*
X29063000Y-9270000D02*
X29063000Y-9445000D01*
X28975500Y-9357500D02*
X29150500Y-9357500D01*
X29475750Y-13080000D02*
X29475750Y-13255000D01*
X29388250Y-13167500D02*
X29563250Y-13167500D01*
X29539250Y-11175000D02*
X29539250Y-11350000D01*
X29451750Y-11262500D02*
X29626750Y-11262500D01*
X29713875Y-14985000D02*
X29713875Y-15160000D01*
X29626375Y-15072500D02*
X29801375Y-15072500D01*
X29952000Y-9270000D02*
X29952000Y-9445000D01*
X29864500Y-9357500D02*
X30039500Y-9357500D01*
X30015500Y-7365000D02*
X30015500Y-7540000D01*
X29928000Y-7452500D02*
X30103000Y-7452500D01*
X30428250Y-11175000D02*
X30428250Y-11350000D01*
X30340750Y-11262500D02*
X30515750Y-11262500D01*
X30491750Y-13080000D02*
X30491750Y-13255000D01*
X30404250Y-13167500D02*
X30579250Y-13167500D01*
X30729875Y-14985000D02*
X30729875Y-15160000D01*
X30642375Y-15072500D02*
X30817375Y-15072500D01*
X30904500Y-7365000D02*
X30904500Y-7540000D01*
X30817000Y-7452500D02*
X30992000Y-7452500D01*
X30968000Y-9270000D02*
X30968000Y-9445000D01*
X30880500Y-9357500D02*
X31055500Y-9357500D01*
X31444250Y-11175000D02*
X31444250Y-11350000D01*
X31356750Y-11262500D02*
X31531750Y-11262500D01*
X31857000Y-9270000D02*
X31857000Y-9445000D01*
X31769500Y-9357500D02*
X31944500Y-9357500D01*
X31920500Y-7365000D02*
X31920500Y-7540000D01*
X31833000Y-7452500D02*
X32008000Y-7452500D01*
X32095125Y-14985000D02*
X32095125Y-15160000D01*
X32007625Y-15072500D02*
X32182625Y-15072500D01*
X32333250Y-11175000D02*
X32333250Y-11350000D01*
X32245750Y-11262500D02*
X32420750Y-11262500D01*
X32873000Y-9270000D02*
X32873000Y-9445000D01*
X32785500Y-9357500D02*
X32960500Y-9357500D01*
X33047625Y-13080000D02*
X33047625Y-13255000D01*
X32960125Y-13167500D02*
X33135125Y-13167500D01*
X33111125Y-14985000D02*
X33111125Y-15160000D01*
X33023625Y-15072500D02*
X33198625Y-15072500D01*
X33349250Y-11175000D02*
X33349250Y-11350000D01*
X33261750Y-11262500D02*
X33436750Y-11262500D01*
X33522000Y-11172500D02*
X33522000Y-11347500D01*
X33434500Y-11260000D02*
X33609500Y-11260000D01*
X33762000Y-7365000D02*
X33762000Y-7540000D01*
X33674500Y-7452500D02*
X33849500Y-7452500D01*
X34063625Y-13080000D02*
X34063625Y-13255000D01*
X33976125Y-13167500D02*
X34151125Y-13167500D01*
X34237000Y-9267500D02*
X34237000Y-9442500D01*
X34149500Y-9355000D02*
X34324500Y-9355000D01*
X34476375Y-14985000D02*
X34476375Y-15160000D01*
X34388875Y-15072500D02*
X34563875Y-15072500D01*
X34538000Y-11172500D02*
X34538000Y-11347500D01*
X34450500Y-11260000D02*
X34625500Y-11260000D01*
X34778000Y-7365000D02*
X34778000Y-7540000D01*
X34690500Y-7452500D02*
X34865500Y-7452500D01*
X34984375Y-9712000D02*
X34984375Y-9887000D01*
X34896875Y-9799500D02*
X35071875Y-9799500D01*
X34984375Y-10728000D02*
X34984375Y-10903000D01*
X34896875Y-10815500D02*
X35071875Y-10815500D01*
X35253000Y-9267500D02*
X35253000Y-9442500D01*
X35165500Y-9355000D02*
X35340500Y-9355000D01*
X35492375Y-14985000D02*
X35492375Y-15160000D01*
X35404875Y-15072500D02*
X35579875Y-15072500D01*
X35863640Y-4966140D02*
X35863640Y-4838860D01*
X35736360Y-4838860D01*
X35736360Y-4966140D01*
X35863640Y-4966140D01*
X35863640Y-5511140D02*
X35863640Y-5383860D01*
X35736360Y-5383860D01*
X35736360Y-5511140D01*
X35863640Y-5511140D01*
X8700000Y-3920000D02*
X8810000Y-3810000D01*
X8700000Y-3700000D01*
X8590000Y-3810000D01*
X8700000Y-3920000D01*
X9975000Y-15660000D02*
X10085000Y-15550000D01*
X9975000Y-15440000D01*
X9865000Y-15550000D01*
X9975000Y-15660000D01*
X10180000Y-8520000D02*
X10290000Y-8410000D01*
X10180000Y-8300000D01*
X10070000Y-8410000D01*
X10180000Y-8520000D01*
X21850000Y-8510000D02*
X21960000Y-8400000D01*
X21850000Y-8290000D01*
X21740000Y-8400000D01*
X21850000Y-8510000D01*
X21850000Y-15510000D02*
X21960000Y-15400000D01*
X21850000Y-15290000D01*
X21740000Y-15400000D01*
X21850000Y-15510000D01*
X31410000Y-8520000D02*
X31520000Y-8410000D01*
X31410000Y-8300000D01*
X31300000Y-8410000D01*
X31410000Y-8520000D01*
X33800000Y-15660000D02*
X33910000Y-15550000D01*
X33800000Y-15440000D01*
X33690000Y-15550000D01*
X33800000Y-15660000D01*
X35305000Y-3760000D02*
X35415000Y-3650000D01*
X35305000Y-3540000D01*
X35195000Y-3650000D01*
X35305000Y-3760000D01*
X8396975Y-12319100D02*
X8701775Y-12623900D01*
X8701775Y-12319100D02*
X8396975Y-12623900D01*
X8701775Y-12471500D02*
G75*
G03*
X8701775Y-12471500I-152400J0D01*
G01*
X10778225Y-12319100D02*
X11083025Y-12623900D01*
X11083025Y-12319100D02*
X10778225Y-12623900D01*
X11083025Y-12471500D02*
G75*
G03*
X11083025Y-12471500I-152400J0D01*
G01*
X15544485Y-15618600D02*
X15849285Y-15923400D01*
X15849285Y-15618600D02*
X15544485Y-15923400D01*
X15849285Y-15771000D02*
G75*
G03*
X15849285Y-15771000I-152400J0D01*
G01*
X25544465Y-15618600D02*
X25849265Y-15923400D01*
X25849265Y-15618600D02*
X25544465Y-15923400D01*
X25849265Y-15771000D02*
G75*
G03*
X25849265Y-15771000I-152400J0D01*
G01*
X32212600Y-12316600D02*
X32517400Y-12621400D01*
X32517400Y-12316600D02*
X32212600Y-12621400D01*
X32517400Y-12469000D02*
G75*
G03*
X32517400Y-12469000I-152400J0D01*
G01*
X32686975Y-10409100D02*
X32991775Y-10713900D01*
X32991775Y-10409100D02*
X32686975Y-10713900D01*
X32991775Y-10561500D02*
G75*
G03*
X32991775Y-10561500I-152400J0D01*
G01*
X32926975Y-6601600D02*
X33231775Y-6906400D01*
X33231775Y-6601600D02*
X32926975Y-6906400D01*
X33231775Y-6754000D02*
G75*
G03*
X33231775Y-6754000I-152400J0D01*
G01*
X34593850Y-12316600D02*
X34898650Y-12621400D01*
X34898650Y-12316600D02*
X34593850Y-12621400D01*
X34898650Y-12469000D02*
G75*
G03*
X34898650Y-12469000I-152400J0D01*
G01*
X35068225Y-10409100D02*
X35373025Y-10713900D01*
X35373025Y-10409100D02*
X35068225Y-10713900D01*
X35373025Y-10561500D02*
G75*
G03*
X35373025Y-10561500I-152400J0D01*
G01*
X35308225Y-6601600D02*
X35613025Y-6906400D01*
X35613025Y-6601600D02*
X35308225Y-6906400D01*
X35613025Y-6754000D02*
G75*
G03*
X35613025Y-6754000I-152400J0D01*
G01*
X35530475Y-8961300D02*
X35835275Y-9266100D01*
X35835275Y-8961300D02*
X35530475Y-9266100D01*
X35835275Y-9113700D02*
G75*
G03*
X35835275Y-9113700I-152400J0D01*
G01*
X35530475Y-11348900D02*
X35835275Y-11653700D01*
X35835275Y-11348900D02*
X35530475Y-11653700D01*
X35835275Y-11501300D02*
G75*
G03*
X35835275Y-11501300I-152400J0D01*
G01*
X8349985Y-13796110D02*
X8748765Y-14194890D01*
X8748765Y-13796110D02*
X8349985Y-14194890D01*
X8549375Y-13796110D02*
X8549375Y-14194890D01*
X8349985Y-13995500D02*
X8748765Y-13995500D01*
X8353110Y-7253110D02*
X8751890Y-7651890D01*
X8751890Y-7253110D02*
X8353110Y-7651890D01*
X8552500Y-7253110D02*
X8552500Y-7651890D01*
X8353110Y-7452500D02*
X8751890Y-7452500D01*
X8591235Y-12968110D02*
X8990015Y-13366890D01*
X8990015Y-12968110D02*
X8591235Y-13366890D01*
X8790625Y-12968110D02*
X8790625Y-13366890D01*
X8591235Y-13167500D02*
X8990015Y-13167500D01*
X8591235Y-14873110D02*
X8990015Y-15271890D01*
X8990015Y-14873110D02*
X8591235Y-15271890D01*
X8790625Y-14873110D02*
X8790625Y-15271890D01*
X8591235Y-15072500D02*
X8990015Y-15072500D01*
X8829360Y-9158110D02*
X9228140Y-9556890D01*
X9228140Y-9158110D02*
X8829360Y-9556890D01*
X9028750Y-9158110D02*
X9028750Y-9556890D01*
X8829360Y-9357500D02*
X9228140Y-9357500D01*
X9067485Y-11063110D02*
X9466265Y-11461890D01*
X9466265Y-11063110D02*
X9067485Y-11461890D01*
X9266875Y-11063110D02*
X9266875Y-11461890D01*
X9067485Y-11262500D02*
X9466265Y-11262500D01*
X9540610Y-12970610D02*
X9939390Y-13369390D01*
X9939390Y-12970610D02*
X9540610Y-13369390D01*
X9740000Y-12970610D02*
X9740000Y-13369390D01*
X9540610Y-13170000D02*
X9939390Y-13170000D01*
X10258110Y-7253110D02*
X10656890Y-7651890D01*
X10656890Y-7253110D02*
X10258110Y-7651890D01*
X10457500Y-7253110D02*
X10457500Y-7651890D01*
X10258110Y-7452500D02*
X10656890Y-7452500D01*
X10731235Y-13796110D02*
X11130015Y-14194890D01*
X11130015Y-13796110D02*
X10731235Y-14194890D01*
X10930625Y-13796110D02*
X10930625Y-14194890D01*
X10731235Y-13995500D02*
X11130015Y-13995500D01*
X10734360Y-12968110D02*
X11133140Y-13366890D01*
X11133140Y-12968110D02*
X10734360Y-13366890D01*
X10933750Y-12968110D02*
X10933750Y-13366890D01*
X10734360Y-13167500D02*
X11133140Y-13167500D01*
X10972485Y-14873110D02*
X11371265Y-15271890D01*
X11371265Y-14873110D02*
X10972485Y-15271890D01*
X11171875Y-14873110D02*
X11171875Y-15271890D01*
X10972485Y-15072500D02*
X11371265Y-15072500D01*
X11210610Y-9158110D02*
X11609390Y-9556890D01*
X11609390Y-9158110D02*
X11210610Y-9556890D01*
X11410000Y-9158110D02*
X11410000Y-9556890D01*
X11210610Y-9357500D02*
X11609390Y-9357500D01*
X11686860Y-11063110D02*
X12085640Y-11461890D01*
X12085640Y-11063110D02*
X11686860Y-11461890D01*
X11886250Y-11063110D02*
X11886250Y-11461890D01*
X11686860Y-11262500D02*
X12085640Y-11262500D01*
X12163110Y-7253110D02*
X12561890Y-7651890D01*
X12561890Y-7253110D02*
X12163110Y-7651890D01*
X12362500Y-7253110D02*
X12362500Y-7651890D01*
X12163110Y-7452500D02*
X12561890Y-7452500D01*
X12639360Y-12968110D02*
X13038140Y-13366890D01*
X13038140Y-12968110D02*
X12639360Y-13366890D01*
X12838750Y-12968110D02*
X12838750Y-13366890D01*
X12639360Y-13167500D02*
X13038140Y-13167500D01*
X13115610Y-9158110D02*
X13514390Y-9556890D01*
X13514390Y-9158110D02*
X13115610Y-9556890D01*
X13315000Y-9158110D02*
X13315000Y-9556890D01*
X13115610Y-9357500D02*
X13514390Y-9357500D01*
X13353735Y-14873110D02*
X13752515Y-15271890D01*
X13752515Y-14873110D02*
X13353735Y-15271890D01*
X13553125Y-14873110D02*
X13553125Y-15271890D01*
X13353735Y-15072500D02*
X13752515Y-15072500D01*
X13591860Y-11063110D02*
X13990640Y-11461890D01*
X13990640Y-11063110D02*
X13591860Y-11461890D01*
X13791250Y-11063110D02*
X13791250Y-11461890D01*
X13591860Y-11262500D02*
X13990640Y-11262500D01*
X14068110Y-7253110D02*
X14466890Y-7651890D01*
X14466890Y-7253110D02*
X14068110Y-7651890D01*
X14267500Y-7253110D02*
X14267500Y-7651890D01*
X14068110Y-7452500D02*
X14466890Y-7452500D01*
X14544360Y-12968110D02*
X14943140Y-13366890D01*
X14943140Y-12968110D02*
X14544360Y-13366890D01*
X14743750Y-12968110D02*
X14743750Y-13366890D01*
X14544360Y-13167500D02*
X14943140Y-13167500D01*
X15020610Y-9158110D02*
X15419390Y-9556890D01*
X15419390Y-9158110D02*
X15020610Y-9556890D01*
X15220000Y-9158110D02*
X15220000Y-9556890D01*
X15020610Y-9357500D02*
X15419390Y-9357500D01*
X15496860Y-11063110D02*
X15895640Y-11461890D01*
X15895640Y-11063110D02*
X15496860Y-11461890D01*
X15696250Y-11063110D02*
X15696250Y-11461890D01*
X15496860Y-11262500D02*
X15895640Y-11262500D01*
X15497495Y-14047610D02*
X15896275Y-14446390D01*
X15896275Y-14047610D02*
X15497495Y-14446390D01*
X15696885Y-14047610D02*
X15696885Y-14446390D01*
X15497495Y-14247000D02*
X15896275Y-14247000D01*
X15973110Y-7253110D02*
X16371890Y-7651890D01*
X16371890Y-7253110D02*
X15973110Y-7651890D01*
X16172500Y-7253110D02*
X16172500Y-7651890D01*
X15973110Y-7452500D02*
X16371890Y-7452500D01*
X16449360Y-12968110D02*
X16848140Y-13366890D01*
X16848140Y-12968110D02*
X16449360Y-13366890D01*
X16648750Y-12968110D02*
X16648750Y-13366890D01*
X16449360Y-13167500D02*
X16848140Y-13167500D01*
X16925610Y-9158110D02*
X17324390Y-9556890D01*
X17324390Y-9158110D02*
X16925610Y-9556890D01*
X17125000Y-9158110D02*
X17125000Y-9556890D01*
X16925610Y-9357500D02*
X17324390Y-9357500D01*
X17401860Y-11063110D02*
X17800640Y-11461890D01*
X17800640Y-11063110D02*
X17401860Y-11461890D01*
X17601250Y-11063110D02*
X17601250Y-11461890D01*
X17401860Y-11262500D02*
X17800640Y-11262500D01*
X17878110Y-7253110D02*
X18276890Y-7651890D01*
X18276890Y-7253110D02*
X17878110Y-7651890D01*
X18077500Y-7253110D02*
X18077500Y-7651890D01*
X17878110Y-7452500D02*
X18276890Y-7452500D01*
X18354360Y-12968110D02*
X18753140Y-13366890D01*
X18753140Y-12968110D02*
X18354360Y-13366890D01*
X18553750Y-12968110D02*
X18553750Y-13366890D01*
X18354360Y-13167500D02*
X18753140Y-13167500D01*
X18830610Y-9158110D02*
X19229390Y-9556890D01*
X19229390Y-9158110D02*
X18830610Y-9556890D01*
X19030000Y-9158110D02*
X19030000Y-9556890D01*
X18830610Y-9357500D02*
X19229390Y-9357500D01*
X19306860Y-11063110D02*
X19705640Y-11461890D01*
X19705640Y-11063110D02*
X19306860Y-11461890D01*
X19506250Y-11063110D02*
X19506250Y-11461890D01*
X19306860Y-11262500D02*
X19705640Y-11262500D01*
X19783110Y-7253110D02*
X20181890Y-7651890D01*
X20181890Y-7253110D02*
X19783110Y-7651890D01*
X19982500Y-7253110D02*
X19982500Y-7651890D01*
X19783110Y-7452500D02*
X20181890Y-7452500D01*
X20259360Y-12968110D02*
X20658140Y-13366890D01*
X20658140Y-12968110D02*
X20259360Y-13366890D01*
X20458750Y-12968110D02*
X20458750Y-13366890D01*
X20259360Y-13167500D02*
X20658140Y-13167500D01*
X20497485Y-14873110D02*
X20896265Y-15271890D01*
X20896265Y-14873110D02*
X20497485Y-15271890D01*
X20696875Y-14873110D02*
X20696875Y-15271890D01*
X20497485Y-15072500D02*
X20896265Y-15072500D01*
X20735610Y-9158110D02*
X21134390Y-9556890D01*
X21134390Y-9158110D02*
X20735610Y-9556890D01*
X20935000Y-9158110D02*
X20935000Y-9556890D01*
X20735610Y-9357500D02*
X21134390Y-9357500D01*
X21211860Y-11063110D02*
X21610640Y-11461890D01*
X21610640Y-11063110D02*
X21211860Y-11461890D01*
X21411250Y-11063110D02*
X21411250Y-11461890D01*
X21211860Y-11262500D02*
X21610640Y-11262500D01*
X21688110Y-7253110D02*
X22086890Y-7651890D01*
X22086890Y-7253110D02*
X21688110Y-7651890D01*
X21887500Y-7253110D02*
X21887500Y-7651890D01*
X21688110Y-7452500D02*
X22086890Y-7452500D01*
X22164360Y-12968110D02*
X22563140Y-13366890D01*
X22563140Y-12968110D02*
X22164360Y-13366890D01*
X22363750Y-12968110D02*
X22363750Y-13366890D01*
X22164360Y-13167500D02*
X22563140Y-13167500D01*
X22640610Y-9158110D02*
X23039390Y-9556890D01*
X23039390Y-9158110D02*
X22640610Y-9556890D01*
X22840000Y-9158110D02*
X22840000Y-9556890D01*
X22640610Y-9357500D02*
X23039390Y-9357500D01*
X23116860Y-11063110D02*
X23515640Y-11461890D01*
X23515640Y-11063110D02*
X23116860Y-11461890D01*
X23316250Y-11063110D02*
X23316250Y-11461890D01*
X23116860Y-11262500D02*
X23515640Y-11262500D01*
X23593110Y-7253110D02*
X23991890Y-7651890D01*
X23991890Y-7253110D02*
X23593110Y-7651890D01*
X23792500Y-7253110D02*
X23792500Y-7651890D01*
X23593110Y-7452500D02*
X23991890Y-7452500D01*
X24069360Y-12968110D02*
X24468140Y-13366890D01*
X24468140Y-12968110D02*
X24069360Y-13366890D01*
X24268750Y-12968110D02*
X24268750Y-13366890D01*
X24069360Y-13167500D02*
X24468140Y-13167500D01*
X24545610Y-9158110D02*
X24944390Y-9556890D01*
X24944390Y-9158110D02*
X24545610Y-9556890D01*
X24745000Y-9158110D02*
X24745000Y-9556890D01*
X24545610Y-9357500D02*
X24944390Y-9357500D01*
X25021860Y-11063110D02*
X25420640Y-11461890D01*
X25420640Y-11063110D02*
X25021860Y-11461890D01*
X25221250Y-11063110D02*
X25221250Y-11461890D01*
X25021860Y-11262500D02*
X25420640Y-11262500D01*
X25497475Y-14047610D02*
X25896255Y-14446390D01*
X25896255Y-14047610D02*
X25497475Y-14446390D01*
X25696865Y-14047610D02*
X25696865Y-14446390D01*
X25497475Y-14247000D02*
X25896255Y-14247000D01*
X25498110Y-7253110D02*
X25896890Y-7651890D01*
X25896890Y-7253110D02*
X25498110Y-7651890D01*
X25697500Y-7253110D02*
X25697500Y-7651890D01*
X25498110Y-7452500D02*
X25896890Y-7452500D01*
X25974360Y-12968110D02*
X26373140Y-13366890D01*
X26373140Y-12968110D02*
X25974360Y-13366890D01*
X26173750Y-12968110D02*
X26173750Y-13366890D01*
X25974360Y-13167500D02*
X26373140Y-13167500D01*
X26450610Y-9158110D02*
X26849390Y-9556890D01*
X26849390Y-9158110D02*
X26450610Y-9556890D01*
X26650000Y-9158110D02*
X26650000Y-9556890D01*
X26450610Y-9357500D02*
X26849390Y-9357500D01*
X26926860Y-11063110D02*
X27325640Y-11461890D01*
X27325640Y-11063110D02*
X26926860Y-11461890D01*
X27126250Y-11063110D02*
X27126250Y-11461890D01*
X26926860Y-11262500D02*
X27325640Y-11262500D01*
X27403110Y-7253110D02*
X27801890Y-7651890D01*
X27801890Y-7253110D02*
X27403110Y-7651890D01*
X27602500Y-7253110D02*
X27602500Y-7651890D01*
X27403110Y-7452500D02*
X27801890Y-7452500D01*
X27641235Y-14873110D02*
X28040015Y-15271890D01*
X28040015Y-14873110D02*
X27641235Y-15271890D01*
X27840625Y-14873110D02*
X27840625Y-15271890D01*
X27641235Y-15072500D02*
X28040015Y-15072500D01*
X27879360Y-12968110D02*
X28278140Y-13366890D01*
X28278140Y-12968110D02*
X27879360Y-13366890D01*
X28078750Y-12968110D02*
X28078750Y-13366890D01*
X27879360Y-13167500D02*
X28278140Y-13167500D01*
X28355610Y-9158110D02*
X28754390Y-9556890D01*
X28754390Y-9158110D02*
X28355610Y-9556890D01*
X28555000Y-9158110D02*
X28555000Y-9556890D01*
X28355610Y-9357500D02*
X28754390Y-9357500D01*
X28831860Y-11063110D02*
X29230640Y-11461890D01*
X29230640Y-11063110D02*
X28831860Y-11461890D01*
X29031250Y-11063110D02*
X29031250Y-11461890D01*
X28831860Y-11262500D02*
X29230640Y-11262500D01*
X29308110Y-7253110D02*
X29706890Y-7651890D01*
X29706890Y-7253110D02*
X29308110Y-7651890D01*
X29507500Y-7253110D02*
X29507500Y-7651890D01*
X29308110Y-7452500D02*
X29706890Y-7452500D01*
X29784360Y-12968110D02*
X30183140Y-13366890D01*
X30183140Y-12968110D02*
X29784360Y-13366890D01*
X29983750Y-12968110D02*
X29983750Y-13366890D01*
X29784360Y-13167500D02*
X30183140Y-13167500D01*
X30022485Y-14873110D02*
X30421265Y-15271890D01*
X30421265Y-14873110D02*
X30022485Y-15271890D01*
X30221875Y-14873110D02*
X30221875Y-15271890D01*
X30022485Y-15072500D02*
X30421265Y-15072500D01*
X30260610Y-9158110D02*
X30659390Y-9556890D01*
X30659390Y-9158110D02*
X30260610Y-9556890D01*
X30460000Y-9158110D02*
X30460000Y-9556890D01*
X30260610Y-9357500D02*
X30659390Y-9357500D01*
X30736860Y-11063110D02*
X31135640Y-11461890D01*
X31135640Y-11063110D02*
X30736860Y-11461890D01*
X30936250Y-11063110D02*
X30936250Y-11461890D01*
X30736860Y-11262500D02*
X31135640Y-11262500D01*
X31213110Y-7253110D02*
X31611890Y-7651890D01*
X31611890Y-7253110D02*
X31213110Y-7651890D01*
X31412500Y-7253110D02*
X31412500Y-7651890D01*
X31213110Y-7452500D02*
X31611890Y-7452500D01*
X32165610Y-9158110D02*
X32564390Y-9556890D01*
X32564390Y-9158110D02*
X32165610Y-9556890D01*
X32365000Y-9158110D02*
X32365000Y-9556890D01*
X32165610Y-9357500D02*
X32564390Y-9357500D01*
X32165610Y-13793610D02*
X32564390Y-14192390D01*
X32564390Y-13793610D02*
X32165610Y-14192390D01*
X32365000Y-13793610D02*
X32365000Y-14192390D01*
X32165610Y-13993000D02*
X32564390Y-13993000D01*
X32403735Y-14873110D02*
X32802515Y-15271890D01*
X32802515Y-14873110D02*
X32403735Y-15271890D01*
X32603125Y-14873110D02*
X32603125Y-15271890D01*
X32403735Y-15072500D02*
X32802515Y-15072500D01*
X32639985Y-11886110D02*
X33038765Y-12284890D01*
X33038765Y-11886110D02*
X32639985Y-12284890D01*
X32839375Y-11886110D02*
X32839375Y-12284890D01*
X32639985Y-12085500D02*
X33038765Y-12085500D01*
X32641860Y-11063110D02*
X33040640Y-11461890D01*
X33040640Y-11063110D02*
X32641860Y-11461890D01*
X32841250Y-11063110D02*
X32841250Y-11461890D01*
X32641860Y-11262500D02*
X33040640Y-11262500D01*
X32879985Y-8078610D02*
X33278765Y-8477390D01*
X33278765Y-8078610D02*
X32879985Y-8477390D01*
X33079375Y-8078610D02*
X33079375Y-8477390D01*
X32879985Y-8278000D02*
X33278765Y-8278000D01*
X33356235Y-12968110D02*
X33755015Y-13366890D01*
X33755015Y-12968110D02*
X33356235Y-13366890D01*
X33555625Y-12968110D02*
X33555625Y-13366890D01*
X33356235Y-13167500D02*
X33755015Y-13167500D01*
X33830610Y-11060610D02*
X34229390Y-11459390D01*
X34229390Y-11060610D02*
X33830610Y-11459390D01*
X34030000Y-11060610D02*
X34030000Y-11459390D01*
X33830610Y-11260000D02*
X34229390Y-11260000D01*
X33959485Y-8914310D02*
X34358265Y-9313090D01*
X34358265Y-8914310D02*
X33959485Y-9313090D01*
X34158875Y-8914310D02*
X34158875Y-9313090D01*
X33959485Y-9113700D02*
X34358265Y-9113700D01*
X33959485Y-11301910D02*
X34358265Y-11700690D01*
X34358265Y-11301910D02*
X33959485Y-11700690D01*
X34158875Y-11301910D02*
X34158875Y-11700690D01*
X33959485Y-11501300D02*
X34358265Y-11501300D01*
X34070610Y-7253110D02*
X34469390Y-7651890D01*
X34469390Y-7253110D02*
X34070610Y-7651890D01*
X34270000Y-7253110D02*
X34270000Y-7651890D01*
X34070610Y-7452500D02*
X34469390Y-7452500D01*
X34545610Y-9155610D02*
X34944390Y-9554390D01*
X34944390Y-9155610D02*
X34545610Y-9554390D01*
X34745000Y-9155610D02*
X34745000Y-9554390D01*
X34545610Y-9355000D02*
X34944390Y-9355000D01*
X34546860Y-13793610D02*
X34945640Y-14192390D01*
X34945640Y-13793610D02*
X34546860Y-14192390D01*
X34746250Y-13793610D02*
X34746250Y-14192390D01*
X34546860Y-13993000D02*
X34945640Y-13993000D01*
X34784985Y-10108110D02*
X35183765Y-10506890D01*
X35183765Y-10108110D02*
X34784985Y-10506890D01*
X34984375Y-10108110D02*
X34984375Y-10506890D01*
X34784985Y-10307500D02*
X35183765Y-10307500D01*
X34784985Y-14873110D02*
X35183765Y-15271890D01*
X35183765Y-14873110D02*
X34784985Y-15271890D01*
X34984375Y-14873110D02*
X34984375Y-15271890D01*
X34784985Y-15072500D02*
X35183765Y-15072500D01*
X35021235Y-11886110D02*
X35420015Y-12284890D01*
X35420015Y-11886110D02*
X35021235Y-12284890D01*
X35220625Y-11886110D02*
X35220625Y-12284890D01*
X35021235Y-12085500D02*
X35420015Y-12085500D01*
X35261235Y-8078610D02*
X35660015Y-8477390D01*
X35660015Y-8078610D02*
X35261235Y-8477390D01*
X35460625Y-8078610D02*
X35460625Y-8477390D01*
X35261235Y-8278000D02*
X35660015Y-8278000D01*
D12*
X7981428Y-16420714D02*
X7981428Y-16120714D01*
X8052857Y-16120714D01*
X8095714Y-16135000D01*
X8124286Y-16163571D01*
X8138571Y-16192143D01*
X8152857Y-16249286D01*
X8152857Y-16292143D01*
X8138571Y-16349286D01*
X8124286Y-16377857D01*
X8095714Y-16406429D01*
X8052857Y-16420714D01*
X7981428Y-16420714D01*
X8281428Y-16420714D02*
X8281428Y-16220714D01*
X8281428Y-16277857D02*
X8295714Y-16249286D01*
X8310000Y-16235000D01*
X8338571Y-16220714D01*
X8367143Y-16220714D01*
X8467143Y-16420714D02*
X8467143Y-16220714D01*
X8467143Y-16120714D02*
X8452857Y-16135000D01*
X8467143Y-16149286D01*
X8481428Y-16135000D01*
X8467143Y-16120714D01*
X8467143Y-16149286D01*
X8652857Y-16420714D02*
X8624286Y-16406429D01*
X8610000Y-16377857D01*
X8610000Y-16120714D01*
X8810000Y-16420714D02*
X8781428Y-16406429D01*
X8767143Y-16377857D01*
X8767143Y-16120714D01*
X9152857Y-16420714D02*
X9152857Y-16120714D01*
X9252857Y-16335000D01*
X9352857Y-16120714D01*
X9352857Y-16420714D01*
X9624286Y-16420714D02*
X9624286Y-16263571D01*
X9610000Y-16235000D01*
X9581428Y-16220714D01*
X9524286Y-16220714D01*
X9495714Y-16235000D01*
X9624286Y-16406429D02*
X9595714Y-16420714D01*
X9524286Y-16420714D01*
X9495714Y-16406429D01*
X9481428Y-16377857D01*
X9481428Y-16349286D01*
X9495714Y-16320714D01*
X9524286Y-16306429D01*
X9595714Y-16306429D01*
X9624286Y-16292143D01*
X9767143Y-16220714D02*
X9767143Y-16520714D01*
X9767143Y-16235000D02*
X9795714Y-16220714D01*
X9852857Y-16220714D01*
X9881428Y-16235000D01*
X9895714Y-16249286D01*
X9910000Y-16277857D01*
X9910000Y-16363571D01*
X9895714Y-16392143D01*
X9881428Y-16406429D01*
X9852857Y-16420714D01*
X9795714Y-16420714D01*
X9767143Y-16406429D01*
X10038571Y-16392143D02*
X10052857Y-16406429D01*
X10038571Y-16420714D01*
X10024286Y-16406429D01*
X10038571Y-16392143D01*
X10038571Y-16420714D01*
X10038571Y-16235000D02*
X10052857Y-16249286D01*
X10038571Y-16263571D01*
X10024286Y-16249286D01*
X10038571Y-16235000D01*
X10038571Y-16263571D01*
X7630000Y-16882500D02*
X7695000Y-16947500D01*
X7695000Y-16882500D02*
X7630000Y-16947500D01*
X8038571Y-16750714D02*
X8067143Y-16750714D01*
X8095714Y-16765000D01*
X8110000Y-16779286D01*
X8124286Y-16807857D01*
X8138571Y-16865000D01*
X8138571Y-16936429D01*
X8124286Y-16993572D01*
X8110000Y-17022143D01*
X8095714Y-17036429D01*
X8067143Y-17050714D01*
X8038571Y-17050714D01*
X8010000Y-17036429D01*
X7995714Y-17022143D01*
X7981428Y-16993572D01*
X7967143Y-16936429D01*
X7967143Y-16865000D01*
X7981428Y-16807857D01*
X7995714Y-16779286D01*
X8010000Y-16765000D01*
X8038571Y-16750714D01*
X8267143Y-17022143D02*
X8281428Y-17036429D01*
X8267143Y-17050714D01*
X8252857Y-17036429D01*
X8267143Y-17022143D01*
X8267143Y-17050714D01*
X8538571Y-16750714D02*
X8481428Y-16750714D01*
X8452857Y-16765000D01*
X8438571Y-16779286D01*
X8410000Y-16822143D01*
X8395714Y-16879286D01*
X8395714Y-16993572D01*
X8410000Y-17022143D01*
X8424286Y-17036429D01*
X8452857Y-17050714D01*
X8510000Y-17050714D01*
X8538571Y-17036429D01*
X8552857Y-17022143D01*
X8567143Y-16993572D01*
X8567143Y-16922143D01*
X8552857Y-16893572D01*
X8538571Y-16879286D01*
X8510000Y-16865000D01*
X8452857Y-16865000D01*
X8424286Y-16879286D01*
X8410000Y-16893572D01*
X8395714Y-16922143D01*
X8838571Y-16750714D02*
X8695714Y-16750714D01*
X8681428Y-16893572D01*
X8695714Y-16879286D01*
X8724286Y-16865000D01*
X8795714Y-16865000D01*
X8824286Y-16879286D01*
X8838571Y-16893572D01*
X8852857Y-16922143D01*
X8852857Y-16993572D01*
X8838571Y-17022143D01*
X8824286Y-17036429D01*
X8795714Y-17050714D01*
X8724286Y-17050714D01*
X8695714Y-17036429D01*
X8681428Y-17022143D01*
X8981428Y-17050714D02*
X8981428Y-16850714D01*
X8981428Y-16879286D02*
X8995714Y-16865000D01*
X9024286Y-16850714D01*
X9067143Y-16850714D01*
X9095714Y-16865000D01*
X9110000Y-16893572D01*
X9110000Y-17050714D01*
X9110000Y-16893572D02*
X9124286Y-16865000D01*
X9152857Y-16850714D01*
X9195714Y-16850714D01*
X9224286Y-16865000D01*
X9238571Y-16893572D01*
X9238571Y-17050714D01*
X9381428Y-17050714D02*
X9381428Y-16850714D01*
X9381428Y-16879286D02*
X9395714Y-16865000D01*
X9424286Y-16850714D01*
X9467143Y-16850714D01*
X9495714Y-16865000D01*
X9510000Y-16893572D01*
X9510000Y-17050714D01*
X9510000Y-16893572D02*
X9524286Y-16865000D01*
X9552857Y-16850714D01*
X9595714Y-16850714D01*
X9624286Y-16865000D01*
X9638571Y-16893572D01*
X9638571Y-17050714D01*
X10224286Y-16736429D02*
X9967143Y-17122143D01*
X10610000Y-16750714D02*
X10638571Y-16750714D01*
X10667143Y-16765000D01*
X10681428Y-16779286D01*
X10695714Y-16807857D01*
X10710000Y-16865000D01*
X10710000Y-16936429D01*
X10695714Y-16993572D01*
X10681428Y-17022143D01*
X10667143Y-17036429D01*
X10638571Y-17050714D01*
X10610000Y-17050714D01*
X10581428Y-17036429D01*
X10567143Y-17022143D01*
X10552857Y-16993572D01*
X10538571Y-16936429D01*
X10538571Y-16865000D01*
X10552857Y-16807857D01*
X10567143Y-16779286D01*
X10581428Y-16765000D01*
X10610000Y-16750714D01*
X10838571Y-17022143D02*
X10852857Y-17036429D01*
X10838571Y-17050714D01*
X10824286Y-17036429D01*
X10838571Y-17022143D01*
X10838571Y-17050714D01*
X11038571Y-16750714D02*
X11067143Y-16750714D01*
X11095714Y-16765000D01*
X11110000Y-16779286D01*
X11124286Y-16807857D01*
X11138571Y-16865000D01*
X11138571Y-16936429D01*
X11124286Y-16993572D01*
X11110000Y-17022143D01*
X11095714Y-17036429D01*
X11067143Y-17050714D01*
X11038571Y-17050714D01*
X11010000Y-17036429D01*
X10995714Y-17022143D01*
X10981428Y-16993572D01*
X10967143Y-16936429D01*
X10967143Y-16865000D01*
X10981428Y-16807857D01*
X10995714Y-16779286D01*
X11010000Y-16765000D01*
X11038571Y-16750714D01*
X11252857Y-16779286D02*
X11267143Y-16765000D01*
X11295714Y-16750714D01*
X11367143Y-16750714D01*
X11395714Y-16765000D01*
X11410000Y-16779286D01*
X11424286Y-16807857D01*
X11424286Y-16836429D01*
X11410000Y-16879286D01*
X11238571Y-17050714D01*
X11424286Y-17050714D01*
X11681428Y-16750714D02*
X11624286Y-16750714D01*
X11595714Y-16765000D01*
X11581428Y-16779286D01*
X11552857Y-16822143D01*
X11538571Y-16879286D01*
X11538571Y-16993572D01*
X11552857Y-17022143D01*
X11567143Y-17036429D01*
X11595714Y-17050714D01*
X11652857Y-17050714D01*
X11681428Y-17036429D01*
X11695714Y-17022143D01*
X11710000Y-16993572D01*
X11710000Y-16922143D01*
X11695714Y-16893572D01*
X11681428Y-16879286D01*
X11652857Y-16865000D01*
X11595714Y-16865000D01*
X11567143Y-16879286D01*
X11552857Y-16893572D01*
X11538571Y-16922143D01*
X11824286Y-16750714D02*
X11824286Y-16807857D01*
X11938571Y-16750714D02*
X11938571Y-16807857D01*
X12381428Y-17165000D02*
X12367143Y-17150714D01*
X12338571Y-17107857D01*
X12324286Y-17079286D01*
X12310000Y-17036429D01*
X12295714Y-16965000D01*
X12295714Y-16907857D01*
X12310000Y-16836429D01*
X12324286Y-16793572D01*
X12338571Y-16765000D01*
X12367143Y-16722143D01*
X12381428Y-16707857D01*
X12481428Y-16779286D02*
X12495714Y-16765000D01*
X12524286Y-16750714D01*
X12595714Y-16750714D01*
X12624286Y-16765000D01*
X12638571Y-16779286D01*
X12652857Y-16807857D01*
X12652857Y-16836429D01*
X12638571Y-16879286D01*
X12467143Y-17050714D01*
X12652857Y-17050714D01*
X13010000Y-17050714D02*
X13010000Y-16750714D01*
X13138571Y-17050714D02*
X13138571Y-16893572D01*
X13124286Y-16865000D01*
X13095714Y-16850714D01*
X13052857Y-16850714D01*
X13024286Y-16865000D01*
X13010000Y-16879286D01*
X13324286Y-17050714D02*
X13295714Y-17036429D01*
X13281428Y-17022143D01*
X13267143Y-16993572D01*
X13267143Y-16907857D01*
X13281428Y-16879286D01*
X13295714Y-16865000D01*
X13324286Y-16850714D01*
X13367143Y-16850714D01*
X13395714Y-16865000D01*
X13410000Y-16879286D01*
X13424286Y-16907857D01*
X13424286Y-16993572D01*
X13410000Y-17022143D01*
X13395714Y-17036429D01*
X13367143Y-17050714D01*
X13324286Y-17050714D01*
X13595714Y-17050714D02*
X13567143Y-17036429D01*
X13552857Y-17007857D01*
X13552857Y-16750714D01*
X13824286Y-17036429D02*
X13795714Y-17050714D01*
X13738571Y-17050714D01*
X13710000Y-17036429D01*
X13695714Y-17007857D01*
X13695714Y-16893572D01*
X13710000Y-16865000D01*
X13738571Y-16850714D01*
X13795714Y-16850714D01*
X13824286Y-16865000D01*
X13838571Y-16893572D01*
X13838571Y-16922143D01*
X13695714Y-16950714D01*
X13952857Y-17036429D02*
X13981428Y-17050714D01*
X14038571Y-17050714D01*
X14067143Y-17036429D01*
X14081428Y-17007857D01*
X14081428Y-16993572D01*
X14067143Y-16965000D01*
X14038571Y-16950714D01*
X13995714Y-16950714D01*
X13967143Y-16936429D01*
X13952857Y-16907857D01*
X13952857Y-16893572D01*
X13967143Y-16865000D01*
X13995714Y-16850714D01*
X14038571Y-16850714D01*
X14067143Y-16865000D01*
X14181428Y-17165000D02*
X14195714Y-17150714D01*
X14224286Y-17107857D01*
X14238571Y-17079286D01*
X14252857Y-17036429D01*
X14267143Y-16965000D01*
X14267143Y-16907857D01*
X14252857Y-16836429D01*
X14238571Y-16793572D01*
X14224286Y-16765000D01*
X14195714Y-16722143D01*
X14181428Y-16707857D01*
X14724286Y-17165000D02*
X14710000Y-17150714D01*
X14681428Y-17107857D01*
X14667143Y-17079286D01*
X14652857Y-17036429D01*
X14638571Y-16965000D01*
X14638571Y-16907857D01*
X14652857Y-16836429D01*
X14667143Y-16793572D01*
X14681428Y-16765000D01*
X14710000Y-16722143D01*
X14724286Y-16707857D01*
X14838571Y-16850714D02*
X14838571Y-17050714D01*
X14838571Y-16879286D02*
X14852857Y-16865000D01*
X14881428Y-16850714D01*
X14924286Y-16850714D01*
X14952857Y-16865000D01*
X14967143Y-16893572D01*
X14967143Y-17050714D01*
X15152857Y-17050714D02*
X15124286Y-17036429D01*
X15110000Y-17022143D01*
X15095714Y-16993572D01*
X15095714Y-16907857D01*
X15110000Y-16879286D01*
X15124286Y-16865000D01*
X15152857Y-16850714D01*
X15195714Y-16850714D01*
X15224286Y-16865000D01*
X15238571Y-16879286D01*
X15252857Y-16907857D01*
X15252857Y-16993572D01*
X15238571Y-17022143D01*
X15224286Y-17036429D01*
X15195714Y-17050714D01*
X15152857Y-17050714D01*
X15338571Y-16850714D02*
X15452857Y-16850714D01*
X15381428Y-16750714D02*
X15381428Y-17007857D01*
X15395714Y-17036429D01*
X15424286Y-17050714D01*
X15452857Y-17050714D01*
X15781428Y-16850714D02*
X15781428Y-17150714D01*
X15781428Y-16865000D02*
X15810000Y-16850714D01*
X15867143Y-16850714D01*
X15895714Y-16865000D01*
X15910000Y-16879286D01*
X15924286Y-16907857D01*
X15924286Y-16993572D01*
X15910000Y-17022143D01*
X15895714Y-17036429D01*
X15867143Y-17050714D01*
X15810000Y-17050714D01*
X15781428Y-17036429D01*
X16095714Y-17050714D02*
X16067143Y-17036429D01*
X16052857Y-17007857D01*
X16052857Y-16750714D01*
X16338571Y-17050714D02*
X16338571Y-16893572D01*
X16324286Y-16865000D01*
X16295714Y-16850714D01*
X16238571Y-16850714D01*
X16210000Y-16865000D01*
X16338571Y-17036429D02*
X16310000Y-17050714D01*
X16238571Y-17050714D01*
X16210000Y-17036429D01*
X16195714Y-17007857D01*
X16195714Y-16979286D01*
X16210000Y-16950714D01*
X16238571Y-16936429D01*
X16310000Y-16936429D01*
X16338571Y-16922143D01*
X16438571Y-16850714D02*
X16552857Y-16850714D01*
X16481428Y-16750714D02*
X16481428Y-17007857D01*
X16495714Y-17036429D01*
X16524286Y-17050714D01*
X16552857Y-17050714D01*
X16767143Y-17036429D02*
X16738571Y-17050714D01*
X16681428Y-17050714D01*
X16652857Y-17036429D01*
X16638571Y-17007857D01*
X16638571Y-16893572D01*
X16652857Y-16865000D01*
X16681428Y-16850714D01*
X16738571Y-16850714D01*
X16767143Y-16865000D01*
X16781428Y-16893572D01*
X16781428Y-16922143D01*
X16638571Y-16950714D01*
X17038571Y-17050714D02*
X17038571Y-16750714D01*
X17038571Y-17036429D02*
X17010000Y-17050714D01*
X16952857Y-17050714D01*
X16924286Y-17036429D01*
X16910000Y-17022143D01*
X16895714Y-16993572D01*
X16895714Y-16907857D01*
X16910000Y-16879286D01*
X16924286Y-16865000D01*
X16952857Y-16850714D01*
X17010000Y-16850714D01*
X17038571Y-16865000D01*
X17152857Y-17165000D02*
X17167143Y-17150714D01*
X17195714Y-17107857D01*
X17210000Y-17079286D01*
X17224286Y-17036429D01*
X17238571Y-16965000D01*
X17238571Y-16907857D01*
X17224286Y-16836429D01*
X17210000Y-16793572D01*
X17195714Y-16765000D01*
X17167143Y-16722143D01*
X17152857Y-16707857D01*
X7695000Y-17311000D02*
G75*
G03*
X7695000Y-17311000I-75000J0D01*
G01*
X8138571Y-17446714D02*
X7967143Y-17446714D01*
X8052857Y-17446714D02*
X8052857Y-17146714D01*
X8024286Y-17189572D01*
X7995714Y-17218143D01*
X7967143Y-17232429D01*
X8267143Y-17418143D02*
X8281428Y-17432429D01*
X8267143Y-17446714D01*
X8252857Y-17432429D01*
X8267143Y-17418143D01*
X8267143Y-17446714D01*
X8552857Y-17146714D02*
X8410000Y-17146714D01*
X8395714Y-17289572D01*
X8410000Y-17275286D01*
X8438571Y-17261000D01*
X8510000Y-17261000D01*
X8538571Y-17275286D01*
X8552857Y-17289572D01*
X8567143Y-17318143D01*
X8567143Y-17389572D01*
X8552857Y-17418143D01*
X8538571Y-17432429D01*
X8510000Y-17446714D01*
X8438571Y-17446714D01*
X8410000Y-17432429D01*
X8395714Y-17418143D01*
X8752857Y-17146714D02*
X8781428Y-17146714D01*
X8810000Y-17161000D01*
X8824286Y-17175286D01*
X8838571Y-17203857D01*
X8852857Y-17261000D01*
X8852857Y-17332429D01*
X8838571Y-17389572D01*
X8824286Y-17418143D01*
X8810000Y-17432429D01*
X8781428Y-17446714D01*
X8752857Y-17446714D01*
X8724286Y-17432429D01*
X8710000Y-17418143D01*
X8695714Y-17389572D01*
X8681428Y-17332429D01*
X8681428Y-17261000D01*
X8695714Y-17203857D01*
X8710000Y-17175286D01*
X8724286Y-17161000D01*
X8752857Y-17146714D01*
X8981428Y-17446714D02*
X8981428Y-17246714D01*
X8981428Y-17275286D02*
X8995714Y-17261000D01*
X9024286Y-17246714D01*
X9067143Y-17246714D01*
X9095714Y-17261000D01*
X9110000Y-17289572D01*
X9110000Y-17446714D01*
X9110000Y-17289572D02*
X9124286Y-17261000D01*
X9152857Y-17246714D01*
X9195714Y-17246714D01*
X9224286Y-17261000D01*
X9238571Y-17289572D01*
X9238571Y-17446714D01*
X9381428Y-17446714D02*
X9381428Y-17246714D01*
X9381428Y-17275286D02*
X9395714Y-17261000D01*
X9424286Y-17246714D01*
X9467143Y-17246714D01*
X9495714Y-17261000D01*
X9510000Y-17289572D01*
X9510000Y-17446714D01*
X9510000Y-17289572D02*
X9524286Y-17261000D01*
X9552857Y-17246714D01*
X9595714Y-17246714D01*
X9624286Y-17261000D01*
X9638571Y-17289572D01*
X9638571Y-17446714D01*
X10224286Y-17132429D02*
X9967143Y-17518143D01*
X10610000Y-17146714D02*
X10638571Y-17146714D01*
X10667143Y-17161000D01*
X10681428Y-17175286D01*
X10695714Y-17203857D01*
X10710000Y-17261000D01*
X10710000Y-17332429D01*
X10695714Y-17389572D01*
X10681428Y-17418143D01*
X10667143Y-17432429D01*
X10638571Y-17446714D01*
X10610000Y-17446714D01*
X10581428Y-17432429D01*
X10567143Y-17418143D01*
X10552857Y-17389572D01*
X10538571Y-17332429D01*
X10538571Y-17261000D01*
X10552857Y-17203857D01*
X10567143Y-17175286D01*
X10581428Y-17161000D01*
X10610000Y-17146714D01*
X10838571Y-17418143D02*
X10852857Y-17432429D01*
X10838571Y-17446714D01*
X10824286Y-17432429D01*
X10838571Y-17418143D01*
X10838571Y-17446714D01*
X11038571Y-17146714D02*
X11067143Y-17146714D01*
X11095714Y-17161000D01*
X11110000Y-17175286D01*
X11124286Y-17203857D01*
X11138571Y-17261000D01*
X11138571Y-17332429D01*
X11124286Y-17389572D01*
X11110000Y-17418143D01*
X11095714Y-17432429D01*
X11067143Y-17446714D01*
X11038571Y-17446714D01*
X11010000Y-17432429D01*
X10995714Y-17418143D01*
X10981428Y-17389572D01*
X10967143Y-17332429D01*
X10967143Y-17261000D01*
X10981428Y-17203857D01*
X10995714Y-17175286D01*
X11010000Y-17161000D01*
X11038571Y-17146714D01*
X11410000Y-17146714D02*
X11267143Y-17146714D01*
X11252857Y-17289572D01*
X11267143Y-17275286D01*
X11295714Y-17261000D01*
X11367143Y-17261000D01*
X11395714Y-17275286D01*
X11410000Y-17289572D01*
X11424286Y-17318143D01*
X11424286Y-17389572D01*
X11410000Y-17418143D01*
X11395714Y-17432429D01*
X11367143Y-17446714D01*
X11295714Y-17446714D01*
X11267143Y-17432429D01*
X11252857Y-17418143D01*
X11567143Y-17446714D02*
X11624286Y-17446714D01*
X11652857Y-17432429D01*
X11667143Y-17418143D01*
X11695714Y-17375286D01*
X11710000Y-17318143D01*
X11710000Y-17203857D01*
X11695714Y-17175286D01*
X11681428Y-17161000D01*
X11652857Y-17146714D01*
X11595714Y-17146714D01*
X11567143Y-17161000D01*
X11552857Y-17175286D01*
X11538571Y-17203857D01*
X11538571Y-17275286D01*
X11552857Y-17303857D01*
X11567143Y-17318143D01*
X11595714Y-17332429D01*
X11652857Y-17332429D01*
X11681428Y-17318143D01*
X11695714Y-17303857D01*
X11710000Y-17275286D01*
X11824286Y-17146714D02*
X11824286Y-17203857D01*
X11938571Y-17146714D02*
X11938571Y-17203857D01*
X12381428Y-17561000D02*
X12367143Y-17546714D01*
X12338571Y-17503857D01*
X12324286Y-17475286D01*
X12310000Y-17432429D01*
X12295714Y-17361000D01*
X12295714Y-17303857D01*
X12310000Y-17232429D01*
X12324286Y-17189572D01*
X12338571Y-17161000D01*
X12367143Y-17118143D01*
X12381428Y-17103857D01*
X12481428Y-17175286D02*
X12495714Y-17161000D01*
X12524286Y-17146714D01*
X12595714Y-17146714D01*
X12624286Y-17161000D01*
X12638571Y-17175286D01*
X12652857Y-17203857D01*
X12652857Y-17232429D01*
X12638571Y-17275286D01*
X12467143Y-17446714D01*
X12652857Y-17446714D01*
X13010000Y-17446714D02*
X13010000Y-17146714D01*
X13138571Y-17446714D02*
X13138571Y-17289572D01*
X13124286Y-17261000D01*
X13095714Y-17246714D01*
X13052857Y-17246714D01*
X13024286Y-17261000D01*
X13010000Y-17275286D01*
X13324286Y-17446714D02*
X13295714Y-17432429D01*
X13281428Y-17418143D01*
X13267143Y-17389572D01*
X13267143Y-17303857D01*
X13281428Y-17275286D01*
X13295714Y-17261000D01*
X13324286Y-17246714D01*
X13367143Y-17246714D01*
X13395714Y-17261000D01*
X13410000Y-17275286D01*
X13424286Y-17303857D01*
X13424286Y-17389572D01*
X13410000Y-17418143D01*
X13395714Y-17432429D01*
X13367143Y-17446714D01*
X13324286Y-17446714D01*
X13595714Y-17446714D02*
X13567143Y-17432429D01*
X13552857Y-17403857D01*
X13552857Y-17146714D01*
X13824286Y-17432429D02*
X13795714Y-17446714D01*
X13738571Y-17446714D01*
X13710000Y-17432429D01*
X13695714Y-17403857D01*
X13695714Y-17289572D01*
X13710000Y-17261000D01*
X13738571Y-17246714D01*
X13795714Y-17246714D01*
X13824286Y-17261000D01*
X13838571Y-17289572D01*
X13838571Y-17318143D01*
X13695714Y-17346714D01*
X13952857Y-17432429D02*
X13981428Y-17446714D01*
X14038571Y-17446714D01*
X14067143Y-17432429D01*
X14081428Y-17403857D01*
X14081428Y-17389572D01*
X14067143Y-17361000D01*
X14038571Y-17346714D01*
X13995714Y-17346714D01*
X13967143Y-17332429D01*
X13952857Y-17303857D01*
X13952857Y-17289572D01*
X13967143Y-17261000D01*
X13995714Y-17246714D01*
X14038571Y-17246714D01*
X14067143Y-17261000D01*
X14181428Y-17561000D02*
X14195714Y-17546714D01*
X14224286Y-17503857D01*
X14238571Y-17475286D01*
X14252857Y-17432429D01*
X14267143Y-17361000D01*
X14267143Y-17303857D01*
X14252857Y-17232429D01*
X14238571Y-17189572D01*
X14224286Y-17161000D01*
X14195714Y-17118143D01*
X14181428Y-17103857D01*
X14724286Y-17561000D02*
X14710000Y-17546714D01*
X14681428Y-17503857D01*
X14667143Y-17475286D01*
X14652857Y-17432429D01*
X14638571Y-17361000D01*
X14638571Y-17303857D01*
X14652857Y-17232429D01*
X14667143Y-17189572D01*
X14681428Y-17161000D01*
X14710000Y-17118143D01*
X14724286Y-17103857D01*
X14838571Y-17246714D02*
X14838571Y-17446714D01*
X14838571Y-17275286D02*
X14852857Y-17261000D01*
X14881428Y-17246714D01*
X14924286Y-17246714D01*
X14952857Y-17261000D01*
X14967143Y-17289572D01*
X14967143Y-17446714D01*
X15152857Y-17446714D02*
X15124286Y-17432429D01*
X15110000Y-17418143D01*
X15095714Y-17389572D01*
X15095714Y-17303857D01*
X15110000Y-17275286D01*
X15124286Y-17261000D01*
X15152857Y-17246714D01*
X15195714Y-17246714D01*
X15224286Y-17261000D01*
X15238571Y-17275286D01*
X15252857Y-17303857D01*
X15252857Y-17389572D01*
X15238571Y-17418143D01*
X15224286Y-17432429D01*
X15195714Y-17446714D01*
X15152857Y-17446714D01*
X15338571Y-17246714D02*
X15452857Y-17246714D01*
X15381428Y-17146714D02*
X15381428Y-17403857D01*
X15395714Y-17432429D01*
X15424286Y-17446714D01*
X15452857Y-17446714D01*
X15781428Y-17246714D02*
X15781428Y-17546714D01*
X15781428Y-17261000D02*
X15810000Y-17246714D01*
X15867143Y-17246714D01*
X15895714Y-17261000D01*
X15910000Y-17275286D01*
X15924286Y-17303857D01*
X15924286Y-17389572D01*
X15910000Y-17418143D01*
X15895714Y-17432429D01*
X15867143Y-17446714D01*
X15810000Y-17446714D01*
X15781428Y-17432429D01*
X16095714Y-17446714D02*
X16067143Y-17432429D01*
X16052857Y-17403857D01*
X16052857Y-17146714D01*
X16338571Y-17446714D02*
X16338571Y-17289572D01*
X16324286Y-17261000D01*
X16295714Y-17246714D01*
X16238571Y-17246714D01*
X16210000Y-17261000D01*
X16338571Y-17432429D02*
X16310000Y-17446714D01*
X16238571Y-17446714D01*
X16210000Y-17432429D01*
X16195714Y-17403857D01*
X16195714Y-17375286D01*
X16210000Y-17346714D01*
X16238571Y-17332429D01*
X16310000Y-17332429D01*
X16338571Y-17318143D01*
X16438571Y-17246714D02*
X16552857Y-17246714D01*
X16481428Y-17146714D02*
X16481428Y-17403857D01*
X16495714Y-17432429D01*
X16524286Y-17446714D01*
X16552857Y-17446714D01*
X16767143Y-17432429D02*
X16738571Y-17446714D01*
X16681428Y-17446714D01*
X16652857Y-17432429D01*
X16638571Y-17403857D01*
X16638571Y-17289572D01*
X16652857Y-17261000D01*
X16681428Y-17246714D01*
X16738571Y-17246714D01*
X16767143Y-17261000D01*
X16781428Y-17289572D01*
X16781428Y-17318143D01*
X16638571Y-17346714D01*
X17038571Y-17446714D02*
X17038571Y-17146714D01*
X17038571Y-17432429D02*
X17010000Y-17446714D01*
X16952857Y-17446714D01*
X16924286Y-17432429D01*
X16910000Y-17418143D01*
X16895714Y-17389572D01*
X16895714Y-17303857D01*
X16910000Y-17275286D01*
X16924286Y-17261000D01*
X16952857Y-17246714D01*
X17010000Y-17246714D01*
X17038571Y-17261000D01*
X17152857Y-17561000D02*
X17167143Y-17546714D01*
X17195714Y-17503857D01*
X17210000Y-17475286D01*
X17224286Y-17432429D01*
X17238571Y-17361000D01*
X17238571Y-17303857D01*
X17224286Y-17232429D01*
X17210000Y-17189572D01*
X17195714Y-17161000D01*
X17167143Y-17118143D01*
X17152857Y-17103857D01*
X7607500Y-17619500D02*
X7607500Y-17794500D01*
X7520000Y-17707000D02*
X7695000Y-17707000D01*
X8138571Y-17842714D02*
X7967143Y-17842714D01*
X8052857Y-17842714D02*
X8052857Y-17542714D01*
X8024286Y-17585572D01*
X7995714Y-17614143D01*
X7967143Y-17628429D01*
X8267143Y-17814143D02*
X8281428Y-17828429D01*
X8267143Y-17842714D01*
X8252857Y-17828429D01*
X8267143Y-17814143D01*
X8267143Y-17842714D01*
X8381428Y-17542714D02*
X8581428Y-17542714D01*
X8452857Y-17842714D01*
X8838571Y-17542714D02*
X8695714Y-17542714D01*
X8681428Y-17685572D01*
X8695714Y-17671286D01*
X8724286Y-17657000D01*
X8795714Y-17657000D01*
X8824286Y-17671286D01*
X8838571Y-17685572D01*
X8852857Y-17714143D01*
X8852857Y-17785572D01*
X8838571Y-17814143D01*
X8824286Y-17828429D01*
X8795714Y-17842714D01*
X8724286Y-17842714D01*
X8695714Y-17828429D01*
X8681428Y-17814143D01*
X8981428Y-17842714D02*
X8981428Y-17642714D01*
X8981428Y-17671286D02*
X8995714Y-17657000D01*
X9024286Y-17642714D01*
X9067143Y-17642714D01*
X9095714Y-17657000D01*
X9110000Y-17685572D01*
X9110000Y-17842714D01*
X9110000Y-17685572D02*
X9124286Y-17657000D01*
X9152857Y-17642714D01*
X9195714Y-17642714D01*
X9224286Y-17657000D01*
X9238571Y-17685572D01*
X9238571Y-17842714D01*
X9381428Y-17842714D02*
X9381428Y-17642714D01*
X9381428Y-17671286D02*
X9395714Y-17657000D01*
X9424286Y-17642714D01*
X9467143Y-17642714D01*
X9495714Y-17657000D01*
X9510000Y-17685572D01*
X9510000Y-17842714D01*
X9510000Y-17685572D02*
X9524286Y-17657000D01*
X9552857Y-17642714D01*
X9595714Y-17642714D01*
X9624286Y-17657000D01*
X9638571Y-17685572D01*
X9638571Y-17842714D01*
X10224286Y-17528429D02*
X9967143Y-17914143D01*
X10610000Y-17542714D02*
X10638571Y-17542714D01*
X10667143Y-17557000D01*
X10681428Y-17571286D01*
X10695714Y-17599857D01*
X10710000Y-17657000D01*
X10710000Y-17728429D01*
X10695714Y-17785572D01*
X10681428Y-17814143D01*
X10667143Y-17828429D01*
X10638571Y-17842714D01*
X10610000Y-17842714D01*
X10581428Y-17828429D01*
X10567143Y-17814143D01*
X10552857Y-17785572D01*
X10538571Y-17728429D01*
X10538571Y-17657000D01*
X10552857Y-17599857D01*
X10567143Y-17571286D01*
X10581428Y-17557000D01*
X10610000Y-17542714D01*
X10838571Y-17814143D02*
X10852857Y-17828429D01*
X10838571Y-17842714D01*
X10824286Y-17828429D01*
X10838571Y-17814143D01*
X10838571Y-17842714D01*
X11038571Y-17542714D02*
X11067143Y-17542714D01*
X11095714Y-17557000D01*
X11110000Y-17571286D01*
X11124286Y-17599857D01*
X11138571Y-17657000D01*
X11138571Y-17728429D01*
X11124286Y-17785572D01*
X11110000Y-17814143D01*
X11095714Y-17828429D01*
X11067143Y-17842714D01*
X11038571Y-17842714D01*
X11010000Y-17828429D01*
X10995714Y-17814143D01*
X10981428Y-17785572D01*
X10967143Y-17728429D01*
X10967143Y-17657000D01*
X10981428Y-17599857D01*
X10995714Y-17571286D01*
X11010000Y-17557000D01*
X11038571Y-17542714D01*
X11395714Y-17542714D02*
X11338571Y-17542714D01*
X11310000Y-17557000D01*
X11295714Y-17571286D01*
X11267143Y-17614143D01*
X11252857Y-17671286D01*
X11252857Y-17785572D01*
X11267143Y-17814143D01*
X11281428Y-17828429D01*
X11310000Y-17842714D01*
X11367143Y-17842714D01*
X11395714Y-17828429D01*
X11410000Y-17814143D01*
X11424286Y-17785572D01*
X11424286Y-17714143D01*
X11410000Y-17685572D01*
X11395714Y-17671286D01*
X11367143Y-17657000D01*
X11310000Y-17657000D01*
X11281428Y-17671286D01*
X11267143Y-17685572D01*
X11252857Y-17714143D01*
X11567143Y-17842714D02*
X11624286Y-17842714D01*
X11652857Y-17828429D01*
X11667143Y-17814143D01*
X11695714Y-17771286D01*
X11710000Y-17714143D01*
X11710000Y-17599857D01*
X11695714Y-17571286D01*
X11681428Y-17557000D01*
X11652857Y-17542714D01*
X11595714Y-17542714D01*
X11567143Y-17557000D01*
X11552857Y-17571286D01*
X11538571Y-17599857D01*
X11538571Y-17671286D01*
X11552857Y-17699857D01*
X11567143Y-17714143D01*
X11595714Y-17728429D01*
X11652857Y-17728429D01*
X11681428Y-17714143D01*
X11695714Y-17699857D01*
X11710000Y-17671286D01*
X11824286Y-17542714D02*
X11824286Y-17599857D01*
X11938571Y-17542714D02*
X11938571Y-17599857D01*
X12381428Y-17957000D02*
X12367143Y-17942714D01*
X12338571Y-17899857D01*
X12324286Y-17871286D01*
X12310000Y-17828429D01*
X12295714Y-17757000D01*
X12295714Y-17699857D01*
X12310000Y-17628429D01*
X12324286Y-17585572D01*
X12338571Y-17557000D01*
X12367143Y-17514143D01*
X12381428Y-17499857D01*
X12652857Y-17842714D02*
X12481428Y-17842714D01*
X12567143Y-17842714D02*
X12567143Y-17542714D01*
X12538571Y-17585572D01*
X12510000Y-17614143D01*
X12481428Y-17628429D01*
X12752857Y-17542714D02*
X12938571Y-17542714D01*
X12838571Y-17657000D01*
X12881428Y-17657000D01*
X12910000Y-17671286D01*
X12924286Y-17685572D01*
X12938571Y-17714143D01*
X12938571Y-17785572D01*
X12924286Y-17814143D01*
X12910000Y-17828429D01*
X12881428Y-17842714D01*
X12795714Y-17842714D01*
X12767143Y-17828429D01*
X12752857Y-17814143D01*
X13124286Y-17542714D02*
X13152857Y-17542714D01*
X13181428Y-17557000D01*
X13195714Y-17571286D01*
X13210000Y-17599857D01*
X13224286Y-17657000D01*
X13224286Y-17728429D01*
X13210000Y-17785572D01*
X13195714Y-17814143D01*
X13181428Y-17828429D01*
X13152857Y-17842714D01*
X13124286Y-17842714D01*
X13095714Y-17828429D01*
X13081428Y-17814143D01*
X13067143Y-17785572D01*
X13052857Y-17728429D01*
X13052857Y-17657000D01*
X13067143Y-17599857D01*
X13081428Y-17571286D01*
X13095714Y-17557000D01*
X13124286Y-17542714D01*
X13581428Y-17842714D02*
X13581428Y-17542714D01*
X13710000Y-17842714D02*
X13710000Y-17685572D01*
X13695714Y-17657000D01*
X13667143Y-17642714D01*
X13624286Y-17642714D01*
X13595714Y-17657000D01*
X13581428Y-17671286D01*
X13895714Y-17842714D02*
X13867143Y-17828429D01*
X13852857Y-17814143D01*
X13838571Y-17785572D01*
X13838571Y-17699857D01*
X13852857Y-17671286D01*
X13867143Y-17657000D01*
X13895714Y-17642714D01*
X13938571Y-17642714D01*
X13967143Y-17657000D01*
X13981428Y-17671286D01*
X13995714Y-17699857D01*
X13995714Y-17785572D01*
X13981428Y-17814143D01*
X13967143Y-17828429D01*
X13938571Y-17842714D01*
X13895714Y-17842714D01*
X14167143Y-17842714D02*
X14138571Y-17828429D01*
X14124286Y-17799857D01*
X14124286Y-17542714D01*
X14395714Y-17828429D02*
X14367143Y-17842714D01*
X14310000Y-17842714D01*
X14281428Y-17828429D01*
X14267143Y-17799857D01*
X14267143Y-17685572D01*
X14281428Y-17657000D01*
X14310000Y-17642714D01*
X14367143Y-17642714D01*
X14395714Y-17657000D01*
X14410000Y-17685572D01*
X14410000Y-17714143D01*
X14267143Y-17742714D01*
X14524286Y-17828429D02*
X14552857Y-17842714D01*
X14610000Y-17842714D01*
X14638571Y-17828429D01*
X14652857Y-17799857D01*
X14652857Y-17785572D01*
X14638571Y-17757000D01*
X14610000Y-17742714D01*
X14567143Y-17742714D01*
X14538571Y-17728429D01*
X14524286Y-17699857D01*
X14524286Y-17685572D01*
X14538571Y-17657000D01*
X14567143Y-17642714D01*
X14610000Y-17642714D01*
X14638571Y-17657000D01*
X14752857Y-17957000D02*
X14767143Y-17942714D01*
X14795714Y-17899857D01*
X14810000Y-17871286D01*
X14824286Y-17828429D01*
X14838571Y-17757000D01*
X14838571Y-17699857D01*
X14824286Y-17628429D01*
X14810000Y-17585572D01*
X14795714Y-17557000D01*
X14767143Y-17514143D01*
X14752857Y-17499857D01*
X15295714Y-17957000D02*
X15281428Y-17942714D01*
X15252857Y-17899857D01*
X15238571Y-17871286D01*
X15224286Y-17828429D01*
X15210000Y-17757000D01*
X15210000Y-17699857D01*
X15224286Y-17628429D01*
X15238571Y-17585572D01*
X15252857Y-17557000D01*
X15281428Y-17514143D01*
X15295714Y-17499857D01*
X15410000Y-17642714D02*
X15410000Y-17842714D01*
X15410000Y-17671286D02*
X15424286Y-17657000D01*
X15452857Y-17642714D01*
X15495714Y-17642714D01*
X15524286Y-17657000D01*
X15538571Y-17685572D01*
X15538571Y-17842714D01*
X15724286Y-17842714D02*
X15695714Y-17828429D01*
X15681428Y-17814143D01*
X15667143Y-17785572D01*
X15667143Y-17699857D01*
X15681428Y-17671286D01*
X15695714Y-17657000D01*
X15724286Y-17642714D01*
X15767143Y-17642714D01*
X15795714Y-17657000D01*
X15810000Y-17671286D01*
X15824286Y-17699857D01*
X15824286Y-17785572D01*
X15810000Y-17814143D01*
X15795714Y-17828429D01*
X15767143Y-17842714D01*
X15724286Y-17842714D01*
X15910000Y-17642714D02*
X16024286Y-17642714D01*
X15952857Y-17542714D02*
X15952857Y-17799857D01*
X15967143Y-17828429D01*
X15995714Y-17842714D01*
X16024286Y-17842714D01*
X16352857Y-17642714D02*
X16352857Y-17942714D01*
X16352857Y-17657000D02*
X16381428Y-17642714D01*
X16438571Y-17642714D01*
X16467143Y-17657000D01*
X16481428Y-17671286D01*
X16495714Y-17699857D01*
X16495714Y-17785572D01*
X16481428Y-17814143D01*
X16467143Y-17828429D01*
X16438571Y-17842714D01*
X16381428Y-17842714D01*
X16352857Y-17828429D01*
X16667143Y-17842714D02*
X16638571Y-17828429D01*
X16624286Y-17799857D01*
X16624286Y-17542714D01*
X16910000Y-17842714D02*
X16910000Y-17685572D01*
X16895714Y-17657000D01*
X16867143Y-17642714D01*
X16810000Y-17642714D01*
X16781428Y-17657000D01*
X16910000Y-17828429D02*
X16881428Y-17842714D01*
X16810000Y-17842714D01*
X16781428Y-17828429D01*
X16767143Y-17799857D01*
X16767143Y-17771286D01*
X16781428Y-17742714D01*
X16810000Y-17728429D01*
X16881428Y-17728429D01*
X16910000Y-17714143D01*
X17010000Y-17642714D02*
X17124286Y-17642714D01*
X17052857Y-17542714D02*
X17052857Y-17799857D01*
X17067143Y-17828429D01*
X17095714Y-17842714D01*
X17124286Y-17842714D01*
X17338571Y-17828429D02*
X17310000Y-17842714D01*
X17252857Y-17842714D01*
X17224286Y-17828429D01*
X17210000Y-17799857D01*
X17210000Y-17685572D01*
X17224286Y-17657000D01*
X17252857Y-17642714D01*
X17310000Y-17642714D01*
X17338571Y-17657000D01*
X17352857Y-17685572D01*
X17352857Y-17714143D01*
X17210000Y-17742714D01*
X17610000Y-17842714D02*
X17610000Y-17542714D01*
X17610000Y-17828429D02*
X17581428Y-17842714D01*
X17524286Y-17842714D01*
X17495714Y-17828429D01*
X17481428Y-17814143D01*
X17467143Y-17785572D01*
X17467143Y-17699857D01*
X17481428Y-17671286D01*
X17495714Y-17657000D01*
X17524286Y-17642714D01*
X17581428Y-17642714D01*
X17610000Y-17657000D01*
X17724286Y-17957000D02*
X17738571Y-17942714D01*
X17767143Y-17899857D01*
X17781428Y-17871286D01*
X17795714Y-17828429D01*
X17810000Y-17757000D01*
X17810000Y-17699857D01*
X17795714Y-17628429D01*
X17781428Y-17585572D01*
X17767143Y-17557000D01*
X17738571Y-17514143D01*
X17724286Y-17499857D01*
X7668640Y-18166640D02*
X7668640Y-18039360D01*
X7541360Y-18039360D01*
X7541360Y-18166640D01*
X7668640Y-18166640D01*
X8138571Y-18238714D02*
X7967143Y-18238714D01*
X8052857Y-18238714D02*
X8052857Y-17938714D01*
X8024286Y-17981572D01*
X7995714Y-18010143D01*
X7967143Y-18024429D01*
X8267143Y-18210143D02*
X8281428Y-18224429D01*
X8267143Y-18238714D01*
X8252857Y-18224429D01*
X8267143Y-18210143D01*
X8267143Y-18238714D01*
X8452857Y-18067286D02*
X8424286Y-18053000D01*
X8410000Y-18038714D01*
X8395714Y-18010143D01*
X8395714Y-17995857D01*
X8410000Y-17967286D01*
X8424286Y-17953000D01*
X8452857Y-17938714D01*
X8510000Y-17938714D01*
X8538571Y-17953000D01*
X8552857Y-17967286D01*
X8567143Y-17995857D01*
X8567143Y-18010143D01*
X8552857Y-18038714D01*
X8538571Y-18053000D01*
X8510000Y-18067286D01*
X8452857Y-18067286D01*
X8424286Y-18081572D01*
X8410000Y-18095857D01*
X8395714Y-18124429D01*
X8395714Y-18181572D01*
X8410000Y-18210143D01*
X8424286Y-18224429D01*
X8452857Y-18238714D01*
X8510000Y-18238714D01*
X8538571Y-18224429D01*
X8552857Y-18210143D01*
X8567143Y-18181572D01*
X8567143Y-18124429D01*
X8552857Y-18095857D01*
X8538571Y-18081572D01*
X8510000Y-18067286D01*
X8752857Y-17938714D02*
X8781428Y-17938714D01*
X8810000Y-17953000D01*
X8824286Y-17967286D01*
X8838571Y-17995857D01*
X8852857Y-18053000D01*
X8852857Y-18124429D01*
X8838571Y-18181572D01*
X8824286Y-18210143D01*
X8810000Y-18224429D01*
X8781428Y-18238714D01*
X8752857Y-18238714D01*
X8724286Y-18224429D01*
X8710000Y-18210143D01*
X8695714Y-18181572D01*
X8681428Y-18124429D01*
X8681428Y-18053000D01*
X8695714Y-17995857D01*
X8710000Y-17967286D01*
X8724286Y-17953000D01*
X8752857Y-17938714D01*
X8981428Y-18238714D02*
X8981428Y-18038714D01*
X8981428Y-18067286D02*
X8995714Y-18053000D01*
X9024286Y-18038714D01*
X9067143Y-18038714D01*
X9095714Y-18053000D01*
X9110000Y-18081572D01*
X9110000Y-18238714D01*
X9110000Y-18081572D02*
X9124286Y-18053000D01*
X9152857Y-18038714D01*
X9195714Y-18038714D01*
X9224286Y-18053000D01*
X9238571Y-18081572D01*
X9238571Y-18238714D01*
X9381428Y-18238714D02*
X9381428Y-18038714D01*
X9381428Y-18067286D02*
X9395714Y-18053000D01*
X9424286Y-18038714D01*
X9467143Y-18038714D01*
X9495714Y-18053000D01*
X9510000Y-18081572D01*
X9510000Y-18238714D01*
X9510000Y-18081572D02*
X9524286Y-18053000D01*
X9552857Y-18038714D01*
X9595714Y-18038714D01*
X9624286Y-18053000D01*
X9638571Y-18081572D01*
X9638571Y-18238714D01*
X10224286Y-17924429D02*
X9967143Y-18310143D01*
X10610000Y-17938714D02*
X10638571Y-17938714D01*
X10667143Y-17953000D01*
X10681428Y-17967286D01*
X10695714Y-17995857D01*
X10710000Y-18053000D01*
X10710000Y-18124429D01*
X10695714Y-18181572D01*
X10681428Y-18210143D01*
X10667143Y-18224429D01*
X10638571Y-18238714D01*
X10610000Y-18238714D01*
X10581428Y-18224429D01*
X10567143Y-18210143D01*
X10552857Y-18181572D01*
X10538571Y-18124429D01*
X10538571Y-18053000D01*
X10552857Y-17995857D01*
X10567143Y-17967286D01*
X10581428Y-17953000D01*
X10610000Y-17938714D01*
X10838571Y-18210143D02*
X10852857Y-18224429D01*
X10838571Y-18238714D01*
X10824286Y-18224429D01*
X10838571Y-18210143D01*
X10838571Y-18238714D01*
X11038571Y-17938714D02*
X11067143Y-17938714D01*
X11095714Y-17953000D01*
X11110000Y-17967286D01*
X11124286Y-17995857D01*
X11138571Y-18053000D01*
X11138571Y-18124429D01*
X11124286Y-18181572D01*
X11110000Y-18210143D01*
X11095714Y-18224429D01*
X11067143Y-18238714D01*
X11038571Y-18238714D01*
X11010000Y-18224429D01*
X10995714Y-18210143D01*
X10981428Y-18181572D01*
X10967143Y-18124429D01*
X10967143Y-18053000D01*
X10981428Y-17995857D01*
X10995714Y-17967286D01*
X11010000Y-17953000D01*
X11038571Y-17938714D01*
X11238571Y-17938714D02*
X11438571Y-17938714D01*
X11310000Y-18238714D01*
X11710000Y-18238714D02*
X11538571Y-18238714D01*
X11624286Y-18238714D02*
X11624286Y-17938714D01*
X11595714Y-17981572D01*
X11567143Y-18010143D01*
X11538571Y-18024429D01*
X11824286Y-17938714D02*
X11824286Y-17995857D01*
X11938571Y-17938714D02*
X11938571Y-17995857D01*
X12381428Y-18353000D02*
X12367143Y-18338714D01*
X12338571Y-18295857D01*
X12324286Y-18267286D01*
X12310000Y-18224429D01*
X12295714Y-18153000D01*
X12295714Y-18095857D01*
X12310000Y-18024429D01*
X12324286Y-17981572D01*
X12338571Y-17953000D01*
X12367143Y-17910143D01*
X12381428Y-17895857D01*
X12481428Y-17967286D02*
X12495714Y-17953000D01*
X12524286Y-17938714D01*
X12595714Y-17938714D01*
X12624286Y-17953000D01*
X12638571Y-17967286D01*
X12652857Y-17995857D01*
X12652857Y-18024429D01*
X12638571Y-18067286D01*
X12467143Y-18238714D01*
X12652857Y-18238714D01*
X13010000Y-18238714D02*
X13010000Y-17938714D01*
X13138571Y-18238714D02*
X13138571Y-18081572D01*
X13124286Y-18053000D01*
X13095714Y-18038714D01*
X13052857Y-18038714D01*
X13024286Y-18053000D01*
X13010000Y-18067286D01*
X13324286Y-18238714D02*
X13295714Y-18224429D01*
X13281428Y-18210143D01*
X13267143Y-18181572D01*
X13267143Y-18095857D01*
X13281428Y-18067286D01*
X13295714Y-18053000D01*
X13324286Y-18038714D01*
X13367143Y-18038714D01*
X13395714Y-18053000D01*
X13410000Y-18067286D01*
X13424286Y-18095857D01*
X13424286Y-18181572D01*
X13410000Y-18210143D01*
X13395714Y-18224429D01*
X13367143Y-18238714D01*
X13324286Y-18238714D01*
X13595714Y-18238714D02*
X13567143Y-18224429D01*
X13552857Y-18195857D01*
X13552857Y-17938714D01*
X13824286Y-18224429D02*
X13795714Y-18238714D01*
X13738571Y-18238714D01*
X13710000Y-18224429D01*
X13695714Y-18195857D01*
X13695714Y-18081572D01*
X13710000Y-18053000D01*
X13738571Y-18038714D01*
X13795714Y-18038714D01*
X13824286Y-18053000D01*
X13838571Y-18081572D01*
X13838571Y-18110143D01*
X13695714Y-18138714D01*
X13952857Y-18224429D02*
X13981428Y-18238714D01*
X14038571Y-18238714D01*
X14067143Y-18224429D01*
X14081428Y-18195857D01*
X14081428Y-18181572D01*
X14067143Y-18153000D01*
X14038571Y-18138714D01*
X13995714Y-18138714D01*
X13967143Y-18124429D01*
X13952857Y-18095857D01*
X13952857Y-18081572D01*
X13967143Y-18053000D01*
X13995714Y-18038714D01*
X14038571Y-18038714D01*
X14067143Y-18053000D01*
X14181428Y-18353000D02*
X14195714Y-18338714D01*
X14224286Y-18295857D01*
X14238571Y-18267286D01*
X14252857Y-18224429D01*
X14267143Y-18153000D01*
X14267143Y-18095857D01*
X14252857Y-18024429D01*
X14238571Y-17981572D01*
X14224286Y-17953000D01*
X14195714Y-17910143D01*
X14181428Y-17895857D01*
X14724286Y-18353000D02*
X14710000Y-18338714D01*
X14681428Y-18295857D01*
X14667143Y-18267286D01*
X14652857Y-18224429D01*
X14638571Y-18153000D01*
X14638571Y-18095857D01*
X14652857Y-18024429D01*
X14667143Y-17981572D01*
X14681428Y-17953000D01*
X14710000Y-17910143D01*
X14724286Y-17895857D01*
X14838571Y-18038714D02*
X14838571Y-18238714D01*
X14838571Y-18067286D02*
X14852857Y-18053000D01*
X14881428Y-18038714D01*
X14924286Y-18038714D01*
X14952857Y-18053000D01*
X14967143Y-18081572D01*
X14967143Y-18238714D01*
X15152857Y-18238714D02*
X15124286Y-18224429D01*
X15110000Y-18210143D01*
X15095714Y-18181572D01*
X15095714Y-18095857D01*
X15110000Y-18067286D01*
X15124286Y-18053000D01*
X15152857Y-18038714D01*
X15195714Y-18038714D01*
X15224286Y-18053000D01*
X15238571Y-18067286D01*
X15252857Y-18095857D01*
X15252857Y-18181572D01*
X15238571Y-18210143D01*
X15224286Y-18224429D01*
X15195714Y-18238714D01*
X15152857Y-18238714D01*
X15338571Y-18038714D02*
X15452857Y-18038714D01*
X15381428Y-17938714D02*
X15381428Y-18195857D01*
X15395714Y-18224429D01*
X15424286Y-18238714D01*
X15452857Y-18238714D01*
X15781428Y-18038714D02*
X15781428Y-18338714D01*
X15781428Y-18053000D02*
X15810000Y-18038714D01*
X15867143Y-18038714D01*
X15895714Y-18053000D01*
X15910000Y-18067286D01*
X15924286Y-18095857D01*
X15924286Y-18181572D01*
X15910000Y-18210143D01*
X15895714Y-18224429D01*
X15867143Y-18238714D01*
X15810000Y-18238714D01*
X15781428Y-18224429D01*
X16095714Y-18238714D02*
X16067143Y-18224429D01*
X16052857Y-18195857D01*
X16052857Y-17938714D01*
X16338571Y-18238714D02*
X16338571Y-18081572D01*
X16324286Y-18053000D01*
X16295714Y-18038714D01*
X16238571Y-18038714D01*
X16210000Y-18053000D01*
X16338571Y-18224429D02*
X16310000Y-18238714D01*
X16238571Y-18238714D01*
X16210000Y-18224429D01*
X16195714Y-18195857D01*
X16195714Y-18167286D01*
X16210000Y-18138714D01*
X16238571Y-18124429D01*
X16310000Y-18124429D01*
X16338571Y-18110143D01*
X16438571Y-18038714D02*
X16552857Y-18038714D01*
X16481428Y-17938714D02*
X16481428Y-18195857D01*
X16495714Y-18224429D01*
X16524286Y-18238714D01*
X16552857Y-18238714D01*
X16767143Y-18224429D02*
X16738571Y-18238714D01*
X16681428Y-18238714D01*
X16652857Y-18224429D01*
X16638571Y-18195857D01*
X16638571Y-18081572D01*
X16652857Y-18053000D01*
X16681428Y-18038714D01*
X16738571Y-18038714D01*
X16767143Y-18053000D01*
X16781428Y-18081572D01*
X16781428Y-18110143D01*
X16638571Y-18138714D01*
X17038571Y-18238714D02*
X17038571Y-17938714D01*
X17038571Y-18224429D02*
X17010000Y-18238714D01*
X16952857Y-18238714D01*
X16924286Y-18224429D01*
X16910000Y-18210143D01*
X16895714Y-18181572D01*
X16895714Y-18095857D01*
X16910000Y-18067286D01*
X16924286Y-18053000D01*
X16952857Y-18038714D01*
X17010000Y-18038714D01*
X17038571Y-18053000D01*
X17152857Y-18353000D02*
X17167143Y-18338714D01*
X17195714Y-18295857D01*
X17210000Y-18267286D01*
X17224286Y-18224429D01*
X17238571Y-18153000D01*
X17238571Y-18095857D01*
X17224286Y-18024429D01*
X17210000Y-17981572D01*
X17195714Y-17953000D01*
X17167143Y-17910143D01*
X17152857Y-17895857D01*
X7585000Y-18609000D02*
X7695000Y-18499000D01*
X7585000Y-18389000D01*
X7475000Y-18499000D01*
X7585000Y-18609000D01*
X7967143Y-18363286D02*
X7981428Y-18349000D01*
X8010000Y-18334714D01*
X8081428Y-18334714D01*
X8110000Y-18349000D01*
X8124286Y-18363286D01*
X8138571Y-18391857D01*
X8138571Y-18420429D01*
X8124286Y-18463286D01*
X7952857Y-18634714D01*
X8138571Y-18634714D01*
X8267143Y-18606143D02*
X8281428Y-18620429D01*
X8267143Y-18634714D01*
X8252857Y-18620429D01*
X8267143Y-18606143D01*
X8267143Y-18634714D01*
X8395714Y-18363286D02*
X8410000Y-18349000D01*
X8438571Y-18334714D01*
X8510000Y-18334714D01*
X8538571Y-18349000D01*
X8552857Y-18363286D01*
X8567143Y-18391857D01*
X8567143Y-18420429D01*
X8552857Y-18463286D01*
X8381428Y-18634714D01*
X8567143Y-18634714D01*
X8752857Y-18334714D02*
X8781428Y-18334714D01*
X8810000Y-18349000D01*
X8824286Y-18363286D01*
X8838571Y-18391857D01*
X8852857Y-18449000D01*
X8852857Y-18520429D01*
X8838571Y-18577572D01*
X8824286Y-18606143D01*
X8810000Y-18620429D01*
X8781428Y-18634714D01*
X8752857Y-18634714D01*
X8724286Y-18620429D01*
X8710000Y-18606143D01*
X8695714Y-18577572D01*
X8681428Y-18520429D01*
X8681428Y-18449000D01*
X8695714Y-18391857D01*
X8710000Y-18363286D01*
X8724286Y-18349000D01*
X8752857Y-18334714D01*
X8981428Y-18634714D02*
X8981428Y-18434714D01*
X8981428Y-18463286D02*
X8995714Y-18449000D01*
X9024286Y-18434714D01*
X9067143Y-18434714D01*
X9095714Y-18449000D01*
X9110000Y-18477572D01*
X9110000Y-18634714D01*
X9110000Y-18477572D02*
X9124286Y-18449000D01*
X9152857Y-18434714D01*
X9195714Y-18434714D01*
X9224286Y-18449000D01*
X9238571Y-18477572D01*
X9238571Y-18634714D01*
X9381428Y-18634714D02*
X9381428Y-18434714D01*
X9381428Y-18463286D02*
X9395714Y-18449000D01*
X9424286Y-18434714D01*
X9467143Y-18434714D01*
X9495714Y-18449000D01*
X9510000Y-18477572D01*
X9510000Y-18634714D01*
X9510000Y-18477572D02*
X9524286Y-18449000D01*
X9552857Y-18434714D01*
X9595714Y-18434714D01*
X9624286Y-18449000D01*
X9638571Y-18477572D01*
X9638571Y-18634714D01*
X10224286Y-18320429D02*
X9967143Y-18706143D01*
X10610000Y-18334714D02*
X10638571Y-18334714D01*
X10667143Y-18349000D01*
X10681428Y-18363286D01*
X10695714Y-18391857D01*
X10710000Y-18449000D01*
X10710000Y-18520429D01*
X10695714Y-18577572D01*
X10681428Y-18606143D01*
X10667143Y-18620429D01*
X10638571Y-18634714D01*
X10610000Y-18634714D01*
X10581428Y-18620429D01*
X10567143Y-18606143D01*
X10552857Y-18577572D01*
X10538571Y-18520429D01*
X10538571Y-18449000D01*
X10552857Y-18391857D01*
X10567143Y-18363286D01*
X10581428Y-18349000D01*
X10610000Y-18334714D01*
X10838571Y-18606143D02*
X10852857Y-18620429D01*
X10838571Y-18634714D01*
X10824286Y-18620429D01*
X10838571Y-18606143D01*
X10838571Y-18634714D01*
X11038571Y-18334714D02*
X11067143Y-18334714D01*
X11095714Y-18349000D01*
X11110000Y-18363286D01*
X11124286Y-18391857D01*
X11138571Y-18449000D01*
X11138571Y-18520429D01*
X11124286Y-18577572D01*
X11110000Y-18606143D01*
X11095714Y-18620429D01*
X11067143Y-18634714D01*
X11038571Y-18634714D01*
X11010000Y-18620429D01*
X10995714Y-18606143D01*
X10981428Y-18577572D01*
X10967143Y-18520429D01*
X10967143Y-18449000D01*
X10981428Y-18391857D01*
X10995714Y-18363286D01*
X11010000Y-18349000D01*
X11038571Y-18334714D01*
X11310000Y-18463286D02*
X11281428Y-18449000D01*
X11267143Y-18434714D01*
X11252857Y-18406143D01*
X11252857Y-18391857D01*
X11267143Y-18363286D01*
X11281428Y-18349000D01*
X11310000Y-18334714D01*
X11367143Y-18334714D01*
X11395714Y-18349000D01*
X11410000Y-18363286D01*
X11424286Y-18391857D01*
X11424286Y-18406143D01*
X11410000Y-18434714D01*
X11395714Y-18449000D01*
X11367143Y-18463286D01*
X11310000Y-18463286D01*
X11281428Y-18477572D01*
X11267143Y-18491857D01*
X11252857Y-18520429D01*
X11252857Y-18577572D01*
X11267143Y-18606143D01*
X11281428Y-18620429D01*
X11310000Y-18634714D01*
X11367143Y-18634714D01*
X11395714Y-18620429D01*
X11410000Y-18606143D01*
X11424286Y-18577572D01*
X11424286Y-18520429D01*
X11410000Y-18491857D01*
X11395714Y-18477572D01*
X11367143Y-18463286D01*
X11524286Y-18334714D02*
X11724286Y-18334714D01*
X11595714Y-18634714D01*
X11824286Y-18334714D02*
X11824286Y-18391857D01*
X11938571Y-18334714D02*
X11938571Y-18391857D01*
X12381428Y-18749000D02*
X12367143Y-18734714D01*
X12338571Y-18691857D01*
X12324286Y-18663286D01*
X12310000Y-18620429D01*
X12295714Y-18549000D01*
X12295714Y-18491857D01*
X12310000Y-18420429D01*
X12324286Y-18377572D01*
X12338571Y-18349000D01*
X12367143Y-18306143D01*
X12381428Y-18291857D01*
X12538571Y-18463286D02*
X12510000Y-18449000D01*
X12495714Y-18434714D01*
X12481428Y-18406143D01*
X12481428Y-18391857D01*
X12495714Y-18363286D01*
X12510000Y-18349000D01*
X12538571Y-18334714D01*
X12595714Y-18334714D01*
X12624286Y-18349000D01*
X12638571Y-18363286D01*
X12652857Y-18391857D01*
X12652857Y-18406143D01*
X12638571Y-18434714D01*
X12624286Y-18449000D01*
X12595714Y-18463286D01*
X12538571Y-18463286D01*
X12510000Y-18477572D01*
X12495714Y-18491857D01*
X12481428Y-18520429D01*
X12481428Y-18577572D01*
X12495714Y-18606143D01*
X12510000Y-18620429D01*
X12538571Y-18634714D01*
X12595714Y-18634714D01*
X12624286Y-18620429D01*
X12638571Y-18606143D01*
X12652857Y-18577572D01*
X12652857Y-18520429D01*
X12638571Y-18491857D01*
X12624286Y-18477572D01*
X12595714Y-18463286D01*
X13010000Y-18634714D02*
X13010000Y-18334714D01*
X13138571Y-18634714D02*
X13138571Y-18477572D01*
X13124286Y-18449000D01*
X13095714Y-18434714D01*
X13052857Y-18434714D01*
X13024286Y-18449000D01*
X13010000Y-18463286D01*
X13324286Y-18634714D02*
X13295714Y-18620429D01*
X13281428Y-18606143D01*
X13267143Y-18577572D01*
X13267143Y-18491857D01*
X13281428Y-18463286D01*
X13295714Y-18449000D01*
X13324286Y-18434714D01*
X13367143Y-18434714D01*
X13395714Y-18449000D01*
X13410000Y-18463286D01*
X13424286Y-18491857D01*
X13424286Y-18577572D01*
X13410000Y-18606143D01*
X13395714Y-18620429D01*
X13367143Y-18634714D01*
X13324286Y-18634714D01*
X13595714Y-18634714D02*
X13567143Y-18620429D01*
X13552857Y-18591857D01*
X13552857Y-18334714D01*
X13824286Y-18620429D02*
X13795714Y-18634714D01*
X13738571Y-18634714D01*
X13710000Y-18620429D01*
X13695714Y-18591857D01*
X13695714Y-18477572D01*
X13710000Y-18449000D01*
X13738571Y-18434714D01*
X13795714Y-18434714D01*
X13824286Y-18449000D01*
X13838571Y-18477572D01*
X13838571Y-18506143D01*
X13695714Y-18534714D01*
X13952857Y-18620429D02*
X13981428Y-18634714D01*
X14038571Y-18634714D01*
X14067143Y-18620429D01*
X14081428Y-18591857D01*
X14081428Y-18577572D01*
X14067143Y-18549000D01*
X14038571Y-18534714D01*
X13995714Y-18534714D01*
X13967143Y-18520429D01*
X13952857Y-18491857D01*
X13952857Y-18477572D01*
X13967143Y-18449000D01*
X13995714Y-18434714D01*
X14038571Y-18434714D01*
X14067143Y-18449000D01*
X14181428Y-18749000D02*
X14195714Y-18734714D01*
X14224286Y-18691857D01*
X14238571Y-18663286D01*
X14252857Y-18620429D01*
X14267143Y-18549000D01*
X14267143Y-18491857D01*
X14252857Y-18420429D01*
X14238571Y-18377572D01*
X14224286Y-18349000D01*
X14195714Y-18306143D01*
X14181428Y-18291857D01*
X14724286Y-18749000D02*
X14710000Y-18734714D01*
X14681428Y-18691857D01*
X14667143Y-18663286D01*
X14652857Y-18620429D01*
X14638571Y-18549000D01*
X14638571Y-18491857D01*
X14652857Y-18420429D01*
X14667143Y-18377572D01*
X14681428Y-18349000D01*
X14710000Y-18306143D01*
X14724286Y-18291857D01*
X14838571Y-18434714D02*
X14838571Y-18634714D01*
X14838571Y-18463286D02*
X14852857Y-18449000D01*
X14881428Y-18434714D01*
X14924286Y-18434714D01*
X14952857Y-18449000D01*
X14967143Y-18477572D01*
X14967143Y-18634714D01*
X15152857Y-18634714D02*
X15124286Y-18620429D01*
X15110000Y-18606143D01*
X15095714Y-18577572D01*
X15095714Y-18491857D01*
X15110000Y-18463286D01*
X15124286Y-18449000D01*
X15152857Y-18434714D01*
X15195714Y-18434714D01*
X15224286Y-18449000D01*
X15238571Y-18463286D01*
X15252857Y-18491857D01*
X15252857Y-18577572D01*
X15238571Y-18606143D01*
X15224286Y-18620429D01*
X15195714Y-18634714D01*
X15152857Y-18634714D01*
X15338571Y-18434714D02*
X15452857Y-18434714D01*
X15381428Y-18334714D02*
X15381428Y-18591857D01*
X15395714Y-18620429D01*
X15424286Y-18634714D01*
X15452857Y-18634714D01*
X15781428Y-18434714D02*
X15781428Y-18734714D01*
X15781428Y-18449000D02*
X15810000Y-18434714D01*
X15867143Y-18434714D01*
X15895714Y-18449000D01*
X15910000Y-18463286D01*
X15924286Y-18491857D01*
X15924286Y-18577572D01*
X15910000Y-18606143D01*
X15895714Y-18620429D01*
X15867143Y-18634714D01*
X15810000Y-18634714D01*
X15781428Y-18620429D01*
X16095714Y-18634714D02*
X16067143Y-18620429D01*
X16052857Y-18591857D01*
X16052857Y-18334714D01*
X16338571Y-18634714D02*
X16338571Y-18477572D01*
X16324286Y-18449000D01*
X16295714Y-18434714D01*
X16238571Y-18434714D01*
X16210000Y-18449000D01*
X16338571Y-18620429D02*
X16310000Y-18634714D01*
X16238571Y-18634714D01*
X16210000Y-18620429D01*
X16195714Y-18591857D01*
X16195714Y-18563286D01*
X16210000Y-18534714D01*
X16238571Y-18520429D01*
X16310000Y-18520429D01*
X16338571Y-18506143D01*
X16438571Y-18434714D02*
X16552857Y-18434714D01*
X16481428Y-18334714D02*
X16481428Y-18591857D01*
X16495714Y-18620429D01*
X16524286Y-18634714D01*
X16552857Y-18634714D01*
X16767143Y-18620429D02*
X16738571Y-18634714D01*
X16681428Y-18634714D01*
X16652857Y-18620429D01*
X16638571Y-18591857D01*
X16638571Y-18477572D01*
X16652857Y-18449000D01*
X16681428Y-18434714D01*
X16738571Y-18434714D01*
X16767143Y-18449000D01*
X16781428Y-18477572D01*
X16781428Y-18506143D01*
X16638571Y-18534714D01*
X17038571Y-18634714D02*
X17038571Y-18334714D01*
X17038571Y-18620429D02*
X17010000Y-18634714D01*
X16952857Y-18634714D01*
X16924286Y-18620429D01*
X16910000Y-18606143D01*
X16895714Y-18577572D01*
X16895714Y-18491857D01*
X16910000Y-18463286D01*
X16924286Y-18449000D01*
X16952857Y-18434714D01*
X17010000Y-18434714D01*
X17038571Y-18449000D01*
X17152857Y-18749000D02*
X17167143Y-18734714D01*
X17195714Y-18691857D01*
X17210000Y-18663286D01*
X17224286Y-18620429D01*
X17238571Y-18549000D01*
X17238571Y-18491857D01*
X17224286Y-18420429D01*
X17210000Y-18377572D01*
X17195714Y-18349000D01*
X17167143Y-18306143D01*
X17152857Y-18291857D01*
X7390200Y-18742600D02*
X7695000Y-19047400D01*
X7695000Y-18742600D02*
X7390200Y-19047400D01*
X7695000Y-18895000D02*
G75*
G03*
X7695000Y-18895000I-152400J0D01*
G01*
X7952857Y-18730714D02*
X8138571Y-18730714D01*
X8038571Y-18845000D01*
X8081428Y-18845000D01*
X8110000Y-18859286D01*
X8124286Y-18873572D01*
X8138571Y-18902143D01*
X8138571Y-18973572D01*
X8124286Y-19002143D01*
X8110000Y-19016429D01*
X8081428Y-19030714D01*
X7995714Y-19030714D01*
X7967143Y-19016429D01*
X7952857Y-19002143D01*
X8267143Y-19002143D02*
X8281428Y-19016429D01*
X8267143Y-19030714D01*
X8252857Y-19016429D01*
X8267143Y-19002143D01*
X8267143Y-19030714D01*
X8467143Y-18730714D02*
X8495714Y-18730714D01*
X8524286Y-18745000D01*
X8538571Y-18759286D01*
X8552857Y-18787857D01*
X8567143Y-18845000D01*
X8567143Y-18916429D01*
X8552857Y-18973572D01*
X8538571Y-19002143D01*
X8524286Y-19016429D01*
X8495714Y-19030714D01*
X8467143Y-19030714D01*
X8438571Y-19016429D01*
X8424286Y-19002143D01*
X8410000Y-18973572D01*
X8395714Y-18916429D01*
X8395714Y-18845000D01*
X8410000Y-18787857D01*
X8424286Y-18759286D01*
X8438571Y-18745000D01*
X8467143Y-18730714D01*
X8838571Y-18730714D02*
X8695714Y-18730714D01*
X8681428Y-18873572D01*
X8695714Y-18859286D01*
X8724286Y-18845000D01*
X8795714Y-18845000D01*
X8824286Y-18859286D01*
X8838571Y-18873572D01*
X8852857Y-18902143D01*
X8852857Y-18973572D01*
X8838571Y-19002143D01*
X8824286Y-19016429D01*
X8795714Y-19030714D01*
X8724286Y-19030714D01*
X8695714Y-19016429D01*
X8681428Y-19002143D01*
X8981428Y-19030714D02*
X8981428Y-18830714D01*
X8981428Y-18859286D02*
X8995714Y-18845000D01*
X9024286Y-18830714D01*
X9067143Y-18830714D01*
X9095714Y-18845000D01*
X9110000Y-18873572D01*
X9110000Y-19030714D01*
X9110000Y-18873572D02*
X9124286Y-18845000D01*
X9152857Y-18830714D01*
X9195714Y-18830714D01*
X9224286Y-18845000D01*
X9238571Y-18873572D01*
X9238571Y-19030714D01*
X9381428Y-19030714D02*
X9381428Y-18830714D01*
X9381428Y-18859286D02*
X9395714Y-18845000D01*
X9424286Y-18830714D01*
X9467143Y-18830714D01*
X9495714Y-18845000D01*
X9510000Y-18873572D01*
X9510000Y-19030714D01*
X9510000Y-18873572D02*
X9524286Y-18845000D01*
X9552857Y-18830714D01*
X9595714Y-18830714D01*
X9624286Y-18845000D01*
X9638571Y-18873572D01*
X9638571Y-19030714D01*
X10224286Y-18716429D02*
X9967143Y-19102143D01*
X10610000Y-18730714D02*
X10638571Y-18730714D01*
X10667143Y-18745000D01*
X10681428Y-18759286D01*
X10695714Y-18787857D01*
X10710000Y-18845000D01*
X10710000Y-18916429D01*
X10695714Y-18973572D01*
X10681428Y-19002143D01*
X10667143Y-19016429D01*
X10638571Y-19030714D01*
X10610000Y-19030714D01*
X10581428Y-19016429D01*
X10567143Y-19002143D01*
X10552857Y-18973572D01*
X10538571Y-18916429D01*
X10538571Y-18845000D01*
X10552857Y-18787857D01*
X10567143Y-18759286D01*
X10581428Y-18745000D01*
X10610000Y-18730714D01*
X10838571Y-19002143D02*
X10852857Y-19016429D01*
X10838571Y-19030714D01*
X10824286Y-19016429D01*
X10838571Y-19002143D01*
X10838571Y-19030714D01*
X11138571Y-19030714D02*
X10967143Y-19030714D01*
X11052857Y-19030714D02*
X11052857Y-18730714D01*
X11024286Y-18773572D01*
X10995714Y-18802143D01*
X10967143Y-18816429D01*
X11252857Y-18759286D02*
X11267143Y-18745000D01*
X11295714Y-18730714D01*
X11367143Y-18730714D01*
X11395714Y-18745000D01*
X11410000Y-18759286D01*
X11424286Y-18787857D01*
X11424286Y-18816429D01*
X11410000Y-18859286D01*
X11238571Y-19030714D01*
X11424286Y-19030714D01*
X11610000Y-18730714D02*
X11638571Y-18730714D01*
X11667143Y-18745000D01*
X11681428Y-18759286D01*
X11695714Y-18787857D01*
X11710000Y-18845000D01*
X11710000Y-18916429D01*
X11695714Y-18973572D01*
X11681428Y-19002143D01*
X11667143Y-19016429D01*
X11638571Y-19030714D01*
X11610000Y-19030714D01*
X11581428Y-19016429D01*
X11567143Y-19002143D01*
X11552857Y-18973572D01*
X11538571Y-18916429D01*
X11538571Y-18845000D01*
X11552857Y-18787857D01*
X11567143Y-18759286D01*
X11581428Y-18745000D01*
X11610000Y-18730714D01*
X11824286Y-18730714D02*
X11824286Y-18787857D01*
X11938571Y-18730714D02*
X11938571Y-18787857D01*
X12381428Y-19145000D02*
X12367143Y-19130714D01*
X12338571Y-19087857D01*
X12324286Y-19059286D01*
X12310000Y-19016429D01*
X12295714Y-18945000D01*
X12295714Y-18887857D01*
X12310000Y-18816429D01*
X12324286Y-18773572D01*
X12338571Y-18745000D01*
X12367143Y-18702143D01*
X12381428Y-18687857D01*
X12652857Y-19030714D02*
X12481428Y-19030714D01*
X12567143Y-19030714D02*
X12567143Y-18730714D01*
X12538571Y-18773572D01*
X12510000Y-18802143D01*
X12481428Y-18816429D01*
X12767143Y-18759286D02*
X12781428Y-18745000D01*
X12810000Y-18730714D01*
X12881428Y-18730714D01*
X12910000Y-18745000D01*
X12924286Y-18759286D01*
X12938571Y-18787857D01*
X12938571Y-18816429D01*
X12924286Y-18859286D01*
X12752857Y-19030714D01*
X12938571Y-19030714D01*
X13295714Y-19030714D02*
X13295714Y-18730714D01*
X13424286Y-19030714D02*
X13424286Y-18873572D01*
X13410000Y-18845000D01*
X13381428Y-18830714D01*
X13338571Y-18830714D01*
X13310000Y-18845000D01*
X13295714Y-18859286D01*
X13610000Y-19030714D02*
X13581428Y-19016429D01*
X13567143Y-19002143D01*
X13552857Y-18973572D01*
X13552857Y-18887857D01*
X13567143Y-18859286D01*
X13581428Y-18845000D01*
X13610000Y-18830714D01*
X13652857Y-18830714D01*
X13681428Y-18845000D01*
X13695714Y-18859286D01*
X13710000Y-18887857D01*
X13710000Y-18973572D01*
X13695714Y-19002143D01*
X13681428Y-19016429D01*
X13652857Y-19030714D01*
X13610000Y-19030714D01*
X13881428Y-19030714D02*
X13852857Y-19016429D01*
X13838571Y-18987857D01*
X13838571Y-18730714D01*
X14110000Y-19016429D02*
X14081428Y-19030714D01*
X14024286Y-19030714D01*
X13995714Y-19016429D01*
X13981428Y-18987857D01*
X13981428Y-18873572D01*
X13995714Y-18845000D01*
X14024286Y-18830714D01*
X14081428Y-18830714D01*
X14110000Y-18845000D01*
X14124286Y-18873572D01*
X14124286Y-18902143D01*
X13981428Y-18930714D01*
X14238571Y-19016429D02*
X14267143Y-19030714D01*
X14324286Y-19030714D01*
X14352857Y-19016429D01*
X14367143Y-18987857D01*
X14367143Y-18973572D01*
X14352857Y-18945000D01*
X14324286Y-18930714D01*
X14281428Y-18930714D01*
X14252857Y-18916429D01*
X14238571Y-18887857D01*
X14238571Y-18873572D01*
X14252857Y-18845000D01*
X14281428Y-18830714D01*
X14324286Y-18830714D01*
X14352857Y-18845000D01*
X14467143Y-19145000D02*
X14481428Y-19130714D01*
X14510000Y-19087857D01*
X14524286Y-19059286D01*
X14538571Y-19016429D01*
X14552857Y-18945000D01*
X14552857Y-18887857D01*
X14538571Y-18816429D01*
X14524286Y-18773572D01*
X14510000Y-18745000D01*
X14481428Y-18702143D01*
X14467143Y-18687857D01*
X15010000Y-19145000D02*
X14995714Y-19130714D01*
X14967143Y-19087857D01*
X14952857Y-19059286D01*
X14938571Y-19016429D01*
X14924286Y-18945000D01*
X14924286Y-18887857D01*
X14938571Y-18816429D01*
X14952857Y-18773572D01*
X14967143Y-18745000D01*
X14995714Y-18702143D01*
X15010000Y-18687857D01*
X15124286Y-18830714D02*
X15124286Y-19030714D01*
X15124286Y-18859286D02*
X15138571Y-18845000D01*
X15167143Y-18830714D01*
X15210000Y-18830714D01*
X15238571Y-18845000D01*
X15252857Y-18873572D01*
X15252857Y-19030714D01*
X15438571Y-19030714D02*
X15410000Y-19016429D01*
X15395714Y-19002143D01*
X15381428Y-18973572D01*
X15381428Y-18887857D01*
X15395714Y-18859286D01*
X15410000Y-18845000D01*
X15438571Y-18830714D01*
X15481428Y-18830714D01*
X15510000Y-18845000D01*
X15524286Y-18859286D01*
X15538571Y-18887857D01*
X15538571Y-18973572D01*
X15524286Y-19002143D01*
X15510000Y-19016429D01*
X15481428Y-19030714D01*
X15438571Y-19030714D01*
X15624286Y-18830714D02*
X15738571Y-18830714D01*
X15667143Y-18730714D02*
X15667143Y-18987857D01*
X15681428Y-19016429D01*
X15710000Y-19030714D01*
X15738571Y-19030714D01*
X16067143Y-18830714D02*
X16067143Y-19130714D01*
X16067143Y-18845000D02*
X16095714Y-18830714D01*
X16152857Y-18830714D01*
X16181428Y-18845000D01*
X16195714Y-18859286D01*
X16210000Y-18887857D01*
X16210000Y-18973572D01*
X16195714Y-19002143D01*
X16181428Y-19016429D01*
X16152857Y-19030714D01*
X16095714Y-19030714D01*
X16067143Y-19016429D01*
X16381428Y-19030714D02*
X16352857Y-19016429D01*
X16338571Y-18987857D01*
X16338571Y-18730714D01*
X16624286Y-19030714D02*
X16624286Y-18873572D01*
X16610000Y-18845000D01*
X16581428Y-18830714D01*
X16524286Y-18830714D01*
X16495714Y-18845000D01*
X16624286Y-19016429D02*
X16595714Y-19030714D01*
X16524286Y-19030714D01*
X16495714Y-19016429D01*
X16481428Y-18987857D01*
X16481428Y-18959286D01*
X16495714Y-18930714D01*
X16524286Y-18916429D01*
X16595714Y-18916429D01*
X16624286Y-18902143D01*
X16724286Y-18830714D02*
X16838571Y-18830714D01*
X16767143Y-18730714D02*
X16767143Y-18987857D01*
X16781428Y-19016429D01*
X16810000Y-19030714D01*
X16838571Y-19030714D01*
X17052857Y-19016429D02*
X17024286Y-19030714D01*
X16967143Y-19030714D01*
X16938571Y-19016429D01*
X16924286Y-18987857D01*
X16924286Y-18873572D01*
X16938571Y-18845000D01*
X16967143Y-18830714D01*
X17024286Y-18830714D01*
X17052857Y-18845000D01*
X17067143Y-18873572D01*
X17067143Y-18902143D01*
X16924286Y-18930714D01*
X17324286Y-19030714D02*
X17324286Y-18730714D01*
X17324286Y-19016429D02*
X17295714Y-19030714D01*
X17238571Y-19030714D01*
X17210000Y-19016429D01*
X17195714Y-19002143D01*
X17181428Y-18973572D01*
X17181428Y-18887857D01*
X17195714Y-18859286D01*
X17210000Y-18845000D01*
X17238571Y-18830714D01*
X17295714Y-18830714D01*
X17324286Y-18845000D01*
X17438571Y-19145000D02*
X17452857Y-19130714D01*
X17481428Y-19087857D01*
X17495714Y-19059286D01*
X17510000Y-19016429D01*
X17524286Y-18945000D01*
X17524286Y-18887857D01*
X17510000Y-18816429D01*
X17495714Y-18773572D01*
X17481428Y-18745000D01*
X17452857Y-18702143D01*
X17438571Y-18687857D01*
X7296220Y-19130410D02*
X7695000Y-19529190D01*
X7695000Y-19130410D02*
X7296220Y-19529190D01*
X7495610Y-19130410D02*
X7495610Y-19529190D01*
X7296220Y-19329800D02*
X7695000Y-19329800D01*
X7952857Y-19165514D02*
X8138571Y-19165514D01*
X8038571Y-19279800D01*
X8081428Y-19279800D01*
X8110000Y-19294086D01*
X8124286Y-19308372D01*
X8138571Y-19336943D01*
X8138571Y-19408372D01*
X8124286Y-19436943D01*
X8110000Y-19451229D01*
X8081428Y-19465514D01*
X7995714Y-19465514D01*
X7967143Y-19451229D01*
X7952857Y-19436943D01*
X8267143Y-19436943D02*
X8281428Y-19451229D01*
X8267143Y-19465514D01*
X8252857Y-19451229D01*
X8267143Y-19436943D01*
X8267143Y-19465514D01*
X8424286Y-19465514D02*
X8481428Y-19465514D01*
X8510000Y-19451229D01*
X8524286Y-19436943D01*
X8552857Y-19394086D01*
X8567143Y-19336943D01*
X8567143Y-19222657D01*
X8552857Y-19194086D01*
X8538571Y-19179800D01*
X8510000Y-19165514D01*
X8452857Y-19165514D01*
X8424286Y-19179800D01*
X8410000Y-19194086D01*
X8395714Y-19222657D01*
X8395714Y-19294086D01*
X8410000Y-19322657D01*
X8424286Y-19336943D01*
X8452857Y-19351229D01*
X8510000Y-19351229D01*
X8538571Y-19336943D01*
X8552857Y-19322657D01*
X8567143Y-19294086D01*
X8710000Y-19465514D02*
X8767143Y-19465514D01*
X8795714Y-19451229D01*
X8810000Y-19436943D01*
X8838571Y-19394086D01*
X8852857Y-19336943D01*
X8852857Y-19222657D01*
X8838571Y-19194086D01*
X8824286Y-19179800D01*
X8795714Y-19165514D01*
X8738571Y-19165514D01*
X8710000Y-19179800D01*
X8695714Y-19194086D01*
X8681428Y-19222657D01*
X8681428Y-19294086D01*
X8695714Y-19322657D01*
X8710000Y-19336943D01*
X8738571Y-19351229D01*
X8795714Y-19351229D01*
X8824286Y-19336943D01*
X8838571Y-19322657D01*
X8852857Y-19294086D01*
X8981428Y-19465514D02*
X8981428Y-19265514D01*
X8981428Y-19294086D02*
X8995714Y-19279800D01*
X9024286Y-19265514D01*
X9067143Y-19265514D01*
X9095714Y-19279800D01*
X9110000Y-19308372D01*
X9110000Y-19465514D01*
X9110000Y-19308372D02*
X9124286Y-19279800D01*
X9152857Y-19265514D01*
X9195714Y-19265514D01*
X9224286Y-19279800D01*
X9238571Y-19308372D01*
X9238571Y-19465514D01*
X9381428Y-19465514D02*
X9381428Y-19265514D01*
X9381428Y-19294086D02*
X9395714Y-19279800D01*
X9424286Y-19265514D01*
X9467143Y-19265514D01*
X9495714Y-19279800D01*
X9510000Y-19308372D01*
X9510000Y-19465514D01*
X9510000Y-19308372D02*
X9524286Y-19279800D01*
X9552857Y-19265514D01*
X9595714Y-19265514D01*
X9624286Y-19279800D01*
X9638571Y-19308372D01*
X9638571Y-19465514D01*
X10224286Y-19151229D02*
X9967143Y-19536943D01*
X10610000Y-19165514D02*
X10638571Y-19165514D01*
X10667143Y-19179800D01*
X10681428Y-19194086D01*
X10695714Y-19222657D01*
X10710000Y-19279800D01*
X10710000Y-19351229D01*
X10695714Y-19408372D01*
X10681428Y-19436943D01*
X10667143Y-19451229D01*
X10638571Y-19465514D01*
X10610000Y-19465514D01*
X10581428Y-19451229D01*
X10567143Y-19436943D01*
X10552857Y-19408372D01*
X10538571Y-19351229D01*
X10538571Y-19279800D01*
X10552857Y-19222657D01*
X10567143Y-19194086D01*
X10581428Y-19179800D01*
X10610000Y-19165514D01*
X10838571Y-19436943D02*
X10852857Y-19451229D01*
X10838571Y-19465514D01*
X10824286Y-19451229D01*
X10838571Y-19436943D01*
X10838571Y-19465514D01*
X11138571Y-19465514D02*
X10967143Y-19465514D01*
X11052857Y-19465514D02*
X11052857Y-19165514D01*
X11024286Y-19208372D01*
X10995714Y-19236943D01*
X10967143Y-19251229D01*
X11410000Y-19165514D02*
X11267143Y-19165514D01*
X11252857Y-19308372D01*
X11267143Y-19294086D01*
X11295714Y-19279800D01*
X11367143Y-19279800D01*
X11395714Y-19294086D01*
X11410000Y-19308372D01*
X11424286Y-19336943D01*
X11424286Y-19408372D01*
X11410000Y-19436943D01*
X11395714Y-19451229D01*
X11367143Y-19465514D01*
X11295714Y-19465514D01*
X11267143Y-19451229D01*
X11252857Y-19436943D01*
X11524286Y-19165514D02*
X11724286Y-19165514D01*
X11595714Y-19465514D01*
X11824286Y-19165514D02*
X11824286Y-19222657D01*
X11938571Y-19165514D02*
X11938571Y-19222657D01*
X12381428Y-19579800D02*
X12367143Y-19565514D01*
X12338571Y-19522657D01*
X12324286Y-19494086D01*
X12310000Y-19451229D01*
X12295714Y-19379800D01*
X12295714Y-19322657D01*
X12310000Y-19251229D01*
X12324286Y-19208372D01*
X12338571Y-19179800D01*
X12367143Y-19136943D01*
X12381428Y-19122657D01*
X12467143Y-19165514D02*
X12667143Y-19165514D01*
X12538571Y-19465514D01*
X12752857Y-19165514D02*
X12952857Y-19165514D01*
X12824286Y-19465514D01*
X13295714Y-19465514D02*
X13295714Y-19165514D01*
X13424286Y-19465514D02*
X13424286Y-19308372D01*
X13410000Y-19279800D01*
X13381428Y-19265514D01*
X13338571Y-19265514D01*
X13310000Y-19279800D01*
X13295714Y-19294086D01*
X13610000Y-19465514D02*
X13581428Y-19451229D01*
X13567143Y-19436943D01*
X13552857Y-19408372D01*
X13552857Y-19322657D01*
X13567143Y-19294086D01*
X13581428Y-19279800D01*
X13610000Y-19265514D01*
X13652857Y-19265514D01*
X13681428Y-19279800D01*
X13695714Y-19294086D01*
X13710000Y-19322657D01*
X13710000Y-19408372D01*
X13695714Y-19436943D01*
X13681428Y-19451229D01*
X13652857Y-19465514D01*
X13610000Y-19465514D01*
X13881428Y-19465514D02*
X13852857Y-19451229D01*
X13838571Y-19422657D01*
X13838571Y-19165514D01*
X14110000Y-19451229D02*
X14081428Y-19465514D01*
X14024286Y-19465514D01*
X13995714Y-19451229D01*
X13981428Y-19422657D01*
X13981428Y-19308372D01*
X13995714Y-19279800D01*
X14024286Y-19265514D01*
X14081428Y-19265514D01*
X14110000Y-19279800D01*
X14124286Y-19308372D01*
X14124286Y-19336943D01*
X13981428Y-19365514D01*
X14238571Y-19451229D02*
X14267143Y-19465514D01*
X14324286Y-19465514D01*
X14352857Y-19451229D01*
X14367143Y-19422657D01*
X14367143Y-19408372D01*
X14352857Y-19379800D01*
X14324286Y-19365514D01*
X14281428Y-19365514D01*
X14252857Y-19351229D01*
X14238571Y-19322657D01*
X14238571Y-19308372D01*
X14252857Y-19279800D01*
X14281428Y-19265514D01*
X14324286Y-19265514D01*
X14352857Y-19279800D01*
X14467143Y-19579800D02*
X14481428Y-19565514D01*
X14510000Y-19522657D01*
X14524286Y-19494086D01*
X14538571Y-19451229D01*
X14552857Y-19379800D01*
X14552857Y-19322657D01*
X14538571Y-19251229D01*
X14524286Y-19208372D01*
X14510000Y-19179800D01*
X14481428Y-19136943D01*
X14467143Y-19122657D01*
X15010000Y-19579800D02*
X14995714Y-19565514D01*
X14967143Y-19522657D01*
X14952857Y-19494086D01*
X14938571Y-19451229D01*
X14924286Y-19379800D01*
X14924286Y-19322657D01*
X14938571Y-19251229D01*
X14952857Y-19208372D01*
X14967143Y-19179800D01*
X14995714Y-19136943D01*
X15010000Y-19122657D01*
X15124286Y-19265514D02*
X15124286Y-19465514D01*
X15124286Y-19294086D02*
X15138571Y-19279800D01*
X15167143Y-19265514D01*
X15210000Y-19265514D01*
X15238571Y-19279800D01*
X15252857Y-19308372D01*
X15252857Y-19465514D01*
X15438571Y-19465514D02*
X15410000Y-19451229D01*
X15395714Y-19436943D01*
X15381428Y-19408372D01*
X15381428Y-19322657D01*
X15395714Y-19294086D01*
X15410000Y-19279800D01*
X15438571Y-19265514D01*
X15481428Y-19265514D01*
X15510000Y-19279800D01*
X15524286Y-19294086D01*
X15538571Y-19322657D01*
X15538571Y-19408372D01*
X15524286Y-19436943D01*
X15510000Y-19451229D01*
X15481428Y-19465514D01*
X15438571Y-19465514D01*
X15624286Y-19265514D02*
X15738571Y-19265514D01*
X15667143Y-19165514D02*
X15667143Y-19422657D01*
X15681428Y-19451229D01*
X15710000Y-19465514D01*
X15738571Y-19465514D01*
X16067143Y-19265514D02*
X16067143Y-19565514D01*
X16067143Y-19279800D02*
X16095714Y-19265514D01*
X16152857Y-19265514D01*
X16181428Y-19279800D01*
X16195714Y-19294086D01*
X16210000Y-19322657D01*
X16210000Y-19408372D01*
X16195714Y-19436943D01*
X16181428Y-19451229D01*
X16152857Y-19465514D01*
X16095714Y-19465514D01*
X16067143Y-19451229D01*
X16381428Y-19465514D02*
X16352857Y-19451229D01*
X16338571Y-19422657D01*
X16338571Y-19165514D01*
X16624286Y-19465514D02*
X16624286Y-19308372D01*
X16610000Y-19279800D01*
X16581428Y-19265514D01*
X16524286Y-19265514D01*
X16495714Y-19279800D01*
X16624286Y-19451229D02*
X16595714Y-19465514D01*
X16524286Y-19465514D01*
X16495714Y-19451229D01*
X16481428Y-19422657D01*
X16481428Y-19394086D01*
X16495714Y-19365514D01*
X16524286Y-19351229D01*
X16595714Y-19351229D01*
X16624286Y-19336943D01*
X16724286Y-19265514D02*
X16838571Y-19265514D01*
X16767143Y-19165514D02*
X16767143Y-19422657D01*
X16781428Y-19451229D01*
X16810000Y-19465514D01*
X16838571Y-19465514D01*
X17052857Y-19451229D02*
X17024286Y-19465514D01*
X16967143Y-19465514D01*
X16938571Y-19451229D01*
X16924286Y-19422657D01*
X16924286Y-19308372D01*
X16938571Y-19279800D01*
X16967143Y-19265514D01*
X17024286Y-19265514D01*
X17052857Y-19279800D01*
X17067143Y-19308372D01*
X17067143Y-19336943D01*
X16924286Y-19365514D01*
X17324286Y-19465514D02*
X17324286Y-19165514D01*
X17324286Y-19451229D02*
X17295714Y-19465514D01*
X17238571Y-19465514D01*
X17210000Y-19451229D01*
X17195714Y-19436943D01*
X17181428Y-19408372D01*
X17181428Y-19322657D01*
X17195714Y-19294086D01*
X17210000Y-19279800D01*
X17238571Y-19265514D01*
X17295714Y-19265514D01*
X17324286Y-19279800D01*
X17438571Y-19579800D02*
X17452857Y-19565514D01*
X17481428Y-19522657D01*
X17495714Y-19494086D01*
X17510000Y-19451229D01*
X17524286Y-19379800D01*
X17524286Y-19322657D01*
X17510000Y-19251229D01*
X17495714Y-19208372D01*
X17481428Y-19179800D01*
X17452857Y-19136943D01*
X17438571Y-19122657D01*
M02*
