M48
; DRILL file {KiCad (5.1.9)-1} date 05/31/21 01:10:31
; FORMAT={-:-/ absolute / metric / decimal}
; #@! TF.CreationDate,2021-05-31T01:10:31+01:00
; #@! TF.GenerationSoftware,Kicad,Pcbnew,(5.1.9)-1
; #@! TF.FileFunction,NonPlated,1,2,NPTH
FMAT,2
METRIC
T1C0.650
T2C1.500
T3C1.750
T4C1.800
T5C2.200
T6C3.048
T7C3.988
%
G90
G05
T1
X300.105Y-39.205
X305.885Y-39.205
T2
X354.97Y-49.325
X354.97Y-54.175
T3
X80.445Y-74.525
X82.826Y-131.675
X82.826Y-150.725
X85.207Y-93.575
X87.589Y-112.625
X90.605Y-74.525
X92.32Y-131.7
X92.986Y-131.675
X92.986Y-150.725
X95.367Y-93.575
X97.749Y-112.625
X99.495Y-74.525
X102.48Y-131.7
X104.257Y-131.675
X106.639Y-150.725
X109.02Y-93.575
X109.655Y-74.525
X113.782Y-112.625
X114.417Y-131.675
X116.799Y-150.725
X118.545Y-74.525
X119.18Y-93.575
X123.307Y-131.675
X123.942Y-112.625
X128.07Y-93.575
X128.705Y-74.525
X130.451Y-150.725
X132.832Y-112.625
X133.468Y-131.675
X137.595Y-74.525
X138.23Y-93.575
X140.611Y-150.725
X142.357Y-131.675
X142.993Y-112.625
X147.12Y-93.575
X147.755Y-74.525
X151.882Y-112.625
X152.517Y-131.675
X156.645Y-74.525
X157.28Y-93.575
X161.407Y-131.675
X162.042Y-112.625
X166.17Y-93.575
X166.805Y-74.525
X170.933Y-112.625
X171.567Y-131.675
X175.695Y-74.525
X176.33Y-93.575
X180.457Y-131.675
X181.093Y-112.625
X185.22Y-93.575
X185.855Y-74.525
X189.982Y-112.625
X190.617Y-131.675
X194.745Y-74.525
X195.38Y-93.575
X199.507Y-131.675
X200.142Y-112.625
X201.889Y-150.725
X204.27Y-93.575
X204.905Y-74.525
X209.032Y-112.625
X209.667Y-131.675
X212.049Y-150.725
X213.795Y-74.525
X214.43Y-93.575
X218.557Y-131.675
X219.192Y-112.625
X223.32Y-93.575
X223.955Y-74.525
X228.082Y-112.625
X228.718Y-131.675
X232.845Y-74.525
X233.48Y-93.575
X237.607Y-131.675
X238.242Y-112.625
X242.37Y-93.575
X243.005Y-74.525
X247.132Y-112.625
X247.767Y-131.675
X251.895Y-74.525
X252.53Y-93.575
X256.657Y-131.675
X257.292Y-112.625
X261.42Y-93.575
X262.055Y-74.525
X266.183Y-112.625
X266.817Y-131.675
X270.945Y-74.525
X271.58Y-93.575
X273.326Y-150.725
X275.707Y-131.675
X276.342Y-112.625
X280.47Y-93.575
X281.105Y-74.525
X283.486Y-150.725
X285.232Y-112.625
X285.868Y-131.675
X289.995Y-74.525
X290.63Y-93.575
X294.757Y-131.675
X295.392Y-112.625
X297.139Y-150.725
X299.52Y-93.575
X300.155Y-74.525
X304.282Y-112.625
X304.917Y-131.675
X307.299Y-150.725
X309.045Y-74.525
X309.68Y-93.575
X314.442Y-112.625
X318.57Y-93.575
X319.205Y-74.525
X320.951Y-150.725
X323.332Y-112.625
X328.73Y-93.575
X330.476Y-131.675
X331.111Y-150.725
X333.493Y-112.625
X335.22Y-112.6
X337.62Y-74.525
X340.636Y-131.675
X342.37Y-93.55
X344.764Y-150.725
X345.38Y-112.6
X347.78Y-74.525
X349.844Y-97.995
X349.844Y-108.155
X352.53Y-93.55
X354.924Y-150.725
T4
X358.0Y-49.025
X358.0Y-54.475
T5
X87.0Y-38.1
X99.75Y-155.5
X101.8Y-84.1
X218.5Y-84.0
X218.5Y-154.0
X314.1Y-84.1
X338.0Y-155.5
X353.05Y-36.5
T6
X85.494Y-124.715
X109.306Y-124.715
X156.969Y-157.71
X256.969Y-157.71
X323.65Y-124.69
X328.394Y-105.615
X330.794Y-67.54
X347.462Y-124.69
X352.206Y-105.615
X354.606Y-67.54
X356.829Y-91.137
X356.829Y-115.013
T7
X85.494Y-139.955
X85.525Y-74.525
X87.906Y-131.675
X87.906Y-150.725
X90.287Y-93.575
X92.669Y-112.625
X97.4Y-131.7
X104.575Y-74.525
X109.306Y-139.955
X109.337Y-131.675
X111.719Y-150.725
X114.1Y-93.575
X118.862Y-112.625
X123.625Y-74.525
X128.387Y-131.675
X133.15Y-93.575
X135.531Y-150.725
X137.912Y-112.625
X142.675Y-74.525
X147.438Y-131.675
X152.2Y-93.575
X156.963Y-112.625
X156.969Y-142.47
X161.725Y-74.525
X166.487Y-131.675
X171.25Y-93.575
X176.012Y-112.625
X180.775Y-74.525
X185.537Y-131.675
X190.3Y-93.575
X195.062Y-112.625
X199.825Y-74.525
X204.587Y-131.675
X206.969Y-150.725
X209.35Y-93.575
X214.112Y-112.625
X218.875Y-74.525
X223.637Y-131.675
X228.4Y-93.575
X233.162Y-112.625
X237.925Y-74.525
X242.688Y-131.675
X247.45Y-93.575
X252.212Y-112.625
X256.969Y-142.47
X256.975Y-74.525
X261.738Y-131.675
X266.5Y-93.575
X271.262Y-112.625
X276.025Y-74.525
X278.406Y-150.725
X280.787Y-131.675
X285.55Y-93.575
X290.312Y-112.625
X295.075Y-74.525
X299.837Y-131.675
X302.219Y-150.725
X304.6Y-93.575
X309.363Y-112.625
X314.125Y-74.525
X323.65Y-93.575
X323.65Y-139.93
X326.031Y-150.725
X328.394Y-120.855
X328.412Y-112.625
X330.794Y-82.78
X335.556Y-131.675
X340.3Y-112.6
X341.589Y-91.137
X341.589Y-115.013
X342.7Y-74.525
X347.45Y-93.55
X347.462Y-139.93
X349.844Y-103.075
X349.844Y-150.725
X352.206Y-120.855
X354.606Y-82.78
T0
M30
